<svg xmlns="http://www.w3.org/2000/svg" width="616.76" height="590.72" xmlns:xlink="http://www.w3.org/1999/xlink">
  <path fill="#BFB5A9" d="M617.65-2701.4c-.82-.38-9.47 11.93-7.66 17.08.6 1.9 6.5 5.1 8.5 3.87 10.5-6.43 11.3-41.04-.9-20.95z"/>
  <path fill="#3D2D1E" d="M152.85-2376.1c4.75 2.9 19.04 4.53 22.26 0 4.8-6.7-26.7-52.63-29.2-61.2-7.5-26.3 18-89.22-.4-109.4-1.2-1.38-57.3 16.57-64.3 33.28-7.8 18.94 25.9 49.75 27.2 52 17 28.9 32.5 63.7 44.5 85.3z"/>
  <path fill="#BFB5A9" d="M125.66-2587.4c-16.4 1.74-25.72 25.87-30.14 38.9-5.1 15.04-11.36 38.36-2.54 53.25 2.57 4.34 6.85 7.9 11.18 10.37 2.58 1.47 5.3 2.63 8.13 3.5 7.2 2.23 2.5 2.63 6.6 7.63 2.8 3.47 6.9.6 9-2.07 6.5-8.55 5.5.8 10.5 4.4 7.3 5.36 7.4-9.22 11.3-10.1 1.2-.05 3.4 9.33 8.4 8.58 4.1-.57 5.8-6.4 5-9.93.1-.2.3-7 2.6-2.35 1.6 3.25 6.3 8.84 10.6 7.4 3.2-1.27 3.6-4.93 3.2-7.96-1.2-8.23-1.5-5.65 6.9-11.3 15.3-10.28 15.1-22.9 14.2-39.7-2.2-42.7-36.6-54.7-75.2-50.62-24.6 2.6 82.8-8.76 0 0z"/>
  <path fill="#3D2D1E" d="M383.42-2513.03c1.85 17.93 3.92 41.82 6.8 57.18 1.42 7.63 6.2 22.55 6.8 30.3.84 11.1-4.6 41.63 1.85 50.73 2.7 3.8 17.78 1.93 21.63-.67 28.62-19.3 6.8-135.5 6.18-137.9-.6-2.4-44.45-11-43.26.4zM58.3-2552.2c2.88-26.04 12.87 5.02 12.95 5.62.07.6 1.43 12.24 1.86 16.32 1.9 17.8-12.1 62.26-15.5 65.96-1.9 2.1-4.8-51.2-4.8-53.45-.3-8.72 4.7-25.78 5.6-34.46z"/>
  <path fill="#664926" d="M68.94-2616.25c2.32 10.66 9.9 41.4 8.66 71.85-.6 14.5-21.54 32.76-19.66 47.14 5.8 44.27 6.06 108.02 18.57 130.73 3.9 3.3 19.3 3.6 22.6-.3.9-23.65-16.1-35.7-11.6-80.2 2.4-23.42 22.1-54.68 32.9-75.58 11-21.2 55.4-37 69.6-25.7 6.8 5.4 3.7 31.1 8.5 38.3 8.3 12.2 39.3 16.1 54 18.2 36.6 5.2 122.7-26 151.2-2.5 7.4 44.5 9.6 104.6 12.3 132.4 3.7 3.9 28.8 8.7 27.3-.8-5.8-36.5-7.4-59-.9-80.6 3.1-10.3 2.2-29.9 2.8-41.3 8-.2 47.9-13.8 64.4-38.8 9.8-14.9 31.9-53.7 49.4-53.6 17.6.1 54.1 5.8 69.2 16.2 13.1 9 35-4.9 33.2-17.7-.3-1.9-20.3-45.6-24.1-62-.8-3.2.6-10.3-1.3-13-18.7-27.2-15.6-50.1-25.5-48.2-12.8 2.4-10.2 11.9-11.3 9.4-1.3-1.7-5.7-13.9-12-15.1-11.4-2.2-11.1 16.2-9.4 19.6-111 4.6-100.4-8.4-135.6-14.6-59.8-10.6-197.9 6.6-256.7-8.5-19.5-5-45-8.3-64.6-8.8-32.4-.8-42.4 14.7-51 27.1-1 1.4-10.3 11.6-11.6 15.9-.4 1.4 7.2 31 2.8 77.4-6.9 72 13.3 61.8 10.5 51.8-5-18.2-2.3-69.7-2.2-69.4z"/>
  <path fill="#BFB5A9" d="M624.84-2734.4c-.65-.62-.26.1 0 .6 11.43 21.33-21.67 36.36-21.68 41.83 0 2 4.65 7.42 6.8 6.5 7.85-3.42 34.42-32.22 14.88-48.92z"/>
  <linearGradient id="a" x1="356.89" x2="356.89" y1="-2794.3" y2="-2185.93" gradientUnits="userSpaceOnUse">
    <stop offset="0" stop-color="#FFF"/>
    <stop offset="1"/>
  </linearGradient>
  <path fill="url(#a)" d="M660.96-2578.12c-.28-1.83-20.27-45.55-24.1-61.93-.76-3.17.6-10.3-1.24-12.98-7.67-11.15-11.66-21.56-14.4-29.85 4.02-5.03 5.9-14.4 5.3-20.05 6.03-10.13 8.78-22.52-1.68-31.46-.65-.6-.25.1 0 .6 7.4 13.8-3.82 25-12.67 32.6-.63-.1-1.3-.1-2.05 0-12.78 2.4-10.2 11.9-11.28 9.4-1.28-1.6-5.73-13.8-12.06-15-11.47-2.2-11.16 16.3-9.4 19.6-111.06 4.7-100.43-8.4-135.6-14.6-59.8-10.6-197.95 6.7-256.77-8.4-19.5-5-44.9-8.2-64.6-8.7-32.4-.8-42.3 14.8-51 27.1-1 1.5-10.2 11.7-11.5 15.9-.4 1.5 7.2 31 2.8 77.5-1.6 17.6-1.7 30.2-.9 39.2-.5 1.7-1 4-1.4 7.3-.9 8.7-5.8 25.8-5.6 34.5.1 2.3 3 55.6 4.9 53.5.7-.7 1.8-3.2 3.2-6.7 3.6 40.3 5.6 86 15.8 104.5 3.9 3.3 19.3 3.6 22.6-.3 1-23.6-16-35.7-11.6-80.2.9-8.6 4.2-18.3 8.5-28.2 6.2 7.5 11.9 13 12.4 13.9 17 28.9 32.5 63.7 44.5 85.3 4.8 2.9 19.1 4.5 22.3 0 4.8-6.7-26.8-52.6-29.2-61.2-2.8-10-.9-25.3 1.6-41.6.7-1.4 1.4-2.4 2.3-2.6 1.3-.1 3.5 9.3 8.4 8.6 4.2-.6 5.8-6.4 5.1-10 .2-.2.4-7 2.6-2.3 1.6 3.2 6.4 8.8 10.7 7.4 3.3-1.3 3.6-4.9 3.2-8-1.2-8.2-1.5-5.6 6.9-11.3 5.9-4 9.5-8.4 11.7-13.2l.3.4c8.3 12.2 39.3 16.1 54 18.2 30.4 4.4 94.9-16.4 132.2-10.1 1.6 15.8 3.4 33.6 5.7 45.9 1.4 7.6 6.2 22.6 6.8 30.3.8 11.1-4.6 41.6 1.8 50.7 1.9 2.7 10 2.6 15.9 1.3l1 11.8c3.7 4 28.9 8.7 27.3-.8-5.9-36.4-7.4-59-.9-80.6 3.1-10.2 2.2-29.8 2.8-41.3 8-.1 47.9-13.8 64.4-38.7 9.8-14.9 31.9-53.7 49.4-53.5 17.6.1 54.1 5.8 69.2 16.2 13 9 35-4.8 33.1-17.6zM77.6-2544.4c-.17 4.2-2.05 8.7-4.57 13.33-.42-3.8-1.3-11.43-1.65-14.35 0-.2-.04-.4-.07-.62v-.54c0-.05-.1-.36-.2-.84-4.8-18.68-2.1-69.13-2-68.83 2.3 10.66 9.9 41.4 8.7 71.85z"/>
  <path fill="#BF9582" d="M379.35-1657.3c-2.34-.3-12.94 63-14.9 63.66s-21.93 10.4-18.92 15.78c7.17-1.43 12.97-6.97 17.07-5.2.37 10.33 2 16.55 22.8 27.2.86-3.15-1.8-9.7-7.7-13.27 6.1-1.54 34.73 3.57 42.58 3.1-12.77-14.72-35.78-14.12-37.37-16.36-8.4-11.8-1.1-49.7 7.3-59.1-.6-4.3-6.4-15.2-10.8-15.8z"/>
  <path fill="#BF9582" d="M409.84-1669.73c-2.35.14-.82 64.3-2.63 65.3s-19.5 14.37-15.5 19.07c6.8-2.75 11.4-9.28 15.8-8.34 2.3 10.1 5.1 15.9 27.6 22.43.3-3.25-3.6-9.2-10-11.58 5.7-2.66 34.8 5.5 42.4 3.57-15.3-12.06-37.8-15.7-39.8-17.57-10.5-10.1-13.6-62.15-7.2-72.9-1.4-4.12-6-.23-10.4.02z"/>
  <path fill="#D8D8D8" d="M571.7-2016.6c1.07-2.54 9.6-16.86 8.07-22.68-1.87-7.2-15.4-17.56-22.62-19.33-16.6-4.1-53.86 3.9-66.65 15.3-49.98 44.3-27.07 69.4-37.74 90.9-6.2 12.4-15.5 38-27.08 45.7-10.17 6.7-12.52 10.1-48.16 15.6-43.33-6.7-64.33 17-84 2.3-3-2.3-1.1-11.5 0-15 18-58.4 2.28-161.9-36-152.4-8 2 8.33 27.6 5.57 37.7-4-17.4-20.9-27.7-32.6-21.1-21.4-4-11.4 14-11.4 14-16.7 2-23.4 21.6-22.7 24-17.4-13.7-35.4 22.6-27.4 24-5.7 2.3-4.7 5.8-5.5 8.6-31.5 1.6-19.7 23.3-17.9 30-39 11.3-5.6 33.2 3.2 42.7-3.6 10.8-2.6 33.6 20.8 50.6-12.4 13.3-10.6 19.9-6 26.6 4.9 7.3 21.5 15.4 28.6 20.6 9.6 57.4 103.6 166.4 183.3 139.4 4.1 3.9 9 17.8 14.6 17.3 26.4-2.1 23.7-18.8 32.6-20.7 40.3-8.3 131.9-89.3 149-140.7 13.5-40.8-28.1-134.9-19.7-177 1.9-9.7 15.2-28 19.1-37z"/>
  <path fill="#936565" d="M538.52-2005.1c3.5 28 17.85 21.45 25.5 19 23.38-2 20.25-27.4 11.63-34.26-10.42-8.3-19.63 8.5-37.13 15.25z"/>
  <path fill="#BF9582" d="M570.74-2018.7c1.87-.44 6.24-1.8 8.22-1.48 3.94.63 5.3.5 15.7 1.7.87.1 2.86 1.85 3.36 1.12 1.2-9.36-9.8-18.35-15.97-18.88-4.07-.35-10.37 6.92-12.34 10.5-.6 1.25-.5 6.1 1.1 7.04z"/>
  <path fill="#936565" d="M550.4-2060.18c-1-4.27-.45-16.52 3.93-16.3 2.63.12 8.47-1.9 9.68-1.08 1.8 1.22 1.1 5.12 1 5.62-.1.3-.2.97.1.64 1.4-1.62 3.9-2.75 5.2-1.95 2 1.28.6 3.22-.4 5.87-.1.23.1.93.3.7 2-2.08 4.8-3.75 6.4-2.25 2.3 2.15-.6 6.82-1.9 9.5-.1.2.5-.05.7-.1 3.3-.5 3.5-1.3 5.5-.33 5.8 2.8 14.6 18.86 10.3 23.6-2.6 2.9-11.8-.55-15.5-1.85-7.6-2.7-23.1-14.3-24.9-22.1z"/>
  <linearGradient id="b" x1="362.74" x2="362.74" y1="-2077.76" y2="-1555.86" gradientUnits="userSpaceOnUse">
    <stop offset="0" stop-color="#FFF" stop-opacity="0"/>
    <stop offset="1" stop-color="#3F4568"/>
  </linearGradient>
  <path fill="url(#b)" d="M585.6-2035.24c2.23.27 4.17.1 5.17-1 4.34-4.76-4.45-20.83-10.25-23.62-2.03-.98-2.23-.17-5.55.35-.2 0-.73.2-.64 0 1.3-2.7 4.25-7.4 1.94-9.5-1.62-1.5-4.4.1-6.35 2.2-.22.2-.33-.5-.24-.7 1.03-2.7 2.44-4.6.47-5.9-1.22-.8-3.76.3-5.14 1.9-.2.3-.1-.4 0-.7.2-.5.8-4.4-.9-5.6-1.2-.9-7 1.2-9.6 1-4.4-.2-4.9 12-3.9 16.3.1.2.1.4.2.6-18.4-1.2-48.7 6.2-60 16.2-50 44.3-27.1 69.4-37.7 90.9-6.2 12.4-15.5 38-27.1 45.7-10.1 6.7-12.5 10.1-48.1 15.6-43.3-6.6-64.3 17-84 2.4-3-2.3-1.1-11.5 0-15 18-58.4 2.3-161.9-36-152.4-8 2 8.3 27.6 5.6 37.7-4-17.4-20.9-27.7-32.6-21.1-21.3-4-11.3 14-11.3 14-16.6 2-23.3 21.6-22.6 24-17.3-13.7-35.3 22.6-27.3 24-5.7 2.3-4.7 5.8-5.5 8.6-31.5 1.6-19.7 23.3-17.8 30-39 11.3-5.6 33.2 3.2 42.7-3.6 10.8-2.5 33.6 20.8 50.6-12.3 13.3-10.5 19.9-6 26.6 4.9 7.3 21.6 15.4 28.7 20.7 9.4 57.6 103.4 166.6 183 139.6.8.8 1.7 1.9 2.5 3.2-3.5 10.5-12.1 61.1-13.9 61.7-1.9.7-21.9 10.4-18.9 15.8 7.2-1.4 13-6.9 17.1-5.2.4 10.4 2 16.6 22.8 27.2.9-3.1-1.8-9.7-7.7-13.2 6.1-1.5 34.7 3.6 42.6 3.1-12.7-14.7-35.7-14.1-37.3-16.3-8.4-11.8-1.2-49.2 7-58.9h.6c8.5-.7 14-3 17.9-5.7-.3 18.6-.1 41.9-1.2 42.5-1.8 1-19.6 14.4-15.6 19.1 6.7-2.7 11.4-9.2 15.8-8.3 2.3 10.1 5.1 15.9 27.5 22.5.2-3.2-3.6-9.2-10.1-11.6 5.7-2.6 34.7 5.5 42.4 3.6-15.3-12.1-37.9-15.7-39.8-17.6-8.2-7.8-11.9-41.1-10.1-60.5 1.6-2.3 3.2-4.1 5.8-4.6 40.3-8.3 131.9-89.3 149-140.7 13.5-40.8-28.1-134.9-19.7-177 .2-1.3.6-2.6 1.2-4.1 3.7-.1 7.4-1.6 10.2-2.5 22.9-2 20.3-26.5 12-33.9 1.1-.2 2.1-.3 2.9-.2 3.9.6 5.3.5 15.7 1.7.8.1 2.8 1.8 3.3 1.1.9-7.8-6.4-15.3-12.5-17.9zm-4.48-.95c-.43.1-.88.3-1.35.5.05-.2.08-.5.1-.7.42.1.83.3 1.25.4z" opacity=".3"/>
  <path fill="#AF9D95" d="M200.9-1023.45c-.06 2.4-14.65 60.9-8 80 10.95 31.5 92.5 92.88 89.33 95.33-6 4.67-48.8 3.76-50.13.43s-85.2-60.4-119.2-83.7c-33.87-23.2-46.07-144.3-10-164 26.7-14.5 98.7 41.6 98 72zm193.33 68.65c2.3 1.38-6 54.83 15.33 108.26 2.78 6.97-29.33 1.6-30 0s-44.3-59.24-37.33-80.25c4.65-14 39.32-35.5 52-28zm195.34-242c7.24-11.97 39.66-30.32 53.58-31.12 6.03-.34-9.5 18.6-10.92 24.47-2.45 10.23 1.34 47 .67 43.66s-50.24-25.5-43.33-37z"/>
  <path fill="#D8BBAF" d="M160.9-1021.45c-8.5 3.9-18.1 21.9-21.33 30.66-6.33 17.2-9.1 54.5-7.33 72.7 3 31 28.58 83.3 35.58 125-3.06 3.4-20.67 3.6-24.25 3.7-14-4.9-34.67-16.6-48-84.6-7-13.8-21.38-41.6-25.33-56.6-3.16-11.9.72-38.1-4.67-49.3-2.4-5-13.45-20.2-16-15.3-2.5 4.9 5.54 30.1 2.6 37-.4 1-1.75 2.6-2.35 1.6-9.08-15.6-10.62-30-11.58-39.9-80.67-119-54-178.7-5.34-214 176.67-128 277.6-14.9 370-22 210-16 240 74.7 276.67 108.7 8.6 8 34.8 14.2 40 24.7 24.66-16.6 28 38.7-4.67 46-3.6 4.6-16.42 6.2-22 8-22.57 7.2-67.84 22.2-91.33 25.4-44.74 6-131.34 34-175.34 30.7-13.45-1-24.9 37.5-33.33 48-43.54 54.3-27.57 58-20 123.3-10.02 3.9-33.8 1-37.12-23.7-.63-4.6-14.87-56.6-15.54-78.3-.67-21.3-12.88-52.9-14.67-83.3-34-10.6-105.34-14.6-144.67-18z"/>
  <path fill="#AF9D95" d="M532.9-1129.42c3.27-.66 37.55-32.38 46-46.6 9.27-15.63-7.64-79.25-20.33-71.43-21.67 13.33-15.07 38.6-17.34 51-3.15 17.18-21.33 69.66-8.33 67.03z"/>
  <linearGradient id="c" x1="362.74" x2="362.74" y1="-1272.17" y2="-789.45" gradientUnits="userSpaceOnUse">
    <stop offset="0" stop-color="#FFF" stop-opacity="0"/>
    <stop offset=".19" stop-color="#D9C0C0" stop-opacity=".19"/>
    <stop offset=".41" stop-color="#B07C7C" stop-opacity=".41"/>
    <stop offset=".61" stop-color="#8F4747" stop-opacity=".61"/>
    <stop offset=".78" stop-color="#782020" stop-opacity=".78"/>
    <stop offset=".92" stop-color="#690909" stop-opacity=".92"/>
    <stop offset="1" stop-color="#640000"/>
  </linearGradient>
  <path fill="url(#c)" d="M719.57-1099.45c-5.2-10.54-31.4-16.68-40-24.67-13.63-12.64-26.34-33.1-47.7-53-.54-9.92-.84-21.32.36-26.33 1.4-5.88 16.95-24.8 10.92-24.47-11.45.66-35.4 13.2-47.58 24.3-5.14-2.88-10.63-5.64-16.5-8.23-4.24-20.37-13.1-40.17-20.5-35.6-9.85 6.05-13.85 14.58-15.5 23.24-34.96-9.1-80.23-13.2-140.17-8.6-92.4 7-193.33-106-370 22-48.67 35.2-75.33 94.9 5.33 214 .96 9.9 2.5 24.3 11.6 39.9.6 1 1.93-.6 2.35-1.6 2.93-6.9-5.12-32.2-2.6-37 2.54-4.9 13.58 10.3 16 15.3 5.38 11.1 1.5 37.3 4.65 49.3 3.95 15 18.34 42.8 25.34 56.6 13.33 68 34 79.7 48 84.6 3.58-.1 21.2-.3 24.25-3.7-7-41.8-32.6-94-35.6-125v-.1c39.12 26.8 98.76 67.7 99.88 70.5 1.34 3.3 44.13 4.2 50.13-.4 3.16-2.5-78.38-63.9-89.33-95.4-5.58-16 3.8-59.9 7-74.9 37.3 3 81.17 7.2 105.66 14.9 1.8 30.4 14 62 14.67 83.3.68 21.6 14.92 73.6 15.55 78.3 3.33 24.6 27.1 27.5 37.12 23.7-2.6-22.5-6.2-37.7-8.03-50.2 7.72 12.1 14.44 21.1 14.7 21.7.66 1.6 32.78 6.9 30 0-15.72-39.4-15.36-78.8-15-97.3 8.26-13 19.08-46.6 31.66-45.6 44 3.3 130.6-24.7 175.34-30.7 23.48-3.2 68.76-18.1 91.33-25.4 5.57-1.8 18.4-3.4 22-8 32.67-7.3 29.33-62.6 4.67-46z" opacity=".3"/>
  <path fill="#58385E" d="M579.02-365.92c-41.5-84.37-141.87-16.44-231.9-10.15-211.15 14.76-215.76 177.96-106.5 223.14 141.14 58.37 381.64-125.08 338.4-213z"/>
  <path fill="#5E7628" d="M580.5-362.6c4.98 10.05 4.75 33.03 2.38 41.97-5.88 22.14-56.4 72.27-64.66 64.95-15.73-12.5.05-63.3-11.55-79.8-11-15.6-68.62-16.92-67.33-35.96 8.3-3.7 45.32-10.48 53-23.07 2.03-3.4-2.68-7.3-.1-10.2 4.67-5.3 21.96-4.8 28.7-2.8 2.38.7 5.82 5.2 8.3 5.5 3.6.4 10.3-2.7 13.83-1.8 4.58 1.2 12.1 8.8 16.82 9.3 7 .8 16.3-13.8 22.9-11.3 6.9 2.6-3.9 11 10.4 27.6-1.4 7.1-11.1 8.2-12.8 15.3z"/>
  <linearGradient id="d" x1="381.68" x2="381.68" y1="-408.83" y2="-141.68" gradientUnits="userSpaceOnUse">
    <stop offset="0" stop-color="#FFF" stop-opacity="0"/>
    <stop offset=".14" stop-color="#D5D4E2" stop-opacity=".14"/>
    <stop offset=".37" stop-color="#9490B6" stop-opacity=".37"/>
    <stop offset=".58" stop-color="#605B93" stop-opacity=".58"/>
    <stop offset=".76" stop-color="#3A3479" stop-opacity=".76"/>
    <stop offset=".91" stop-color="#231D6A" stop-opacity=".91"/>
    <stop offset="1" stop-color="#1B1464"/>
  </linearGradient>
  <path fill="url(#d)" d="M593.32-377.9c-14.3-16.6-3.52-25.07-10.44-27.67-6.64-2.5-15.94 12.1-23 11.3-4.7-.54-12.23-8.12-16.8-9.34-1.08-.3-2.44-.2-3.92 0-5.75-2-11.8-3.2-18.16-3.9-.02 0-.05 0-.07-.1-5.42-1.7-17.7-2.3-24.7.3-44.8 4.5-98.6 27.5-149.1 31-211.16 14.8-215.77 178-106.5 223.1C352.4-107 526.5-212.5 572.63-302c5.1-7.1 8.88-13.8 10.25-18.92 2.37-9 2.6-31.9-2.38-42 1.76-7.04 11.44-8.18 12.82-15.3z" opacity=".4"/>
  <path fill="#EE1B08" d="M325.57-266.42c0 74-68.17 133.62-142.13 131-75.53-2.66-130.2-57-130.2-131s61.33-133.54 149.38-133.54c74 0 122.95 59.53 122.95 133.54z"/>
  <path fill="#7D9D38" d="M191.32-339.67c-1.97 1.6-7.4-.05-9.75-1.25-2.5-1.3-4.96-7.3-7.75-7.75-6.93-1.13-26.18 11.26-28.58 11.25-14.92 0-101.42-24.25-107.34 10.67-.06-39.67 71.23-11.92 89.34-21.33 4.58-13.84-54.17-44.34-49.17-61.1 7.4 8.57 13 14.26 31 19.5 20 5.85 25.75 28.76 43.5 17.6 8.75-5.5-8.5-30.84-1.33-41.34 11.08 9.25 15.67 58.2 19.46 49.5 4.62-10.63 21.06-12.98 32.37-31.13 7.27-11.65 6.75-28.62 12.5-37.12 6.17-9.1 7.9-8.2 9-8-.87 1.13-1.1-.2-7 9.75-5.16 8.73-1.72 26-8 38.63-8.26 16.7-25.77 28.7-26.13 37.8-.18 4.4 5.2 7.9 7.88 14.4z"/>
  <g opacity=".5">
    <defs>
      <path id="e" d="M325.57-266.42c0 74-68.17 133.62-142.13 131-75.53-2.66-130.2-57-130.2-131s61.33-133.54 149.38-133.54c74 0 122.95 59.53 122.95 133.54z" opacity=".5"/>
    </defs>
    <clipPath id="g">
      <use xlink:href="#e" overflow="visible"/>
    </clipPath>
    <radialGradient id="f" cx="122.37" cy="-310.31" r="201.02" gradientTransform="matrix(.9288 0 0 1 38.08 0)" gradientUnits="userSpaceOnUse">
      <stop offset="0" stop-color="#FFF" stop-opacity="0"/>
      <stop offset=".19" stop-color="#C0C0C0" stop-opacity=".19"/>
      <stop offset=".41" stop-color="#7C7C7C" stop-opacity=".41"/>
      <stop offset=".61" stop-color="#474747" stop-opacity=".61"/>
      <stop offset=".78" stop-color="#202020" stop-opacity=".78"/>
      <stop offset=".92" stop-color="#090909" stop-opacity=".92"/>
      <stop offset="1"/>
    </radialGradient>
    <path fill="url(#f)" d="M-52.26-490.8h408v361h-408z" clip-path="url(#g)"/>
  </g>
  <path fill="#A5C44C" d="M504.4-198.56l21.92-.8 42.42.55v-8l3.33-8.5-12.67-1.5-3.33-3.7 6-1.7-1.5-10.9-60.33 10.1"/>
  <path fill="#DD7236" d="M87.07-170.4c-34.66 11.6-21 43.92-2.33 43.6 34.76-.63 94.5 5.86 156-3.68 139.66-21.67 282.43-9.5 270-82.33-9.34-54.7-96.34-21.7-200.67 4-51.2 12.5-106.5 20.5-157.67 29-21.63 3.5-46.18 3-65.33 9.4z"/>
  <linearGradient id="h" x1="312.3" x2="327.08" y1="-217.64" y2="-133.81" gradientUnits="userSpaceOnUse">
    <stop offset="0" stop-color="#FFF" stop-opacity="0"/>
    <stop offset=".08" stop-color="#F8E7E7" stop-opacity=".08"/>
    <stop offset=".33" stop-color="#E5A3A6" stop-opacity=".33"/>
    <stop offset=".56" stop-color="#D56E72" stop-opacity=".56"/>
    <stop offset=".75" stop-color="#CA474C" stop-opacity=".75"/>
    <stop offset=".9" stop-color="#C33035" stop-opacity=".9"/>
    <stop offset="1" stop-color="#C1272D"/>
  </linearGradient>
  <path fill="url(#h)" d="M559.4-216.8l-3.33-3.68 6-1.67-1.5-10.83-53.38 9c-19.4-38.42-100.9-8.5-197.2 15.17-51.2 12.5-106.5 20.5-157.7 29-21.7 3.5-46.2 3-65.4 9.4-34.7 11.6-21 43.9-2.4 43.6 34.7-.7 94.5 5.8 156-3.7 129.9-20.2 262.6-11.1 270.4-68.3l15.2-.6 42.4.5v-8l3.3-8.5-12.7-1.5z" opacity=".2"/>
  <path fill="#437013" d="M498.76 590.33c5.78-3.45 42.95-41.2 42.9-56.8-.04-6.8-8.9-25.04-6.36-31.45 2.96-7.38 4.03-28.77 5.32-40.94 4.9-46.27-298.9-346.8-324.3-438.35-7.8 53 43.5 92.8 111.23 205.6C288.9 178.3 145.4 39.7 118 0c-26.53 13.65 46.62 78.18 52.82 107.03-15.07-15.57-60.88-53.74-76.3-66.54-19.36 9.5 17.57 65.6 11 80-17.17-24.3-34.66-64.1-48.18-84.9-22.32 8.3 63.98 166.9 62.32 182.5-.74 7-61.2-53.3-119.66-39.5 95.16 39 88 41.8 102.8 61.3C282.92 477.2 403.9 559 427.04 567.3c31.1 11.02 30.63 2.34 45.32 7.7 5.73 2.1 21.16 18.32 26.4 15.2z"/>
  <path fill="#FEC02D" d="M527.1 488c2.55-2.3 4.35-4.07 4.35-4.07 1.7-2.4 2-5.34 1.1-7.9 1.57-1.47 2.58-2.47 2.58-2.47 2.78-3.93 1.86-9.36-2.07-12.15l-.74-.5c-.45-.3-1.07-.4-1.8-.2.5-3.3-.98-6.8-4.02-8.7l-.78-.5c-.24-.1-.53-.2-.85-.2-.04-2.9-1.48-5.7-4.1-7.3l-.78-.4c-.7-.3-1.5-.3-2.5.1.4-3.3-1-6.7-4.1-8.6l-.8-.5c-.3-.1-.6-.2-1-.2 0-2.9-1.5-5.7-4.1-7.4l-.8-.5c-.2-.1-.5-.2-.8-.2-.6-1.9-1.8-3.6-3.7-4.8l-.8-.5-.4-.1c-.4-2.3-1.6-4.4-3.6-5.8l-.7-.5c-.3-.2-.6-.3-1-.3.1-2.9-1.1-5.8-3.7-7.6l-.8-.5c-.5-.3-1.1-.3-1.8-.2-.3-2.3-1.5-4.5-3.6-6l-.8-.5c-.3-.2-.6-.3-1-.3.1-2.9-1.1-5.8-3.7-7.6l-.8-.5c-.5-.3-1.1-.4-1.9-.2-.3-2.3-1.5-4.6-3.6-6l-.8-.6c-.4-.3-1-.3-1.8-.2.5-3.3-.9-6.7-4-8.6l-.8-.5c-.2-.1-.5-.2-.8-.2-.1-2.8-1.5-5.7-4.1-7.3l-.8-.5c-.6-.3-1.5-.3-2.5.1.4-3.3-1-6.7-4-8.6l-.8-.5c-.3-.2-.6-.2-1-.2 0-2.9-1.5-5.7-4.1-7.4l-.8-.5c-.3-.1-.5-.2-.8-.2-.6-1.9-1.8-3.6-3.7-4.8l-.8-.4c-.4-.2-.8-.3-1.2-.3-.3-2.6-1.7-5.1-4.1-6.6l-.8-.5c-.3-.2-.6-.2-1-.2 0-2.9-1.5-5.7-4.2-7.3l-.8-.5c-.2-.1-.5-.2-.9-.2-.08-2.9-1.5-5.7-4.17-7.3l-.8-.5c-.5-.3-1.1-.3-1.9-.1-.4-2.3-1.8-4.5-4-5.8l-.8-.5c-.3-.2-.6-.2-.9-.2-.1-2.9-1.5-5.7-4.2-7.3l-.8-.5c-.6-.4-1.5-.3-2.6.1-.2-2.8-1.9-5.5-4.6-6.92l-.8-.4c-.26-.14-.5-.2-.87-.2-.2-2.9-1.9-5.6-4.6-7l-.8-.5c-.6-.33-1.5-.2-2.5.2.2-3.3-1.5-6.63-4.6-8.3l-.8-.42c-.6-.3-1.2-.2-2 0-.6-2.3-2.1-4.4-4.4-5.6l-.8-.4c-.27-.1-.5-.2-.78-.2-.7-1.9-2.1-3.5-4-4.5l-.8-.4c-.3-.14-.6-.2-.9-.2-.4-2.82-2.1-5.4-4.8-6.8l-.8-.4c-.3-.1-.6-.2-1-.1-.3-2.9-2.1-5.6-4.8-6.92l-.9-.4c-.5-.26-1.1-.2-1.8 0-.7-2.25-2.25-4.23-4.5-5.34l-.85-.4c-.3-.16-.6-.2-1-.17-.3-2.9-2-5.53-4.8-6.9l-.8-.4c-.57-.24-1.2-.2-1.9.07-.7-2.2-2.2-4.2-4.5-5.4l-.88-.4c-.43-.2-1-.2-1.7 0l-.1-.1c-.1-3.3-2.1-6.4-5.3-7.7l-.84-.4c-.3-.1-.56-.1-.9-.1-.5-2.8-2.4-5.3-5.23-6.5l-.86-.4c-.6-.2-1.3-.2-2 .2l-.5-.5c-.4-3.1-2.3-5.9-5.3-7.1l-.9-.4c-.3-.1-.6-.1-.94-.1-.5-2.9-2.4-5.4-5.3-6.6l-.8-.4c-.2 0-.5-.1-.7-.1-.9-1.8-2.4-3.3-4.4-4.1l-.78-.5c-.3-.1-.87.05-1.1-.1-.8-2.4-2.5-4.7-5.2-5.75l-.8-.3c-.3-.1-.7-.1-1-.1-.5-2.8-2.4-5.4-5.3-6.5l-.9-.4c-.3-.1-.6-.1-.9-.1-.5-2.8-2.4-5.3-5.3-6.5l-.86-.33c-.5-.2-1.15-.1-1.9.2-.8-2.3-2.5-4.2-4.84-5.1l-.86-.4c-.3-.1-.6-.1-1-.1-.5-2.8-2.4-5.4-5.2-6.54l-.9-.4c-.6-.3-1.44-.1-2.4.44l-.2-.2c-.7-2.65-2.74-4.9-5.6-5.9l-.8-.26c-.3-.1-.6-.1-.9-.1-.7-2.8-2.7-5.2-5.67-6.2l-.8-.3c-.5-.2-1.2-.05-1.9.35l-.6-.4c-.5-3.05-2.6-5.73-5.7-6.8l-.86-.3c-.5-.2-1.2-.03-1.9.37-.9-2.2-2.75-4-5.2-4.83l-.87-.3c-.2-.1-.5-.1-.7-.07-1-1.8-2.6-3.2-4.7-3.9l-.8-.3c-.4-.1-.9-.1-1.4.1-1.2-2.5-3.5-4.47-6.5-4.96-1.2-2.5-3.6-4.3-6.6-4.7l-.8-.1c-1-3.1-3.6-5.44-7-5.9l-.9-.13c-.3-.02-.64 0-1 .18-1.2-2.6-3.64-4.6-6.7-5.04l-.9-.1c-.3 0-.6 0-.9.1-1.2-2.6-3.65-4.6-6.7-5l-.9-.1c-.6 0-1.2.2-1.8.7-1.35-1.93-3.46-3.4-6-3.7l-.9-.1c-.3-.05-.67 0-1 .15-1.2-2.6-3.67-4.6-6.75-5l-.9-.1c-.7-.1-1.5.3-2.3 1.2-1.34-2.5-3.9-4.3-7-4.6l-.9-.1c-.43-.1-.9.1-1.4.5-.9-2.3-2.73-4.2-5.3-5.1l-.83-.3c-1.3-.5-3.3 1-5.3 3.2-1-1.1-2.2-2-3.7-2.5l-.9-.3c-1.6-.6-4 1.5-6.5 4.4-.9-.88-1.9-1.5-3.2-2l-.8-.3c-1-.3-2.2.3-3.6 1.4-.8-1.1-1.8-2-3.1-2.7l-.8-.4c-4.3-2.1-17.7 16.4-17.7 16.4-.4 1-.4 2.1-.2 3.3-2.4 1.94-3.9 3.9-3.5 5.3l.3.9c.2.5.4 1 .62 1.5-3.8 2.63-6.9 5.5-6.3 7.4l.2.9c.3.9.7 1.7 1.25 2.5-1.7 1.5-2.6 3-2.3 4.1l.3.9c.3.7.6 1.5 1 2.1-.5.6-.8 1.2-.8 1.8l.1.9c.2 2.2 1.2 4.14 2.6 5.57-.13.3-.24.5-.3.7l-.1.9c-.5 3.7 1.2 7.1 4.2 8.8-.58.6-.9 1.1-.9 1.7l-.06.9c0 3.1 1.5 5.8 3.9 7.4-.9.7-1.4 1.5-1.4 2.2l.1.9c.1 3.15 1.9 5.8 4.4 7.2-.2.3-.3.7-.23 1v.9c.1 2.55 1.4 4.8 3.2 6.3-.56.6-.87 1.15-.84 1.7l.1.9c.2 3.1 1.9 5.8 4.4 7.2-.2.3-.2.6-.2.9v.9c.1 3.1 1.9 5.7 4.4 7.2-.2.3-.3.6-.2.9l.03.9c.1 3.4 2.2 6.3 5.1 7.6l.08.8c.1 3 1.7 5.5 4.1 7 .2 3 1.9 5.5 4.3 6.9-.2.5-.3.9-.2 1.4l.2.85c.5 2.1 1.7 3.9 3.4 5.1-.1.23-.1.5 0 .7l.2.9c.6 2.6 2.2 4.5 4.3 5.7-.5.7-.7 1.3-.56 1.9l.2.9c.8 3.5 3.6 5.94 6.87 6.6-.6.8-1 1.6-.8 2.3l.2.8c.7 3 2.9 5.3 5.7 6.2-.1.3-.1.6 0 .9l.2.9c.7 3 2.9 5.2 5.6 6.2-.7.9-1 1.8-.8 2.5l.3.9c.9 3 3.2 5.1 6 5.9-.1.33-.1.7 0 1l.2.9c.8 2.4 2.5 4.3 4.6 5.3-.4.7-.5 1.3-.3 1.9l.3.83c.9 2.97 3.2 5.1 6 5.88-.1.3-.1.6 0 .9l.3.9c.9 3 3.2 5.1 6 5.9 0 .4-.1.7 0 1l.3.9c.9 2.8 2.9 4.7 5.4 5.7-.1.44-.2.85-.1 1.2l.28.9c.6 2.1 2 3.7 3.7 4.8-.1.3-.1.5 0 .8l.27.86c1 3 3.3 5.1 6.1 5.8-.1.3-.1.7 0 1l.3.8c1.1 3.4 4 5.7 7.3 6.1-.6.9-.9 1.7-.7 2.3l.3.9c.9 3 3.27 5.1 6 5.9v.9l.3.8c1.1 3.5 4 5.8 7.4 6.2-.3.6-.4 1.2-.2 1.8l.4.8c.9 2.4 2.8 4.1 5 5-.3.7-.4 1.3-.2 1.9l.3.9c1.1 2.9 3.6 4.82 6.5 5.4-.05.33-.05.7.06 1l.3.83c.9 2.3 2.7 4.1 4.9 4.9-.3.7-.4 1.3-.2 1.8l.3.86c1.1 2.9 3.6 4.9 6.4 5.45-.1.4 0 .7.1 1l.4.9c1.1 2.87 3.5 4.8 6.3 5.4 0 .3 0 .6.1.9l.4.9c.84 2 2.35 3.5 4.15 4.4 0 .3 0 .5.1.7l.3.9c1 2.4 2.98 4.1 5.2 4.9-.3.7-.4 1.4-.2 1.92l.38.85c1.4 3.3 4.5 5.3 7.88 5.4-.56 1-.76 1.8-.5 2.4l.4.9c1.2 2.9 3.7 4.8 6.55 5.3 0 .3 0 .6.1.84l.4.8c1.2 2.87 3.7 4.7 6.5 5.26-.5 1-.7 1.9-.3 2.6l.4.8c1.33 2.8 4 4.5 6.9 4.8 0 .36 0 .7.2 1l.4.8c1.1 2.3 3.1 3.84 5.4 4.5-.3.7-.3 1.4-.1 1.9l.4.8c1.3 2.8 4 4.5 6.9 4.8 0 .34 0 .64.1.9l.4.8c1.4 2.8 4.1 4.5 6.93 4.8 0 .37 0 .7.2.98l.4.8c1.2 2.5 3.6 4.2 6.2 4.7-.1.4 0 .8.1 1.2l.4.8c1 1.9 2.6 3.3 4.5 4.1 0 .2.1.5.2.7l.4.8c1.4 2.8 4.1 4.5 6.9 4.8 0 .35 0 .7.18 1l.4.8c1.4 2.85 4.2 4.6 7.14 4.8l.7.7c-.27.7-.3 1.3-.07 1.8l.5.8c1.4 2.8 4 4.5 6.9 4.8 0 .3 0 .6.2.8l.4.87c1.4 2.7 4 4.4 6.9 4.7l1.2 1.1c0 .24.1.5.2.7l.5.8c1.24 2.2 3.3 3.6 5.6 4.17l.06.1c-.2.7-.2 1.3.1 1.8l.5.8c1.6 2.7 4.3 4.23 7.2 4.34 0 .3 0 .7.2 1l.4.8c1.3 2.2 3.35 3.6 5.64 4.1-.2.7-.2 1.3.1 1.8l.4.8c1.6 2.7 4.3 4.2 7.2 4.3 0 .3.05.7.2.9l.45.8c1.24 2.18 3.25 3.58 5.5 4.1l.1.4.4.8c1 2 2.6 3.38 4.43 4.16 0 .22 0 .5.1.7l.4.8c1.4 2.8 4.1 4.5 7 4.8-.05.4 0 .7.14 1l.4.8c1.6 3.2 4.9 5 8.2 4.82-.5 1-.6 1.8-.3 2.4l.4.8c1.4 2.8 4 4.5 6.9 4.8 0 .3 0 .6.2.9l.4.8c1.6 3.2 6.1 1.53 9.5 1.4-.2.7-.2 1.32.08 1.8l.5.8c2.4 4.2 10.08 4.5 14.25 2.1 0 0 1.1-.9 2.7-2.3 2.5 1.1 5.5 1.1 8-.38 0 0 .6 1.1 4.5-2.9 1.1-.12 2.1-.5 3-1l.9-.72c.7-.4 1.36-.8 2-1.3l.7.8c2.9 1.2 9.2-6.8 13.17-12.36l.95 1.1c3.42 1.7 12.7-9.8 16.2-14.5l.1.1c4.3 2.1 17.7-16.4 17.7-16.4.5-1.1.8-2.3.85-3.5 5.6-3.2 14.7-15.72 14.7-15.72 1.4-3 1-6.4-.8-8.9z"/>
  <defs>
    <path id="i" d="M469.2 549.33c6.72-17.3 53.65-47.3 53.52-66.64-.42-66.4-315.68-434.4-397.45-364.4C45.04 187 434.37 639.1 469.2 549.2z"/>
  </defs>
  <clipPath id="j">
    <use xlink:href="#i" overflow="visible"/>
  </clipPath>
  <g fill="#FFE8CA" opacity=".5" clip-path="url(#j)">
    <path d="M165.48 172.26c1.8-3.37-.2-7.94-4.45-10.2l-.8-.42c-4.26-2.26-16.08 11.67-16.08 11.67-1.8 3.4 5.26 10.7 5.26 10.7 4.3 2.3 16.1-11.7 16.1-11.7zm-35.22-11.7c-3.8 1.43-8.27-1.06-9.96-5.57l-.32-.9c-1.68-4.5 14.75-14.9 14.75-14.9 3.8-1.4 10.27 6.4 10.27 6.4 1.7 4.5-14.74 14.8-14.74 14.8z"/>
    <path d="M160.68 132.05c2.5-4.12 1.18-9.47-2.93-11.97l-.8-.48c-4.1-2.5-19.1 14.7-19.1 14.7-2.5 4.1 3.72 12.43 3.72 12.43 4.1 2.5 19.1-14.68 19.1-14.68z"/>
    <path d="M161.3 151.16c2.8-3.93 1.86-9.37-2.06-12.15l-.75-.5c-4-2.8-20.1 13.3-20.1 13.3-2.8 3.9 2.8 12.7 2.8 12.7 3.9 2.8 20.1-13.3 20.1-13.3zm14.52 85.64c2.3-4.2.75-9.5-3.47-11.82l-.8-.43c-4.23-2.3-18.43 15.54-18.43 15.54-2.3 4.2 4.27 12.2 4.27 12.2 4.2 2.3 18.4-15.6 18.4-15.6z"/>
    <path d="M184.18 226.1c4.47-1.78 9.6.53 11.46 5.18l.36.9c1.86 4.63-17.48 16.77-17.48 16.77-4.47 1.8-11.82-6.06-11.82-6.06-1.86-4.7 17.48-16.8 17.48-16.8zm40.12 77.1c-3.56 1.2-7.82-1.3-9.5-5.57l-.33-.82c-1.68-4.2 13.64-13.2 13.64-13.2 3.6-1.2 9.9 6.4 9.9 6.4 1.7 4.3-13.6 13.2-13.6 13.2z"/>
    <path d="M236.23 311.2c1.9-3.3 0-7.8-4.23-10l-.8-.43c-4.25-2.2-16.6 11.55-16.6 11.55-1.9 3.33 5.05 10.44 5.05 10.44 4.24 2.2 16.58-11.55 16.58-11.55z"/>
    <path d="M204.06 335.33c-4.4 1.72-9.53-.26-11.47-4.42l-.4-.8c-2-4.1 17-15.6 17-15.6 4.4-1.7 11.8 5.3 11.8 5.3 1.9 4.2-17 15.6-17 15.6zm224.1 55.13c-4.48 1.54-9.5-.66-11.26-4.9l-.33-.8c-1.74-4.25 17.77-14.86 17.77-14.86 4.48-1.53 11.58 5.72 11.58 5.72 1.74 4.24-17.77 14.84-17.77 14.84z"/>
    <path d="M416.48 396.7c-2.36 3.87-.73 8.96 3.63 11.35l.9.46c4.4 2.4 18.9-13.8 18.9-13.8 2.4-3.8-4.4-11.8-4.4-11.8-4.3-2.4-18.8 13.8-18.8 13.8zm50.12 60.72c2.26-3.1.93-7.9-2.95-10.73l-.74-.6c-3.8-2.9-17.5 9.3-17.5 9.3-2.2 3.1 3.7 11.2 3.7 11.2 3.9 2.8 17.6-9.3 17.6-9.3z"/>
    <path d="M471.37 471.14c-3.97.87-8.03-2.23-9.07-6.93l-.2-.8c-1.03-4.7 16.7-12.6 16.7-12.6 3.97-.8 9.26 7.9 9.26 7.9 1.03 4.7-16.7 12.6-16.7 12.6z"/>
    <path d="M505.5 447.2c3.06-3.73 2.52-9.22-1.2-12.27l-.7-.58c-3.73-3.06-21 11.84-21 11.84-3.05 3.7 1.92 12.8 1.92 12.8 3.72 3 21-11.9 21-11.9z"/>
    <path d="M503.44 466.2c3.3-3.5 3.16-9-.33-12.3l-.6-.65c-3.5-3.3-21.8 10.33-21.8 10.33-3.3 3.5 1 12.95 1 12.95 3.5 3.3 21.8-10.33 21.8-10.33zm-25.7 49.38c2.87-3.85 2.07-9.3-1.78-12.2l-.73-.55c-3.86-2.87-20.44 12.8-20.44 12.8-2.9 3.85 2.5 12.74 2.5 12.74 3.8 2.88 20.4-12.8 20.4-12.8z"/>
    <path d="M487.5 506.17c4.7-1.15 9.44 1.87 10.63 6.74l.23 1c1.2 4.9-19.67 14.2-19.67 14.2-4.7 1.2-10.9-7.6-10.9-7.6-1.2-4.8 19.6-14.1 19.6-14.1zm-119.54-88.65c3.73-.63 7.5 2.58 8.43 7.18l.1.88c.9 4.6-15.8 11.28-15.8 11.28-3.8.63-8.6-8.06-8.6-8.06-.9-4.6 15.8-11.28 15.8-11.28z"/>
    <path d="M357.56 407.5c-2.46 3.08-1.36 7.94 2.44 10.86l.73.55c3.8 3 18.4-9.1 18.4-9.1 2.46-3.1-3.17-11.4-3.17-11.4-3.8-2.9-18.4 9.1-18.4 9.1z"/>
    <path d="M393.56 388.08c4.64-1.06 9.37 1.76 10.56 6.3l.23.87c1.2 4.55-19.53 13.18-19.53 13.18-4.64 1.06-10.8-7.17-10.8-7.17-1.18-4.55 19.54-13.18 19.54-13.18z"/>
    <path d="M375.52 381.73c4.55-1.38 9.46 1.12 11 5.57l.27.85c1.5 4.46-18.5 14.5-18.5 14.5-4.6 1.4-11.3-6.4-11.3-6.4-1.5-4.47 18.5-14.52 18.5-14.52zm-3.4-67.36c4.7-.86 9.3 2.17 10.27 6.76l.1.87c1 4.6-20.2 12.3-20.2 12.3-4.7.84-10.5-7.65-10.5-7.65-1-4.58 20.1-12.28 20.1-12.28z"/>
    <path d="M384.74 309.9c3-3.6 2.28-9.02-1.6-12.13l-.75-.6c-3.9-3.12-21.1 11.04-21.1 11.04-3 3.6 2.3 12.8 2.3 12.8 3.8 3.1 21-11 21-11zM265.9 210.85c-4.14 1.17-7.6-2.54-7.75-8.28l-.03-1.1c-.15-5.75 19-15.9 19-15.9 4.14-1.2 7.78 9.36 7.78 9.36.15 5.75-19 15.92-19 15.92z"/>
    <path d="M275.2 222.54c3.22-4.16 2.94-10.22-.62-13.55l-.67-.7c-3.5-3.3-21.4 13.4-21.4 13.4-3.2 4.1 1.3 14.2 1.3 14.2 3.6 3.3 21.5-13.5 21.5-13.5zm-88.2-23.1c-5.17 1.8-9.73-1.3-10.18-6.96l-.08-1.08c-.45-5.65 23.4-18.7 23.4-18.7 5.17-1.8 10.26 8.05 10.26 8.05.45 5.65-23.4 18.7-23.4 18.7z"/>
    <path d="M251.2 257.1c-5.13 2.2-9.95-.5-10.77-6l-.15-1.04c-.8-5.52 22.5-20.3 22.5-20.3 5.15-2.2 10.94 7.05 10.94 7.05.8 5.6-22.52 20.3-22.52 20.3zm150.4 273c3.28-.9 6.2 2 6.53 6.48l.06.85c.3 4.5-14.7 12.37-14.7 12.37-3.3.9-6.6-7.32-6.6-7.32-.3-4.48 14.7-12.37 14.7-12.37z"/>
    <path d="M393.7 520.98c-2.42 3.23-1.97 7.97 1 10.56l.57.5c2.97 2.6 16.72-10.42 16.72-10.42 2.4-3.24-1.6-11.06-1.6-11.06-3-2.6-16.7 10.42-16.7 10.42z"/>
    <path d="M426.6 499.02c4.1-1.4 7.86 1.04 8.42 5.44l.1.84c.58 4.4-18.1 14.53-18.1 14.53-4.1 1.4-8.54-6.3-8.54-6.3-.56-4.4 18.1-14.5 18.1-14.5z"/>
    <path d="M411.75 494.1c4.04-1.7 8 .4 8.86 4.7l.2.8c.9 4.3-17.3 15.77-17.3 15.77-4 1.7-9-5.5-9-5.5-.8-4.3 17.4-15.77 17.4-15.77zm-19.45-25.7c3.8-1.96 7.88-.03 9.08 4.3l.23.8c1.2 4.33-15.6 16.9-15.6 16.9-3.8 1.95-9.3-5.12-9.3-5.12-1.2-4.3 15.7-16.9 15.7-16.9z"/>
    <path d="M402.38 461c2.2-4.26 1.14-9.47-2.36-11.66l-.66-.4c-3.5-2.2-16.55 15.86-16.55 15.86-2.1 4.26 3.1 12.07 3.1 12.07 3.5 2.18 16.6-15.88 16.6-15.88zM281.9 290.5c2.24-3.1.9-7.9-2.98-10.72l-.74-.54c-3.9-2.84-17.56 9.3-17.56 9.3-2.24 3.07 3.7 11.25 3.7 11.25 3.9 2.8 17.56-9.3 17.56-9.3z"/>
    <path d="M286.64 304.23c-3.97.87-8.03-2.23-9.06-6.93l-.2-.9c-1.03-4.7 16.7-12.6 16.7-12.6 3.96-.86 9.25 7.84 9.25 7.84 1.04 4.7-16.7 12.6-16.7 12.6z"/>
    <path d="M320.78 280.28c3.05-3.72 2.52-9.2-1.2-12.26l-.7-.58c-3.73-3.06-21 11.84-21 11.84-3.06 3.72 1.9 12.84 1.9 12.84 3.73 3.06 21-11.84 21-11.84z"/>
    <path d="M318.7 299.3c3.32-3.5 3.17-9.02-.32-12.33l-.67-.63c-3.4-3.3-21.7 10.33-21.7 10.33-3.3 3.5 1 12.95 1 12.95 3.5 3.3 21.8-10.33 21.8-10.33zm-16.6 116.85c2.9-3.86 2.1-9.32-1.75-12.2l-.73-.55c-3.86-2.88-20.44 12.8-20.44 12.8-2.87 3.84 2.5 12.73 2.5 12.73 3.86 2.88 20.43-12.78 20.43-12.78z"/>
    <path d="M311.9 406.74c4.68-1.15 9.44 1.87 10.63 6.73l.22.93c1.2 4.86-19.67 14.15-19.67 14.15-4.68 1.14-10.85-7.67-10.85-7.67-1.2-4.86 19.68-14.14 19.68-14.14z"/>
  </g>
  <defs>
    <path id="k" d="M527.1 488c2.55-2.3 4.35-4.07 4.35-4.07 1.7-2.4 2-5.34 1.1-7.9 1.57-1.47 2.58-2.47 2.58-2.47 2.78-3.93 1.86-9.36-2.07-12.15l-.74-.5c-.45-.3-1.07-.4-1.8-.2.5-3.3-.98-6.8-4.02-8.7l-.78-.5c-.24-.1-.53-.2-.85-.2-.04-2.9-1.48-5.7-4.1-7.3l-.78-.4c-.7-.3-1.5-.3-2.5.1.4-3.3-1-6.7-4.1-8.6l-.8-.5c-.3-.1-.6-.2-1-.2 0-2.9-1.5-5.7-4.1-7.4l-.8-.5c-.2-.1-.5-.2-.8-.2-.6-1.9-1.8-3.6-3.7-4.8l-.8-.5-.4-.1c-.4-2.3-1.6-4.4-3.6-5.8l-.7-.5c-.3-.2-.6-.3-1-.3.1-2.9-1.1-5.8-3.7-7.6l-.8-.5c-.5-.3-1.1-.3-1.8-.2-.3-2.3-1.5-4.5-3.6-6l-.8-.5c-.3-.2-.6-.3-1-.3.1-2.9-1.1-5.8-3.7-7.6l-.8-.5c-.5-.3-1.1-.4-1.9-.2-.3-2.3-1.5-4.6-3.6-6l-.8-.6c-.4-.3-1-.3-1.8-.2.5-3.3-.9-6.7-4-8.6l-.8-.5c-.2-.1-.5-.2-.8-.2-.1-2.8-1.5-5.7-4.1-7.3l-.8-.5c-.6-.3-1.5-.3-2.5.1.4-3.3-1-6.7-4-8.6l-.8-.5c-.3-.2-.6-.2-1-.2 0-2.9-1.5-5.7-4.1-7.4l-.8-.5c-.3-.1-.5-.2-.8-.2-.6-1.9-1.8-3.6-3.7-4.8l-.8-.4c-.4-.2-.8-.3-1.2-.3-.3-2.6-1.7-5.1-4.1-6.6l-.8-.5c-.3-.2-.6-.2-1-.2 0-2.9-1.5-5.7-4.2-7.3l-.8-.5c-.2-.1-.5-.2-.9-.2-.08-2.9-1.5-5.7-4.17-7.3l-.8-.5c-.5-.3-1.1-.3-1.9-.1-.4-2.3-1.8-4.5-4-5.8l-.8-.5c-.3-.2-.6-.2-.9-.2-.1-2.9-1.5-5.7-4.2-7.3l-.8-.5c-.6-.4-1.5-.3-2.6.1-.2-2.8-1.9-5.5-4.6-6.92l-.8-.4c-.26-.14-.5-.2-.87-.2-.2-2.9-1.9-5.6-4.6-7l-.8-.5c-.6-.33-1.5-.2-2.5.2.2-3.3-1.5-6.63-4.6-8.3l-.8-.42c-.6-.3-1.2-.2-2 0-.6-2.3-2.1-4.4-4.4-5.6l-.8-.4c-.27-.1-.5-.2-.78-.2-.7-1.9-2.1-3.5-4-4.5l-.8-.4c-.3-.14-.6-.2-.9-.2-.4-2.82-2.1-5.4-4.8-6.8l-.8-.4c-.3-.1-.6-.2-1-.1-.3-2.9-2.1-5.6-4.8-6.92l-.9-.4c-.5-.26-1.1-.2-1.8 0-.7-2.25-2.25-4.23-4.5-5.34l-.85-.4c-.3-.16-.6-.2-1-.17-.3-2.9-2-5.53-4.8-6.9l-.8-.4c-.57-.24-1.2-.2-1.9.07-.7-2.2-2.2-4.2-4.5-5.4l-.88-.4c-.43-.2-1-.2-1.7 0l-.1-.1c-.1-3.3-2.1-6.4-5.3-7.7l-.84-.4c-.3-.1-.56-.1-.9-.1-.5-2.8-2.4-5.3-5.23-6.5l-.86-.4c-.6-.2-1.3-.2-2 .2l-.5-.5c-.4-3.1-2.3-5.9-5.3-7.1l-.9-.4c-.3-.1-.6-.1-.94-.1-.5-2.9-2.4-5.4-5.3-6.6l-.8-.4c-.2 0-.5-.1-.7-.1-.9-1.8-2.4-3.3-4.4-4.1l-.78-.5c-.3-.1-.87.05-1.1-.1-.8-2.4-2.5-4.7-5.2-5.75l-.8-.3c-.3-.1-.7-.1-1-.1-.5-2.8-2.4-5.4-5.3-6.5l-.9-.4c-.3-.1-.6-.1-.9-.1-.5-2.8-2.4-5.3-5.3-6.5l-.86-.33c-.5-.2-1.15-.1-1.9.2-.8-2.3-2.5-4.2-4.84-5.1l-.86-.4c-.3-.1-.6-.1-1-.1-.5-2.8-2.4-5.4-5.2-6.54l-.9-.4c-.6-.3-1.44-.1-2.4.44l-.2-.2c-.7-2.65-2.74-4.9-5.6-5.9l-.8-.26c-.3-.1-.6-.1-.9-.1-.7-2.8-2.7-5.2-5.67-6.2l-.8-.3c-.5-.2-1.2-.05-1.9.35l-.6-.4c-.5-3.05-2.6-5.73-5.7-6.8l-.86-.3c-.5-.2-1.2-.03-1.9.37-.9-2.2-2.75-4-5.2-4.83l-.87-.3c-.2-.1-.5-.1-.7-.07-1-1.8-2.6-3.2-4.7-3.9l-.8-.3c-.4-.1-.9-.1-1.4.1-1.2-2.5-3.5-4.47-6.5-4.96-1.2-2.5-3.6-4.3-6.6-4.7l-.8-.1c-1-3.1-3.6-5.44-7-5.9l-.9-.13c-.3-.02-.64 0-1 .18-1.2-2.6-3.64-4.6-6.7-5.04l-.9-.1c-.3 0-.6 0-.9.1-1.2-2.6-3.65-4.6-6.7-5l-.9-.1c-.6 0-1.2.2-1.8.7-1.35-1.93-3.46-3.4-6-3.7l-.9-.1c-.3-.05-.67 0-1 .15-1.2-2.6-3.67-4.6-6.75-5l-.9-.1c-.7-.1-1.5.3-2.3 1.2-1.34-2.5-3.9-4.3-7-4.6l-.9-.1c-.43-.1-.9.1-1.4.5-.9-2.3-2.73-4.2-5.3-5.1l-.83-.3c-1.3-.5-3.3 1-5.3 3.2-1-1.1-2.2-2-3.7-2.5l-.9-.3c-1.6-.6-4 1.5-6.5 4.4-.9-.88-1.9-1.5-3.2-2l-.8-.3c-1-.3-2.2.3-3.6 1.4-.8-1.1-1.8-2-3.1-2.7l-.8-.4c-4.3-2.1-17.7 16.4-17.7 16.4-.4 1-.4 2.1-.2 3.3-2.4 1.94-3.9 3.9-3.5 5.3l.3.9c.2.5.4 1 .62 1.5-3.8 2.63-6.9 5.5-6.3 7.4l.2.9c.3.9.7 1.7 1.25 2.5-1.7 1.5-2.6 3-2.3 4.1l.3.9c.3.7.6 1.5 1 2.1-.5.6-.8 1.2-.8 1.8l.1.9c.2 2.2 1.2 4.14 2.6 5.57-.13.3-.24.5-.3.7l-.1.9c-.5 3.7 1.2 7.1 4.2 8.8-.58.6-.9 1.1-.9 1.7l-.06.9c0 3.1 1.5 5.8 3.9 7.4-.9.7-1.4 1.5-1.4 2.2l.1.9c.1 3.15 1.9 5.8 4.4 7.2-.2.3-.3.7-.23 1v.9c.1 2.55 1.4 4.8 3.2 6.3-.56.6-.87 1.15-.84 1.7l.1.9c.2 3.1 1.9 5.8 4.4 7.2-.2.3-.2.6-.2.9v.9c.1 3.1 1.9 5.7 4.4 7.2-.2.3-.3.6-.2.9l.03.9c.1 3.4 2.2 6.3 5.1 7.6l.08.8c.1 3 1.7 5.5 4.1 7 .2 3 1.9 5.5 4.3 6.9-.2.5-.3.9-.2 1.4l.2.85c.5 2.1 1.7 3.9 3.4 5.1-.1.23-.1.5 0 .7l.2.9c.6 2.6 2.2 4.5 4.3 5.7-.5.7-.7 1.3-.56 1.9l.2.9c.8 3.5 3.6 5.94 6.87 6.6-.6.8-1 1.6-.8 2.3l.2.8c.7 3 2.9 5.3 5.7 6.2-.1.3-.1.6 0 .9l.2.9c.7 3 2.9 5.2 5.6 6.2-.7.9-1 1.8-.8 2.5l.3.9c.9 3 3.2 5.1 6 5.9-.1.33-.1.7 0 1l.2.9c.8 2.4 2.5 4.3 4.6 5.3-.4.7-.5 1.3-.3 1.9l.3.83c.9 2.97 3.2 5.1 6 5.88-.1.3-.1.6 0 .9l.3.9c.9 3 3.2 5.1 6 5.9 0 .4-.1.7 0 1l.3.9c.9 2.8 2.9 4.7 5.4 5.7-.1.44-.2.85-.1 1.2l.28.9c.6 2.1 2 3.7 3.7 4.8-.1.3-.1.5 0 .8l.27.86c1 3 3.3 5.1 6.1 5.8-.1.3-.1.7 0 1l.3.8c1.1 3.4 4 5.7 7.3 6.1-.6.9-.9 1.7-.7 2.3l.3.9c.9 3 3.27 5.1 6 5.9v.9l.3.8c1.1 3.5 4 5.8 7.4 6.2-.3.6-.4 1.2-.2 1.8l.4.8c.9 2.4 2.8 4.1 5 5-.3.7-.4 1.3-.2 1.9l.3.9c1.1 2.9 3.6 4.82 6.5 5.4-.05.33-.05.7.06 1l.3.83c.9 2.3 2.7 4.1 4.9 4.9-.3.7-.4 1.3-.2 1.8l.3.86c1.1 2.9 3.6 4.9 6.4 5.45-.1.4 0 .7.1 1l.4.9c1.1 2.87 3.5 4.8 6.3 5.4 0 .3 0 .6.1.9l.4.9c.84 2 2.35 3.5 4.15 4.4 0 .3 0 .5.1.7l.3.9c1 2.4 2.98 4.1 5.2 4.9-.3.7-.4 1.4-.2 1.92l.38.85c1.4 3.3 4.5 5.3 7.88 5.4-.56 1-.76 1.8-.5 2.4l.4.9c1.2 2.9 3.7 4.8 6.55 5.3 0 .3 0 .6.1.84l.4.8c1.2 2.87 3.7 4.7 6.5 5.26-.5 1-.7 1.9-.3 2.6l.4.8c1.33 2.8 4 4.5 6.9 4.8 0 .36 0 .7.2 1l.4.8c1.1 2.3 3.1 3.84 5.4 4.5-.3.7-.3 1.4-.1 1.9l.4.8c1.3 2.8 4 4.5 6.9 4.8 0 .34 0 .64.1.9l.4.8c1.4 2.8 4.1 4.5 6.93 4.8 0 .37 0 .7.2.98l.4.8c1.2 2.5 3.6 4.2 6.2 4.7-.1.4 0 .8.1 1.2l.4.8c1 1.9 2.6 3.3 4.5 4.1 0 .2.1.5.2.7l.4.8c1.4 2.8 4.1 4.5 6.9 4.8 0 .35 0 .7.18 1l.4.8c1.4 2.85 4.2 4.6 7.14 4.8l.7.7c-.27.7-.3 1.3-.07 1.8l.5.8c1.4 2.8 4 4.5 6.9 4.8 0 .3 0 .6.2.8l.4.87c1.4 2.7 4 4.4 6.9 4.7l1.2 1.1c0 .24.1.5.2.7l.5.8c1.24 2.2 3.3 3.6 5.6 4.17l.06.1c-.2.7-.2 1.3.1 1.8l.5.8c1.6 2.7 4.3 4.23 7.2 4.34 0 .3 0 .7.2 1l.4.8c1.3 2.2 3.35 3.6 5.64 4.1-.2.7-.2 1.3.1 1.8l.4.8c1.6 2.7 4.3 4.2 7.2 4.3 0 .3.05.7.2.9l.45.8c1.24 2.18 3.25 3.58 5.5 4.1l.1.4.4.8c1 2 2.6 3.38 4.43 4.16 0 .22 0 .5.1.7l.4.8c1.4 2.8 4.1 4.5 7 4.8-.05.4 0 .7.14 1l.4.8c1.6 3.2 4.9 5 8.2 4.82-.5 1-.6 1.8-.3 2.4l.4.8c1.4 2.8 4 4.5 6.9 4.8 0 .3 0 .6.2.9l.4.8c1.6 3.2 4.9 5 8.27 4.82-.2.7-.2 1.3.1 1.8l.46.8c2.4 4.2 7.7 5.6 11.9 3.2 0 0 1.1-.9 2.7-2.3 2.5 1.2 5.4 1.1 8-.3 0 0 4.1-3.4 8.1-7.4 1-.13 2-.5 3-1l.8-.7c.7-.4 1.3-.9 1.94-1.4l.7.8c2.94 1.2 9.23-6.8 13.2-12.33.52.7.9 1.1.9 1.1 3.42 1.7 12.7-9.8 16.22-14.45l.1.1c4.3 2.1 17.6-16.4 17.6-16.4.5-1.1.8-2.3.8-3.5 5.6-3.2 14.6-15.73 14.6-15.73 1.4-3 1-6.4-.8-8.9z"/>
  </defs>
  <clipPath id="l">
    <use xlink:href="#k" overflow="visible"/>
  </clipPath>
  <g fill="#D89D25" clip-path="url(#l)">
    <path d="M164.4 147.63c-3.76.7-7.5-2.6-8.37-7.33l-.17-.9c-.86-4.74 16-11.77 16-11.77 3.75-.7 8.53 8.23 8.53 8.23.8 4.73-16 11.77-16 11.77z"/>
    <path d="M174.7 157.88c2.5-3.2 1.47-8.2-2.3-11.18l-.73-.56c-3.78-2.98-18.6 9.56-18.6 9.56-2.5 3.2 3.03 11.75 3.03 11.75 3.78 2.96 18.6-9.57 18.6-9.57z"/>
    <path d="M138.3 178.23c-4.68 1.13-9.4-1.74-10.53-6.42l-.22-.8c-1.13-4.7 19.8-13.7 19.8-13.7 4.67-1.1 10.73 7.3 10.73 7.3 1.13 4.7-19.8 13.8-19.8 13.8z"/>
    <path d="M156.3 184.62c-4.57 1.46-9.47-1.07-10.93-5.65l-.28-.87c-1.5-4.6 18.7-15.14 18.7-15.14 4.6-1.46 11.2 6.53 11.2 6.53 1.4 4.5-18.8 15.1-18.8 15.1zm55.66-1.72c-4.72.93-9.3-2.16-10.22-6.88l-.17-.9c-.92-4.72 20.4-12.85 20.4-12.85 4.7-.92 10.38 7.8 10.38 7.8.92 4.7-20.4 12.84-20.4 12.84z"/>
    <path d="M199.23 187.63c-3.06 3.72-2.4 9.3 1.46 12.5l.7.6c3.8 3.2 21.3-11.57 21.3-11.57 3-3.72-2.2-13.1-2.2-13.1-3.9-3.18-21.3 11.57-21.3 11.57zm86.87 57.07c2.2-3.04 1.1-7.86-2.44-10.76l-.68-.55c-3.55-2.9-16.73 8.9-16.73 8.9-2.2 3 3.12 11.3 3.12 11.3 3.55 2.9 16.73-9 16.73-9z"/>
    <path d="M290.1 258.5c-3.74.8-7.44-2.37-8.26-7.08l-.15-.9c-.9-4.7 16-12.3 16-12.3 3.7-.8 8.4 7.97 8.4 7.97.8 4.7-16.1 12.3-16.1 12.3z"/>
    <path d="M322.84 235.13c2.98-3.66 2.65-9.15-.74-12.27l-.65-.6c-3.38-3.1-20.03 11.5-20.03 11.5-2.98 3.66 1.4 12.85 1.4 12.85 3.38 3.2 20.02-11.4 20.02-11.4z"/>
    <path d="M320.3 254.1c3.2-3.45 3.24-8.96.08-12.32l-.6-.64c-3.18-3.37-20.73 9.95-20.73 9.95-3.2 3.4.53 12.9.53 12.9 3.17 3.3 20.72-10 20.72-10zm3.26 142.86c2.8-3.8 2.25-9.27-1.27-12.2l-.7-.57c-3.5-3-19.6 12.4-19.6 12.4-2.8 3.8 1.9 12.7 1.9 12.7 3.5 2.9 19.5-12.5 19.5-12.5z"/>
    <path d="M333.02 387.7c4.42-1.05 8.77 2.04 9.73 6.92l.18.93c.96 4.88-18.87 13.8-18.87 13.8-4.4 1.07-9.9-7.83-9.9-7.83-.97-4.88 18.86-13.8 18.86-13.8zm42.68 66.2c-3.62 1.2-7.8-1.53-9.3-6.1l-.3-.86c-1.53-4.56 14.16-13.9 14.16-13.9 3.63-1.22 9.6 6.94 9.6 6.94 1.54 4.56-14.16 13.9-14.16 13.9z"/>
    <path d="M387.35 462.58c2.03-3.52.3-8.33-3.86-10.74l-.8-.46c-4.2-2.4-17.1 12.1-17.1 12.1-2.1 3.52 4.6 11.2 4.6 11.2 4.1 2.4 17-12.1 17-12.1z"/>
    <path d="M354.18 487.86c-4.47 1.78-9.54-.4-11.32-4.86l-.34-.86c-1.78-4.47 17.65-16.4 17.65-16.4 4.46-1.8 11.65 5.7 11.65 5.7 1.8 4.48-17.64 16.42-17.64 16.42z"/>
    <path d="M372.92 491.65c-4.33 2.1-9.54.28-11.64-4.05l-.4-.83c-2.1-4.33 16.45-17.62 16.45-17.62 4.33-2.1 12.03 4.88 12.03 4.88 2.1 4.33-16.44 17.62-16.44 17.62zm54.85-9.55c-4.54 1.58-9.5-.83-11.08-5.38l-.4-.86c-1.6-4.55 18.4-15.6 18.4-15.6 4.5-1.58 11.4 6.24 11.4 6.24 1.5 4.55-18.4 15.6-18.4 15.6z"/>
    <path d="M415.84 488.58c-2.5 4.1-1.07 9.55 3.2 12.16l.82.5c4.27 2.6 19.44-14.47 19.44-14.47 2.5-4.1-4.02-12.66-4.02-12.66-4.28-2.6-19.44 14.5-19.44 14.5zm-48.27-140.8c-1.73 3.37.2 7.95 4.3 10.22l.77.43c4.1 2.27 15.53-11.62 15.53-11.62 1.74-3.3-5.07-10.6-5.07-10.6-4.1-2.2-15.53 11.6-15.53 11.6z"/>
    <path d="M361.17 334.84c3.7-1.4 8 1.1 9.6 5.62l.32.86c1.6 4.5-14.3 14.77-14.3 14.77-3.7 1.4-9.9-6.5-9.9-6.5-1.6-4.5 14.2-14.8 14.2-14.8z"/>
    <path d="M331.76 363.26c-2.42 4.1-1.16 9.47 2.8 11.98l.77.48c3.97 2.5 18.47-14.62 18.47-14.62 2.42-4.1-3.57-12.46-3.57-12.46-3.97-2.5-18.47 14.63-18.47 14.63z"/>
    <path d="M331.17 344.15c-2.7 3.92-1.8 9.36 2 12.15l.7.54c3.8 2.8 19.44-13.23 19.44-13.23 2.7-3.9-2.7-12.6-2.7-12.6-3.8-2.8-19.4 13.3-19.4 13.3zm5.33-60.82c-2.23 4.22-.74 9.52 3.33 11.84l.78.44c4.1 2.4 17.9-15.4 17.9-15.4 2.3-4.2-4.1-12.3-4.1-12.3-4.1-2.3-17.8 15.5-17.8 15.5z"/>
    <path d="M328.4 294c-4.3 1.78-9.26-.55-11.06-5.2l-.34-.9c-1.8-4.65 16.9-16.72 16.9-16.72 4.32-1.77 11.4 6.1 11.4 6.1 1.8 4.66-16.9 16.72-16.9 16.72zm-157.65-39c2.37-3.57-.12-8-5.55-9.88l-1.03-.35c-5.44-1.9-20.93 13.3-20.93 13.3-2.37 3.57 6.6 10.24 6.6 10.24 5.42 1.9 20.9-13.3 20.9-13.3z"/>
    <path d="M179.08 267.44c-4.94 1.8-10.64-.3-12.73-4.7l-.4-.84c-2.1-4.4 19.28-16.36 19.28-16.36 4.94-1.8 13.12 5.55 13.12 5.55 2.1 4.3-19.27 16.3-19.27 16.3z"/>
    <path d="M218.8 235.77c3.3-4.38 1.72-9.68-3.54-11.8l-1-.42c-5.26-2.14-24.9 16.62-24.9 16.62-3.3 4.4 4.55 12.23 4.55 12.23 5.3 2.14 24.9-16.63 24.9-16.63z"/>
    <path d="M219.27 255.02c3.66-4.22 2.56-9.63-2.44-12.08l-.95-.46c-5-2.44-26.16 15.3-26.16 15.3-3.66 4.24 3.4 12.56 3.4 12.56 5 2.44 26.15-15.32 26.15-15.32zm-24.82 54.78c3.06-4.48 1.16-9.68-4.24-11.62l-1-.37c-5.4-1.9-24 17.5-24 17.5-3 4.5 5.3 12 5.3 12 5.4 2 24.1-17.4 24.1-17.4z"/>
    <path d="M205.43 298.2c5.8-2.2 12.37-.35 14.68 4.17l.5.86c2.3 4.52-22.8 18.58-22.8 18.58-5.8 2.3-15.1-5-15.1-5-2.3-4.5 22.9-18.6 22.9-18.6zM457.1 406.88c-1.86 2.84.02 6.5 4.2 8.17l.78.3c4.18 1.68 16.24-10.24 16.24-10.24 1.86-2.8-4.98-8.4-4.98-8.4-4.17-1.6-16.24 10.3-16.24 10.3z"/>
    <path d="M450.8 396.58c3.8-1.33 8.18.52 9.76 4.14l.3.7c1.57 3.62-15 12.78-15 12.78-3.82 1.33-10.06-4.84-10.06-4.84-1.58-3.62 15-12.78 15-12.78z"/>
    <path d="M419.9 421.26c-2.57 3.48-1.4 7.82 2.64 9.7l.76.35c4.03 1.9 19.33-12.8 19.33-12.8 2.58-3.5-3.4-10-3.4-10-4.03-1.8-19.33 12.9-19.33 12.9z"/>
    <path d="M419.7 405.63c-2.85 3.34-2.05 7.75 1.8 9.87l.72.4c3.84 2.1 20.28-11.76 20.28-11.76 2.86-3.34-2.5-10.28-2.5-10.28-3.85-2.1-20.3 11.77-20.3 11.77zm19.6-43.83c-2.4 3.55-.97 7.82 3.17 9.53l.8.33c4.14 1.7 18.66-13.53 18.66-13.53 2.4-3.56-3.97-9.87-3.97-9.87-4.14-1.7-18.66 13.53-18.66 13.53z"/>
    <path d="M430.74 370.92c-4.5 1.66-9.53-.02-11.28-3.75l-.33-.7c-1.75-3.74 17.76-14.52 17.76-14.52 4.4-1.65 11.6 4.47 11.6 4.47 1.7 3.72-17.8 14.5-17.8 14.5zm-184.58-56.5c-3.63 1.2-7.8-1.5-9.32-6.07l-.3-.87c-1.5-4.56 14.18-13.9 14.18-13.9 3.62-1.22 9.6 6.94 9.6 6.94 1.53 4.56-14.16 13.9-14.16 13.9z"/>
    <path d="M257.8 323.12c2.03-3.52.3-8.33-3.86-10.74l-.8-.46c-4.16-2.4-17.05 12.1-17.05 12.1-2.1 3.52 4.6 11.2 4.6 11.2 4.1 2.4 17-12.1 17-12.1z"/>
    <path d="M224.63 348.4c-4.47 1.78-9.53-.4-11.32-4.86l-.3-.86c-1.8-4.47 17.7-16.4 17.7-16.4 4.5-1.8 11.7 5.7 11.7 5.7 1.8 4.48-17.6 16.42-17.6 16.42z"/>
    <path d="M243.38 352.2c-4.34 2.08-9.55.27-11.64-4.06l-.4-.83c-2.1-4.3 16.44-17.6 16.44-17.6 4.33-2.1 12.04 4.9 12.04 4.9 2.1 4.4-16.44 17.6-16.44 17.6zm54.85-9.56c-4.55 1.58-9.5-.83-11.1-5.38l-.3-.86c-1.57-4.55 18.38-15.6 18.38-15.6 4.6-1.58 11.4 6.24 11.4 6.24 1.6 4.55-18.3 15.6-18.3 15.6z"/>
    <path d="M286.3 349.1c-2.52 4.13-1.08 9.57 3.2 12.18l.8.5c4.28 2.6 19.45-14.47 19.45-14.47 2.5-4.1-4.02-12.6-4.02-12.6-4.28-2.6-19.44 14.5-19.44 14.5z"/>
  </g>
  <path fill="#437013" d="M497.12 557.3L119.66 218.16S314.8 558 432.28 582.93c13.96 2.96 64.84-25.63 64.84-25.63z"/>
  <linearGradient id="m" x1="357.36" x2="224.46" y1="184.59" y2="414.77" gradientUnits="userSpaceOnUse" gradientTransform="rotate(19.56 264.93 284.59)">
    <stop offset="0" stop-color="#FFF" stop-opacity="0"/>
    <stop offset="1" stop-color="#662D91"/>
  </linearGradient>
  <path fill="url(#m)" d="M541.65 533.54c-.03-6.8-8.9-25.05-6.35-31.46 2.96-7.38 4.03-28.77 5.32-40.94 4.9-46.27-298.9-346.8-324.3-438.35-7.32 49.6 37.26 87.7 98.6 185.1-.16-.1-.3-.2-.48-.3l-.85-.4c-.3-.1-.5-.1-.8-.1-.9-1.8-2.4-3.3-4.4-4.2l-.5-.7c-.4-.2-.7-.2-.9-.4l-.3.2c-.8-2.4-2.7-4.6-5.3-5.6l-1-.3c-.1-.1-.3 0-.4-.1l-.9-.9c-.7-2.5-2.5-4.6-5.1-5.7l-.3-.1-2.1-2.3c-.8-1.8-2.1-3.3-4-4.3C230 120.8 139.2 30.8 118 0c-26.53 13.65 46.62 78.18 52.82 107.02-15.07-15.56-60.88-53.73-76.3-66.53-19.36 9.5 17.57 65.6 11 80-17.17-24.3-34.66-64.1-48.18-84.9-22.32 8.3 63.98 166.9 62.32 182.5-.74 7-61.2-53.3-119.66-39.5 95.16 39 88 41.8 102.8 61.3 21.45 28.2 42.05 54.2 61.76 78.2.64 4.2 5.86 8.9 5.86 8.9.44.1.96.1 1.54 0 28.34 34.2 54.77 64 79.04 89.9 59.6 79.2 128.3 154.5 181.3 165.7 6.28 1.3 19.9-3.7 33-9.6 2.08.3 4.3.8 7.1 1.8 5.76 2.1 21.2 18.4 26.4 15.2 5.8-3.4 42.97-41.2 42.9-56.8z" opacity=".5"/>
  <linearGradient id="n" x1="593.38" x2="593.38" y1="70.52" y2="113.11" gradientUnits="userSpaceOnUse">
    <stop offset="0" stop-color="#F2AF09"/>
    <stop offset="1" stop-color="#B37048"/>
  </linearGradient>
  <path fill="url(#n)" d="M590.5 113.1c1.05-1.58 10.63-7.97 9.57-19.68s-4.75-22.9-4.75-22.9-7.5 15.97-8.56 21.3 3.73 21.3 3.73 21.3z"/>
  <linearGradient id="o" x1="592.08" x2="592.08" y1="74.81" y2="108.52" gradientUnits="userSpaceOnUse" gradientTransform="matrix(1.2324 .2295 .2295 1.2265 -149.78 -147.773)">
    <stop offset="0" stop-color="#F2AF09"/>
    <stop offset="1" stop-color="#B37048"/>
  </linearGradient>
  <path fill="url(#o)" d="M588.5 118.17c.02-2.23-5.45-16.6 3.9-23.84 9.32-7.24 21-11.42 21-11.42s-3.43 19.1-6.07 24c-2.63 4.9-18.83 11.4-18.83 11.4z"/>
  <linearGradient id="p" x1="439.52" x2="439.52" y1="543.87" y2="330.19" gradientUnits="userSpaceOnUse">
    <stop offset="0" stop-color="#F2AF09"/>
    <stop offset="1" stop-color="#B37048"/>
  </linearGradient>
  <path fill="url(#p)" d="M510.76 330.2s-21.16 83.9-81.85 148.6c-60.7 64.68-52.4 63.8-55.3 65.06-2.6-1.4-6.4-3.3-4.9-5.12 18.4-22.36 75.9-85.96 89.9-107.07 20.5-31 48-101.48 48-101.48h4.4z"/>
  <linearGradient id="q" x1="582.97" x2="582.97" y1="81.7" y2="131.21" gradientUnits="userSpaceOnUse">
    <stop offset="0" stop-color="#F2AF09"/>
    <stop offset="1" stop-color="#B37048"/>
  </linearGradient>
  <path fill="url(#q)" d="M584.1 131.22c1.06-1.6 9.6-11.43 5.6-28.88-4-17.44-5.6-20.64-5.6-20.64s-11.18 21.83-8.52 29.82 8.52 19.7 8.52 19.7z"/>
  <linearGradient id="r" x1="574.96" x2="574.96" y1="103.53" y2="157.83" gradientUnits="userSpaceOnUse">
    <stop offset="0" stop-color="#F2AF09"/>
    <stop offset="1" stop-color="#B37048"/>
  </linearGradient>
  <path fill="url(#r)" d="M575.17 157.83s12.53-27.68 7.8-37.8c-4.73-10.1-12.72-16.5-12.72-16.5s-6.38 21.3-3.72 27.15c2.66 5.86 8.64 27.15 8.64 27.15z"/>
  <linearGradient id="s" x1="564.9" x2="564.9" y1="124.83" y2="180.2" gradientUnits="userSpaceOnUse">
    <stop offset="0" stop-color="#F2AF09"/>
    <stop offset="1" stop-color="#B37048"/>
  </linearGradient>
  <path fill="url(#s)" d="M565.88 180.2c-.95-1.6 12.6-22.9 9.3-33-3.33-10.13-12.38-22.37-12.38-22.37s-10.1 18.63-8.52 27.68c1.6 9.1 11.6 27.7 11.6 27.7z"/>
  <linearGradient id="t" x1="554.85" x2="554.85" y1="148.78" y2="204.09" gradientUnits="userSpaceOnUse">
    <stop offset="0" stop-color="#F2AF09"/>
    <stop offset="1" stop-color="#B37048"/>
  </linearGradient>
  <path fill="url(#t)" d="M555.08 204.1s15.68-26.5 11.68-36.88c-4-10.37-14.95-18.44-14.95-18.44s-11.5 20.74-9.2 27.66 12.5 27.65 12.5 27.65z"/>
  <linearGradient id="u" x1="545.03" x2="545.03" y1="174.34" y2="229.18" gradientUnits="userSpaceOnUse">
    <stop offset="0" stop-color="#F2AF09"/>
    <stop offset="1" stop-color="#B37048"/>
  </linearGradient>
  <path fill="url(#u)" d="M547.17 229.18c.53-2.14 20.43-27.42 6.73-43.66-5.2-6.17-15.05-11.18-15.05-11.18s-8 17.57-7.46 22.62 15.7 32.22 15.7 32.22z"/>
  <linearGradient id="v" x1="535.12" x2="535.12" y1="194.02" y2="245.68" gradientUnits="userSpaceOnUse">
    <stop offset="0" stop-color="#F2AF09"/>
    <stop offset="1" stop-color="#B37048"/>
  </linearGradient>
  <path fill="url(#v)" d="M536.7 245.68c1.08-1.6 17.8-20.63 6.5-36.74-11.28-16.1-17.13-14.9-17.13-14.9s-4.8 23.96-2.13 30.35 12.77 21.2 12.77 21.2z"/>
  <linearGradient id="w" x1="524.6" x2="524.6" y1="219.42" y2="269.64" gradientUnits="userSpaceOnUse">
    <stop offset="0" stop-color="#F2AF09"/>
    <stop offset="1" stop-color="#B37048"/>
  </linearGradient>
  <path fill="url(#w)" d="M528.2 269.64c1.06-2.13 14.37-25.03 6.92-34.6-7.46-9.6-18.1-17.6-18.1-15.2 0 2.4-6.92 19.45-4.8 25.84s15.98 23.96 15.98 23.96z"/>
  <linearGradient id="x" x1="515.43" x2="515.43" y1="239.82" y2="294.13" gradientUnits="userSpaceOnUse">
    <stop offset="0" stop-color="#F2AF09"/>
    <stop offset="1" stop-color="#B37048"/>
  </linearGradient>
  <path fill="url(#x)" d="M518.6 294.13c.55-2.66 13.04-23.43 6-37.8-7.05-14.38-19.3-16.5-19.3-16.5s-2.66 31.4 0 35.66c2.66 4.2 13.3 18.6 13.3 18.6z"/>
  <linearGradient id="y" x1="599.37" x2="599.37" y1="99.45" y2="134.68" gradientUnits="userSpaceOnUse">
    <stop offset="0" stop-color="#F2AF09"/>
    <stop offset="1" stop-color="#B37048"/>
  </linearGradient>
  <path fill="url(#y)" d="M581.98 134.68c.36-1.88 1.2-14.9 16.3-24.48 15.1-9.6 18.48-10.75 18.48-10.75s-7.38 23.4-14.88 27.2c-7.5 3.8-19.9 8.03-19.9 8.03z"/>
  <linearGradient id="z" x1="590.46" x2="590.46" y1="124.57" y2="159.9" gradientUnits="userSpaceOnUse">
    <stop offset="0" stop-color="#F2AF09"/>
    <stop offset="1" stop-color="#B37048"/>
  </linearGradient>
  <path fill="url(#z)" d="M569.63 159.9s10.53-28.5 21-32.38c10.48-3.88 20.65-2.8 20.65-2.8s-10.42 19.63-16.43 21.93c-6 2.3-25.22 13.25-25.22 13.25z"/>
  <linearGradient id="A" x1="589.88" x2="589.88" y1="164.49" y2="206.73" gradientUnits="userSpaceOnUse" gradientTransform="rotate(-6.47 415.703 264.85)">
    <stop offset="0" stop-color="#F2AF09"/>
    <stop offset="1" stop-color="#B37048"/>
  </linearGradient>
  <path fill="url(#A)" d="M559.05 190.1c1.97-.77 4.8-29.26 14.85-35.96 10.05-6.7 26.7-11.27 26.7-11.27s-4.03 23.7-11.8 30.66c-7.77 6.95-29.75 16.56-29.75 16.56z"/>
  <linearGradient id="B" x1="574.1" x2="574.1" y1="169.99" y2="204.63" gradientUnits="userSpaceOnUse">
    <stop offset="0" stop-color="#F2AF09"/>
    <stop offset="1" stop-color="#B37048"/>
  </linearGradient>
  <path fill="url(#B)" d="M555.07 204.63s6.9-27.6 16.26-31.83c9.36-4.23 21.8-2.42 21.8-2.42s-5.9 21.12-11.9 24.17c-6 3.05-26.16 10.07-26.16 10.07z"/>
  <linearGradient id="C" x1="565.53" x2="565.53" y1="194.35" y2="224.51" gradientUnits="userSpaceOnUse">
    <stop offset="0" stop-color="#F2AF09"/>
    <stop offset="1" stop-color="#B37048"/>
  </linearGradient>
  <path fill="url(#C)" d="M547.17 224.5c1.12-1.88 10.15-28.88 18.15-29.95 8-1.08 18.57 2.6 18.57 2.6s-6.7 18.13-10.6 21.35c-4 3.23-26.2 6-26.2 6z"/>
  <linearGradient id="D" x1="557.21" x2="557.21" y1="217.46" y2="249.43" gradientUnits="userSpaceOnUse">
    <stop offset="0" stop-color="#F2AF09"/>
    <stop offset="1" stop-color="#B37048"/>
  </linearGradient>
  <path fill="url(#D)" d="M535.3 249.43c.35-1.88 1.82-27.16 21.17-30.7 19.35-3.54 22.67 1.43 22.67 1.43s-13.42 20.42-19.8 23.1c-6.38 2.67-24.06 6.17-24.06 6.17z"/>
  <linearGradient id="E" x1="546.06" x2="546.06" y1="242.36" y2="272.46" gradientUnits="userSpaceOnUse">
    <stop offset="0" stop-color="#F2AF09"/>
    <stop offset="1" stop-color="#B37048"/>
  </linearGradient>
  <path fill="url(#E)" d="M524.52 272.46c.74-2.26 7.35-27.9 19.38-29.48 12.04-1.6 25.24.2 23.55 1.9-1.7 1.72-8.73 18.7-14.74 21.76-6 3.05-28.1 5.82-28.1 5.82z"/>
  <linearGradient id="F" x1="537.94" x2="537.94" y1="263.57" y2="296.63" gradientUnits="userSpaceOnUse">
    <stop offset="0" stop-color="#F2AF09"/>
    <stop offset="1" stop-color="#B37048"/>
  </linearGradient>
  <path fill="url(#F)" d="M514.13 296.63c1.5-2.27 7.2-25.83 22.3-31.1 15.1-5.3 25.32 1.8 25.32 1.8s-20.17 24.22-25.06 25.38c-4.9 1.2-22.6 4-22.6 4z"/>
  <linearGradient id="G" x1="523.2" x2="523.2" y1="289.75" y2="321.1" gradientUnits="userSpaceOnUse">
    <stop offset="0" stop-color="#F2AF09"/>
    <stop offset="1" stop-color="#B37048"/>
  </linearGradient>
  <path fill="url(#G)" d="M499.52 321.1s15.32-27.5 25.1-30.58c9.78-3.06 22.25 4 22.25 4s-14.57 17.8-19.82 20.1c-5.26 2.28-27.53 6.48-27.53 6.48z"/>
  <linearGradient id="H" x1="506.38" x2="506.38" y1="269.64" y2="321.81" gradientUnits="userSpaceOnUse">
    <stop offset="0" stop-color="#F2AF09"/>
    <stop offset="1" stop-color="#B37048"/>
  </linearGradient>
  <path fill="url(#H)" d="M511.82 321.8s8.42-30.34 3.6-39.4c-4.8-9.04-18.63-12.76-18.63-12.76s-2.2 22.9 0 28.2c2.1 5.34 15 23.97 15 23.97z"/>
  <linearGradient id="I" x1="498.98" x2="498.98" y1="295.72" y2="344.17" gradientUnits="userSpaceOnUse">
    <stop offset="0" stop-color="#F2AF09"/>
    <stop offset="1" stop-color="#B37048"/>
  </linearGradient>
  <path fill="url(#I)" d="M506.38 344.17c.52-2.66 9.6-23.96 0-35.14s-19.18-13.3-19.18-13.3 1.07 28.74 4.8 33.53c3.72 4.8 14.38 14.9 14.38 14.9z"/>
  <linearGradient id="J" x1="523.14" x2="523.14" y1="308" y2="344.7" gradientUnits="userSpaceOnUse">
    <stop offset="0" stop-color="#F2AF09"/>
    <stop offset="1" stop-color="#B37048"/>
  </linearGradient>
  <path fill="url(#J)" d="M504.5 344.7c.62-2.65 1.02-25.8 14.34-32.08 13.32-6.3 22.94-4.34 22.94-4.34s-12.7 25.82-18.06 28.67c-5.35 2.86-19.2 7.75-19.2 7.75z"/>
  <linearGradient id="K" x1="519.16" x2="519.16" y1="19.48" y2="62.07" gradientUnits="userSpaceOnUse" gradientTransform="rotate(-13.457 540.593 205.212)">
    <stop offset="0" stop-color="#F2AF09"/>
    <stop offset="1" stop-color="#B37048"/>
  </linearGradient>
  <path fill="url(#K)" d="M483.63 71.64c.66-1.8 8.5-10.24 4.73-21.38-3.76-11.15-9.95-21.16-9.95-21.16s-3.5 17.27-3.3 22.7c.2 5.43 8.6 19.84 8.6 19.84z"/>
  <linearGradient id="L" x1="537.72" x2="537.72" y1="43.37" y2="77.07" gradientUnits="userSpaceOnUse" gradientTransform="matrix(1.252 -.0636 .5086 1.1394 -212.97 22.572)">
    <stop offset="0" stop-color="#F2AF09"/>
    <stop offset="1" stop-color="#B37048"/>
  </linearGradient>
  <path fill="url(#L)" d="M482.87 77.02c-.5-2.17-9.16-14.87-1.76-24.1 7.4-9.2 17.8-16 17.8-16s1.1 19.34-.3 24.7c-1.4 5.36-15.7 15.4-15.7 15.4z"/>
  <linearGradient id="M" x1="365.3" x2="365.3" y1="492.82" y2="279.14" gradientUnits="userSpaceOnUse" gradientTransform="rotate(-13.457 540.593 205.212)">
    <stop offset="0" stop-color="#F2AF09"/>
    <stop offset="1" stop-color="#B37048"/>
  </linearGradient>
  <path fill="url(#M)" d="M456.6 301.3s-1.04 86.55-45 163.6c-43.98 77.02-36.2 74.26-38.7 76.15-2.85-.75-7.02-1.73-6-3.83 12.66-26.02 53.8-101.26 62.46-125.04 12.7-34.9 23-109.85 23-109.85l4.25-1.02z"/>
  <linearGradient id="N" x1="508.75" x2="508.75" y1="30.66" y2="80.17" gradientUnits="userSpaceOnUse" gradientTransform="rotate(-13.457 540.593 205.212)">
    <stop offset="0" stop-color="#F2AF09"/>
    <stop offset="1" stop-color="#B37048"/>
  </linearGradient>
  <path fill="url(#N)" d="M481.63 90.73c.66-1.8 6.7-13.35-1.27-29.38S470.1 42.58 470.1 42.58s-5.8 23.83-1.34 30.98c4.44 7.15 12.87 17.17 12.87 17.17z"/>
  <linearGradient id="O" x1="500.74" x2="500.74" y1="52.49" y2="106.79" gradientUnits="userSpaceOnUse" gradientTransform="rotate(-13.457 540.593 205.212)">
    <stop offset="0" stop-color="#F2AF09"/>
    <stop offset="1" stop-color="#B37048"/>
  </linearGradient>
  <path fill="url(#O)" d="M479.14 118.7s5.74-29.84-1.2-38.58c-6.96-8.73-16.22-13.1-16.22-13.1s-1.26 22.2 2.7 27.28c3.95 5.08 14.72 24.4 14.72 24.4z"/>
  <linearGradient id="P" x1="490.69" x2="490.69" y1="73.78" y2="129.15" gradientUnits="userSpaceOnUse" gradientTransform="rotate(-13.457 540.593 205.212)">
    <stop offset="0" stop-color="#F2AF09"/>
    <stop offset="1" stop-color="#B37048"/>
  </linearGradient>
  <path fill="url(#P)" d="M475.3 142.6c-1.28-1.32 6.94-25.2 1.36-34.26-5.58-9.06-17.23-18.86-17.23-18.86s-5.5 20.47-1.84 28.9c3.6 8.43 17.7 24.23 17.7 24.23z"/>
  <linearGradient id="Q" x1="480.64" x2="480.64" y1="97.74" y2="153.05" gradientUnits="userSpaceOnUse" gradientTransform="rotate(-13.457 540.593 205.212)">
    <stop offset="0" stop-color="#F2AF09"/>
    <stop offset="1" stop-color="#B37048"/>
  </linearGradient>
  <path fill="url(#Q)" d="M470.37 168.36s9.08-29.42 2.77-38.58c-6.3-9.15-18.82-14.45-18.82-14.45s-6.38 22.86-2.53 29.05c3.8 6.18 18.5 23.98 18.5 23.98z"/>
  <linearGradient id="R" x1="470.82" x2="470.82" y1="123.29" y2="178.13" gradientUnits="userSpaceOnUse" gradientTransform="rotate(-13.457 540.593 205.212)">
    <stop offset="0" stop-color="#F2AF09"/>
    <stop offset="1" stop-color="#B37048"/>
  </linearGradient>
  <path fill="url(#R)" d="M468.5 194.6c.04-2.2 13.5-31.42-3.6-44.02-6.5-4.8-17.25-7.37-17.25-7.37s-3.67 19-1.98 23.8 22.84 27.7 22.84 27.7z"/>
  <linearGradient id="S" x1="460.9" x2="460.9" y1="142.97" y2="194.64" gradientUnits="userSpaceOnUse" gradientTransform="rotate(-13.457 540.593 205.212)">
    <stop offset="0" stop-color="#F2AF09"/>
    <stop offset="1" stop-color="#B37048"/>
  </linearGradient>
  <path fill="url(#S)" d="M462.2 213.08c.65-1.8 12.47-24.2-2.25-37.23-14.73-13.04-20.14-10.5-20.14-10.5s1 24.4 5 30 17.4 17.73 17.4 17.73z"/>
  <linearGradient id="T" x1="450.38" x2="450.38" y1="168.37" y2="218.59" gradientUnits="userSpaceOnUse" gradientTransform="rotate(-13.457 540.593 205.212)">
    <stop offset="0" stop-color="#F2AF09"/>
    <stop offset="1" stop-color="#B37048"/>
  </linearGradient>
  <path fill="url(#T)" d="M459.48 238.37c.54-2.32 8.15-27.7-1.33-35.27-9.47-7.6-21.7-12.9-21.13-10.56.56 2.34-2.2 20.52 1.35 26.24s21.1 19.6 21.1 19.6z"/>
  <linearGradient id="U" x1="441.22" x2="441.22" y1="188.78" y2="243.08" gradientUnits="userSpaceOnUse" gradientTransform="rotate(-13.457 540.593 205.212)">
    <stop offset="0" stop-color="#F2AF09"/>
    <stop offset="1" stop-color="#B37048"/>
  </linearGradient>
  <path fill="url(#U)" d="M455.86 264.4c-.1-2.7 7.2-25.8-2.98-38.14-10.2-12.34-22.6-11.56-22.6-11.56s4.72 31.17 8.3 34.7c3.57 3.5 17.28 15 17.28 15z"/>
  <linearGradient id="V" x1="525.16" x2="525.16" y1="48.4" y2="83.64" gradientUnits="userSpaceOnUse" gradientTransform="rotate(-13.457 540.593 205.212)">
    <stop offset="0" stop-color="#F2AF09"/>
    <stop offset="1" stop-color="#B37048"/>
  </linearGradient>
  <path fill="url(#V)" d="M480.37 94.6c-.08-1.92-2.3-14.76 10.15-27.6C502.98 54.13 506 52.23 506 52.23s-1.73 24.46-8.14 29.92c-6.4 5.45-17.5 12.44-17.5 12.44z"/>
  <linearGradient id="W" x1="516.24" x2="516.24" y1="73.53" y2="108.86" gradientUnits="userSpaceOnUse" gradientTransform="rotate(-13.457 540.593 205.212)">
    <stop offset="0" stop-color="#F2AF09"/>
    <stop offset="1" stop-color="#B37048"/>
  </linearGradient>
  <path fill="url(#W)" d="M474.24 122s3.6-30.18 12.88-36.38c9.3-6.2 19.43-7.54 19.43-7.54S501 99.6 495.68 103.24c-5.3 3.63-21.44 18.76-21.44 18.76z"/>
  <linearGradient id="X" x1="521.89" x2="521.89" y1="105.4" y2="147.65" gradientUnits="userSpaceOnUse" gradientTransform="rotate(-19.926 502.456 229.314)">
    <stop offset="0" stop-color="#F2AF09"/>
    <stop offset="1" stop-color="#B37048"/>
  </linearGradient>
  <path fill="url(#X)" d="M470.97 153.83c1.74-1.2-2.14-29.58 6.08-38.43 8.2-8.85 23.34-17.18 23.34-17.18s1.5 24-4.4 32.57c-6 8.5-25.1 23-25.1 23z"/>
  <linearGradient id="Y" x1="499.88" x2="499.88" y1="118.95" y2="153.58" gradientUnits="userSpaceOnUse" gradientTransform="rotate(-13.457 540.593 205.212)">
    <stop offset="0" stop-color="#F2AF09"/>
    <stop offset="1" stop-color="#B37048"/>
  </linearGradient>
  <path fill="url(#Y)" d="M470.48 168.88s.28-28.45 8.4-34.74c8.13-6.28 20.64-7.42 20.64-7.42s-.8 21.9-5.94 26.27c-5.12 4.3-23.1 15.8-23.1 15.8z"/>
  <linearGradient id="Z" x1="491.31" x2="491.31" y1="143.3" y2="173.46" gradientUnits="userSpaceOnUse" gradientTransform="rotate(-13.457 540.593 205.212)">
    <stop offset="0" stop-color="#F2AF09"/>
    <stop offset="1" stop-color="#B37048"/>
  </linearGradient>
  <path fill="url(#Z)" d="M467.43 190.06c.64-2.1 3.14-30.45 10.67-33.36 7.54-2.9 18.67-1.78 18.67-1.78s-2.26 19.17-5.33 23.22c-3.07 4.05-24 11.92-24 11.92z"/>
  <linearGradient id="aa" x1="483" x2="483" y1="166.41" y2="198.39" gradientUnits="userSpaceOnUse" gradientTransform="rotate(-13.457 540.593 205.212)">
    <stop offset="0" stop-color="#F2AF09"/>
    <stop offset="1" stop-color="#B37048"/>
  </linearGradient>
  <path fill="url(#aa)" d="M461.67 217.06c-.1-1.9-4.54-26.84 13.46-34.8 18-7.93 22.38-3.87 22.38-3.87s-8.3 22.9-13.8 27c-5.6 4.1-21.9 11.6-21.9 11.6z"/>
  <linearGradient id="ab" x1="471.84" x2="471.84" y1="191.32" y2="221.42" gradientUnits="userSpaceOnUse" gradientTransform="rotate(-13.457 540.593 205.212)">
    <stop offset="0" stop-color="#F2AF09"/>
    <stop offset="1" stop-color="#B37048"/>
  </linearGradient>
  <path fill="url(#ab)" d="M456.56 241.97c.2-2.37.65-28.85 12-33.2 11.32-4.33 24.58-5.67 23.33-3.6-1.3 2.05-4.2 20.2-9.3 24.57-5.2 4.36-26.1 12.23-26.1 12.23z"/>
  <linearGradient id="ac" x1="463.73" x2="463.73" y1="212.52" y2="245.58" gradientUnits="userSpaceOnUse" gradientTransform="rotate(-13.457 540.593 205.212)">
    <stop offset="0" stop-color="#F2AF09"/>
    <stop offset="1" stop-color="#B37048"/>
  </linearGradient>
  <path fill="url(#ac)" d="M452.08 267.9c.92-2.57.98-26.8 14.45-35.45 13.47-8.65 25.05-4.14 25.05-4.14s-14 28.3-18.47 30.6c-4.4 2.3-21 9.1-21 9.1z"/>
  <linearGradient id="ad" x1="448.98" x2="448.98" y1="238.71" y2="270.06" gradientUnits="userSpaceOnUse" gradientTransform="rotate(-13.457 540.593 205.212)">
    <stop offset="0" stop-color="#F2AF09"/>
    <stop offset="1" stop-color="#B37048"/>
  </linearGradient>
  <path fill="url(#ad)" d="M443.56 295.1s8.5-30.33 17.3-35.6 22.57-1.27 22.57-1.27-10.03 20.7-14.6 24.14c-4.58 3.45-25.27 12.72-25.27 12.72z"/>
  <linearGradient id="ae" x1="432.16" x2="432.16" y1="218.59" y2="270.77" gradientUnits="userSpaceOnUse" gradientTransform="rotate(-13.457 540.593 205.212)">
    <stop offset="0" stop-color="#F2AF09"/>
    <stop offset="1" stop-color="#B37048"/>
  </linearGradient>
  <path fill="url(#ae)" d="M455.7 292.92s1.12-31.47-5.66-39.16c-6.78-7.68-21.1-8.08-21.1-8.08s3.24 22.76 6.55 27.44c3.3 4.68 20.2 19.8 20.2 19.8z"/>
  <linearGradient id="af" x1="424.77" x2="424.77" y1="244.68" y2="293.13" gradientUnits="userSpaceOnUse" gradientTransform="rotate(-13.457 540.593 205.212)">
    <stop offset="0" stop-color="#F2AF09"/>
    <stop offset="1" stop-color="#B37048"/>
  </linearGradient>
  <path fill="url(#af)" d="M455.6 315.93c-.1-2.7 3.76-25.53-8.18-34.17s-21.74-8.48-21.74-8.48 7.72 27.7 12.47 31.5c4.73 3.8 17.45 11.15 17.45 11.15z"/>
  <linearGradient id="ag" x1="448.93" x2="448.93" y1="256.95" y2="293.65" gradientUnits="userSpaceOnUse" gradientTransform="rotate(-13.457 540.593 205.212)">
    <stop offset="0" stop-color="#F2AF09"/>
    <stop offset="1" stop-color="#B37048"/>
  </linearGradient>
  <path fill="url(#ag)" d="M453.9 316.88c0-2.7-5-25.32 6.48-34.54 11.5-9.22 21.3-9.55 21.3-9.55s-6.34 28-10.9 32c-4.53 4-16.87 12-16.87 12z"/>
  <linearGradient id="ah" x1="258.49" x2="258.49" y1="834.11" y2="1088.71" gradientUnits="userSpaceOnUse">
    <stop offset="0" stop-color="#A16661"/>
    <stop offset="1" stop-color="#663139"/>
  </linearGradient>
  <path fill="url(#ah)" d="M35.98 890.13C-67.38 1019.9 392.56 1198.7 483.3 999.83c70.7-154.97-175.1-132.27-188.96-133.1C182 860 120.48 784.03 35.98 890.13z"/>
  <path fill="#DFD9C9" d="M247.4 859.95s-19 13.6 34.24 18.76c40.83 4 26.05-12.3 25.72-12.3-.15 0-12.98.7-25.9-.7-16.54-1.7-34.06-5.7-34.06-5.7z"/>
  <linearGradient id="ai" x1="35.02" x2="145.24" y1="1028.26" y2="1148.53" gradientUnits="userSpaceOnUse" gradientTransform="rotate(102.504 94.414 1082.78)">
    <stop offset="0" stop-color="#E9CB6B"/>
    <stop offset="1" stop-color="#E9AE6B"/>
  </linearGradient>
  <path fill="url(#ai)" d="M62 1159.05c30.97 12.9 117.03-32.2 117.04-65.78 0-39.02-39.1-128.23-141.3-76.4-33.84 17.2-44.5 113.53 24.26 142.2z"/>
  <path fill="#F4E7B3" d="M50.17 1010.78c13.73-4.08-35.77 59.04-36.57 44.74-.5-8.87 8.9-24.84 13.8-30.73 4.65-5.6 15.24-11.8 22.77-14.1z"/>
  <path fill="#DEBE97" d="M353.74 1025.13c-7.6-10-14.73-50.1-25.44-56.66-30.3-18.6-112.85 3.97-139.5 27.5-28.98 25.57-63.76 111.25-48.54 146.8 15.48 36.1 92.35 101.4 129.6 88.9 82.86-27.75 126.58-150.4 83.88-206.54z"/>
  <g opacity=".4">
    <defs>
      <path id="aj" d="M353.74 1025.13c-7.6-10-14.73-50.1-25.44-56.66-30.3-18.6-112.85 3.97-139.5 27.5-28.98 25.57-63.76 111.25-48.54 146.8 15.48 36.1 92.35 101.4 129.6 88.9 82.86-27.75 126.58-150.4 83.88-206.54z" opacity=".4"/>
    </defs>
    <clipPath id="al">
      <use xlink:href="#aj" overflow="visible"/>
    </clipPath>
    <radialGradient id="ak" cx="229.96" cy="1041.19" r="182.46" gradientTransform="matrix(1.1696 0 0 1 -63.22 0)" gradientUnits="userSpaceOnUse">
      <stop offset="0" stop-color="#DEE0DB"/>
      <stop offset="1" stop-color="#DEBE97"/>
    </radialGradient>
    <path fill="url(#ak)" d="M6.74 847.2h398v388h-398z" clip-path="url(#al)"/>
  </g>
  <path fill="#DFD9C9" d="M296 986.56c-3.78-3.73-23.75-4.88-20.96 3.5 2.8 8.37 16.76 20.24 20.95 18.15 4.1-2.1 3.8-17.8 0-21.6z"/>
</svg>
