<svg xmlns="http://www.w3.org/2000/svg" width="470.74" height="521.89" xmlns:xlink="http://www.w3.org/1999/xlink">
  <path fill="#BFB5A9" d="M490.3-623.64c-.84-.38-9.48 11.92-7.67 17.08.66 1.9 6.56 5.1 8.56 3.87 10.5-6.4 11.2-41-.9-20.9z"/>
  <path fill="#3D2D1E" d="M25.5-298.35c4.73 2.9 19.02 4.54 22.24 0 4.73-6.68-26.78-52.62-29.23-61.2-7.5-26.3 18.1-89.2-.4-109.4-1.2-1.37-57.3 16.58-64.3 33.3-7.8 18.93 25.9 49.74 27.2 52 17 28.9 32.5 63.67 44.5 85.3z"/>
  <path fill="#BFB5A9" d="M-1.7-509.64c-16.42 1.73-25.73 25.86-30.14 38.9-5.1 15.03-11.37 38.36-2.55 53.25 2.6 4.4 6.9 7.9 11.2 10.4 2.6 1.5 5.3 2.7 8.2 3.5 7.2 2.2 2.6 2.7 6.6 7.6 2.9 3.5 7 .6 9-2 6.6-8.5 5.5.8 10.5 4.4 7.4 5.4 7.5-9.2 11.4-10.1 1.3 0 3.5 9.4 8.4 8.6 4.2-.5 5.9-6.4 5.1-9.9.2-.2.4-7 2.6-2.3 1.6 3.3 6.4 8.9 10.7 7.4 3.3-1.2 3.6-4.9 3.2-7.9-1.1-8.2-1.4-5.6 6.9-11.3 15.3-10.3 15.1-22.9 14.3-39.7-2.1-42.7-36.6-54.7-75.1-50.6-24.6 2.6 82.8-8.7 0 0z"/>
  <path fill="#3D2D1E" d="M256.05-435.27c1.85 17.93 3.93 41.82 6.8 57.18 1.43 7.7 6.2 22.6 6.8 30.3.84 11.2-4.6 41.7 1.85 50.8 2.7 3.8 17.78 2 21.64-.6 28.6-19.3 6.8-135.5 6.18-137.9-.62-2.4-44.45-11-43.27.4zm-325.1-39.17c2.86-26.04 12.86 5.02 12.93 5.62.07.6 1.44 12.24 1.87 16.32 1.88 17.8-12.14 62.26-15.53 65.95-1.93 2.1-4.8-51.2-4.87-53.43-.27-8.72 4.64-25.8 5.6-34.46z"/>
  <path fill="#664926" d="M-58.42-538.5c2.3 10.67 9.9 41.42 8.65 71.86-.6 14.5-21.53 32.76-19.65 47.14 5.8 44.27 6.05 108 18.57 130.73 3.87 3.3 19.27 3.58 22.56-.3 1-23.66-16-35.7-11.5-80.2 2.4-23.43 22.1-54.7 32.9-75.58C4-466.02 48.4-481.82 62.6-470.5c6.76 5.4 3.62 31.17 8.5 38.32 8.32 12.22 39.3 16.13 53.93 18.24 36.6 5.27 122.7-26 151.2-2.48 7.4 44.5 9.5 104.6 12.3 132.42 3.7 3.96 28.8 8.75 27.28-.8-5.8-36.44-7.4-59-.9-80.62 3.1-10.2 2.2-29.83 2.8-41.3 8-.12 47.9-13.8 64.4-38.7 9.8-14.87 31.9-53.67 49.4-53.56 17.6.12 54.1 5.8 69.2 16.23 13.1 9.02 35.1-4.83 33.2-17.62-.2-1.83-20.2-45.55-24.1-61.92-.7-3.1.6-10.3-1.2-12.9-18.7-27.2-15.5-50-25.5-48.2-12.7 2.4-10.2 11.9-11.2 9.4-1.3-1.6-5.7-13.8-12-15-11.4-2.2-11.1 16.3-9.4 19.6-111 4.6-100.4-8.4-135.6-14.6-59.8-10.5-197.9 6.7-256.7-8.4-19.5-5-44.9-8.2-64.6-8.7-32.4-.8-42.3 14.7-51 27.1-1 1.4-10.3 11.7-11.6 15.9-.4 1.4 7.2 31 2.8 77.4-6.8 72 13.3 61.8 10.5 51.8-5-18.2-2.2-69.7-2.2-69.4z"/>
  <path fill="#BFB5A9" d="M497.47-656.63c-.65-.63-.25.08.02.58 11.4 21.34-21.7 36.37-21.7 41.83 0 2 4.6 7.43 6.8 6.5 7.8-3.4 34.4-32.2 14.8-48.9z"/>
  <linearGradient id="a" x1="229.52" x2="229.52" y1="-716.54" y2="-108.17" gradientUnits="userSpaceOnUse">
    <stop offset="0" stop-color="#FFF"/>
    <stop offset="1"/>
  </linearGradient>
  <path fill="url(#a)" d="M533.6-500.36c-.28-1.84-20.27-45.56-24.12-61.93-.74-3.1.62-10.3-1.23-12.9-7.66-11.1-11.66-21.5-14.4-29.8 4.03-5 5.9-14.4 5.32-20 6-10.1 8.76-22.5-1.7-31.4-.65-.6-.25.1.02.6 7.3 13.8-3.9 25-12.7 32.6-.7-.1-1.3-.1-2.1 0-12.8 2.4-10.2 11.9-11.3 9.5-1.3-1.6-5.7-13.8-12.1-15-11.5-2.2-11.2 16.2-9.4 19.6-111.1 4.6-100.5-8.4-135.6-14.6-59.8-10.6-198 6.7-256.8-8.4-19.6-5-45-8.2-64.6-8.7-32.5-.8-42.4 14.8-51 27.1-1 1.5-10.3 11.7-11.6 15.9-.5 1.5 7.2 31 2.8 77.5-1.7 17.6-1.8 30.2-1 39.2-.6 1.7-1 4-1.4 7.3-1 8.7-5.9 25.8-5.6 34.5.1 2.3 2.9 55.6 4.9 53.5.7-.7 1.8-3.1 3.1-6.6 3.5 40.2 5.6 85.9 15.8 104.4 3.8 3.3 19.2 3.6 22.5-.3.9-23.6-16.1-35.7-11.6-80.2.9-8.6 4.1-18.4 8.4-28.2 6.2 7.5 11.9 13 12.4 13.9 17 28.9 32.4 63.7 44.5 85.3 4.7 2.9 19 4.5 22.2 0 4.7-7-26.8-52.9-29.3-61.5-2.8-10-.9-25.4 1.6-41.6.6-1.4 1.3-2.4 2.3-2.6 1.2 0 3.4 9.4 8.4 8.6 4.1-.6 5.8-6.4 5.1-9.9.1-.2.3-7 2.6-2.4 1.6 3.3 6.3 8.9 10.6 7.4 3.2-1.2 3.6-4.9 3.1-7.9-1.2-8.2-1.5-5.6 6.9-11.3 5.9-4 9.5-8.4 11.7-13.2l.2.4c8.3 12.2 39.3 16.1 53.9 18.2 30.3 4.4 94.8-16.4 132.2-10.1 1.5 15.8 3.3 33.6 5.6 46 1.4 7.7 6.2 22.6 6.8 30.3.8 11.1-4.6 41.7 1.8 50.8 1.9 2.7 10 2.5 15.9 1.3.3 4.38.6 8.3 1 11.8 3.7 4 28.8 8.78 27.3-.8-5.9-36.4-7.5-59-1-80.6 3-10.2 2.2-29.8 2.7-41.3 8-.1 47.9-13.8 64.4-38.7 9.8-14.8 31.8-53.6 49.3-53.5 17.6.1 54.1 5.8 69.2 16.2 13.1 9 35-4.82 33.2-17.6zm-583.37 33.72c-.17 4.2-2.04 8.7-4.57 13.32-.4-3.8-1.3-11.42-1.64-14.34-.02-.2-.04-.42-.08-.62l-.06-.54c0-.06-.1-.36-.25-.84-4.8-18.68-2.12-69.13-2.05-68.84 2.3 10.67 9.9 41.42 8.65 71.86z"/>
  <path fill="#BF9582" d="M251.98 420.47c-2.34-.3-12.94 63-14.9 63.65s-21.93 10.4-18.9 15.78c7.15-1.44 12.95-6.97 17.06-5.22.37 10.35 2 16.57 22.8 27.2.85-3.13-1.8-9.7-7.7-13.25 6.08-1.54 34.72 3.56 42.58 3.1-12.77-14.73-35.78-14.12-37.38-16.36-8.44-11.9-1.1-49.78 7.25-59.12-.7-4.33-6.5-15.2-10.9-15.78z"/>
  <path fill="#BF9582" d="M282.48 408.02c-2.36.14-.83 64.3-2.63 65.32s-19.58 14.36-15.6 19.06c6.76-2.76 11.42-9.3 15.78-8.34 2.3 10.1 5.1 15.9 27.52 22.42.25-3.25-3.6-9.18-10.06-11.57 5.6-2.6 34.7 5.5 42.4 3.6-15.4-12-37.9-15.7-39.8-17.6-10.6-10-13.7-62.1-7.2-72.8-1.5-4.1-6.1-.2-10.5 0z"/>
  <path fill="#D8D8D8" d="M444.32 61.15c1.1-2.53 9.6-16.85 8.1-22.67-1.9-7.2-15.4-17.56-22.64-19.33-16.6-4.07-53.85 3.98-66.65 15.33-49.97 44.33-27.06 69.44-37.74 90.9-6.2 12.47-15.5 38.05-27.1 45.77-10.2 6.78-12.6 10.14-48.2 15.66-43.4-6.6-64.4 17-84 2.4-3-2.2-1.1-11.4 0-15 18-58.3 2.3-161.9-36-152.3-8 2 8.3 27.7 5.5 37.7-4-17.3-20.9-27.7-32.6-21-21.4-4-11.4 14-11.4 14-16.7 2-23.3 21.7-22.7 24-17.3-13.6-35.3 22.7-27.3 24-5.7 2.4-4.7 5.8-5.5 8.7-31.5 1.7-19.7 23.4-17.9 30-39 11.4-5.6 33.3 3.2 42.7-3.6 10.8-2.6 33.7 20.8 50.7-12.3 13.3-10.5 19.9-6 26.7 4.9 7.4 21.5 15.4 28.7 20.7 9.7 57.3 103.7 166.3 183.4 139.3 4.1 3.9 9 17.8 14.6 17.4 26.4-2.1 23.7-18.8 32.6-20.6 40.3-8.3 131.9-89.3 149-140.6 13.5-40.7-28.1-134.8-19.7-177 1.9-9.6 15.3-27.9 19.1-37z"/>
  <path fill="#936565" d="M411.15 72.64c3.5 28 17.86 21.47 25.5 19 23.38-2 20.25-27.37 11.63-34.25-10.4-8.3-19.63 8.5-37.13 15.2z"/>
  <path fill="#BF9582" d="M443.37 59.05c1.88-.43 6.25-1.78 8.22-1.47 3.9.63 5.3.5 15.6 1.7.9.1 2.9 1.85 3.4 1.12 1.2-9.36-9.8-18.35-16-18.88-4.1-.35-10.4 6.92-12.4 10.5-.7 1.25-.6 6.1 1 7.03z"/>
  <path fill="#936565" d="M423.03 17.58c-1-4.27-.45-16.52 3.94-16.3 2.62.1 8.46-1.9 9.67-1.08 1.75 1.2 1.06 5.12.92 5.62-.08.28-.2.97.08.64 1.4-1.63 3.92-2.75 5.14-1.96 1.97 1.3.56 3.22-.47 5.88 0 .22.1.92.3.7 2-2.08 4.8-3.75 6.4-2.25 2.3 2.15-.6 6.82-1.9 9.5-.1.2.5-.06.7-.1 3.3-.5 3.5-1.3 5.6-.34 5.8 2.8 14.6 18.8 10.3 23.6-2.6 2.9-11.8-.6-15.5-1.9-7.5-2.7-23-14.3-24.8-22.1z"/>
  <linearGradient id="b" x1="235.37" x2="235.37" y2="521.89" gradientUnits="userSpaceOnUse">
    <stop offset="0" stop-color="#FFF" stop-opacity="0"/>
    <stop offset="1" stop-color="#3F4568"/>
  </linearGradient>
  <path fill="url(#b)" d="M458.23 42.52c2.23.26 4.18.08 5.17-1 4.34-4.77-4.45-20.83-10.25-23.63-2.03-1-2.23-.2-5.55.3-.2 0-.73.3-.63.1 1.28-2.7 4.24-7.4 1.93-9.5-1.6-1.5-4.4.1-6.34 2.2-.23.2-.34-.5-.25-.7 1.1-2.7 2.5-4.6.5-5.9-1.2-.8-3.7.3-5.1 1.9-.3.3-.1-.4-.1-.7.2-.5.9-4.4-.9-5.6-1.2-.9-7 1.2-9.6 1-4.4-.2-4.9 12-3.9 16.3.1.2.1.4.2.6-18.3-1.2-48.7 6.2-60 16.2-50 44.3-27 69.4-37.7 90.9-6.2 12.4-15.5 38-27.1 45.7-10.2 6.8-12.5 10.1-48.1 15.6-43.3-6.7-64.3 17-84 2.4-3-2.3-1.1-11.5 0-15 18-58.4 2.3-161.9-36-152.4-8 2 8.4 27.6 5.6 37.7-4-17.4-20.9-27.7-32.5-21.1-21.3-4-11.3 14-11.3 14-16.7 2-23.3 21.6-22.7 24C52 62.6 34 99 42 100.3c-5.67 2.3-4.68 5.8-5.5 8.7-31.5 1.7-19.7 23.4-17.83 30-39 11.4-5.52 33.3 3.2 42.7-3.6 10.8-2.5 33.7 20.8 50.7-12.3 13.4-10.5 20-6 26.7 4.97 7.3 21.6 15.4 28.7 20.7 9.54 57.4 103.54 166.4 183.2 139.4.8.75 1.6 1.9 2.48 3.22-3.46 10.6-12.12 61.2-13.9 61.8-1.94.6-21.9 10.4-18.9 15.8 7.18-1.5 12.98-7 17.1-5.2.3 10.3 2 16.5 22.8 27.2.8-3.2-1.8-9.7-7.7-13.3 6.02-1.6 34.7 3.5 42.52 3.1-12.74-14.7-35.74-14.1-37.34-16.4-8.4-11.8-1.2-49.2 7.07-58.9h.55c8.6-.7 14.1-2.9 17.9-5.7-.2 18.6-.1 41.9-1.2 42.5-1.8 1-19.55 14.3-15.6 19 6.8-2.75 11.45-9.3 15.8-8.33 2.3 10.1 5.1 15.9 27.5 22.4.28-3.3-3.6-9.2-10.03-11.6 5.65-2.7 34.74 5.5 42.4 3.6-15.35-12.1-37.88-15.7-39.8-17.6-8.2-7.8-11.9-41.1-10.1-60.5 1.6-2.3 3.22-4.1 5.8-4.6 40.33-8.3 131.92-89.3 149-140.7 13.56-40.8-28.1-134.9-19.67-177 .26-1.3.7-2.6 1.26-4.1 3.8-.1 7.5-1.6 10.3-2.5 23-2 20.3-26.5 12-33.9 1.1-.2 2.2-.3 2.9-.2 3.9.6 5.3.5 15.7 1.7.9.1 2.9 1.8 3.4 1.1 1-7.7-6.3-15.2-12.4-17.9zm-4.48-.95c-.43.07-.88.2-1.34.4.1-.26.1-.5.1-.76l1.3.4z" opacity=".3"/>
  <path fill="#AF9D95" d="M73.53 1054.3c-.05 2.4-14.64 60.9-8 80 10.96 31.5 92.5 92.88 89.33 95.34-6 4.67-48.8 3.76-50.12.43s-85.2-60.43-119.2-83.76c-33.88-23.2-46.08-144.3-10-164 26.7-14.5 98.68 41.6 98 72zm193.34 68.67c2.3 1.37-6 54.8 15.33 108.25 2.78 6.97-29.33 1.58-30 0s-44.3-59.25-37.33-80.25c4.64-14 39.32-35.57 52-28zm195.33-242c7.24-11.98 39.67-30.33 53.58-31.13 6.03-.34-9.5 18.6-10.9 24.46-2.47 10.23 1.32 47 .65 43.67s-50.23-25.58-43.33-37z"/>
  <path fill="#D8BBAF" d="M33.54 1056.3c-8.5 3.9-18.1 21.9-21.34 30.67-6.33 17.13-9.08 54.5-7.33 72.67 3 31.02 28.58 83.25 35.58 125-3.05 3.4-20.67 3.6-24.25 3.67-14-4.9-34.67-16.6-48-84.6-7-13.8-21.38-41.6-25.33-56.6-3.15-12 .73-38.2-4.67-49.3-2.4-5-13.44-20.2-16-15.3-2.5 4.9 5.55 30.1 2.62 37-.42 1-1.77 2.6-2.37 1.6-9.07-15.6-10.62-30-11.58-39.9-80.67-119.1-54-178.7-5.33-214 176.66-128 277.6-14.9 370-22 210-16 240 74.7 276.66 108.7 8.62 8 34.8 14.2 40 24.7 24.67-16.6 28 38.7-4.66 46-3.6 4.7-16.43 6.3-22 8-22.57 7.3-67.85 22.2-91.34 25.4-44.74 6-131.34 34-175.33 30.7-13.46-1-24.9 37.5-33.34 48-43.53 54.3-27.56 58-20 123.4-10 3.9-33.8 1-37.12-23.7-.6-4.6-14.8-56.6-15.5-78.3-.6-21.3-12.9-52.9-14.6-83.3-34-10.7-105.3-14.7-144.6-18z"/>
  <path fill="#AF9D95" d="M405.53 948.34c3.27-.67 37.56-32.38 46-46.62 9.27-15.62-7.63-79.23-20.33-71.42-21.67 13.34-15.06 38.62-17.33 51-3.16 17.2-21.34 69.67-8.34 67.04z"/>
  <linearGradient id="c" x1="235.37" x2="235.37" y1="805.59" y2="1288.31" gradientUnits="userSpaceOnUse">
    <stop offset="0" stop-color="#FFF" stop-opacity="0"/>
    <stop offset=".19" stop-color="#D9C0C0" stop-opacity=".19"/>
    <stop offset=".41" stop-color="#B07C7C" stop-opacity=".41"/>
    <stop offset=".61" stop-color="#8F4747" stop-opacity=".61"/>
    <stop offset=".78" stop-color="#782020" stop-opacity=".78"/>
    <stop offset=".92" stop-color="#690909" stop-opacity=".92"/>
    <stop offset="1" stop-color="#640000"/>
  </linearGradient>
  <path fill="url(#c)" d="M592.2 978.3c-5.2-10.53-31.38-16.67-40-24.66-13.63-12.64-26.34-33.1-47.7-53-.54-9.92-.84-21.32.37-26.33 1.4-5.8 16.94-24.8 10.9-24.4-11.43.7-35.4 13.2-47.57 24.3-5.14-2.9-10.63-5.6-16.5-8.2-4.24-20.3-13.1-40.1-20.5-35.6-9.84 6.1-13.84 14.6-15.5 23.3-34.95-9-80.22-13.1-140.17-8.6-92.4 7.1-193.33-106-370 22-48.67 35.3-75.33 94.9 5.34 214 .96 10 2.5 24.3 11.58 39.9.6 1.1 1.95-.6 2.37-1.6 2.92-6.9-5.13-32.1-2.62-37 2.55-4.9 13.6 10.4 16 15.4 5.4 11.2 1.52 37.4 4.67 49.4 3.95 15 18.33 42.8 25.33 56.7 13.33 68 34 79.8 48 84.7 3.58 0 21.2-.2 24.25-3.6-7-41.7-32.6-94-35.58-125v-.1c39.1 26.8 98.74 67.7 99.87 70.5 1.33 3.4 44.12 4.3 50.13-.4 3.15-2.4-78.38-63.8-89.34-95.3-5.58-16 3.82-59.8 7-74.9 37.32 3 81.18 7.3 105.67 14.9 1.8 30.5 14 62 14.67 83.4.67 21.7 14.9 73.6 15.54 78.3 3.4 24.7 27.1 27.6 37.2 23.7-2.6-22.5-6.2-37.7-8-50.1 7.8 12.1 14.5 21.1 14.7 21.7.7 1.6 32.8 7 30 0-15.7-39.3-15.3-78.7-15-97.3 8.3-12.9 19.1-46.5 31.7-45.6 44 3.4 130.6-24.7 175.4-30.6 23.5-3.1 68.8-18.1 91.4-25.3 5.6-1.8 18.4-3.4 22-8 32.7-7.3 29.4-62.7 4.7-46z" opacity=".3"/>
  <path fill="#58385E" d="M451.65 1711.84c-41.5-84.38-141.87-16.44-231.9-10.15C8.6 1716.4 4 1879.6 113.25 1924.8c141.15 58.37 381.64-125.08 338.4-213z"/>
  <path fill="#5E7628" d="M453.13 1715.16c4.98 10.04 4.76 33.03 2.38 41.97-5.8 22.14-56.4 72.27-64.6 64.95-15.7-12.5.1-63.3-11.5-79.8-11-15.6-68.6-16.93-67.3-35.97 8.3-3.7 45.3-10.4 53-23 2-3.3-2.7-7.2-.1-10.1 4.7-5.2 22-4.8 28.7-2.8 2.4.7 5.9 5.2 8.3 5.6 3.6.5 10.4-2.6 13.9-1.7 4.6 1.2 12.1 8.8 16.9 9.4 7.1.8 16.4-13.8 23-11.3 6.9 2.6-3.8 11.1 10.5 27.7-1.4 7.1-11.1 8.3-12.8 15.3z"/>
  <linearGradient id="d" x1="254.31" x2="254.31" y1="1668.92" y2="1936.08" gradientUnits="userSpaceOnUse">
    <stop offset="0" stop-color="#FFF" stop-opacity="0"/>
    <stop offset=".14" stop-color="#D5D4E2" stop-opacity=".14"/>
    <stop offset=".37" stop-color="#9490B6" stop-opacity=".37"/>
    <stop offset=".58" stop-color="#605B93" stop-opacity=".58"/>
    <stop offset=".76" stop-color="#3A3479" stop-opacity=".76"/>
    <stop offset=".91" stop-color="#231D6A" stop-opacity=".91"/>
    <stop offset="1" stop-color="#1B1464"/>
  </linearGradient>
  <path fill="url(#d)" d="M465.95 1699.85c-14.3-16.6-3.52-25.06-10.44-27.67-6.6-2.5-15.9 12.1-22.9 11.3-4.7-.53-12.2-8.1-16.8-9.34-1-.28-2.4-.2-3.9.06-5.7-1.98-11.8-3.22-18.1-3.83v-.03c-5.4-1.64-17.7-2.24-24.7.33-44.8 4.55-98.6 27.5-149.1 31.02-211.4 14.7-216 177.9-106.7 223.1 111.8 46.2 285.9-59.3 332-148.8 5.1-7.1 8.9-13.8 10.3-19 2.4-9 2.6-32-2.3-42 1.8-7.1 11.5-8.2 12.8-15.3z" opacity=".4"/>
  <path fill="#EE1B08" d="M198.2 1811.34c0 74-68.17 133.6-142.13 131-75.53-2.66-130.2-57-130.2-131S-12.8 1677.8 75.25 1677.8c74 0 122.96 59.53 122.96 133.54z"/>
  <path fill="#7D9D38" d="M63.95 1738.1c-1.97 1.6-7.4-.06-9.75-1.26-2.5-1.3-4.95-7.3-7.75-7.75-6.93-1.2-26.17 11.2-28.58 11.2-14.92 0-101.42-24.3-107.33 10.6-.06-39.7 71.23-12 89.33-21.4 4.6-13.9-54.16-44.4-49.16-61.1 7.4 8.5 13 14.2 31 19.5 20 5.8 25.8 28.7 43.5 17.6 8.8-5.5-8.5-30.9-1.3-41.4 11.1 9.2 15.7 58.2 19.5 49.5 4.7-10.7 21.1-13 32.4-31.2 7.3-11.7 6.8-28.6 12.5-37.1 6.2-9.1 7.9-8.2 9-8-.8 1.1-1.1-.2-7 9.7-5.1 8.7-1.7 26-8 38.6-8.2 16.6-25.7 28.7-26.1 37.7-.1 4.4 5.2 7.8 7.9 14.4z"/>
  <g opacity=".5">
    <defs>
      <path id="e" d="M198.2 1811.34c0 74-68.17 133.6-142.13 131-75.53-2.66-130.2-57-130.2-131S-12.8 1677.8 75.25 1677.8c74 0 122.96 59.53 122.96 133.54z" opacity=".5"/>
    </defs>
    <clipPath id="g">
      <use xlink:href="#e" overflow="visible"/>
    </clipPath>
    <radialGradient id="f" cx="-5" cy="1767.45" r="201.02" gradientTransform="matrix(.9288 0 0 1 29.01 0)" gradientUnits="userSpaceOnUse">
      <stop offset="0" stop-color="#FFF" stop-opacity="0"/>
      <stop offset=".19" stop-color="#C0C0C0" stop-opacity=".19"/>
      <stop offset=".41" stop-color="#7C7C7C" stop-opacity=".41"/>
      <stop offset=".61" stop-color="#474747" stop-opacity=".61"/>
      <stop offset=".78" stop-color="#202020" stop-opacity=".78"/>
      <stop offset=".92" stop-color="#090909" stop-opacity=".92"/>
      <stop offset="1"/>
    </radialGradient>
    <path fill="url(#f)" d="M-179.63 1586.95h408v361h-408z" clip-path="url(#g)"/>
  </g>
  <path fill="#A5C44C" d="M377.04 1879.2l21.92-.8 42.4.55v-8l3.34-8.5-12.66-1.5-3.34-3.67 6-1.67-1.5-10.8-60.33 10.2"/>
  <path fill="#DD7236" d="M-40.3 1907.36c-34.66 11.6-21 43.92-2.33 43.6 34.77-.63 94.5 5.86 156-3.68 139.67-21.67 282.44-9.5 270-82.33-9.33-54.67-96.33-21.64-200.66 4-51.2 12.58-106.5 20.52-157.6 29-21.6 3.58-46.2 3.02-65.3 9.4z"/>
  <linearGradient id="h" x1="184.93" x2="199.71" y1="1860.12" y2="1943.94" gradientUnits="userSpaceOnUse">
    <stop offset="0" stop-color="#FFF" stop-opacity="0"/>
    <stop offset=".08" stop-color="#F8E7E7" stop-opacity=".08"/>
    <stop offset=".33" stop-color="#E5A3A6" stop-opacity=".33"/>
    <stop offset=".56" stop-color="#D56E72" stop-opacity=".56"/>
    <stop offset=".75" stop-color="#CA474C" stop-opacity=".75"/>
    <stop offset=".9" stop-color="#C33035" stop-opacity=".9"/>
    <stop offset="1" stop-color="#C1272D"/>
  </linearGradient>
  <path fill="url(#h)" d="M432.04 1860.95l-3.34-3.67 6-1.67-1.5-10.8-53.37 9c-19.38-38.4-100.88-8.5-197.13 15.2-51.2 12.6-106.5 20.5-157.66 29-21.63 3.6-46.2 3-65.33 9.4-34.6 11.6-21 44-2.3 43.6 34.8-.6 94.5 5.9 156-3.6 130-20.1 262.6-11 270.4-68.3l15.2-.5 42.4.6v-8l3.4-8.5-12.6-1.5z" opacity=".2"/>
  <path fill="#437013" d="M371.4 2668.1c5.77-3.46 42.94-41.2 42.88-56.8-.02-6.8-8.9-25.05-6.34-31.46 2.95-7.4 4.02-28.77 5.3-40.94 4.92-46.27-298.87-346.8-324.3-438.35-7.8 53.03 43.52 92.82 111.24 205.63-38.66-50.07-182.15-188.65-209.55-228.42-26.53 13.65 46.62 78.17 52.83 107.02-15.08-15.56-60.9-53.73-76.3-66.53-19.37 9.6 17.57 65.64 11 80-17.17-24.26-34.67-64.05-48.2-84.9-22.3 8.32 64 166.93 62.33 182.57-.8 7.02-61.2-53.27-119.7-39.43 95.1 38.9 88 41.8 102.8 61.3 180.1 237.2 301.1 319.1 324.2 327.3 31.1 11 30.6 2.4 45.3 7.7 5.7 2.1 21.1 18.3 26.4 15.2z"/>
  <path fill="#FEC02D" d="M399.74 2565.75c2.55-2.28 4.34-4.06 4.34-4.06 1.7-2.4 2-5.4 1.1-8 1.58-1.5 2.6-2.5 2.6-2.5 2.77-4 1.84-9.4-2.1-12.2l-.73-.6c-.45-.4-1.06-.4-1.8-.3.5-3.3-.98-6.8-4.02-8.7l-.78-.5c-.24-.2-.53-.2-.85-.3-.03-2.9-1.47-5.7-4.1-7.3l-.78-.5c-.6-.4-1.46-.3-2.47 0 .46-3.3-1-6.8-4.03-8.6l-.78-.5c-.27-.2-.6-.3-.96-.3 0-2.9-1.45-5.8-4.1-7.4l-.77-.5c-.2-.1-.4-.2-.7-.2-.6-1.9-1.8-3.7-3.7-4.8l-.7-.5-.3-.2c-.3-2.3-1.5-4.4-3.5-5.8l-.7-.5c-.3-.2-.6-.3-.9-.3.2-2.9-1.1-5.8-3.6-7.6l-.7-.6c-.4-.3-1-.4-1.7-.3-.3-2.3-1.5-4.5-3.6-5.9l-.8-.5c-.3-.2-.6-.3-.9-.3.2-2.9-1.1-5.8-3.6-7.6l-.7-.6c-.4-.4-1.1-.4-1.8-.3-.3-2.4-1.5-4.6-3.6-6.1l-.7-.6c-.4-.3-1-.4-1.8-.3.5-3.4-1-6.8-4-8.7l-.8-.5c-.2-.2-.5-.2-.8-.2 0-2.9-1.5-5.7-4.1-7.4l-.8-.5c-.6-.4-1.5-.3-2.5 0 .4-3.3-1-6.7-4.1-8.6l-.7-.5c-.3-.2-.6-.2-1-.2 0-2.9-1.5-5.8-4.1-7.4l-.8-.5c-.2-.2-.5-.2-.7-.3-.6-1.9-1.9-3.68-3.7-4.8l-.8-.5c-.3-.2-.7-.3-1.2-.3-.2-2.6-1.6-5.1-4.1-6.6l-.8-.4c-.3-.1-.6-.2-1-.2 0-2.9-1.5-5.7-4.1-7.37l-.8-.5c-.2-.16-.5-.2-.8-.25 0-2.9-1.5-5.6-4.1-7.3l-.8-.4c-.5-.3-1.1-.3-1.9-.1-.4-2.3-1.8-4.5-4-5.8l-.7-.43c-.2-.16-.6-.23-.9-.24 0-2.9-1.4-5.76-4.1-7.4l-.8-.5c-.6-.4-1.5-.3-2.6.1-.2-2.8-1.9-5.5-4.6-6.9l-.8-.5c-.2-.1-.5-.2-.8-.2-.2-2.85-1.8-5.55-4.6-7l-.8-.44c-.6-.3-1.4-.2-2.4.2.2-3.4-1.5-6.7-4.6-8.3l-.8-.5c-.5-.3-1.2-.28-2 0-.6-2.38-2.1-4.4-4.4-5.68l-.8-.4c-.2-.1-.5-.15-.8-.2-.7-1.8-2-3.5-4-4.5l-.8-.4c-.2-.18-.5-.2-.8-.2-.4-2.86-2.1-5.46-4.8-6.8l-.8-.4c-.3-.17-.6-.2-1-.2-.3-2.9-2-5.55-4.8-6.9l-.8-.4c-.5-.26-1.1-.2-1.8 0-.7-2.2-2.2-4.2-4.5-5.3l-.8-.4c-.3-.1-.6-.2-1-.18-.3-2.9-2-5.54-4.8-6.9l-.8-.4c-.5-.25-1.1-.2-1.9.06-.6-2.3-2.2-4.3-4.5-5.4l-.8-.4c-.4-.2-1-.2-1.7 0l-.1-.1c-.1-3.3-2.1-6.4-5.4-7.7l-.8-.4c-.2-.1-.5-.2-.8-.1-.5-2.9-2.4-5.4-5.22-6.6l-.9-.34c-.55-.2-1.2-.1-2 .2l-.53-.5c-.3-3.06-2.2-5.85-5.3-7.1l-.8-.36c-.3-.1-.6-.17-1-.1-.5-2.9-2.36-5.4-5.2-6.6l-.9-.4c-.2-.1-.5-.1-.76-.1-.9-1.8-2.4-3.3-4.4-4.1l-.75-.4c-.4-.1-.9 0-1.1-.1-.9-2.3-2.6-4.6-5.2-5.7l-.9-.3c-.3-.1-.7-.1-1-.1-.5-2.8-2.4-5.4-5.3-6.5l-.9-.3c-.3-.1-.6-.1-.9-.1-.5-2.8-2.4-5.33-5.3-6.5l-.83-.4c-.5-.2-1.2-.1-1.9.2-.8-2.2-2.5-4.1-4.9-5.1l-.8-.3c-.3-.13-.6-.2-1-.1-.5-2.9-2.4-5.4-5.2-6.6l-.8-.33c-.64-.3-1.5-.1-2.4.5l-.2-.2c-.74-2.7-2.75-5-5.6-5.9l-.85-.3c-.3-.1-.6-.1-.9-.05-.7-2.8-2.75-5.2-5.7-6.2l-.86-.2c-.6-.2-1.3-.03-2 .36l-.5-.4c-.5-3.1-2.6-5.7-5.8-6.8l-.9-.3c-.5-.2-1.2-.03-1.9.3-1-2.2-2.8-4-5.2-4.8l-.9-.3c-.2-.1-.5-.1-.8-.05-1-1.8-2.6-3.2-4.7-3.87l-.84-.3c-.4-.15-.9-.1-1.4.1-1.2-2.56-3.6-4.5-6.5-5-1.3-2.46-3.6-4.3-6.6-4.7l-.8-.1c-1-3.06-3.7-5.44-7.1-5.9l-.9-.1c-.3-.05-.6 0-.9.15-1.2-2.6-3.7-4.6-6.8-5l-.9-.1c-.3 0-.6 0-.9.1-1.2-2.6-3.7-4.6-6.7-5l-.9-.1c-.52-.1-1.12.2-1.73.7-1.3-1.9-3.4-3.38-6-3.7l-.9-.1c-.3-.1-.6 0-.92.1-1.2-2.6-3.64-4.6-6.73-5l-.9-.1c-.7-.1-1.5.4-2.3 1.2-1.4-2.5-3.94-4.3-7-4.6l-.9-.03c-.5-.1-1 .1-1.46.5-.9-2.3-2.75-4.2-5.3-5.1l-.85-.3c-1.36-.5-3.3.93-5.35 3.2-1-1.1-2.2-1.98-3.7-2.5l-.8-.3c-1.6-.6-4 1.5-6.4 4.4-.9-.83-1.9-1.53-3.2-2l-.8-.3c-1-.3-2.2.3-3.6 1.4-.8-1.1-1.8-2-3.1-2.64l-.8-.4c-4.5-2-17.9 16.5-17.9 16.5-.48.9-.48 2.08-.2 3.26-2.4 2-3.98 3.9-3.5 5.3l.3.9c.1.55.3 1 .6 1.5-3.8 2.7-6.9 5.5-6.3 7.4l.2.9c.3.9.8 1.76 1.3 2.5-1.6 1.57-2.6 3-2.24 4.16l.3.9c.2.8.6 1.5 1 2.2-.6.6-.9 1.2-.8 1.8l.1.9c.1 2.2 1.1 4.15 2.5 5.6-.1.2-.3.45-.3.7l-.1.9c-.5 3.65 1.2 7.05 4.2 8.76-.6.5-.9 1.1-.95 1.66v.9c-.1 3.1 1.5 5.8 3.9 7.4-.9.8-1.4 1.5-1.4 2.2v1c.1 3.1 1.9 5.8 4.4 7.2-.2.3-.3.7-.3 1v.9c.1 2.6 1.3 4.8 3.1 6.3-.55.6-.86 1.2-.8 1.7l.1.9c.1 3.1 1.8 5.8 4.3 7.2-.2.3-.2.6-.2.9v.9c.1 3.1 1.9 5.8 4.4 7.2-.2.3-.3.7-.26 1l.1 1c.1 3.4 2.2 6.3 5.2 7.6v.8c.1 3 1.7 5.6 4.1 7 .2 3 1.9 5.6 4.3 7-.23.5-.3 1-.2 1.4l.2.9c.5 2.1 1.8 3.8 3.4 5-.1.3-.1.5 0 .8l.2.9c.6 2.5 2.2 4.5 4.3 5.6-.44.7-.7 1.4-.5 1.98l.2.9c.8 3.5 3.6 5.98 6.9 6.6-.7.8-1 1.6-.8 2.3l.2.9c.7 3 2.9 5.28 5.6 6.2-.1.3-.1.6 0 .9l.2.9c.7 3 2.8 5.28 5.5 6.2-.63.97-.94 1.8-.73 2.5l.2.9c.9 3 3.3 5.1 6.1 5.88-.1.35-.1.7 0 1l.2.9c.7 2.46 2.48 4.3 4.6 5.3-.4.67-.52 1.3-.4 1.8l.3.9c.9 2.95 3.2 5.07 6 5.85-.05.4-.05.6 0 .9l.3.9c.9 3 3.25 5.1 6.04 5.9-.1.4-.1.7 0 1l.24.9c.82 2.7 2.9 4.7 5.4 5.63-.2.4-.2.9-.1 1.2l.2.9c.6 2.1 2 3.7 3.7 4.8-.06.3-.06.5.02.8l.2.9c.9 3 3.3 5.1 6.1 5.8-.05.4-.1.7 0 1l.3.9c1.1 3.4 4 5.7 7.3 6.1-.6.9-.9 1.7-.7 2.4l.3.9c.9 2.98 3.26 5.1 6 5.86-.04.3-.04.6.05.9l.3.8c1.03 3.4 4 5.7 7.35 6.1-.3.7-.4 1.3-.2 1.8l.3.85c.9 2.4 2.8 4.1 5 5-.3.7-.4 1.37-.2 1.9l.3.9c1.1 3 3.6 4.9 6.4 5.5-.04.37-.03.7.08 1l.3.86c.9 2.37 2.7 4.1 4.9 5-.3.6-.4 1.27-.2 1.8l.3.8c1.1 2.9 3.6 4.9 6.47 5.48-.05.32-.03.7.1 1l.3.8c1.1 2.9 3.5 4.87 6.3 5.5 0 .3 0 .6.1.9l.4.9c.8 2 2.34 3.5 4.13 4.4 0 .23 0 .5.1.72l.3.8c1 2.4 2.9 4.1 5.2 4.87-.38.77-.48 1.44-.2 2l.3.8c1.4 3.3 4.5 5.3 7.8 5.4-.5.93-.7 1.8-.4 2.4l.3.9c1.2 2.82 3.8 4.7 6.6 5.2-.04.3 0 .6.1.9l.35.83c1.2 2.84 3.7 4.7 6.5 5.2-.5 1.1-.67 1.9-.3 2.6l.4.9c1.33 2.8 4 4.5 6.9 4.8 0 .4 0 .7.2 1l.4.86c1.13 2.3 3.2 3.88 5.4 4.5-.2.7-.3 1.4 0 1.9l.42.8c1.37 2.8 4 4.5 6.87 4.8 0 .38.1.68.2.9l.4.8c1.4 2.8 4.1 4.5 7 4.87-.04.3 0 .7.1.9l.4.8c1.3 2.5 3.6 4.2 6.2 4.7-.1.4 0 .8.1 1.2l.4.8c1 1.9 2.6 3.3 4.4 4.1 0 .22.1.5.2.7l.4.8c1.4 2.8 4.1 4.5 7 4.8 0 .35 0 .7.2 1l.4.8c1.4 2.85 4.2 4.55 7.2 4.8l.7.7c-.25.7-.3 1.3 0 1.8l.4.8c1.34 2.8 4 4.5 6.9 4.8 0 .3 0 .6.1.83l.4.86c1.4 2.8 4.1 4.5 6.9 4.8l1.3 1.1c0 .3.1.5.2.7l.42.8c1.3 2.2 3.4 3.6 5.66 4.2v.07c-.2.7-.2 1.3.1 1.8l.4.8c1.5 2.7 4.3 4.25 7.2 4.36 0 .4.1.7.2 1l.5.8c1.24 2.2 3.32 3.6 5.6 4.2-.2.7-.18 1.35.1 1.8l.5.8c1.5 2.7 4.3 4.25 7.2 4.36 0 .34 0 .7.2.94l.43.8c1.23 2.2 3.24 3.6 5.5 4.1l.1.4.4.8c1 1.97 2.6 3.36 4.4 4.1 0 .3.1.56.2.78l.4.8c1.4 2.8 4.1 4.5 6.9 4.8 0 .4.1.7.2 1l.4.8c1.6 3.2 4.9 5 8.2 4.9-.5 1-.6 1.8-.3 2.5l.4.8c1.4 2.8 4.1 4.5 6.9 4.8 0 .3.1.6.2.9l.4.8c1.6 3.2 6.1 1.55 9.5 1.4-.2.7-.2 1.3 0 1.8l.5.8c2.4 4.16 10.1 4.5 14.3 2.1 0 0 1.1-.9 2.7-2.35 2.4 1.1 5.4 1.1 7.9-.4 0 0 .56 1.2 4.5-2.8 1.06-.1 2.1-.5 3.05-1l.8-.7c.7-.4 1.3-.86 1.9-1.35l.73.8c2.9 1.2 9.2-6.73 13.2-12.3.5.7.9 1.1.9 1.1 3.47 1.7 12.7-9.8 16.27-14.4l.1.1c4.3 2.1 17.6-16.4 17.6-16.4.57-1.1.8-2.3.88-3.5 5.6-3.25 14.7-15.8 14.7-15.8 1.5-3 1.1-6.3-.8-8.9z"/>
  <defs>
    <path id="i" d="M341.84 2627.1c6.7-17.32 53.64-47.3 53.52-66.65-.43-66.38-315.7-434.4-397.46-364.33-80.23 68.74 309.1 520.8 343.94 430.97z"/>
  </defs>
  <clipPath id="j">
    <use xlink:href="#i" overflow="visible"/>
  </clipPath>
  <g fill="#FFE8CA" opacity=".5" clip-path="url(#j)">
    <path d="M38.12 2250.02c1.8-3.37-.2-7.94-4.46-10.2l-.8-.43c-4.26-2.3-16.06 11.6-16.06 11.6-1.8 3.3 5.2 10.6 5.2 10.6 4.3 2.3 16.1-11.7 16.1-11.7zm-35.22-11.7c-3.82 1.43-8.28-1.06-9.96-5.57l-.33-.86C-9 2227.4 7.4 2217 7.4 2217c3.8-1.42 10.3 6.44 10.3 6.44 1.67 4.5-14.76 14.82-14.76 14.82z"/>
    <path d="M33.3 2209.8c2.5-4.1 1.2-9.47-2.92-11.96l-.78-.48c-4.1-2.5-19.1 14.7-19.1 14.7-2.5 4.1 3.7 12.43 3.7 12.43 4.1 2.5 19.1-14.7 19.1-14.7z"/>
    <path d="M33.94 2228.92c2.8-3.93 1.86-9.37-2.07-12.15l-.75-.53c-3.92-2.78-20.1 13.3-20.1 13.3-2.78 3.92 2.82 12.67 2.82 12.67 3.93 2.8 20.1-13.2 20.1-13.2zm14.5 85.65c2.3-4.23.77-9.52-3.46-11.83l-.8-.44c-4.23-2.3-18.43 15.54-18.43 15.54-2.3 4.23 4.28 12.27 4.28 12.27 4.22 2.4 18.42-15.5 18.42-15.5z"/>
    <path d="M56.8 2303.86c4.5-1.8 9.63.53 11.5 5.18l.34.88c1.87 4.65-17.48 16.78-17.48 16.78-4.46 1.8-11.82-6.05-11.82-6.05-1.86-4.65 17.48-16.8 17.48-16.8zm40.14 77.1c-3.57 1.18-7.83-1.32-9.5-5.6l-.34-.8c-1.68-4.25 13.64-13.2 13.64-13.2 3.57-1.2 9.83 6.4 9.83 6.4 1.7 4.25-13.63 13.2-13.63 13.2z"/>
    <path d="M108.87 2388.97c1.9-3.32 0-7.8-4.24-10.02l-.8-.42c-4.25-2.2-16.6 11.55-16.6 11.55-1.9 3.33 5.05 10.44 5.05 10.44 4.24 2.2 16.6-11.55 16.6-11.55z"/>
    <path d="M76.7 2413.1c-4.4 1.7-9.54-.27-11.48-4.44l-.37-.8c-1.93-4.16 17.02-15.6 17.02-15.6 4.4-1.73 11.83 5.22 11.83 5.22 1.94 4.16-17 15.6-17 15.6zm224.1 55.12c-4.5 1.54-9.53-.66-11.26-4.9l-.34-.8c-1.73-4.25 17.77-14.86 17.77-14.86 4.48-1.53 11.58 5.7 11.58 5.7 1.74 4.25-17.76 14.86-17.76 14.86z"/>
    <path d="M289.1 2474.45c-2.34 3.88-.7 8.97 3.65 11.36l.82.5c4.36 2.4 18.88-13.8 18.88-13.8 2.35-3.9-4.46-11.8-4.46-11.8-4.4-2.4-18.9 13.8-18.9 13.8zm50.15 60.72c2.24-3.08.92-7.9-2.97-10.72l-.74-.55c-3.9-2.83-17.55 9.3-17.55 9.3-2.3 3.1 3.7 11.26 3.7 11.26 3.8 2.84 17.5-9.3 17.5-9.3z"/>
    <path d="M344 2548.9c-3.97.87-8.03-2.23-9.06-6.93l-.2-.9c-1.03-4.7 16.7-12.6 16.7-12.6 3.96-.86 9.26 7.83 9.26 7.83 1.03 4.7-16.7 12.6-16.7 12.6z"/>
    <path d="M378.14 2524.95c3.06-3.72 2.5-9.2-1.2-12.26l-.7-.6c-3.73-3.1-21 11.8-21 11.8-3.06 3.7 1.9 12.8 1.9 12.8 3.74 3 21-11.9 21-11.9z"/>
    <path d="M376.08 2543.96c3.3-3.5 3.15-9-.34-12.32l-.67-.63c-3.5-3.3-21.77 10.4-21.77 10.4-3.3 3.5 1 13 1 13 3.5 3.3 21.78-10.3 21.78-10.3zm-25.72 49.38c2.88-3.86 2.1-9.3-1.77-12.2l-.8-.55c-3.9-2.9-20.5 12.7-20.5 12.7-2.9 3.8 2.5 12.7 2.5 12.7 3.8 2.9 20.4-12.8 20.4-12.8z"/>
    <path d="M360.15 2583.93c4.68-1.15 9.43 1.87 10.62 6.74l.23.92c1.18 4.8-19.68 14.1-19.68 14.1-4.68 1.1-10.85-7.7-10.85-7.7-1.18-4.9 19.68-14.2 19.68-14.2zm-119.55-88.65c3.73-.63 7.5 2.58 8.43 7.18l.17.87c.92 4.6-15.78 11.3-15.78 11.3-3.73.62-8.6-8.07-8.6-8.07-.93-4.6 15.77-11.28 15.77-11.28z"/>
    <path d="M230.2 2485.26c-2.46 3.08-1.37 7.94 2.44 10.85l.72.6c3.8 2.9 18.4-9.1 18.4-9.1 2.46-3.1-3.17-11.4-3.17-11.4-3.8-2.9-18.4 9.1-18.4 9.1z"/>
    <path d="M266.2 2465.84c4.64-1.06 9.37 1.76 10.56 6.3l.22.87c1.2 4.6-19.53 13.2-19.53 13.2-4.64 1.1-10.8-7.2-10.8-7.2-1.18-4.5 19.54-13.1 19.54-13.1z"/>
    <path d="M248.16 2459.5c4.54-1.4 9.46 1.1 10.98 5.56l.3.85c1.5 4.5-18.5 14.6-18.5 14.6-4.55 1.4-11.28-6.4-11.28-6.4-1.5-4.4 18.5-14.5 18.5-14.5zm-3.4-67.37c4.7-.86 9.3 2.17 10.27 6.76l.2.8c.96 4.6-20.16 12.3-20.16 12.3-4.7.8-10.45-7.7-10.45-7.7-.98-4.6 20.14-12.3 20.14-12.3z"/>
    <path d="M257.38 2387.65c3-3.58 2.28-9-1.6-12.12l-.76-.6c-3.9-3.12-21.05 11.04-21.05 11.04-3 3.58 2.36 12.72 2.36 12.72 3.9 3.1 21.05-11.1 21.05-11.1zm-118.86-99.05c-4.12 1.17-7.6-2.53-7.74-8.28l-.02-1.1c-.15-5.75 19-15.9 19-15.9 4.13-1.2 7.77 9.37 7.77 9.37.15 5.7-19 15.9-19 15.9z"/>
    <path d="M147.85 2300.3c3.2-4.16 2.92-10.23-.64-13.55l-.6-.64c-3.5-3.3-21.4 13.5-21.4 13.5-3.2 4.2 1.3 14.2 1.3 14.2 3.6 3.3 21.5-13.4 21.5-13.4zm-88.2-23.1c-5.2 1.8-9.74-1.3-10.2-6.96l-.08-1.08c-.44-5.65 23.4-18.7 23.4-18.7 5.17-1.8 10.26 8.05 10.26 8.05.45 5.7-23.38 18.7-23.38 18.7z"/>
    <path d="M123.84 2334.85c-5.14 2.2-9.96-.48-10.77-6l-.16-1.04c-.8-5.5 22.6-20.2 22.6-20.2 5.2-2.2 11 7.1 11 7.1.8 5.5-22.5 20.3-22.5 20.3zm150.4 273.02c3.28-.9 6.2 2 6.53 6.47l.06.85c.32 4.4-14.7 12.3-14.7 12.3-3.27.9-6.57-7.3-6.57-7.3-.33-4.5 14.7-12.4 14.7-12.4z"/>
    <path d="M266.34 2598.73c-2.42 3.24-1.98 7.97 1 10.57l.56.5c2.98 2.6 16.72-10.43 16.72-10.43 2.43-3.23-1.55-11.06-1.55-11.06-2.98-2.5-16.73 10.5-16.73 10.5z"/>
    <path d="M299.23 2576.78c4.1-1.4 7.87 1.03 8.43 5.44l.1.84c.57 4.4-18.1 14.53-18.1 14.53-4.1 1.4-8.54-6.3-8.54-6.3-.56-4.4 18.1-14.6 18.1-14.6z"/>
    <path d="M284.38 2571.86c4.05-1.7 8.02.38 8.86 4.68l.17.82c.9 4.3-17.3 15.77-17.3 15.77-4 1.7-9-5.5-9-5.5-.8-4.3 17.4-15.78 17.4-15.78zm-19.46-25.72c3.83-1.94 7.9 0 9.1 4.3l.22.83c1.2 4.32-15.68 16.9-15.68 16.9-3.83 1.94-9.32-5.13-9.32-5.13-1.2-4.32 15.68-16.9 15.68-16.9z"/>
    <path d="M275 2538.75c2.2-4.25 1.15-9.46-2.34-11.65l-.67-.42c-3.5-2.18-16.6 15.88-16.6 15.88-2.2 4.26 3 12.07 3 12.07 3.5 2.18 16.5-15.88 16.5-15.88zm-120.48-170.5c2.25-3.1.92-7.9-2.97-10.7l-.74-.55c-3.8-2.84-17.5 9.3-17.5 9.3-2.2 3.07 3.7 11.25 3.7 11.25 3.9 2.83 17.6-9.3 17.6-9.3z"/>
    <path d="M159.28 2382c-3.98.86-8.04-2.24-9.07-6.94l-.2-.9c-1-4.7 16.7-12.6 16.7-12.6 4-.87 9.3 7.84 9.3 7.84 1.1 4.7-16.7 12.6-16.7 12.6z"/>
    <path d="M193.42 2358.03c3.05-3.7 2.5-9.2-1.2-12.26l-.72-.58c-3.72-3.1-21 11.8-21 11.8-3.04 3.7 1.93 12.8 1.93 12.8 3.72 3 21-11.9 21-11.9z"/>
    <path d="M191.35 2377.05c3.3-3.5 3.15-9-.34-12.32l-.6-.63c-3.5-3.3-21.8 10.32-21.8 10.32-3.3 3.5 1 12.96 1 12.96 3.5 3.3 21.8-10.33 21.8-10.33zm-16.6 116.85c2.88-3.85 2.1-9.3-1.76-12.2l-.8-.54c-3.9-2.88-20.5 12.8-20.5 12.8-2.9 3.84 2.5 12.73 2.5 12.73 3.8 2.8 20.4-12.8 20.4-12.8z"/>
    <path d="M184.54 2484.5c4.68-1.15 9.43 1.87 10.62 6.73l.23.93c1.1 4.86-19.7 14.14-19.7 14.14-4.7 1.15-10.9-7.66-10.9-7.66-1.2-4.86 19.6-14.15 19.6-14.15z"/>
  </g>
  <defs>
    <path id="k" d="M399.74 2565.75c2.55-2.28 4.34-4.06 4.34-4.06 1.7-2.4 2-5.4 1.1-8 1.58-1.5 2.6-2.5 2.6-2.5 2.77-4 1.84-9.4-2.1-12.2l-.73-.6c-.45-.4-1.06-.4-1.8-.3.5-3.3-.98-6.8-4.02-8.7l-.78-.5c-.24-.2-.53-.2-.85-.3-.03-2.9-1.47-5.7-4.1-7.3l-.78-.5c-.6-.4-1.46-.3-2.47 0 .46-3.3-1-6.8-4.03-8.6l-.78-.5c-.27-.2-.6-.3-.96-.3 0-2.9-1.45-5.8-4.1-7.4l-.77-.5c-.2-.1-.4-.2-.7-.2-.6-1.9-1.8-3.7-3.7-4.8l-.7-.5-.3-.2c-.3-2.3-1.5-4.4-3.5-5.8l-.7-.5c-.3-.2-.6-.3-.9-.3.2-2.9-1.1-5.8-3.6-7.6l-.7-.6c-.4-.3-1-.4-1.7-.3-.3-2.3-1.5-4.5-3.6-5.9l-.8-.5c-.3-.2-.6-.3-.9-.3.2-2.9-1.1-5.8-3.6-7.6l-.7-.6c-.4-.4-1.1-.4-1.8-.3-.3-2.4-1.5-4.6-3.6-6.1l-.7-.6c-.4-.3-1-.4-1.8-.3.5-3.4-1-6.8-4-8.7l-.8-.5c-.2-.2-.5-.2-.8-.2 0-2.9-1.5-5.7-4.1-7.4l-.8-.5c-.6-.4-1.5-.3-2.5 0 .4-3.3-1-6.7-4.1-8.6l-.7-.5c-.3-.2-.6-.2-1-.2 0-2.9-1.5-5.8-4.1-7.4l-.8-.5c-.2-.2-.5-.2-.7-.3-.6-1.9-1.9-3.68-3.7-4.8l-.8-.5c-.3-.2-.7-.3-1.2-.3-.2-2.6-1.6-5.1-4.1-6.6l-.8-.4c-.3-.1-.6-.2-1-.2 0-2.9-1.5-5.7-4.1-7.37l-.8-.5c-.2-.16-.5-.2-.8-.25 0-2.9-1.5-5.6-4.1-7.3l-.8-.4c-.5-.3-1.1-.3-1.9-.1-.4-2.3-1.8-4.5-4-5.8l-.7-.43c-.2-.16-.6-.23-.9-.24 0-2.9-1.4-5.76-4.1-7.4l-.8-.5c-.6-.4-1.5-.3-2.6.1-.2-2.8-1.9-5.5-4.6-6.9l-.8-.5c-.2-.1-.5-.2-.8-.2-.2-2.85-1.8-5.55-4.6-7l-.8-.44c-.6-.3-1.4-.2-2.4.2.2-3.4-1.5-6.7-4.6-8.3l-.8-.5c-.5-.3-1.2-.28-2 0-.6-2.38-2.1-4.4-4.4-5.68l-.8-.4c-.2-.1-.5-.15-.8-.2-.7-1.8-2-3.5-4-4.5l-.8-.4c-.2-.18-.5-.2-.8-.2-.4-2.86-2.1-5.46-4.8-6.8l-.8-.4c-.3-.17-.6-.2-1-.2-.3-2.9-2-5.55-4.8-6.9l-.8-.4c-.5-.26-1.1-.2-1.8 0-.7-2.2-2.2-4.2-4.5-5.3l-.8-.4c-.3-.1-.6-.2-1-.18-.3-2.9-2-5.54-4.8-6.9l-.8-.4c-.5-.25-1.1-.2-1.9.06-.6-2.3-2.2-4.3-4.5-5.4l-.8-.4c-.4-.2-1-.2-1.7 0l-.1-.1c-.1-3.3-2.1-6.4-5.4-7.7l-.8-.4c-.2-.1-.5-.2-.8-.1-.5-2.9-2.4-5.4-5.22-6.6l-.9-.34c-.55-.2-1.2-.1-2 .2l-.53-.5c-.3-3.06-2.2-5.85-5.3-7.1l-.8-.36c-.3-.1-.6-.17-1-.1-.5-2.9-2.36-5.4-5.2-6.6l-.9-.4c-.2-.1-.5-.1-.76-.1-.9-1.8-2.4-3.3-4.4-4.1l-.75-.4c-.4-.1-.9 0-1.1-.1-.9-2.3-2.6-4.6-5.2-5.7l-.9-.3c-.3-.1-.7-.1-1-.1-.5-2.8-2.4-5.4-5.3-6.5l-.9-.3c-.3-.1-.6-.1-.9-.1-.5-2.8-2.4-5.33-5.3-6.5l-.83-.4c-.5-.2-1.2-.1-1.9.2-.8-2.2-2.5-4.1-4.9-5.1l-.8-.3c-.3-.13-.6-.2-1-.1-.5-2.9-2.4-5.4-5.2-6.6l-.8-.33c-.64-.3-1.5-.1-2.4.5l-.2-.2c-.74-2.7-2.75-5-5.6-5.9l-.85-.3c-.3-.1-.6-.1-.9-.05-.7-2.8-2.75-5.2-5.7-6.2l-.86-.2c-.6-.2-1.3-.03-2 .36l-.5-.4c-.5-3.1-2.6-5.7-5.8-6.8l-.9-.3c-.5-.2-1.2-.03-1.9.3-1-2.2-2.8-4-5.2-4.8l-.9-.3c-.2-.1-.5-.1-.8-.05-1-1.8-2.6-3.2-4.7-3.87l-.84-.3c-.4-.15-.9-.1-1.4.1-1.2-2.56-3.6-4.5-6.5-5-1.3-2.46-3.6-4.3-6.6-4.7l-.8-.1c-1-3.06-3.7-5.44-7.1-5.9l-.9-.1c-.3-.05-.6 0-.9.15-1.2-2.6-3.7-4.6-6.8-5l-.9-.1c-.3 0-.6 0-.9.1-1.2-2.6-3.7-4.6-6.7-5l-.9-.1c-.52-.1-1.12.2-1.73.7-1.3-1.9-3.4-3.38-6-3.7l-.9-.1c-.3-.1-.6 0-.92.1-1.2-2.6-3.64-4.6-6.73-5l-.9-.1c-.7-.1-1.5.4-2.3 1.2-1.4-2.5-3.94-4.3-7-4.6l-.9-.03c-.5-.1-1 .1-1.46.5-.9-2.3-2.75-4.2-5.3-5.1l-.85-.3c-1.36-.5-3.3.93-5.35 3.2-1-1.1-2.2-1.98-3.7-2.5l-.8-.3c-1.6-.6-4 1.5-6.4 4.4-.9-.83-1.9-1.53-3.2-2l-.8-.3c-1-.3-2.2.3-3.6 1.4-.8-1.1-1.8-2-3.1-2.64l-.8-.4c-4.5-2-17.9 16.5-17.9 16.5-.48.9-.48 2.08-.2 3.26-2.4 2-3.98 3.9-3.5 5.3l.3.9c.1.55.3 1 .6 1.5-3.8 2.7-6.9 5.5-6.3 7.4l.2.9c.3.9.8 1.76 1.3 2.5-1.6 1.57-2.6 3-2.24 4.16l.3.9c.2.8.6 1.5 1 2.2-.6.6-.9 1.2-.8 1.8l.1.9c.1 2.2 1.1 4.15 2.5 5.6-.1.2-.3.45-.3.7l-.1.9c-.5 3.65 1.2 7.05 4.2 8.76-.6.5-.9 1.1-.95 1.66v.9c-.1 3.1 1.5 5.8 3.9 7.4-.9.8-1.4 1.5-1.4 2.2v1c.1 3.1 1.9 5.8 4.4 7.2-.2.3-.3.7-.3 1v.9c.1 2.6 1.3 4.8 3.1 6.3-.55.6-.86 1.2-.8 1.7l.1.9c.1 3.1 1.8 5.8 4.3 7.2-.2.3-.2.6-.2.9v.9c.1 3.1 1.9 5.8 4.4 7.2-.2.3-.3.7-.26 1l.1 1c.1 3.4 2.2 6.3 5.2 7.6v.8c.1 3 1.7 5.6 4.1 7 .2 3 1.9 5.6 4.3 7-.23.5-.3 1-.2 1.4l.2.9c.5 2.1 1.8 3.8 3.4 5-.1.3-.1.5 0 .8l.2.9c.6 2.5 2.2 4.5 4.3 5.6-.44.7-.7 1.4-.5 1.98l.2.9c.8 3.5 3.6 5.98 6.9 6.6-.7.8-1 1.6-.8 2.3l.2.9c.7 3 2.9 5.28 5.6 6.2-.1.3-.1.6 0 .9l.2.9c.7 3 2.8 5.28 5.5 6.2-.63.97-.94 1.8-.73 2.5l.2.9c.9 3 3.3 5.1 6.1 5.88-.1.35-.1.7 0 1l.2.9c.7 2.46 2.48 4.3 4.6 5.3-.4.67-.52 1.3-.4 1.8l.3.9c.9 2.95 3.2 5.07 6 5.85-.05.4-.05.6 0 .9l.3.9c.9 3 3.25 5.1 6.04 5.9-.1.4-.1.7 0 1l.24.9c.82 2.7 2.9 4.7 5.4 5.63-.2.4-.2.9-.1 1.2l.2.9c.6 2.1 2 3.7 3.7 4.8-.06.3-.06.5.02.8l.2.9c.9 3 3.3 5.1 6.1 5.8-.05.4-.1.7 0 1l.3.9c1.1 3.4 4 5.7 7.3 6.1-.6.9-.9 1.7-.7 2.4l.3.9c.9 2.98 3.26 5.1 6 5.86-.04.3-.04.6.05.9l.3.8c1.03 3.4 4 5.7 7.35 6.1-.3.7-.4 1.3-.2 1.8l.3.85c.9 2.4 2.8 4.1 5 5-.3.7-.4 1.37-.2 1.9l.3.9c1.1 3 3.6 4.9 6.4 5.5-.04.37-.03.7.08 1l.3.86c.9 2.37 2.7 4.1 4.9 5-.3.6-.4 1.27-.2 1.8l.3.8c1.1 2.9 3.6 4.9 6.47 5.48-.05.32-.03.7.1 1l.3.8c1.1 2.9 3.5 4.87 6.3 5.5 0 .3 0 .6.1.9l.4.9c.8 2 2.34 3.5 4.13 4.4 0 .23 0 .5.1.72l.3.8c1 2.4 2.9 4.1 5.2 4.87-.38.77-.48 1.44-.2 2l.3.8c1.4 3.3 4.5 5.3 7.8 5.4-.5.93-.7 1.8-.4 2.4l.3.9c1.2 2.82 3.8 4.7 6.6 5.2-.04.3 0 .6.1.9l.35.83c1.2 2.84 3.7 4.7 6.5 5.2-.5 1.1-.67 1.9-.3 2.6l.4.9c1.33 2.8 4 4.5 6.9 4.8 0 .4 0 .7.2 1l.4.86c1.13 2.3 3.2 3.88 5.4 4.5-.2.7-.3 1.4 0 1.9l.42.8c1.37 2.8 4 4.5 6.87 4.8 0 .38.1.68.2.9l.4.8c1.4 2.8 4.1 4.5 7 4.87-.04.3 0 .7.1.9l.4.8c1.3 2.5 3.6 4.2 6.2 4.7-.1.4 0 .8.1 1.2l.4.8c1 1.9 2.6 3.3 4.4 4.1 0 .22.1.5.2.7l.4.8c1.4 2.8 4.1 4.5 7 4.8 0 .35 0 .7.2 1l.4.8c1.4 2.85 4.2 4.55 7.2 4.8l.7.7c-.25.7-.3 1.3 0 1.8l.4.8c1.34 2.8 4 4.5 6.9 4.8 0 .3 0 .6.1.83l.4.86c1.4 2.8 4.1 4.5 6.9 4.8l1.3 1.1c0 .3.1.5.2.7l.42.8c1.3 2.2 3.4 3.6 5.66 4.2v.07c-.2.7-.2 1.3.1 1.8l.4.8c1.5 2.7 4.3 4.25 7.2 4.36 0 .4.1.7.2 1l.5.8c1.24 2.2 3.32 3.6 5.6 4.2-.2.7-.18 1.35.1 1.8l.5.8c1.5 2.7 4.3 4.25 7.2 4.36 0 .34 0 .7.2.94l.43.8c1.23 2.2 3.24 3.6 5.5 4.1l.1.4.4.8c1 1.97 2.6 3.36 4.4 4.1 0 .3.1.56.2.78l.4.8c1.4 2.8 4.1 4.5 6.9 4.8 0 .4.1.7.2 1l.4.8c1.6 3.2 4.9 5 8.2 4.9-.5 1-.6 1.8-.3 2.5l.4.8c1.4 2.8 4.1 4.5 6.9 4.8 0 .3.1.6.2.9l.4.8c1.6 3.2 4.9 5 8.2 4.84-.2.7-.2 1.4.1 1.8l.5.8c2.4 4.2 7.7 5.6 11.9 3.25 0 0 1.1-.9 2.7-2.33 2.5 1.1 5.4 1.1 8-.3 0 0 4.1-3.4 8.1-7.5 1.03-.2 2.1-.5 3-1l.9-.76c.7-.4 1.3-.9 2-1.4.4.5.7.75.7.75 2.9 1.2 9.2-6.74 13.1-12.3.5.7.9 1.1.9 1.1 3.4 1.7 12.7-9.8 16.2-14.45l.1.1c4.3 2.1 17.7-16.4 17.7-16.4.5-1.1.8-2.3.84-3.5 5.6-3.2 14.7-15.8 14.7-15.8 1.5-2.9 1.07-6.3-.8-8.8z"/>
  </defs>
  <clipPath id="l">
    <use xlink:href="#k" overflow="visible"/>
  </clipPath>
  <g fill="#D89D25" clip-path="url(#l)">
    <path d="M37.03 2225.4c-3.76.67-7.5-2.6-8.37-7.34l-.16-.9c-.87-4.74 16-11.78 16-11.78 3.74-.68 8.52 8.24 8.52 8.24.87 4.73-16 11.77-16 11.77z"/>
    <path d="M47.33 2235.64c2.5-3.2 1.48-8.2-2.3-11.18l-.73-.57c-3.78-3-18.6 9.5-18.6 9.5-2.5 3.2 3.04 11.7 3.04 11.7 3.78 2.9 18.6-9.6 18.6-9.6z"/>
    <path d="M10.93 2255.98c-4.68 1.14-9.4-1.74-10.52-6.4l-.2-.9C-.9 2244 20 2234.9 20 2234.9c4.68-1.1 10.74 7.33 10.74 7.33 1.15 4.68-19.77 13.76-19.77 13.76z"/>
    <path d="M28.95 2262.38c-4.6 1.46-9.5-1.07-10.95-5.66l-.28-.87c-1.46-4.58 18.76-15.13 18.76-15.13 4.6-1.46 11.23 6.53 11.23 6.53 1.5 4.58-18.7 15.13-18.7 15.13zm55.65-1.72c-4.73.92-9.3-2.16-10.22-6.88l-.18-.9c-.92-4.73 20.4-12.86 20.4-12.86 4.72-.9 10.4 7.8 10.4 7.8.9 4.72-20.4 12.84-20.4 12.84z"/>
    <path d="M71.86 2265.4c-3.06 3.7-2.4 9.3 1.46 12.48l.74.6c3.86 3.2 21.3-11.56 21.3-11.56 3.05-3.72-2.2-13.1-2.2-13.1-3.87-3.18-21.3 11.57-21.3 11.57zm86.87 57.06c2.2-3.05 1.1-7.86-2.44-10.76l-.7-.55c-3.6-2.9-16.8 9-16.8 9-2.2 3.04 3.1 11.3 3.1 11.3 3.5 2.9 16.7-9 16.7-9z"/>
    <path d="M162.75 2336.25c-3.75.8-7.45-2.36-8.27-7.07l-.16-.9c-.82-4.7 16.03-12.3 16.03-12.3 3.75-.8 8.42 7.97 8.42 7.97.82 4.7-16.02 12.3-16.02 12.3z"/>
    <path d="M195.47 2312.9c2.98-3.67 2.65-9.17-.74-12.28l-.64-.6c-3.4-3.1-20.1 11.5-20.1 11.5-3 3.66 1.4 12.85 1.4 12.85 3.4 3.1 20-11.48 20-11.48z"/>
    <path d="M192.93 2331.84c3.2-3.43 3.24-8.94.08-12.3l-.6-.65c-3.1-3.4-20.7 9.9-20.7 9.9-3.2 3.4.5 12.9.5 12.9 3.2 3.3 20.8-10 20.8-10zm3.27 142.88c2.8-3.8 2.24-9.27-1.27-12.2l-.68-.58c-3.5-2.94-19.54 12.44-19.54 12.44-2.8 3.8 2 12.77 2 12.77 3.5 2.94 19.6-12.43 19.6-12.43z"/>
    <path d="M205.66 2465.47c4.4-1.06 8.76 2.03 9.72 6.9l.2.94c.95 4.9-18.88 13.8-18.88 13.8-4.42 1.1-9.92-7.8-9.92-7.8-.95-4.9 18.88-13.8 18.88-13.8zm42.68 66.18c-3.62 1.2-7.8-1.52-9.32-6.08l-.3-.87c-1.5-4.56 14.18-13.9 14.18-13.9 3.62-1.22 9.6 6.93 9.6 6.93 1.53 4.57-14.16 13.92-14.16 13.92z"/>
    <path d="M259.98 2540.34c2.03-3.52.3-8.33-3.86-10.74l-.8-.46c-4.16-2.4-17.05 12.1-17.05 12.1-2.03 3.52 4.65 11.2 4.65 11.2 4.17 2.4 17.06-12.1 17.06-12.1z"/>
    <path d="M226.8 2565.62c-4.46 1.78-9.52-.4-11.3-4.87l-.35-.85c-1.78-4.47 17.65-16.42 17.65-16.42 4.47-1.78 11.66 5.72 11.66 5.72 1.78 4.48-17.65 16.42-17.65 16.42z"/>
    <path d="M245.56 2569.4c-4.33 2.1-9.54.3-11.64-4.05l-.4-.82c-2.1-4.33 16.44-17.62 16.44-17.62 4.33-2.1 12.04 4.9 12.04 4.9 2.1 4.4-16.44 17.7-16.44 17.7zm54.84-9.54c-4.54 1.57-9.5-.83-11.08-5.38l-.3-.86c-1.58-4.55 18.37-15.6 18.37-15.6 4.5-1.58 11.3 6.24 11.3 6.24 1.6 4.54-18.4 15.6-18.4 15.6z"/>
    <path d="M288.47 2566.34c-2.5 4.1-1.07 9.55 3.2 12.15l.82.5c4.2 2.6 19.4-14.5 19.4-14.5 2.5-4.1-4-12.7-4-12.7-4.3-2.6-19.5 14.4-19.5 14.4zm-48.27-140.8c-1.72 3.37.2 7.94 4.3 10.2l.78.45c4.1 2.2 15.53-11.7 15.53-11.7 1.8-3.4-5-10.7-5-10.7-4.1-2.3-15.5 11.6-15.5 11.6z"/>
    <path d="M233.8 2412.6c3.7-1.4 8 1.1 9.6 5.62l.32.86c1.63 4.5-14.26 14.77-14.26 14.77-3.68 1.4-9.92-6.48-9.92-6.48-1.62-4.5 14.27-14.77 14.27-14.77z"/>
    <path d="M204.4 2441.02c-2.43 4.1-1.17 9.47 2.8 11.98l.76.48c3.97 2.5 18.48-14.62 18.48-14.62 2.4-4.1-3.57-12.46-3.57-12.46-3.97-2.5-18.48 14.62-18.48 14.62z"/>
    <path d="M203.8 2421.9c-2.7 3.92-1.8 9.36 2 12.16l.7.53c3.8 2.8 19.44-13.3 19.44-13.3 2.7-3.9-2.7-12.7-2.7-12.7-3.8-2.8-19.44 13.2-19.44 13.2zm5.33-60.8c-2.23 4.2-.74 9.5 3.34 11.83l.77.44c4.08 2.32 17.8-15.48 17.8-15.48 2.25-4.3-4.1-12.3-4.1-12.3-4.07-2.4-17.8 15.4-17.8 15.4z"/>
    <path d="M201.04 2371.76c-4.32 1.78-9.27-.55-11.06-5.2l-.35-.9c-1.8-4.65 16.9-16.72 16.9-16.72 4.33-1.77 11.4 6.1 11.4 6.1 1.8 4.65-16.9 16.72-16.9 16.72zm-157.66-39c2.37-3.57-.1-8-5.54-9.9l-1.04-.34c-5.44-1.88-20.92 13.3-20.92 13.3-2.38 3.58 6.58 10.24 6.58 10.24 5.43 1.9 20.92-13.3 20.92-13.3z"/>
    <path d="M51.7 2345.2c-4.93 1.8-10.63-.3-12.72-4.7l-.4-.85c-2.08-4.4 19.28-16.35 19.28-16.35 4.94-1.8 13.13 5.55 13.13 5.55 2 4.4-19.3 16.35-19.3 16.35z"/>
    <path d="M91.44 2313.53c3.3-4.4 1.7-9.68-3.54-11.82l-1-.4C81.64 2299.2 62 2318 62 2318c-3.3 4.4 4.54 12.23 4.54 12.23 5.26 2.14 24.9-16.63 24.9-16.63z"/>
    <path d="M91.9 2332.78c3.66-4.23 2.57-9.64-2.44-12.08l-.95-.46c-5-2.44-26.1 15.3-26.1 15.3-3.6 4.24 3.4 12.56 3.4 12.56 5 2.44 26.2-15.32 26.2-15.32zm-24.8 54.8c3.04-4.5 1.14-9.7-4.26-11.64l-1.03-.37c-5.4-1.93-24 17.43-24 17.43-3 4.48 5.3 12 5.3 12 5.4 1.92 24.1-17.43 24.1-17.43z"/>
    <path d="M78.07 2375.97c5.8-2.23 12.36-.37 14.67 4.15l.45.87c2.3 4.5-22.9 18.5-22.9 18.5-5.8 2.2-15.1-5-15.1-5-2.3-4.5 22.8-18.6 22.8-18.6zm251.67 108.67c-1.86 2.84 0 6.5 4.18 8.17l.8.4c4.17 1.7 16.24-10.2 16.24-10.2 1.85-2.8-5-8.5-5-8.5-4.16-1.6-16.22 10.3-16.22 10.3z"/>
    <path d="M323.42 2474.33c3.82-1.32 8.2.53 9.77 4.15l.3.7c1.5 3.6-15 12.77-15 12.77-3.9 1.34-10.1-4.83-10.1-4.83-1.6-3.62 15-12.8 15-12.8z"/>
    <path d="M292.54 2499.02c-2.58 3.48-1.4 7.82 2.63 9.7l.76.35c4.04 1.87 19.34-12.86 19.34-12.86 2.58-3.4-3.4-10-3.4-10-4.04-1.8-19.33 12.9-19.33 12.9z"/>
    <path d="M292.34 2483.4c-2.85 3.33-2.05 7.74 1.78 9.85l.73.4c3.84 2.12 20.3-11.76 20.3-11.76 2.84-3.4-2.52-10.3-2.52-10.3-3.84-2.1-20.3 11.7-20.3 11.7zm19.6-43.85c-2.4 3.56-.98 7.83 3.17 9.54l.8.3c4.2 1.7 18.7-13.6 18.7-13.6 2.4-3.6-3.9-9.9-3.9-9.9-4.1-1.7-18.6 13.5-18.6 13.5z"/>
    <path d="M303.37 2448.68c-4.48 1.66-9.53-.02-11.27-3.75l-.34-.7c-1.74-3.74 17.76-14.52 17.76-14.52 4.48-1.6 11.6 4.5 11.6 4.5 1.76 3.7-17.75 14.5-17.75 14.5zM118.8 2392.2c-3.63 1.2-7.8-1.53-9.33-6.1l-.3-.86c-1.5-4.56 14.18-13.9 14.18-13.9 3.63-1.22 9.6 6.93 9.6 6.93 1.54 4.57-14.16 13.92-14.16 13.92z"/>
    <path d="M130.43 2400.88c2.04-3.52.3-8.33-3.85-10.74l-.8-.46c-4.16-2.4-17.05 12.1-17.05 12.1-2.04 3.5 4.65 11.2 4.65 11.2 4.16 2.4 17.05-12.1 17.05-12.1z"/>
    <path d="M97.27 2426.16c-4.47 1.78-9.54-.4-11.32-4.87l-.34-.9c-1.7-4.5 17.7-16.4 17.7-16.4 4.5-1.8 11.7 5.7 11.7 5.7 1.8 4.4-17.6 16.4-17.6 16.4z"/>
    <path d="M116 2429.95c-4.32 2.1-9.53.27-11.63-4.06l-.4-.9c-2.1-4.4 16.44-17.7 16.44-17.7 4.4-2.1 12.1 4.9 12.1 4.9 2.1 4.3-16.4 17.6-16.4 17.6zm54.86-9.55c-4.55 1.57-9.5-.83-11.1-5.38l-.3-.86c-1.57-4.55 18.4-15.6 18.4-15.6 4.53-1.58 11.38 6.24 11.38 6.24 1.57 4.54-18.38 15.6-18.38 15.6z"/>
    <path d="M158.93 2426.87c-2.5 4.12-1.08 9.56 3.2 12.17l.8.5c4.3 2.6 19.45-14.47 19.45-14.47 2.5-4.1-4.02-12.66-4.02-12.66-4.27-2.6-19.43 14.5-19.43 14.5z"/>
  </g>
  <path fill="#437013" d="M369.75 2635.06L-7.7 2295.92s195.13 339.84 312.62 364.77c13.96 2.9 64.83-25.7 64.83-25.7z"/>
  <linearGradient id="m" x1="229.99" x2="97.1" y1="2262.35" y2="2492.53" gradientUnits="userSpaceOnUse" gradientTransform="rotate(19.56 137.553 2362.12)">
    <stop offset="0" stop-color="#FFF" stop-opacity="0"/>
    <stop offset="1" stop-color="#662D91"/>
  </linearGradient>
  <path fill="url(#m)" d="M414.28 2611.3c-.02-6.8-8.9-25.05-6.34-31.46 2.95-7.4 4.02-28.77 5.3-40.94 4.92-46.27-298.87-346.8-324.3-438.35-7.3 49.68 37.27 87.74 98.6 185.1-.15-.08-.3-.17-.47-.24l-.84-.3c-.23-.1-.48-.1-.75-.1-.9-1.8-2.4-3.3-4.4-4.1l-.5-.7c-.36-.1-.66-.1-.85-.3l-.28.2c-.84-2.3-2.7-4.5-5.32-5.6l-.96-.2h-.43c-.27-.3-.57-.5-.84-.8-.7-2.4-2.5-4.6-5.08-5.6h-.22l-2.1-2.3c-.76-1.8-2.12-3.3-3.94-4.2-57.86-62.3-148.7-152.4-169.92-183.2-26.54 13.6 46.6 78.2 52.82 107-15.08-15.5-60.9-53.7-76.3-66.5-19.37 9.6 17.57 65.6 11 80-17.17-24.3-34.67-64.1-48.2-84.9-22.3 8.3 64 166.9 62.33 182.6-.8 7.1-61.2-53.2-119.7-39.4 95.1 39 88 41.9 102.8 61.3 21.4 28.3 42 54.3 61.7 78.3.6 4.2 5.8 8.9 5.8 8.9.4.2.9.2 1.5.1 28.3 34.2 54.7 64 79 89.9 59.5 79.3 128.3 154.5 181.2 165.8 6.2 1.3 19.8-3.7 33-9.6 2 .2 4.2.7 7.1 1.8 5.7 2.1 21.1 18.4 26.3 15.2 5.7-3.4 42.9-41.2 42.9-56.7z" opacity=".5"/>
  <linearGradient id="n" x1="466.01" x2="466.01" y1="2148.28" y2="2190.87" gradientUnits="userSpaceOnUse">
    <stop offset="0" stop-color="#F2AF09"/>
    <stop offset="1" stop-color="#B37048"/>
  </linearGradient>
  <path fill="url(#n)" d="M463.12 2190.87c1.06-1.6 10.65-7.98 9.58-19.7s-4.75-22.9-4.75-22.9-7.5 15.98-8.56 21.3 3.7 21.3 3.7 21.3z"/>
  <linearGradient id="o" x1="464.71" x2="464.71" y1="2152.57" y2="2186.28" gradientUnits="userSpaceOnUse" gradientTransform="matrix(1.2324 .2295 .2295 1.2265 -597.026 -589.154)">
    <stop offset="0" stop-color="#F2AF09"/>
    <stop offset="1" stop-color="#B37048"/>
  </linearGradient>
  <path fill="url(#o)" d="M461.13 2195.93c.02-2.23-5.44-16.6 3.9-23.84 9.33-7.3 21-11.5 21-11.5s-3.43 19-6.06 23.9c-2.64 4.9-18.84 11.3-18.84 11.3z"/>
  <linearGradient id="p" x1="312.15" x2="312.15" y1="2621.62" y2="2407.95" gradientUnits="userSpaceOnUse">
    <stop offset="0" stop-color="#F2AF09"/>
    <stop offset="1" stop-color="#B37048"/>
  </linearGradient>
  <path fill="url(#p)" d="M383.4 2407.95s-21.17 83.92-81.86 148.6c-60.7 64.7-52.5 63.8-55.35 65.07-2.6-1.4-6.5-3.3-5-5.12 18.3-22.36 75.9-85.96 89.8-107.07 20.5-31 47.9-101.48 47.9-101.48h4.4z"/>
  <linearGradient id="q" x1="455.6" x2="455.6" y1="2159.46" y2="2208.97" gradientUnits="userSpaceOnUse">
    <stop offset="0" stop-color="#F2AF09"/>
    <stop offset="1" stop-color="#B37048"/>
  </linearGradient>
  <path fill="url(#q)" d="M456.73 2208.97c1.06-1.6 9.62-11.43 5.6-28.87-4-17.44-5.6-20.64-5.6-20.64s-11.18 21.83-8.52 29.8 8.6 19.7 8.6 19.7z"/>
  <linearGradient id="r" x1="447.59" x2="447.59" y1="2181.29" y2="2235.59" gradientUnits="userSpaceOnUse">
    <stop offset="0" stop-color="#F2AF09"/>
    <stop offset="1" stop-color="#B37048"/>
  </linearGradient>
  <path fill="url(#r)" d="M447.8 2235.6s12.53-27.7 7.8-37.8c-4.73-10.12-12.7-16.5-12.7-16.5s-6.4 21.28-3.74 27.14c2.66 5.86 8.64 27.15 8.64 27.15z"/>
  <linearGradient id="s" x1="437.54" x2="437.54" y1="2202.58" y2="2257.95" gradientUnits="userSpaceOnUse">
    <stop offset="0" stop-color="#F2AF09"/>
    <stop offset="1" stop-color="#B37048"/>
  </linearGradient>
  <path fill="url(#s)" d="M438.5 2257.95c-.94-1.6 12.62-22.9 9.3-33-3.3-10.12-12.36-22.37-12.36-22.37s-10.12 18.64-8.52 27.7c1.6 9.04 11.6 27.67 11.6 27.67z"/>
  <linearGradient id="t" x1="427.49" x2="427.49" y1="2226.54" y2="2281.85" gradientUnits="userSpaceOnUse">
    <stop offset="0" stop-color="#F2AF09"/>
    <stop offset="1" stop-color="#B37048"/>
  </linearGradient>
  <path fill="url(#t)" d="M427.72 2281.85s15.68-26.5 11.67-36.87c-4-10.37-15-18.44-15-18.44s-11.5 20.74-9.2 27.65 12.5 27.6 12.5 27.6z"/>
  <linearGradient id="u" x1="417.67" x2="417.67" y1="2252.1" y2="2306.93" gradientUnits="userSpaceOnUse">
    <stop offset="0" stop-color="#F2AF09"/>
    <stop offset="1" stop-color="#B37048"/>
  </linearGradient>
  <path fill="url(#u)" d="M419.8 2306.93c.54-2.13 20.43-27.42 6.73-43.65-5.2-6.18-15.05-11.18-15.05-11.18s-8 17.56-7.46 22.62 15.8 32.2 15.8 32.2z"/>
  <linearGradient id="v" x1="407.75" x2="407.75" y1="2271.77" y2="2323.44" gradientUnits="userSpaceOnUse">
    <stop offset="0" stop-color="#F2AF09"/>
    <stop offset="1" stop-color="#B37048"/>
  </linearGradient>
  <path fill="url(#v)" d="M409.35 2323.44c1.06-1.6 17.77-20.63 6.5-36.74-11.3-16.1-17.15-14.9-17.15-14.9s-4.8 23.95-2.13 30.34 12.78 21.3 12.78 21.3z"/>
  <linearGradient id="w" x1="397.23" x2="397.23" y1="2297.17" y2="2347.39" gradientUnits="userSpaceOnUse">
    <stop offset="0" stop-color="#F2AF09"/>
    <stop offset="1" stop-color="#B37048"/>
  </linearGradient>
  <path fill="url(#w)" d="M400.83 2347.4c1.06-2.14 14.37-25.03 6.92-34.6-7.45-9.6-18.1-17.6-18.1-15.2 0 2.4-6.92 19.45-4.8 25.84s15.98 23.95 15.98 23.95z"/>
  <linearGradient id="x" x1="388.07" x2="388.07" y1="2317.58" y2="2371.88" gradientUnits="userSpaceOnUse">
    <stop offset="0" stop-color="#F2AF09"/>
    <stop offset="1" stop-color="#B37048"/>
  </linearGradient>
  <path fill="url(#x)" d="M391.25 2371.88c.53-2.66 13.03-23.42 5.98-37.8-7.05-14.37-19.3-16.5-19.3-16.5s-2.65 31.4 0 35.67c2.67 4.26 13.32 18.63 13.32 18.63z"/>
  <linearGradient id="y" x1="472" x2="472" y1="2177.21" y2="2212.44" gradientUnits="userSpaceOnUse">
    <stop offset="0" stop-color="#F2AF09"/>
    <stop offset="1" stop-color="#B37048"/>
  </linearGradient>
  <path fill="url(#y)" d="M454.6 2212.44c.38-1.88 1.2-14.9 16.3-24.5 15.1-9.58 18.5-10.74 18.5-10.74s-7.38 23.4-14.9 27.2c-7.5 3.82-19.9 8.04-19.9 8.04z"/>
  <linearGradient id="z" x1="463.09" x2="463.09" y1="2202.33" y2="2237.66" gradientUnits="userSpaceOnUse">
    <stop offset="0" stop-color="#F2AF09"/>
    <stop offset="1" stop-color="#B37048"/>
  </linearGradient>
  <path fill="url(#z)" d="M442.27 2237.66s10.53-28.5 21-32.38c10.47-3.88 20.64-2.82 20.64-2.82s-10.4 19.65-16.4 21.94c-6 2.3-25.2 13.26-25.2 13.26z"/>
  <linearGradient id="A" x1="462.52" x2="462.52" y1="2242.24" y2="2284.49" gradientUnits="userSpaceOnUse" gradientTransform="rotate(-6.47 288.866 2342.67)">
    <stop offset="0" stop-color="#F2AF09"/>
    <stop offset="1" stop-color="#B37048"/>
  </linearGradient>
  <path fill="url(#A)" d="M431.7 2267.85c1.95-.76 4.8-29.26 14.84-35.95 10.04-6.7 26.7-11.28 26.7-11.28s-4.04 23.7-11.8 30.67c-7.78 6.9-29.75 16.5-29.75 16.5z"/>
  <linearGradient id="B" x1="446.73" x2="446.73" y1="2247.75" y2="2282.38" gradientUnits="userSpaceOnUse">
    <stop offset="0" stop-color="#F2AF09"/>
    <stop offset="1" stop-color="#B37048"/>
  </linearGradient>
  <path fill="url(#B)" d="M427.7 2282.38s6.9-27.6 16.26-31.83c9.36-4.22 21.8-2.42 21.8-2.42s-5.9 21.12-11.9 24.17c-6 3.05-26.16 10.08-26.16 10.08z"/>
  <linearGradient id="C" x1="438.16" x2="438.16" y1="2272.11" y2="2302.26" gradientUnits="userSpaceOnUse">
    <stop offset="0" stop-color="#F2AF09"/>
    <stop offset="1" stop-color="#B37048"/>
  </linearGradient>
  <path fill="url(#C)" d="M419.8 2302.26c1.12-1.9 10.15-28.88 18.15-29.96 8-1.07 18.57 2.62 18.57 2.62s-6.66 18.1-10.6 21.34c-3.92 3.23-26.1 6-26.1 6z"/>
  <linearGradient id="D" x1="429.85" x2="429.85" y1="2295.21" y2="2327.19" gradientUnits="userSpaceOnUse">
    <stop offset="0" stop-color="#F2AF09"/>
    <stop offset="1" stop-color="#B37048"/>
  </linearGradient>
  <path fill="url(#D)" d="M407.92 2327.2c.36-1.9 1.84-27.17 21.2-30.7 19.34-3.55 22.65 1.42 22.65 1.42s-13.4 20.42-19.8 23.1c-6.38 2.67-24.05 6.17-24.05 6.17z"/>
  <linearGradient id="E" x1="418.69" x2="418.69" y1="2320.12" y2="2350.22" gradientUnits="userSpaceOnUse">
    <stop offset="0" stop-color="#F2AF09"/>
    <stop offset="1" stop-color="#B37048"/>
  </linearGradient>
  <path fill="url(#E)" d="M397.15 2350.22c.74-2.26 7.35-27.9 19.4-29.5 12.02-1.57 25.22.2 23.53 1.93-1.68 1.7-8.73 18.7-14.73 21.74-6 3-28.2 5.8-28.2 5.8z"/>
  <linearGradient id="F" x1="410.58" x2="410.58" y1="2341.33" y2="2374.38" gradientUnits="userSpaceOnUse">
    <stop offset="0" stop-color="#F2AF09"/>
    <stop offset="1" stop-color="#B37048"/>
  </linearGradient>
  <path fill="url(#F)" d="M386.77 2374.38c1.5-2.27 7.18-25.82 22.3-31.1 15.1-5.28 25.32 1.8 25.32 1.8s-20.2 24.23-25.1 25.4c-4.9 1.15-22.6 3.9-22.6 3.9z"/>
  <linearGradient id="G" x1="395.83" x2="395.83" y1="2367.51" y2="2398.86" gradientUnits="userSpaceOnUse">
    <stop offset="0" stop-color="#F2AF09"/>
    <stop offset="1" stop-color="#B37048"/>
  </linearGradient>
  <path fill="url(#G)" d="M372.15 2398.86s15.33-27.5 25.1-30.58c9.8-3.07 22.26 4 22.26 4s-14.5 17.8-19.8 20.1c-5.2 2.28-27.5 6.48-27.5 6.48z"/>
  <linearGradient id="H" x1="379.01" x2="379.01" y1="2347.39" y2="2399.57" gradientUnits="userSpaceOnUse">
    <stop offset="0" stop-color="#F2AF09"/>
    <stop offset="1" stop-color="#B37048"/>
  </linearGradient>
  <path fill="url(#H)" d="M384.45 2399.57s8.42-30.35 3.62-39.4c-4.8-9.05-18.65-12.78-18.65-12.78s-2.13 22.9 0 28.2c2.13 5.3 15.03 23.9 15.03 23.9z"/>
  <linearGradient id="I" x1="371.61" x2="371.61" y1="2373.48" y2="2421.93" gradientUnits="userSpaceOnUse">
    <stop offset="0" stop-color="#F2AF09"/>
    <stop offset="1" stop-color="#B37048"/>
  </linearGradient>
  <path fill="url(#I)" d="M379 2421.93c.54-2.66 9.6-23.96 0-35.14-9.58-11.2-19.16-13.4-19.16-13.4s1.06 28.7 4.8 33.5c3.7 4.8 14.37 14.9 14.37 14.9z"/>
  <linearGradient id="J" x1="395.78" x2="395.78" y1="2385.75" y2="2422.46" gradientUnits="userSpaceOnUse">
    <stop offset="0" stop-color="#F2AF09"/>
    <stop offset="1" stop-color="#B37048"/>
  </linearGradient>
  <path fill="url(#J)" d="M377.14 2422.46c.6-2.65 1.02-25.8 14.34-32.1 13.3-6.28 22.93-4.32 22.93-4.32s-12.6 25.82-18 28.67c-5.3 2.9-19.2 7.8-19.2 7.8z"/>
  <linearGradient id="K" x1="391.8" x2="391.8" y1="2097.24" y2="2139.83" gradientUnits="userSpaceOnUse" gradientTransform="rotate(-13.457 413.23 2283.238)">
    <stop offset="0" stop-color="#F2AF09"/>
    <stop offset="1" stop-color="#B37048"/>
  </linearGradient>
  <path fill="url(#K)" d="M356.26 2149.4c.67-1.8 8.5-10.24 4.74-21.4-3.77-11.13-9.95-21.15-9.95-21.15s-3.57 17.28-3.37 22.7c.2 5.43 8.58 19.85 8.58 19.85z"/>
  <linearGradient id="L" x1="410.35" x2="410.35" y1="2121.13" y2="2154.83" gradientUnits="userSpaceOnUse" gradientTransform="matrix(1.252 -.0636 .5086 1.1394 -1237.71 -275.192)">
    <stop offset="0" stop-color="#F2AF09"/>
    <stop offset="1" stop-color="#B37048"/>
  </linearGradient>
  <path fill="url(#L)" d="M355.5 2154.78c-.5-2.17-9.15-14.87-1.76-24.1 7.4-9.2 17.78-16 17.78-16s1.1 19.34-.34 24.7c-1.42 5.36-15.67 15.4-15.67 15.4z"/>
  <linearGradient id="M" x1="237.94" x2="237.94" y1="2570.58" y2="2356.9" gradientUnits="userSpaceOnUse" gradientTransform="rotate(-13.457 413.23 2283.238)">
    <stop offset="0" stop-color="#F2AF09"/>
    <stop offset="1" stop-color="#B37048"/>
  </linearGradient>
  <path fill="url(#M)" d="M329.24 2379.07s-1.05 86.54-45.02 163.58c-43.97 77.03-36.2 74.26-38.7 76.16-2.84-.7-7-1.7-5.98-3.8 12.66-26 53.8-101.2 62.45-125 12.7-34.9 22.9-109.8 22.9-109.8l4.2-1z"/>
  <linearGradient id="N" x1="381.39" x2="381.39" y1="2108.42" y2="2157.93" gradientUnits="userSpaceOnUse" gradientTransform="rotate(-13.457 413.23 2283.238)">
    <stop offset="0" stop-color="#F2AF09"/>
    <stop offset="1" stop-color="#B37048"/>
  </linearGradient>
  <path fill="url(#N)" d="M354.26 2168.5c.67-1.8 6.7-13.36-1.27-29.4s-10.3-18.76-10.3-18.76-5.8 23.83-1.4 30.98c4.4 7.14 12.8 17.17 12.8 17.17z"/>
  <linearGradient id="O" x1="373.38" x2="373.38" y1="2130.25" y2="2184.55" gradientUnits="userSpaceOnUse" gradientTransform="rotate(-13.457 413.23 2283.238)">
    <stop offset="0" stop-color="#F2AF09"/>
    <stop offset="1" stop-color="#B37048"/>
  </linearGradient>
  <path fill="url(#O)" d="M351.77 2196.46s5.75-29.84-1.2-38.58c-6.96-8.73-16.2-13.1-16.2-13.1s-1.27 22.2 2.68 27.28c3.95 5.08 14.72 24.4 14.72 24.4z"/>
  <linearGradient id="P" x1="363.32" x2="363.32" y1="2151.54" y2="2206.91" gradientUnits="userSpaceOnUse" gradientTransform="rotate(-13.457 413.23 2283.238)">
    <stop offset="0" stop-color="#F2AF09"/>
    <stop offset="1" stop-color="#B37048"/>
  </linearGradient>
  <path fill="url(#P)" d="M347.94 2220.37c-1.3-1.33 6.94-25.2 1.36-34.27-5.58-9.06-17.24-18.86-17.24-18.86s-5.5 20.47-1.84 28.9 17.72 24.23 17.72 24.23z"/>
  <linearGradient id="Q" x1="353.27" x2="353.27" y1="2175.5" y2="2230.81" gradientUnits="userSpaceOnUse" gradientTransform="rotate(-13.457 413.23 2283.238)">
    <stop offset="0" stop-color="#F2AF09"/>
    <stop offset="1" stop-color="#B37048"/>
  </linearGradient>
  <path fill="url(#Q)" d="M343 2246.12s9.1-29.42 2.78-38.58c-6.3-9.15-18.83-14.45-18.83-14.45s-6.38 22.8-2.53 29c3.85 6.2 18.58 24 18.58 24z"/>
  <linearGradient id="R" x1="343.45" x2="343.45" y1="2201.05" y2="2255.89" gradientUnits="userSpaceOnUse" gradientTransform="rotate(-13.457 413.23 2283.238)">
    <stop offset="0" stop-color="#F2AF09"/>
    <stop offset="1" stop-color="#B37048"/>
  </linearGradient>
  <path fill="url(#R)" d="M341.15 2272.36c.02-2.2 13.48-31.42-3.62-44.03-6.5-4.8-17.24-7.37-17.24-7.37s-3.7 18.95-2 23.74 22.8 27.66 22.8 27.66z"/>
  <linearGradient id="S" x1="333.54" x2="333.54" y1="2220.73" y2="2272.39" gradientUnits="userSpaceOnUse" gradientTransform="rotate(-13.457 413.23 2283.238)">
    <stop offset="0" stop-color="#F2AF09"/>
    <stop offset="1" stop-color="#B37048"/>
  </linearGradient>
  <path fill="url(#S)" d="M334.82 2290.84c.66-1.8 12.5-24.2-2.24-37.24-14.72-13.04-20.14-10.5-20.14-10.5s.92 24.4 5 30 17.38 17.74 17.38 17.74z"/>
  <linearGradient id="T" x1="323.01" x2="323.01" y1="2246.13" y2="2296.35" gradientUnits="userSpaceOnUse" gradientTransform="rotate(-13.457 413.23 2283.238)">
    <stop offset="0" stop-color="#F2AF09"/>
    <stop offset="1" stop-color="#B37048"/>
  </linearGradient>
  <path fill="url(#T)" d="M332.1 2316.12c.55-2.32 8.16-27.68-1.3-35.26-9.5-7.6-21.7-12.9-21.15-10.56.56 2.34-2.2 20.52 1.35 26.24s21.1 19.58 21.1 19.58z"/>
  <linearGradient id="U" x1="313.85" x2="313.85" y1="2266.54" y2="2320.84" gradientUnits="userSpaceOnUse" gradientTransform="rotate(-13.457 413.23 2283.238)">
    <stop offset="0" stop-color="#F2AF09"/>
    <stop offset="1" stop-color="#B37048"/>
  </linearGradient>
  <path fill="url(#U)" d="M328.5 2342.17c-.1-2.7 7.2-25.8-3-38.15-10.2-12.34-22.6-11.57-22.6-11.57s4.73 31.17 8.3 34.7c3.6 3.52 17.3 15.02 17.3 15.02z"/>
  <linearGradient id="V" x1="397.79" x2="397.79" y1="2126.16" y2="2161.4" gradientUnits="userSpaceOnUse" gradientTransform="rotate(-13.457 413.23 2283.238)">
    <stop offset="0" stop-color="#F2AF09"/>
    <stop offset="1" stop-color="#B37048"/>
  </linearGradient>
  <path fill="url(#V)" d="M353 2172.36c-.08-1.92-2.3-14.76 10.16-27.6 12.45-12.86 15.48-14.77 15.48-14.77s-1.74 24.4-8.15 29.9c-6.5 5.4-17.5 12.4-17.5 12.4z"/>
  <linearGradient id="W" x1="388.87" x2="388.87" y1="2151.29" y2="2186.62" gradientUnits="userSpaceOnUse" gradientTransform="rotate(-13.457 413.23 2283.238)">
    <stop offset="0" stop-color="#F2AF09"/>
    <stop offset="1" stop-color="#B37048"/>
  </linearGradient>
  <path fill="url(#W)" d="M346.87 2199.76s3.6-30.18 12.9-36.38c9.27-6.2 19.4-7.54 19.4-7.54s-5.54 21.52-10.86 25.16c-5.3 3.63-21.4 18.76-21.4 18.76z"/>
  <linearGradient id="X" x1="394.53" x2="394.53" y1="2183.16" y2="2225.41" gradientUnits="userSpaceOnUse" gradientTransform="rotate(-19.926 375.29 2307.4)">
    <stop offset="0" stop-color="#F2AF09"/>
    <stop offset="1" stop-color="#B37048"/>
  </linearGradient>
  <path fill="url(#X)" d="M343.6 2231.58c1.74-1.2-2.14-29.57 6.08-38.42 8.2-8.85 23.34-17.18 23.34-17.18s1.6 24-4.34 32.57c-5.94 8.57-25.07 23.03-25.07 23.03z"/>
  <linearGradient id="Y" x1="372.52" x2="372.52" y1="2196.71" y2="2231.34" gradientUnits="userSpaceOnUse" gradientTransform="rotate(-13.457 413.23 2283.238)">
    <stop offset="0" stop-color="#F2AF09"/>
    <stop offset="1" stop-color="#B37048"/>
  </linearGradient>
  <path fill="url(#Y)" d="M343.12 2246.64s.27-28.45 8.4-34.74c8.12-6.28 20.64-7.42 20.64-7.42s-.82 21.9-5.94 26.27c-5.13 4.36-23.1 15.9-23.1 15.9z"/>
  <linearGradient id="Z" x1="363.95" x2="363.95" y1="2221.06" y2="2251.22" gradientUnits="userSpaceOnUse" gradientTransform="rotate(-13.457 413.23 2283.238)">
    <stop offset="0" stop-color="#F2AF09"/>
    <stop offset="1" stop-color="#B37048"/>
  </linearGradient>
  <path fill="url(#Z)" d="M340.06 2267.82c.65-2.1 3.15-30.46 10.68-33.37 7.53-2.9 18.67-1.77 18.67-1.77s-2.2 19.16-5.3 23.22c-3 4.05-24 11.92-24 11.92z"/>
  <linearGradient id="aa" x1="355.63" x2="355.63" y1="2244.17" y2="2276.15" gradientUnits="userSpaceOnUse" gradientTransform="rotate(-13.457 413.23 2283.238)">
    <stop offset="0" stop-color="#F2AF09"/>
    <stop offset="1" stop-color="#B37048"/>
  </linearGradient>
  <path fill="url(#aa)" d="M334.3 2294.82c-.08-1.92-4.53-26.84 13.46-34.8 18-7.93 22.38-3.87 22.38-3.87s-8.3 22.98-13.88 27.07c-5.6 4.08-21.96 11.6-21.96 11.6z"/>
  <linearGradient id="ab" x1="344.48" x2="344.48" y1="2269.07" y2="2299.18" gradientUnits="userSpaceOnUse" gradientTransform="rotate(-13.457 413.23 2283.238)">
    <stop offset="0" stop-color="#F2AF09"/>
    <stop offset="1" stop-color="#B37048"/>
  </linearGradient>
  <path fill="url(#ab)" d="M329.2 2319.73c.18-2.37.64-28.85 11.98-33.2 11.34-4.34 24.6-5.67 23.35-3.6-1.25 2.04-4.15 20.2-9.27 24.57-5.13 4.36-26.07 12.23-26.07 12.23z"/>
  <linearGradient id="ac" x1="336.36" x2="336.36" y1="2290.28" y2="2323.34" gradientUnits="userSpaceOnUse" gradientTransform="rotate(-13.457 413.23 2283.238)">
    <stop offset="0" stop-color="#F2AF09"/>
    <stop offset="1" stop-color="#B37048"/>
  </linearGradient>
  <path fill="url(#ac)" d="M324.7 2345.64c.94-2.55 1-26.78 14.46-35.43 13.47-8.6 25.05-4.1 25.05-4.1s-13.9 28.3-18.4 30.5c-4.5 2.3-21 9.1-21 9.1z"/>
  <linearGradient id="ad" x1="321.61" x2="321.61" y1="2316.47" y2="2347.82" gradientUnits="userSpaceOnUse" gradientTransform="rotate(-13.457 413.23 2283.238)">
    <stop offset="0" stop-color="#F2AF09"/>
    <stop offset="1" stop-color="#B37048"/>
  </linearGradient>
  <path fill="url(#ad)" d="M316.2 2372.85s8.5-30.32 17.3-35.58 22.57-1.28 22.57-1.28-10.03 20.6-14.6 24.1c-4.6 3.4-25.27 12.7-25.27 12.7z"/>
  <linearGradient id="ae" x1="304.8" x2="304.8" y1="2296.35" y2="2348.52" gradientUnits="userSpaceOnUse" gradientTransform="rotate(-13.457 413.23 2283.238)">
    <stop offset="0" stop-color="#F2AF09"/>
    <stop offset="1" stop-color="#B37048"/>
  </linearGradient>
  <path fill="url(#ae)" d="M328.32 2370.68s1.13-31.48-5.65-39.16c-6.78-7.68-21.1-8.1-21.1-8.1s3.25 22.77 6.56 27.46c3.3 4.68 20.2 19.8 20.2 19.8z"/>
  <linearGradient id="af" x1="297.4" x2="297.4" y1="2322.44" y2="2370.88" gradientUnits="userSpaceOnUse" gradientTransform="rotate(-13.457 413.23 2283.238)">
    <stop offset="0" stop-color="#F2AF09"/>
    <stop offset="1" stop-color="#B37048"/>
  </linearGradient>
  <path fill="url(#af)" d="M328.24 2393.7c-.1-2.72 3.75-25.54-8.18-34.18s-21.75-8.48-21.75-8.48 7.8 27.7 12.5 31.5c4.8 3.8 17.5 11.15 17.5 11.15z"/>
  <linearGradient id="ag" x1="321.56" x2="321.56" y1="2334.71" y2="2371.41" gradientUnits="userSpaceOnUse" gradientTransform="rotate(-13.457 413.23 2283.238)">
    <stop offset="0" stop-color="#F2AF09"/>
    <stop offset="1" stop-color="#B37048"/>
  </linearGradient>
  <path fill="url(#ag)" d="M326.54 2394.64c-.02-2.72-5-25.32 6.47-34.54 11.5-9.22 21.3-9.55 21.3-9.55s-6.3 28.06-10.8 32.08c-4.5 4.03-16.9 12-16.9 12z"/>
  <linearGradient id="ah" x1="131.13" x2="131.13" y1="2911.86" y2="3166.47" gradientUnits="userSpaceOnUse">
    <stop offset="0" stop-color="#A16661"/>
    <stop offset="1" stop-color="#663139"/>
  </linearGradient>
  <path fill="url(#ah)" d="M-91.4 2967.88c-103.34 129.77 356.6 308.6 447.33 109.7 70.7-154.97-175.08-132.27-188.95-133.1-112.36-6.73-173.87-82.7-258.37 23.4z"/>
  <path fill="#DFD9C9" d="M120.03 2937.7s-19 13.6 34.24 18.77c40.83 3.96 26.05-12.34 25.72-12.32-.2 0-13 .64-25.9-.76-16.6-1.8-34.1-5.7-34.1-5.7z"/>
  <linearGradient id="ai" x1="-92.35" x2="17.88" y1="3106.02" y2="3226.29" gradientUnits="userSpaceOnUse" gradientTransform="rotate(102.504 -32.96 3160.514)">
    <stop offset="0" stop-color="#E9CB6B"/>
    <stop offset="1" stop-color="#E9AE6B"/>
  </linearGradient>
  <path fill="url(#ai)" d="M-65.37 3236.8c30.98 12.92 117.03-32.2 117.04-65.77 0-39.02-39.1-128.23-141.3-76.4-33.85 17.18-44.48 113.52 24.26 142.18z"/>
  <path fill="#F4E7B3" d="M-77.2 3088.54c13.74-4.08-35.76 59.04-36.56 44.74-.5-8.87 8.88-24.84 13.8-30.74 4.64-5.58 15.24-11.76 22.77-14z"/>
  <path fill="#DEBE97" d="M226.37 3102.9c-7.6-10-14.73-50.1-25.44-56.67-30.3-18.6-112.85 3.97-139.5 27.5-28.98 25.56-63.76 111.25-48.53 146.78 15.47 36.2 92.34 101.4 129.6 89 82.85-27.7 126.57-150.4 83.87-206.5z"/>
  <g opacity=".4">
    <defs>
      <path id="aj" d="M226.37 3102.9c-7.6-10-14.73-50.1-25.44-56.67-30.3-18.6-112.85 3.97-139.5 27.5-28.98 25.56-63.76 111.25-48.53 146.78 15.47 36.2 92.34 101.4 129.6 89 82.85-27.7 126.57-150.4 83.87-206.5z" opacity=".4"/>
    </defs>
    <clipPath id="al">
      <use xlink:href="#aj" overflow="visible"/>
    </clipPath>
    <radialGradient id="ak" cx="102.59" cy="3118.95" r="182.46" gradientTransform="matrix(1.1696 0 0 1 -41.617 0)" gradientUnits="userSpaceOnUse">
      <stop offset="0" stop-color="#DEE0DB"/>
      <stop offset="1" stop-color="#DEBE97"/>
    </radialGradient>
    <path fill="url(#ak)" d="M-120.63 2924.95h398v388h-398z" clip-path="url(#al)"/>
  </g>
  <path fill="#DFD9C9" d="M168.62 3064.32c-3.77-3.74-23.74-4.9-20.95 3.5 2.8 8.37 16.76 20.24 20.95 18.15 4.2-2.1 3.84-17.84 0-21.65z"/>
</svg>
