<svg xmlns="http://www.w3.org/2000/svg" xmlns:xlink="http://www.w3.org/1999/xlink" viewBox="0 0 418.94 418.85">
  <path fill="#BFB5A9" d="M574.9-4032.6c-.8-.37-9.46 11.93-7.64 17.1.66 1.9 6.55 5.08 8.56 3.86 10.57-6.42 11.3-41.04-.9-20.95z"/>
  <path fill="#3D2D1E" d="M110.1-3707.3c4.77 2.9 19.06 4.54 22.28 0 4.73-6.68-26.8-52.62-29.24-61.2-7.5-26.3 18.02-89.2-.43-109.4-1.2-1.37-57.3 16.58-64.3 33.3-7.8 18.93 25.9 49.74 27.2 52 17 28.9 32.5 63.68 44.6 85.3z"/>
  <path fill="#BFB5A9" d="M82.92-3918.6c-16.4 1.75-25.72 25.88-30.14 38.9-5.1 15.05-11.36 38.37-2.54 53.26 2.58 4.34 6.85 7.9 11.18 10.37 2.58 1.47 5.3 2.63 8.14 3.5 7.2 2.23 2.53 2.63 6.62 7.63 2.84 3.47 6.96.6 8.98-2.07 6.52-8.6 5.5.7 10.5 4.4 7.38 5.3 7.47-9.3 11.33-10.2 1.2-.1 3.4 9.3 8.4 8.6 4.1-.6 5.8-6.4 5-10 .1-.2.3-7 2.6-2.4 1.6 3.2 6.3 8.8 10.6 7.4 3.2-1.3 3.6-4.9 3.2-8-1.2-8.3-1.5-5.7 6.9-11.3 15.2-10.3 15.1-22.9 14.2-39.7-2.2-42.7-36.6-54.7-75.2-50.6-24.6 2.6 82.8-8.8 0 0z"/>
  <path fill="#3D2D1E" d="M340.68-3844.22c1.85 17.93 3.92 41.82 6.8 57.18 1.42 7.63 6.2 22.55 6.8 30.3.84 11.1-4.6 41.63 1.85 50.73 2.7 3.7 17.78 1.9 21.64-.7 28.6-19.3 6.8-135.6 6.18-138-.62-2.4-44.45-11.1-43.27.4zm-325.1-39.18c2.86-26.03 12.86 5.03 12.93 5.63.1.6 1.5 12.24 1.9 16.32 1.9 17.8-12.1 62.26-15.5 65.95-1.9 2.1-4.8-51.2-4.8-53.43-.3-8.72 4.7-25.78 5.6-34.46z"/>
  <path fill="#664926" d="M26.2-3947.44c2.32 10.66 9.9 41.4 8.66 71.86-.6 14.5-21.54 32.75-19.65 47.13 5.8 44.27 6.1 108.02 18.6 130.73 3.9 3.3 19.3 3.6 22.6-.3.9-23.65-16-35.7-11.6-80.2 2.4-23.42 22.1-54.68 32.9-75.58 11-21.17 55.4-36.97 69.6-25.65 6.8 5.4 3.7 31.18 8.5 38.33 8.4 12.2 39.3 16.12 54 18.23 36.6 5.3 122.7-26 151.2-2.4 7.5 44.5 9.6 104.6 12.3 132.4 3.7 4 28.9 8.8 27.3-.8-5.9-36.4-7.4-59-.9-80.6 3.1-10.2 2.2-29.8 2.8-41.3 8-.1 47.9-13.8 64.4-38.7 9.8-14.8 31.9-53.6 49.4-53.5 17.6.1 54.1 5.8 69.2 16.3 13.1 9 35-4.8 33.1-17.6-.2-1.8-20.2-45.5-24.1-61.9-.7-3.2.6-10.3-1.2-13-18.7-27.2-15.6-50-25.5-48.2-12.8 2.4-10.2 11.9-11.3 9.4-1.3-1.6-5.7-13.8-12-15-11.5-2.2-11.1 16.3-9.4 19.6-111 4.7-100.4-8.4-135.6-14.6-59.8-10.6-197.9 6.7-256.8-8.4-19.5-5-44.9-8.2-64.6-8.7-32.4-.8-42.3 14.7-51 27.1-1 1.5-10.2 11.7-11.5 16-.4 1.4 7.2 31 2.8 77.4-6.8 72 13.3 61.8 10.6 51.8-5-18.2-2.2-69.7-2.2-69.4z"/>
  <path fill="#BFB5A9" d="M582.1-4065.58c-.65-.63-.25.08.02.6 11.4 21.32-21.7 36.35-21.7 41.82 0 2 4.65 7.42 6.8 6.5 7.85-3.42 34.42-32.22 14.88-48.92z"/>
  <linearGradient id="a" x1="314.15" x2="314.15" y1="-4125.49" y2="-3517.12" gradientUnits="userSpaceOnUse">
    <stop offset="0" stop-color="#FFF"/>
    <stop offset="1"/>
  </linearGradient>
  <path fill="url(#a)" d="M618.22-3909.3c-.27-1.84-20.26-45.56-24.1-61.94-.76-3.17.6-10.3-1.24-12.98-7.67-11.15-11.66-21.56-14.4-29.85 4.03-5.03 5.9-14.4 5.3-20.05 6.03-10.13 8.78-22.52-1.68-31.46-.65-.63-.25.08.02.6 7.37 13.77-3.84 24.92-12.7 32.56-.6-.14-1.28-.16-2.04 0-12.78 2.38-10.2 11.88-11.28 9.4-1.28-1.6-5.73-13.84-12.06-15.06-11.47-2.2-11.16 16.23-9.38 19.6-111.08 4.63-100.45-8.4-135.6-14.6-59.82-10.6-197.97 6.66-256.8-8.45-19.5-5-44.94-8.23-64.6-8.72-32.43-.8-42.34 14.72-51 27.08-1 1.44-10.28 11.67-11.58 15.92-.44 1.42 7.2 31 2.78 77.42-1.67 17.56-1.73 30.2-.9 39.18-.56 1.64-1.03 4-1.4 7.26-.95 8.7-5.86 25.8-5.58 34.5.07 2.3 2.94 55.6 4.87 53.5.68-.7 1.8-3.1 3.12-6.6 3.55 40.3 5.6 86 15.8 104.5 3.88 3.3 19.28 3.6 22.57-.3.92-23.6-16.07-35.7-11.6-80.2.88-8.6 4.13-18.4 8.42-28.2 6.18 7.5 11.92 13 12.45 13.9 17 28.9 32.5 63.7 44.6 85.3 4.8 2.9 19.1 4.6 22.3 0 4.8-6.7-26.8-52.6-29.2-61.2-2.8-10-.9-25.3 1.6-41.6.7-1.3 1.4-2.4 2.3-2.6 1.3 0 3.5 9.3 8.4 8.6 4.2-.6 5.9-6.4 5.1-9.9.1-.2.3-7 2.6-2.3 1.6 3.2 6.4 8.8 10.7 7.4 3.3-1.2 3.6-4.9 3.2-7.9-1.1-8.2-1.5-5.6 6.9-11.3 6-4 9.6-8.4 11.7-13.2l.2.4c8.4 12.2 39.3 16.1 54 18.2 30.3 4.4 94.8-16.4 132.2-10.1 1.6 15.8 3.4 33.7 5.7 46 1.4 7.7 6.2 22.6 6.8 30.3.9 11.1-4.6 41.7 1.9 50.8 1.9 2.7 10 2.5 15.9 1.3l1 11.8c3.7 4 28.9 8.8 27.3-.8-5.9-36.4-7.4-59-.9-80.6 3.1-10.2 2.2-29.8 2.8-41.3 8-.1 47.9-13.8 64.4-38.7 9.8-14.8 31.9-53.6 49.4-53.5 17.6.1 54.1 5.8 69.2 16.2 13.1 9 35.1-4.8 33.2-17.6zm-583.36 33.7c-.17 4.18-2.05 8.68-4.57 13.32-.5-3.8-1.3-11.43-1.7-14.35 0-.2-.1-.42-.1-.63l-.1-.54c0-.05-.1-.36-.3-.84-4.8-18.7-2.1-69.14-2.1-68.84 2.3 10.66 9.9 41.4 8.6 71.86z"/>
  <path fill="#BF9582" d="M336.6-2988.47c-2.33-.32-12.93 63-14.9 63.64s-21.92 10.4-18.9 15.78c7.16-1.43 12.96-6.97 17.07-5.2.36 10.33 2 16.55 22.8 27.2.85-3.15-1.8-9.7-7.7-13.27 6.08-1.54 34.72 3.56 42.58 3.1-12.78-14.72-35.8-14.12-37.38-16.36-8.44-11.9-1.1-49.78 7.25-59.12-.63-4.32-6.47-15.2-10.8-15.78z"/>
  <path fill="#BF9582" d="M367.1-3000.92c-2.35.14-.82 64.3-2.63 65.3s-19.57 14.37-15.6 19.07c6.77-2.75 11.43-9.28 15.8-8.33 2.3 10.08 5.08 15.9 27.5 22.42.26-3.25-3.6-9.2-10.05-11.58 5.68-2.66 34.77 5.5 42.4 3.57-15.32-12.06-37.85-15.7-39.8-17.57-10.53-10.1-13.62-62.14-7.18-72.9-1.43-4.12-6.06-.23-10.44.02z"/>
  <path fill="#D8D8D8" d="M528.95-3347.8c1.08-2.53 9.6-16.85 8.08-22.67-1.87-7.2-15.4-17.56-22.62-19.33-16.6-4.07-53.8 4-66.6 15.33-50 44.33-27 69.44-37.7 90.92-6.2 12.46-15.5 38.03-27.1 45.75-10.1 6.78-12.5 10.15-48.1 15.66-43.3-6.66-64.3 17-84 2.34-3-2.24-1.1-11.42 0-15 18-58.34 2.3-161.9-36-152.34-8 2 8.4 27.67 5.6 37.7-4-17.33-20.9-27.7-32.5-21.03-21.3-4-11.3 14-11.3 14-16.6 2-23.3 21.67-22.6 24-17.3-13.67-35.3 22.67-27.3 24-5.6 2.33-4.6 5.8-5.5 8.67-31.5 1.66-19.7 23.33-17.8 30-39 11.33-5.5 33.25 3.2 42.7-3.6 10.8-2.5 33.63 20.8 50.63-12.3 13.33-10.5 19.94-6 26.67 5 7.33 21.6 15.4 28.7 20.66 9.7 57.34 103.7 166.34 183.4 139.34 4.1 3.9 9 17.8 14.7 17.33 26.4-2.14 23.7-18.82 32.7-20.67 40.3-8.33 131.9-89.33 149-140.66 13.6-40.77-28.1-134.88-19.7-177 1.9-9.68 15.3-27.93 19.2-37z"/>
  <path fill="#936565" d="M495.78-3336.3c3.5 28 17.85 21.46 25.5 19 23.38-2 20.25-27.38 11.63-34.25-10.4-8.3-19.6 8.5-37.1 15.25z"/>
  <path fill="#BF9582" d="M528-3349.9c1.87-.43 6.24-1.78 8.22-1.47 3.94.63 5.3.5 15.7 1.7.87.1 2.87 1.85 3.36 1.12 1.2-9.36-9.8-18.35-15.96-18.88-4.08-.35-10.38 6.92-12.35 10.5-.7 1.25-.57 6.1 1.03 7.04z"/>
  <path fill="#936565" d="M507.66-3391.36c-1-4.28-.45-16.53 3.94-16.32 2.62.13 8.46-1.9 9.67-1.06 1.75 1.2 1.06 5.1.92 5.6-.1.3-.3.98 0 .65 1.4-1.6 3.9-2.7 5.1-1.9 1.9 1.3.5 3.2-.5 5.9-.1.3 0 1 .2.7 1.9-2 4.7-3.7 6.3-2.2 2.3 2.2-.7 6.8-2 9.5-.1.2.4 0 .6-.1 3.3-.5 3.5-1.3 5.5-.3 5.8 2.8 14.6 18.9 10.2 23.6-2.7 2.9-11.9-.5-15.5-1.8-7.6-2.6-23.1-14.2-24.9-22z"/>
  <linearGradient id="b" x1="320" x2="320" y1="-3408.95" y2="-2887.05" gradientUnits="userSpaceOnUse">
    <stop offset="0" stop-color="#FFF" stop-opacity="0"/>
    <stop offset="1" stop-color="#3F4568"/>
  </linearGradient>
  <path fill="url(#b)" d="M542.86-3366.43c2.23.27 4.17.08 5.17-1 4.34-4.76-4.45-20.83-10.25-23.62-2.03-.98-2.23-.17-5.55.35-.2.03-.73.3-.64.08 1.2-2.68 4.2-7.35 1.9-9.5-1.6-1.5-4.4.18-6.4 2.24-.3.24-.4-.46-.3-.7 1-2.64 2.4-4.58.4-5.86-1.2-.8-3.8.33-5.2 1.95-.3.4-.2-.3-.1-.6.1-.5.8-4.4-1-5.6-1.2-.8-7.1 1.2-9.7 1.1-4.4-.2-5 12.1-4 16.3l.1.7c-18.4-1.2-48.8 6.3-60.1 16.3-50 44.4-27.1 69.5-37.8 90.9-6.2 12.5-15.5 38.1-27.1 45.8-10.2 6.8-12.5 10.2-48.2 15.7-43.4-6.6-64.4 17-84 2.4-3-2.2-1.1-11.4 0-15 18-58.3 2.3-161.9-36-152.3-8 2 8.3 27.7 5.5 37.7-4-17.3-20.9-27.7-32.6-21-21.3-4-11.3 14-11.3 14-16.7 2-23.4 21.7-22.7 24-17.3-13.6-35.3 22.7-27.3 24-5.7 2.4-4.7 5.8-5.5 8.7-31.5 1.7-19.7 23.3-17.8 30-39 11.3-5.6 33.3 3.2 42.7-3.6 10.8-2.5 33.6 20.8 50.6-12.3 13.4-10.5 20-6 26.7 4.9 7.4 21.6 15.4 28.7 20.7 9.7 57.4 103.7 166.4 183.3 139.4.8.8 1.6 1.9 2.5 3.2-3.5 10.6-12.1 61.2-13.9 61.8-2 .7-21.9 10.4-18.9 15.8 7.2-1.4 13-6.9 17.1-5.2.3 10.4 2 16.6 22.8 27.2.8-3.1-1.8-9.7-7.7-13.2 6.1-1.5 34.7 3.6 42.6 3.1-12.8-14.7-35.8-14.1-37.4-16.4-8.4-11.8-1.2-49.2 7-58.9h.5c8.6-.7 14.1-2.9 17.9-5.6-.2 18.6-.1 41.9-1.2 42.5-1.8 1-19.5 14.4-15.6 19.1 6.8-2.7 11.5-9.2 15.8-8.3 2.3 10.1 5.1 15.9 27.6 22.4.3-3.2-3.6-9.2-10-11.5 5.7-2.6 34.8 5.5 42.4 3.6-15.3-12-37.9-15.7-39.8-17.5-8.2-7.8-11.9-41-10.1-60.5 1.6-2.3 3.2-4 5.8-4.6 40.3-8.3 131.9-89.3 149-140.6 13.5-40.7-28.1-134.8-19.7-177 .2-1.2.7-2.6 1.2-4 3.8-.1 7.5-1.5 10.3-2.4 23-2 20.3-26.5 12.1-33.9 1.1-.2 2.1-.3 2.8-.2 3.9.7 5.3.5 15.7 1.7.9.1 2.9 1.9 3.4 1.2 1-7.7-6.4-15.2-12.4-17.9zm-4.48-.95c-.43.08-.88.2-1.34.4l.1-.76c.4.13.82.25 1.24.36z" opacity=".3"/>
  <path fill="#AF9D95" d="M158.16-2354.64c-.06 2.4-14.64 60.9-8 80 10.96 31.5 92.5 92.88 89.33 95.33-6 4.6-48.8 3.7-50.2.4s-85.2-60.5-119.2-83.8c-33.9-23.3-46.1-144.4-10-164 26.7-14.6 98.7 41.6 98 72zm193.34 68.66c2.28 1.37-6 54.82 15.33 108.25 2.78 6.97-29.34 1.6-30 0s-44.3-59.24-37.34-80.25c4.6-14 39.3-35.57 52-28zm195.33-242c7.24-11.98 39.66-30.33 53.58-31.13 6.1-.4-9.5 18.5-10.9 24.4-2.4 10.2 1.4 47 .7 43.6s-50.2-25.6-43.3-37z"/>
  <path fill="#D8BBAF" d="M118.16-2352.64c-8.48 3.9-18.1 21.9-21.33 30.66-6.33 17.13-9.1 54.5-7.33 72.67 3 31 28.58 83.2 35.58 125-3.05 3.4-20.67 3.6-24.25 3.6-14-4.9-34.67-16.7-48-84.7-7-13.9-21.38-41.7-25.33-56.7-3.15-12 .73-38.2-4.67-49.4-2.4-5-13.45-20.3-16-15.4-2.5 4.8 5.55 30 2.62 37-.42.9-1.77 2.6-2.37 1.5-9.07-15.6-10.62-30-11.58-39.9-80.67-119.1-54-178.8-5.33-214 176.66-128 277.6-15 370-22 210-16 240 74.6 276.66 108.6 8.62 8 34.8 14.1 40 24.6 24.66-16.7 28 38.6-4.67 46-3.6 4.6-16.42 6.2-22 8-22.56 7.2-67.84 22.2-91.33 25.3-44.74 5.9-131.34 34-175.34 30.6-13.5-1-24.9 37.5-33.4 48-43.6 54.3-27.6 58-20 123.3-10 3.8-33.8.9-37.1-23.7-.7-4.7-14.9-56.7-15.6-78.3-.7-21.4-12.9-52.9-14.7-83.4-34-10.7-105.4-14.7-144.7-18z"/>
  <path fill="#AF9D95" d="M490.16-2460.6c3.27-.67 37.56-32.4 46-46.62 9.27-15.62-7.64-79.24-20.33-71.42-21.67 13.33-15.06 38.6-17.34 51-3.2 17.18-21.4 69.66-8.4 67.03z"/>
  <linearGradient id="c" x1="320" x2="320" y1="-2603.36" y2="-2120.64" gradientUnits="userSpaceOnUse">
    <stop offset="0" stop-color="#FFF" stop-opacity="0"/>
    <stop offset=".19" stop-color="#D9C0C0" stop-opacity=".19"/>
    <stop offset=".41" stop-color="#B07C7C" stop-opacity=".41"/>
    <stop offset=".61" stop-color="#8F4747" stop-opacity=".61"/>
    <stop offset=".78" stop-color="#782020" stop-opacity=".78"/>
    <stop offset=".92" stop-color="#690909" stop-opacity=".92"/>
    <stop offset="1" stop-color="#640000"/>
  </linearGradient>
  <path fill="url(#c)" d="M676.83-2430.64c-5.2-10.54-31.4-16.68-40-24.67-13.63-12.7-26.34-33.1-47.7-53-.54-10-.84-21.4.37-26.4 1.4-5.9 16.94-24.8 10.9-24.5-11.44.6-35.4 13.2-47.57 24.3-5.14-2.9-10.63-5.7-16.5-8.2-4.24-20.4-13.1-40.2-20.5-35.6-9.85 6-13.85 14.6-15.5 23.2-34.95-9-80.22-13.2-140.17-8.6-92.4 7-193.33-106-370 22-48.67 35.2-75.33 94.9 5.34 214 .96 9.9 2.5 24.3 11.58 39.9.6 1 1.95-.6 2.37-1.6 2.92-6.9-5.13-32.2-2.62-37 2.55-4.9 13.6 10.3 16 15.3 5.4 11.1 1.5 37.3 4.67 49.3 3.95 15 18.33 42.8 25.33 56.6 13.33 68 34 79.7 48 84.6 3.58-.1 21.2-.3 24.25-3.7-7-41.7-32.6-94-35.58-125v-.1c39.1 26.8 98.74 67.7 99.87 70.5 1.33 3.3 44.12 4.2 50.12-.5 3.1-2.5-78.4-63.9-89.4-95.4-5.6-16.1 3.8-59.9 7-75 37.3 3 81.1 7.2 105.6 14.9 1.8 30.4 14 62 14.6 83.3.6 21.6 14.9 73.6 15.5 78.3 3.3 24.6 27.1 27.5 37.1 23.7-2.6-22.5-6.2-37.7-8.1-50.2 7.7 12.1 14.4 21.1 14.7 21.7.6 1.6 32.8 7 30 0-15.7-39.3-15.4-78.7-15-97.3 8.2-12.9 19.1-46.5 31.6-45.6 44 3.3 130.6-24.7 175.3-30.7 23.5-3.1 68.7-18.1 91.3-25.3 5.6-1.8 18.4-3.4 22-8 32.6-7.3 29.3-62.6 4.6-46z" opacity=".3"/>
  <path fill="#58385E" d="M536.28-1697.1c-41.5-84.38-141.87-16.45-231.9-10.16-211.15 14.76-215.76 177.96-106.5 223.14 141.14 58.37 381.64-125.08 338.4-213z"/>
  <path fill="#5E7628" d="M537.76-1693.78c4.98 10.04 4.75 33.02 2.38 41.96-5.88 22.14-56.4 72.27-64.65 64.95-15.8-12.5 0-63.3-11.6-79.8-11-15.6-68.6-16.92-67.3-35.96 8.3-3.7 45.3-10.48 53-23.07 2-3.32-2.7-7.22-.1-10.13 4.6-5.26 21.9-4.8 28.7-2.78 2.3.7 5.8 5.2 8.3 5.5 3.6.4 10.3-2.7 13.8-1.8 4.6 1.2 12.1 8.8 16.8 9.3 7 .8 16.3-13.8 23-11.3 6.9 2.6-3.9 11 10.4 27.6-1.4 7.1-11.1 8.2-12.8 15.3z"/>
  <linearGradient id="d" x1="338.94" x2="338.94" y1="-1740.02" y2="-1472.87" gradientUnits="userSpaceOnUse">
    <stop offset="0" stop-color="#FFF" stop-opacity="0"/>
    <stop offset=".14" stop-color="#D5D4E2" stop-opacity=".14"/>
    <stop offset=".37" stop-color="#9490B6" stop-opacity=".37"/>
    <stop offset=".58" stop-color="#605B93" stop-opacity=".58"/>
    <stop offset=".76" stop-color="#3A3479" stop-opacity=".76"/>
    <stop offset=".91" stop-color="#231D6A" stop-opacity=".91"/>
    <stop offset="1" stop-color="#1B1464"/>
  </linearGradient>
  <path fill="url(#d)" d="M550.58-1709.1c-14.3-16.6-3.52-25.06-10.44-27.66-6.64-2.5-15.94 12.1-23 11.3-4.7-.54-12.23-8.12-16.8-9.35-1.07-.3-2.44-.2-3.9 0-5.77-2-11.83-3.2-18.18-3.9l-.07-.1c-5.5-1.7-17.7-2.3-24.7.3-44.8 4.5-98.6 27.5-149.2 31-211.2 14.8-215.8 178-106.5 223.2 111.8 46.2 285.9-59.3 332-148.8 5.1-7.1 8.9-13.8 10.2-18.9 2.3-9 2.6-31.9-2.4-42 1.7-7.1 11.4-8.2 12.8-15.4z" opacity=".4"/>
  <path fill="#EE1B08" d="M282.83-1597.6c0 74-68.17 133.6-142.13 131-75.53-2.67-130.2-57-130.2-131s61.33-133.55 149.38-133.55c74 0 122.95 59.54 122.95 133.54z"/>
  <path fill="#7D9D38" d="M148.58-1670.86c-1.97 1.6-7.4-.05-9.75-1.25-2.5-1.3-4.96-7.3-7.75-7.8-6.93-1.2-26.18 11.2-28.58 11.2-14.92 0-101.42-24.3-107.33 10.6-.06-39.7 71.23-11.9 89.33-21.4 4.58-13.9-54.17-44.4-49.17-61.1 7.4 8.5 13 14.2 31 19.5 20 5.8 25.75 28.7 43.5 17.6 8.76-5.5-8.5-30.9-1.33-41.4 11.08 9.2 15.67 58.2 19.46 49.5 4.62-10.7 21.06-13 32.37-31.2 7.27-11.7 6.75-28.6 12.5-37.1 6.17-9.1 7.9-8.2 9-8-.87 1.1-1.1-.2-7 9.7-5.16 8.7-1.72 26-8 38.6-8.26 16.6-25.77 28.6-26.13 37.7-.17 4.4 5.2 7.8 7.88 14.4z"/>
  <g opacity=".5">
    <defs>
      <path id="e" d="M282.83-1597.6c0 74-68.17 133.6-142.13 131-75.53-2.67-130.2-57-130.2-131s61.33-133.55 149.38-133.55c74 0 122.95 59.54 122.95 133.54z" opacity=".5"/>
    </defs>
    <clipPath id="g">
      <use xlink:href="#e" overflow="visible"/>
    </clipPath>
    <radialGradient id="f" cx="79.63" cy="-1641.5" r="201.02" gradientTransform="matrix(.9288 0 0 1 35.037 0)" gradientUnits="userSpaceOnUse">
      <stop offset="0" stop-color="#FFF" stop-opacity="0"/>
      <stop offset=".19" stop-color="#C0C0C0" stop-opacity=".19"/>
      <stop offset=".41" stop-color="#7C7C7C" stop-opacity=".41"/>
      <stop offset=".61" stop-color="#474747" stop-opacity=".61"/>
      <stop offset=".78" stop-color="#202020" stop-opacity=".78"/>
      <stop offset=".92" stop-color="#090909" stop-opacity=".92"/>
      <stop offset="1"/>
    </radialGradient>
    <path fill="url(#f)" d="M-95-1822h408v361H-95z" clip-path="url(#g)"/>
  </g>
  <path fill="#A5C44C" d="M461.67-1529.75l21.9-.8 42.43.55v-8l3.33-8.5-12.66-1.5-3.34-3.67 6-1.66-1.5-10.84L457.5-1554"/>
  <path fill="#DD7236" d="M44.33-1501.58c-34.66 11.58-21 43.9-2.33 43.58 34.76-.62 94.5 5.87 156-3.67 139.67-21.66 282.43-9.5 270-82.33-9.33-54.67-96.33-21.64-200.67 4-51.2 12.6-106.5 20.52-157.66 29-21.63 3.6-46.2 3.02-65.34 9.42z"/>
  <linearGradient id="h" x1="269.56" x2="284.34" y1="-1548.83" y2="-1465" gradientUnits="userSpaceOnUse">
    <stop offset="0" stop-color="#FFF" stop-opacity="0"/>
    <stop offset=".08" stop-color="#F8E7E7" stop-opacity=".08"/>
    <stop offset=".33" stop-color="#E5A3A6" stop-opacity=".33"/>
    <stop offset=".56" stop-color="#D56E72" stop-opacity=".56"/>
    <stop offset=".75" stop-color="#CA474C" stop-opacity=".75"/>
    <stop offset=".9" stop-color="#C33035" stop-opacity=".9"/>
    <stop offset="1" stop-color="#C1272D"/>
  </linearGradient>
  <path fill="url(#h)" d="M516.67-1548l-3.34-3.67 6-1.66-1.5-10.84-53.37 9c-19.38-38.42-100.88-8.48-197.13 15.17-51.2 12.6-106.5 20.52-157.66 29-21.63 3.6-46.2 3.02-65.34 9.42-34.66 11.58-21 43.9-2.33 43.58 34.76-.62 94.5 5.87 156-3.67 129.95-20.16 262.58-11.03 270.4-68.32l15.18-.5 42.42.6v-8l3.33-8.5-12.66-1.5z" opacity=".2"/>
  <path fill="#437013" d="M456.02-740.86c5.78-3.45 42.95-41.2 42.9-56.8-.03-6.8-8.9-25.04-6.36-31.45 2.96-7.4 4.03-28.8 5.32-41 4.9-46.3-298.88-346.8-324.3-438.4-7.8 53 43.5 92.8 111.23 205.6-38.6-50.1-182.1-188.7-209.5-228.5-26.5 13.6 46.6 78.2 52.8 107-15-15.6-60.9-53.8-76.3-66.6-19.3 9.6 17.6 65.6 11 80-17.1-24.3-34.6-64.1-48.2-84.9-22.3 8.3 64 166.9 62.4 182.6-.7 7-61.2-53.3-119.6-39.5 95.2 39 88 41.8 102.8 61.3 180 237.4 301 319.2 324.1 327.5 31.2 11 30.7 2.4 45.4 7.7 5.8 2.1 21.2 18.3 26.4 15.2z"/>
  <path fill="#FEC02D" d="M484.37-843.2c2.55-2.28 4.34-4.06 4.34-4.06 1.7-2.4 2-5.34 1.1-7.9 1.6-1.47 2.6-2.47 2.6-2.47 2.8-3.93 1.9-9.36-2-12.15l-.7-.53c-.4-.4-1-.4-1.8-.3.5-3.4-1-6.8-4-8.7l-.7-.5c-.2-.2-.5-.3-.8-.3 0-2.9-1.4-5.7-4.1-7.3l-.8-.5c-.6-.4-1.4-.3-2.4 0 .5-3.4-1-6.8-4-8.7l-.7-.5c-.3-.2-.6-.3-.9-.3 0-2.9-1.4-5.7-4.1-7.4l-.7-.5c-.2-.1-.4-.2-.7-.2-.6-1.9-1.8-3.7-3.6-4.8l-.8-.5-.3-.2c-.3-2.3-1.5-4.4-3.5-5.9l-.7-.5c-.3-.2-.6-.3-1-.3.2-2.9-1.1-5.8-3.6-7.6l-.7-.6c-.5-.3-1.1-.4-1.8-.2-.3-2.4-1.5-4.6-3.6-6l-.7-.6c-.2-.2-.6-.3-.9-.3.2-2.9-1.1-5.8-3.6-7.6l-.7-.6c-.5-.4-1.1-.4-1.9-.3-.3-2.3-1.5-4.6-3.6-6l-.8-.5c-.4-.4-1-.4-1.8-.3.5-3.4-.9-6.8-4-8.7l-.8-.5c-.2-.1-.5-.2-.8-.2 0-2.9-1.5-5.7-4.1-7.3l-.8-.5c-.6-.4-1.4-.3-2.4.1.5-3.3-1-6.7-4-8.6l-.8-.5c-.3-.1-.6-.2-.9-.2 0-2.9-1.5-5.7-4.1-7.4l-.8-.5c-.2-.1-.5-.2-.7-.2-.6-1.9-1.9-3.7-3.7-4.8l-.8-.5c-.4-.2-.8-.2-1.2-.2-.3-2.6-1.7-5.1-4.1-6.6l-.8-.5c-.3-.2-.6-.2-.9-.2 0-2.9-1.5-5.7-4.1-7.4l-.7-.5c-.3-.2-.5-.3-.9-.3 0-2.9-1.5-5.7-4.1-7.3l-.8-.5c-.5-.3-1.2-.3-1.9-.1-.5-2.4-1.8-4.5-4-5.8l-.8-.5c-.3-.2-.6-.3-1-.3 0-2.9-1.5-5.7-4.1-7.4l-.8-.5c-.6-.4-1.5-.3-2.6.1-.3-2.9-1.9-5.6-4.6-7l-.8-.5c-.3-.1-.6-.2-.9-.2-.2-2.8-1.9-5.5-4.6-7l-.8-.4c-.6-.4-1.5-.2-2.5.2.3-3.3-1.4-6.7-4.6-8.3l-.8-.5c-.5-.3-1.2-.3-2 0-.5-2.3-2-4.4-4.3-5.6l-.8-.4c-.2-.1-.4-.2-.7-.2-.7-1.9-2.1-3.5-4-4.5l-.8-.4c-.2-.1-.5-.2-.9-.2-.3-2.8-2.1-5.4-4.8-6.7l-.8-.4c-.3-.1-.6-.2-.9-.1-.3-2.8-2-5.5-4.8-6.9l-.9-.4c-.5-.2-1.1-.2-1.8.1-.7-2.3-2.3-4.3-4.5-5.4l-.8-.4c-.3-.1-.7-.2-1-.1-.3-2.9-2-5.6-4.8-6.9l-.9-.4c-.5-.3-1.1-.2-1.9 0-.6-2.3-2.2-4.3-4.5-5.4l-.8-.4c-.4-.3-1-.2-1.7 0l-.1-.2c-.1-3.3-2.1-6.4-5.4-7.8l-.8-.3c-.3-.1-.5-.1-.9-.1-.5-2.8-2.3-5.4-5.2-6.5l-.8-.4c-.6-.2-1.3-.1-2 .2l-.5-.5c-.3-3.1-2.2-5.8-5.3-7.1l-.8-.4c-.3-.2-.6-.2-1-.1-.5-2.9-2.4-5.4-5.3-6.6l-.8-.4c-.3-.1-.5-.1-.8-.1-.9-1.8-2.4-3.3-4.4-4.1l-.8-.5c-.3-.1-.9 0-1.1-.2-.8-2.4-2.5-4.7-5.1-5.8l-.9-.3c-.3-.1-.6-.1-1 0-.5-2.9-2.4-5.4-5.3-6.6l-.8-.4c-.2-.1-.5-.2-.9-.1-.5-2.9-2.4-5.4-5.2-6.5l-.9-.4c-.5-.2-1.2-.1-1.9.2-.8-2.3-2.5-4.2-4.8-5.1l-.9-.4c-.3-.1-.6-.1-1-.1-.5-2.8-2.4-5.4-5.3-6.6l-.8-.3c-.7-.2-1.5 0-2.4.5l-.2-.2c-.8-2.7-2.8-4.9-5.6-5.9l-.9-.3c-.3-.1-.6-.1-.9 0-.7-2.8-2.7-5.2-5.7-6.2l-.8-.3c-.6-.2-1.3 0-2 .4l-.6-.4c-.5-3.1-2.6-5.8-5.8-6.8l-.8-.3c-.5-.2-1.2-.1-1.9.3-.9-2.2-2.7-4-5.2-4.8l-.8-.3c-.2-.1-.5-.1-.8-.1-1-1.7-2.6-3.1-4.7-3.8l-.9-.3c-.4-.1-.9-.1-1.4.1-1.1-2.5-3.5-4.5-6.4-5-1.3-2.5-3.7-4.3-6.6-4.8l-.8-.1c-1.1-3.1-3.7-5.4-7.1-5.9l-.9-.2c-.3 0-.7.1-1 .2-1.2-2.6-3.7-4.6-6.8-5l-.9-.1c-.3-.1-.6 0-.9.1-1.2-2.6-3.6-4.6-6.7-5l-.9-.1c-.6-.1-1.2.2-1.8.6-1.3-2-3.4-3.4-6-3.8l-.9-.1c-.3 0-.6 0-1 .2-1.2-2.7-3.7-4.7-6.8-5.1l-.9-.1c-.7-.1-1.5.3-2.3 1.1-1.4-2.5-4-4.3-7-4.6l-.9-.1c-.5-.1-1 .1-1.4.5-.9-2.3-2.7-4.2-5.3-5.1l-.9-.3c-1.4-.5-3.3.9-5.4 3.1-1-1.1-2.2-2-3.7-2.5l-.8-.3c-1.6-.6-4 1.5-6.4 4.4-.9-.8-2-1.5-3.2-2l-.9-.3c-.9-.3-2.2.3-3.5 1.4-.8-1.1-1.8-2-3.1-2.6l-.8-.4c-4.4-2.1-17.7 16.4-17.7 16.4-.5.9-.5 2.1-.3 3.2-2.4 2-3.9 3.9-3.5 5.3l.3.9c.1.5.4 1 .6 1.5-3.8 2.7-6.9 5.5-6.3 7.4l.3.9c.2.9.7 1.7 1.2 2.5-1.6 1.5-2.6 3-2.3 4.1l.3.9c.3.8.6 1.5 1 2.2-.5.6-.8 1.2-.8 1.8l.1.9c.2 2.2 1.1 4.1 2.5 5.6-.1.2-.2.4-.3.7l-.1.9c-.5 3.6 1.2 7 4.1 8.7-.6.5-.9 1.1-.9 1.6v.9c-.1 3.1 1.5 5.8 3.8 7.4-.9.7-1.4 1.4-1.4 2.2v.9c.1 3.1 1.9 5.7 4.4 7.2-.2.3-.3.6-.3.9v.9c.1 2.5 1.3 4.8 3.1 6.3-.5.6-.8 1.1-.8 1.7l.1.9c.1 3.1 1.9 5.8 4.4 7.2-.1.3-.2.6-.2.9v.9c.2 3.1 1.9 5.8 4.4 7.2-.1.4-.2.7-.2 1l.1.9c.2 3.4 2.3 6.3 5.2 7.6v.8c.2 3 1.8 5.6 4.1 7 .2 3 1.9 5.5 4.4 6.9-.2.5-.3 1-.2 1.4l.3.9c.5 2.1 1.7 3.9 3.4 5.1-.1.3-.1.5 0 .8l.2.9c.6 2.5 2.2 4.5 4.3 5.6-.5.7-.7 1.3-.5 1.9l.2.9c.8 3.4 3.6 5.9 6.8 6.5-.7.9-1 1.7-.9 2.4l.2.9c.7 3 2.9 5.3 5.6 6.2-.1.3-.1.6 0 .9l.2.9c.7 3 2.9 5.3 5.6 6.2-.7.9-1 1.8-.8 2.5l.3.9c.9 3 3.3 5.1 6.1 5.8-.1.3-.1.7 0 1l.3.9c.7 2.4 2.5 4.3 4.6 5.3-.4.7-.5 1.3-.4 1.9l.3.8c.9 3 3.2 5.1 6 5.9-.1.3-.1.6 0 .8l.3.9c.9 3 3.3 5.1 6.1 5.9-.1.3-.1.62 0 .93l.3.9c.8 2.7 2.8 4.7 5.3 5.6-.1.4-.2.8 0 1.2l.3.9c.6 2.1 2 3.7 3.7 4.8-.1.3-.1.5 0 .8l.2.9c.9 2.9 3.3 5.1 6.1 5.8-.1.3-.1.7 0 1l.3.9c1.1 3.4 4 5.7 7.3 6.1-.6.8-.9 1.7-.7 2.3l.3.9c.9 2.95 3.2 5.06 6 5.8v.9l.3.8c1.1 3.4 4.06 5.7 7.4 6.1-.3.7-.4 1.3-.2 1.8l.3.9c.9 2.4 2.76 4.1 4.96 5-.3.7-.4 1.4-.2 1.9l.3.9c1.1 2.9 3.6 4.9 6.4 5.5-.04.4-.04.7.07 1l.3.9c.9 2.4 2.7 4.1 4.9 5-.3.7-.4 1.3-.2 1.8l.3.8c1.1 2.9 3.5 4.9 6.4 5.5-.1.3-.1.7.1 1l.3.9c1.1 2.8 3.5 4.8 6.3 5.4 0 .3 0 .6.1.9l.3.8c.8 2 2.3 3.5 4.1 4.4 0 .3 0 .5.1.75l.3.9c1 2.4 3 4.1 5.2 4.9-.3.8-.4 1.44-.2 2l.4.84c1.3 3.3 4.5 5.3 7.8 5.3-.53.9-.73 1.7-.5 2.4l.4.8c1.17 2.9 3.7 4.8 6.5 5.3 0 .3 0 .6.1.9l.4.9c1.2 2.82 3.7 4.7 6.5 5.2-.5 1-.7 1.9-.33 2.6l.4.8c1.4 2.8 4.1 4.5 7 4.8-.1.4 0 .7.1 1l.4.8c1.1 2.3 3.1 3.8 5.4 4.5-.3.7-.3 1.4-.1 1.9l.4.8c1.4 2.8 4 4.5 6.9 4.8 0 .3 0 .6.1.9l.4.8c1.4 2.8 4 4.5 6.9 4.8-.1.4 0 .7.1 1l.4.8c1.2 2.6 3.6 4.2 6.2 4.7-.1.5-.1.9.1 1.2l.4.8c1 2 2.6 3.4 4.4 4.2 0 .3.1.5.2.7l.4.8c1.4 2.8 4 4.5 6.9 4.8 0 .4 0 .7.2 1l.4.9c1.4 2.8 4.2 4.5 7.2 4.8l.7.7c-.3.7-.3 1.3-.1 1.8l.4.8c1.4 2.7 4.1 4.4 6.9 4.8 0 .3.1.6.2.8l.4.8c1.4 2.7 4 4.4 6.9 4.7l1.2 1.1c0 .3.1.5.2.7l.4.8c1.3 2.2 3.4 3.6 5.7 4.1h.06c-.2.7-.2 1.4.1 1.8l.5.8c1.6 2.7 4.4 4.3 7.27 4.4 0 .4.1.7.2 1l.5.8c1.3 2.2 3.4 3.6 5.7 4.1-.2.7-.2 1.4.1 1.8l.5.8c1.5 2.7 4.3 4.3 7.2 4.4 0 .34.05.7.2.95l.5.8c1.2 2.1 3.2 3.5 5.4 4.1 0 .1 0 .2.1.3l.4.8c.9 2 2.6 3.4 4.4 4.1 0 .3 0 .6.1.8l.4.8c1.4 2.8 4.1 4.5 6.95 4.8-.1.4 0 .7.1 1l.4.8c1.6 3.2 4.8 5 8.2 4.8-.5 1-.6 1.9-.3 2.5l.4.8c1.4 2.8 4 4.5 6.9 4.8 0 .3 0 .6.1.9l.4.8c1.6 3.2 6.1 1.5 9.5 1.4-.2.7-.2 1.3 0 1.8l.5.8c2.4 4.1 10 4.5 14.2 2.1 0 0 1.1-.9 2.7-2.4 2.4 1.1 5.4 1.1 7.9-.4 0 0 .5 1.1 4.5-2.9 1-.18 2-.5 3-1l.86-.7c.7-.4 1.38-.9 2-1.4l.7.7c2.96 1.2 9.25-6.8 13.2-12.38.5.7.9 1.1.9 1.1 3.48 1.7 12.7-9.8 16.28-14.5l.07.1c4.3 2.1 17.7-16.4 17.7-16.4.5-1.1.8-2.3.8-3.5 5.6-3.2 14.6-15.8 14.6-15.8 1.4-3 1-6.4-.8-8.9z"/>
  <defs>
    <path id="i" d="M426.47-781.86c6.7-17.3 53.64-47.3 53.52-66.64-.5-66.37-315.7-434.4-397.5-364.33-80.3 68.75 309.1 520.8 343.9 430.97z"/>
  </defs>
  <clipPath id="j">
    <use xlink:href="#i" overflow="visible"/>
  </clipPath>
  <g fill="#FFE8CA" opacity=".5" clip-path="url(#j)">
    <path d="M122.74-1158.93c1.8-3.37-.2-7.94-4.45-10.2l-.9-.42c-4.3-2.26-16.1 11.67-16.1 11.67-1.8 3.37 5.2 10.63 5.2 10.63 4.2 2.26 16-11.68 16-11.68zm-35.22-11.7c-3.8 1.43-8.27-1.06-9.96-5.57l-.32-.85c-1.68-4.5 14.75-14.83 14.75-14.83 3.8-1.42 10.2 6.45 10.2 6.45 1.7 4.5-14.8 14.8-14.8 14.8z"/>
    <path d="M117.94-1199.14c2.5-4.12 1.18-9.47-2.93-11.97l-.7-.5c-4.1-2.5-19.1 14.7-19.1 14.7-2.5 4.1 3.7 12.4 3.7 12.4 4.1 2.5 19.1-14.7 19.1-14.7z"/>
    <path d="M118.57-1180.03c2.78-3.93 1.86-9.37-2.07-12.15l-.75-.53c-3.92-2.8-20.1 13.3-20.1 13.3-2.78 3.9 2.82 12.6 2.82 12.6 3.93 2.8 20.1-13.3 20.1-13.3zm14.5 85.65c2.3-4.22.77-9.52-3.46-11.82l-.8-.44c-4.2-2.3-18.4 15.54-18.4 15.54-2.3 4.22 4.3 12.26 4.3 12.26 4.2 2.3 18.4-15.54 18.4-15.54z"/>
    <path d="M141.44-1105.08c4.47-1.8 9.6.52 11.47 5.17l.4.8c1.9 4.6-17.5 16.8-17.5 16.8-4.4 1.8-11.8-6.1-11.8-6.1-1.8-4.7 17.5-16.8 17.5-16.8zm40.13 77.1c-3.57 1.18-7.83-1.32-9.5-5.58l-.34-.82c-1.68-4.26 13.64-13.22 13.64-13.22 3.57-1.18 9.83 6.4 9.83 6.4 1.7 4.26-13.63 13.22-13.63 13.22z"/>
    <path d="M193.5-1019.98c1.9-3.32 0-7.8-4.24-10.02l-.8-.42c-4.25-2.2-16.6 11.55-16.6 11.55-1.9 3.33 5.05 10.44 5.05 10.44 4.3 2.2 16.6-11.55 16.6-11.55z"/>
    <path d="M161.32-995.86c-4.4 1.73-9.53-.26-11.47-4.42l-.37-.8c-1.94-4.17 17-15.6 17-15.6 4.4-1.74 11.85 5.2 11.85 5.2 1.94 4.17-17 15.62-17 15.62zm224.1 55.13c-4.48 1.54-9.52-.66-11.26-4.9l-.33-.8c-1.73-4.25 17.77-14.86 17.77-14.86 4.48-1.5 11.58 5.8 11.58 5.8 1.74 4.3-17.76 14.9-17.76 14.9z"/>
    <path d="M373.74-934.5c-2.35 3.88-.73 8.97 3.63 11.36l.83.46c4.36 2.4 18.88-13.8 18.88-13.8 2.35-3.9-4.47-11.82-4.47-11.82-4.3-2.4-18.8 13.8-18.8 13.8zm50.14 60.73c2.24-3.1.92-7.9-2.97-10.73l-.7-.54c-3.9-2.83-17.5 9.3-17.5 9.3-2.2 3.08 3.7 11.25 3.7 11.25 3.9 2.9 17.6-9.2 17.6-9.2z"/>
    <path d="M428.64-860.05c-3.98.87-8.04-2.23-9.07-6.93l-.2-.9c-1.03-4.7 16.7-12.6 16.7-12.6 3.96-.86 9.26 7.84 9.26 7.84 1.03 4.7-16.7 12.6-16.7 12.6z"/>
    <path d="M462.77-884c3.06-3.72 2.5-9.2-1.2-12.26l-.72-.58c-3.72-3.06-21 11.84-21 11.84-3.04 3.72 1.93 12.85 1.93 12.85 3.72 3.05 21-11.85 21-11.85z"/>
    <path d="M460.7-865c3.3-3.48 3.16-9-.33-12.3l-.67-.64c-3.5-3.3-21.78 10.33-21.78 10.33-3.3 3.5 1 12.9 1 12.9 3.5 3.3 21.78-10.4 21.78-10.4zM435-815.6c2.87-3.86 2.07-9.32-1.78-12.2l-.73-.56c-3.9-2.87-20.5 12.8-20.5 12.8-2.9 3.85 2.5 12.74 2.5 12.74 3.8 2.88 20.4-12.78 20.4-12.78z"/>
    <path d="M444.77-825.02c4.68-1.15 9.43 1.87 10.62 6.74l.2.92c1.2 4.87-19.7 14.15-19.7 14.15-4.7 1.1-10.9-7.7-10.9-7.7-1.2-4.9 19.6-14.2 19.6-14.2zm-119.55-88.65c3.73-.63 7.5 2.58 8.43 7.18l.18.9c.92 4.6-15.78 11.3-15.78 11.3-3.73.7-8.6-8-8.6-8-.93-4.6 15.77-11.2 15.77-11.2z"/>
    <path d="M314.83-923.7c-2.46 3.1-1.37 7.95 2.44 10.87l.72.55c3.8 2.9 18.4-9.1 18.4-9.1 2.4-3.1-3.2-11.43-3.2-11.43-3.8-3-18.4 9.1-18.4 9.1z"/>
    <path d="M350.82-943.1c4.64-1.07 9.37 1.75 10.57 6.3l.2.86c1.2 4.55-19.6 13.18-19.6 13.18-4.7 1.06-10.8-7.17-10.8-7.17-1.2-4.55 19.5-13.18 19.5-13.18z"/>
    <path d="M332.78-949.46c4.55-1.38 9.47 1.12 11 5.57l.27.9c1.52 4.5-18.5 14.5-18.5 14.5-4.54 1.4-11.26-6.4-11.26-6.4-1.6-4.4 18.4-14.5 18.4-14.5zm-3.38-67.36c4.68-.86 9.28 2.17 10.26 6.76l.2.87c.96 4.6-20.16 12.3-20.16 12.3-4.7.9-10.46-7.6-10.46-7.6-.98-4.6 20.14-12.3 20.14-12.3z"/>
    <path d="M342-1021.3c3-3.58 2.3-9-1.6-12.12l-.75-.6c-3.9-3.12-21.05 11.04-21.05 11.04-3 3.58 2.36 12.72 2.36 12.72 3.88 3.12 21.05-11.04 21.05-11.04zm-118.85-99.04c-4.12 1.17-7.6-2.54-7.74-8.28v-1.1c-.1-5.75 19-15.9 19-15.9 4.2-1.2 7.8 9.36 7.8 9.36.2 5.75-19 15.92-19 15.92z"/>
    <path d="M232.47-1108.64c3.2-4.17 2.93-10.23-.63-13.56l-.67-.64c-3.56-3.3-21.43 13.43-21.43 13.43-3.2 4.1 1.3 14.1 1.3 14.1 3.56 3.3 21.43-13.4 21.43-13.4zm-88.2-23.1c-5.18 1.8-9.74-1.3-10.2-6.97l-.07-1.1c-.45-5.7 23.4-18.7 23.4-18.7 5.17-1.8 10.26 8 10.26 8 .45 5.6-23.4 18.7-23.4 18.7z"/>
    <path d="M208.47-1074.1c-5.14 2.2-9.96-.48-10.78-6l-.2-1.04c-.8-5.5 22.5-20.28 22.5-20.28 5.1-2.2 10.9 7.04 10.9 7.04.8 5.5-22.5 20.28-22.5 20.28zm150.4 273.02c3.28-.9 6.2 2 6.5 6.47l.08.8c.33 4.5-14.7 12.3-14.7 12.3-3.26.9-6.57-7.3-6.57-7.3-.32-4.5 14.7-12.4 14.7-12.4z"/>
    <path d="M350.97-810.2c-2.43 3.23-1.98 7.96 1 10.55l.56.5c2.97 2.6 16.72-10.42 16.72-10.42 2.43-3.24-1.56-11.06-1.56-11.06-3-2.6-16.8 10.42-16.8 10.42z"/>
    <path d="M383.85-832.17c4.1-1.4 7.87 1.04 8.43 5.44l.12.84c.56 4.5-18.12 14.6-18.12 14.6-4.1 1.4-8.53-6.3-8.53-6.3-.57-4.4 18.1-14.5 18.1-14.5z"/>
    <path d="M369-837.1c4.05-1.7 8.02.4 8.87 4.7l.17.8c.84 4.3-17.36 15.78-17.36 15.78-4.05 1.7-9.03-5.5-9.03-5.5-.84-4.3 17.36-15.77 17.36-15.77zm-19.45-25.7c3.82-1.95 7.9-.02 9.1 4.3l.22.82c1.2 4.32-15.68 16.9-15.68 16.9-3.9 1.94-9.4-5.13-9.4-5.13-1.2-4.4 15.7-16.9 15.7-16.9z"/>
    <path d="M359.64-870.2c2.2-4.25 1.14-9.46-2.35-11.64l-.7-.42c-3.5-2.18-16.6 15.88-16.6 15.88-2.2 4.25 3 12.06 3 12.06 3.5 2.18 16.5-15.88 16.5-15.88zm-120.5-170.5c2.26-3.08.93-7.88-2.96-10.7l-.74-.55c-3.9-2.84-17.55 9.3-17.55 9.3-2.3 3.08 3.7 11.25 3.7 11.25 3.8 2.84 17.5-9.3 17.5-9.3z"/>
    <path d="M243.9-1026.96c-3.97.87-8.03-2.23-9.06-6.93l-.2-.8c-1.03-4.7 16.7-12.6 16.7-12.6 3.97-.8 9.25 7.9 9.25 7.9 1 4.7-16.7 12.6-16.7 12.6z"/>
    <path d="M278.04-1050.9c3.05-3.73 2.52-9.22-1.2-12.27l-.7-.58c-3.73-3.06-21 11.84-21 11.84-3.06 3.7 1.9 12.8 1.9 12.8 3.73 3 21-11.9 21-11.9z"/>
    <path d="M275.98-1031.9c3.3-3.5 3.15-9-.34-12.32l-.66-.63c-3.5-3.3-21.78 10.33-21.78 10.33-3.3 3.5 1 12.95 1 12.95 3.5 3.3 21.78-10.33 21.78-10.33zm-16.6 116.86c2.88-3.86 2.1-9.32-1.77-12.2l-.7-.55c-3.8-2.8-20.4 12.8-20.4 12.8-2.9 3.9 2.5 12.8 2.5 12.8 3.9 2.9 20.5-12.8 20.5-12.8z"/>
    <path d="M269.17-924.45c4.67-1.15 9.43 1.87 10.62 6.73l.2.93c1.2 4.9-19.7 14.2-19.7 14.2-4.7 1.2-10.9-7.6-10.9-7.6-1.2-4.8 19.6-14.1 19.6-14.1z"/>
  </g>
  <defs>
    <path id="k" d="M484.37-843.2c2.55-2.28 4.34-4.06 4.34-4.06 1.7-2.4 2-5.34 1.1-7.9 1.6-1.47 2.6-2.47 2.6-2.47 2.8-3.93 1.9-9.36-2-12.15l-.7-.53c-.4-.4-1-.4-1.8-.3.5-3.4-1-6.8-4-8.7l-.7-.5c-.2-.2-.5-.3-.8-.3 0-2.9-1.4-5.7-4.1-7.3l-.8-.5c-.6-.4-1.4-.3-2.4 0 .5-3.4-1-6.8-4-8.7l-.7-.5c-.3-.2-.6-.3-.9-.3 0-2.9-1.4-5.7-4.1-7.4l-.7-.5c-.2-.1-.4-.2-.7-.2-.6-1.9-1.8-3.7-3.6-4.8l-.8-.5-.3-.2c-.3-2.3-1.5-4.4-3.5-5.9l-.7-.5c-.3-.2-.6-.3-1-.3.2-2.9-1.1-5.8-3.6-7.6l-.7-.6c-.5-.3-1.1-.4-1.8-.2-.3-2.4-1.5-4.6-3.6-6l-.7-.6c-.2-.2-.6-.3-.9-.3.2-2.9-1.1-5.8-3.6-7.6l-.7-.6c-.5-.4-1.1-.4-1.9-.3-.3-2.3-1.5-4.6-3.6-6l-.8-.5c-.4-.4-1-.4-1.8-.3.5-3.4-.9-6.8-4-8.7l-.8-.5c-.2-.1-.5-.2-.8-.2 0-2.9-1.5-5.7-4.1-7.3l-.8-.5c-.6-.4-1.4-.3-2.4.1.5-3.3-1-6.7-4-8.6l-.8-.5c-.3-.1-.6-.2-.9-.2 0-2.9-1.5-5.7-4.1-7.4l-.8-.5c-.2-.1-.5-.2-.7-.2-.6-1.9-1.9-3.7-3.7-4.8l-.8-.5c-.4-.2-.8-.2-1.2-.2-.3-2.6-1.7-5.1-4.1-6.6l-.8-.5c-.3-.2-.6-.2-.9-.2 0-2.9-1.5-5.7-4.1-7.4l-.7-.5c-.3-.2-.5-.3-.9-.3 0-2.9-1.5-5.7-4.1-7.3l-.8-.5c-.5-.3-1.2-.3-1.9-.1-.5-2.4-1.8-4.5-4-5.8l-.8-.5c-.3-.2-.6-.3-1-.3 0-2.9-1.5-5.7-4.1-7.4l-.8-.5c-.6-.4-1.5-.3-2.6.1-.3-2.9-1.9-5.6-4.6-7l-.8-.5c-.3-.1-.6-.2-.9-.2-.2-2.8-1.9-5.5-4.6-7l-.8-.4c-.6-.4-1.5-.2-2.5.2.3-3.3-1.4-6.7-4.6-8.3l-.8-.5c-.5-.3-1.2-.3-2 0-.5-2.3-2-4.4-4.3-5.6l-.8-.4c-.2-.1-.4-.2-.7-.2-.7-1.9-2.1-3.5-4-4.5l-.8-.4c-.2-.1-.5-.2-.9-.2-.3-2.8-2.1-5.4-4.8-6.7l-.8-.4c-.3-.1-.6-.2-.9-.1-.3-2.8-2-5.5-4.8-6.9l-.9-.4c-.5-.2-1.1-.2-1.8.1-.7-2.3-2.3-4.3-4.5-5.4l-.8-.4c-.3-.1-.7-.2-1-.1-.3-2.9-2-5.6-4.8-6.9l-.9-.4c-.5-.3-1.1-.2-1.9 0-.6-2.3-2.2-4.3-4.5-5.4l-.8-.4c-.4-.3-1-.2-1.7 0l-.1-.2c-.1-3.3-2.1-6.4-5.4-7.8l-.8-.3c-.3-.1-.5-.1-.9-.1-.5-2.8-2.3-5.4-5.2-6.5l-.8-.4c-.6-.2-1.3-.1-2 .2l-.5-.5c-.3-3.1-2.2-5.8-5.3-7.1l-.8-.4c-.3-.2-.6-.2-1-.1-.5-2.9-2.4-5.4-5.3-6.6l-.8-.4c-.3-.1-.5-.1-.8-.1-.9-1.8-2.4-3.3-4.4-4.1l-.8-.5c-.3-.1-.9 0-1.1-.2-.8-2.4-2.5-4.7-5.1-5.8l-.9-.3c-.3-.1-.6-.1-1 0-.5-2.9-2.4-5.4-5.3-6.6l-.8-.4c-.2-.1-.5-.2-.9-.1-.5-2.9-2.4-5.4-5.2-6.5l-.9-.4c-.5-.2-1.2-.1-1.9.2-.8-2.3-2.5-4.2-4.8-5.1l-.9-.4c-.3-.1-.6-.1-1-.1-.5-2.8-2.4-5.4-5.3-6.6l-.8-.3c-.7-.2-1.5 0-2.4.5l-.2-.2c-.8-2.7-2.8-4.9-5.6-5.9l-.9-.3c-.3-.1-.6-.1-.9 0-.7-2.8-2.7-5.2-5.7-6.2l-.8-.3c-.6-.2-1.3 0-2 .4l-.6-.4c-.5-3.1-2.6-5.8-5.8-6.8l-.8-.3c-.5-.2-1.2-.1-1.9.3-.9-2.2-2.7-4-5.2-4.8l-.8-.3c-.2-.1-.5-.1-.8-.1-1-1.7-2.6-3.1-4.7-3.8l-.9-.3c-.4-.1-.9-.1-1.4.1-1.1-2.5-3.5-4.5-6.4-5-1.3-2.5-3.7-4.3-6.6-4.8l-.8-.1c-1.1-3.1-3.7-5.4-7.1-5.9l-.9-.2c-.3 0-.7.1-1 .2-1.2-2.6-3.7-4.6-6.8-5l-.9-.1c-.3-.1-.6 0-.9.1-1.2-2.6-3.6-4.6-6.7-5l-.9-.1c-.6-.1-1.2.2-1.8.6-1.3-2-3.4-3.4-6-3.8l-.9-.1c-.3 0-.6 0-1 .2-1.2-2.7-3.7-4.7-6.8-5.1l-.9-.1c-.7-.1-1.5.3-2.3 1.1-1.4-2.5-4-4.3-7-4.6l-.9-.1c-.5-.1-1 .1-1.4.5-.9-2.3-2.7-4.2-5.3-5.1l-.9-.3c-1.4-.5-3.3.9-5.4 3.1-1-1.1-2.2-2-3.7-2.5l-.8-.3c-1.6-.6-4 1.5-6.4 4.4-.9-.8-2-1.5-3.2-2l-.9-.3c-.9-.3-2.2.3-3.5 1.4-.8-1.1-1.8-2-3.1-2.6l-.8-.4c-4.4-2.1-17.7 16.4-17.7 16.4-.5.9-.5 2.1-.3 3.2-2.4 2-3.9 3.9-3.5 5.3l.3.9c.1.5.4 1 .6 1.5-3.8 2.7-6.9 5.5-6.3 7.4l.3.9c.2.9.7 1.7 1.2 2.5-1.6 1.5-2.6 3-2.3 4.1l.3.9c.3.8.6 1.5 1 2.2-.5.6-.8 1.2-.8 1.8l.1.9c.2 2.2 1.1 4.1 2.5 5.6-.1.2-.2.4-.3.7l-.1.9c-.5 3.6 1.2 7 4.1 8.7-.6.5-.9 1.1-.9 1.6v.9c-.1 3.1 1.5 5.8 3.8 7.4-.9.7-1.4 1.4-1.4 2.2v.9c.1 3.1 1.9 5.7 4.4 7.2-.2.3-.3.6-.3.9v.9c.1 2.5 1.3 4.8 3.1 6.3-.5.6-.8 1.1-.8 1.7l.1.9c.1 3.1 1.9 5.8 4.4 7.2-.1.3-.2.6-.2.9v.9c.2 3.1 1.9 5.8 4.4 7.2-.1.4-.2.7-.2 1l.1.9c.2 3.4 2.3 6.3 5.2 7.6v.8c.2 3 1.8 5.6 4.1 7 .2 3 1.9 5.5 4.4 6.9-.2.5-.3 1-.2 1.4l.3.9c.5 2.1 1.7 3.9 3.4 5.1-.1.3-.1.5 0 .8l.2.9c.6 2.5 2.2 4.5 4.3 5.6-.5.7-.7 1.3-.5 1.9l.2.9c.8 3.4 3.6 5.9 6.8 6.5-.7.9-1 1.7-.9 2.4l.2.9c.7 3 2.9 5.3 5.6 6.2-.1.3-.1.6 0 .9l.2.9c.7 3 2.9 5.3 5.6 6.2-.7.9-1 1.8-.8 2.5l.3.9c.9 3 3.3 5.1 6.1 5.8-.1.3-.1.7 0 1l.3.9c.7 2.4 2.5 4.3 4.6 5.3-.4.7-.5 1.3-.4 1.9l.3.8c.9 3 3.2 5.1 6 5.9-.1.3-.1.6 0 .8l.3.9c.9 3 3.3 5.1 6.1 5.9-.1.3-.1.62 0 .93l.3.9c.8 2.7 2.8 4.7 5.3 5.6-.1.4-.2.8 0 1.2l.3.9c.6 2.1 2 3.7 3.7 4.8-.1.3-.1.5 0 .8l.2.9c.9 2.9 3.3 5.1 6.1 5.8-.1.3-.1.7 0 1l.3.9c1.1 3.4 4 5.7 7.3 6.1-.6.8-.9 1.7-.7 2.3l.3.9c.9 2.95 3.2 5.06 6 5.8v.9l.3.8c1.1 3.4 4.06 5.7 7.4 6.1-.3.7-.4 1.3-.2 1.8l.3.9c.9 2.4 2.76 4.1 4.96 5-.3.7-.4 1.4-.2 1.9l.3.9c1.1 2.9 3.6 4.9 6.4 5.5-.04.4-.04.7.07 1l.3.9c.9 2.4 2.7 4.1 4.9 5-.3.7-.4 1.3-.2 1.8l.3.8c1.1 2.9 3.5 4.9 6.4 5.5-.1.3-.1.7.1 1l.3.9c1.1 2.8 3.5 4.8 6.3 5.4 0 .3 0 .6.1.9l.3.8c.8 2 2.3 3.5 4.1 4.4 0 .3 0 .5.1.75l.3.9c1 2.4 3 4.1 5.2 4.9-.3.8-.4 1.44-.2 2l.4.84c1.3 3.3 4.5 5.3 7.8 5.3-.53.9-.73 1.7-.5 2.4l.4.8c1.17 2.9 3.7 4.8 6.5 5.3 0 .3 0 .6.1.9l.4.9c1.2 2.82 3.7 4.7 6.5 5.2-.5 1-.7 1.9-.33 2.6l.4.8c1.4 2.8 4.1 4.5 7 4.8-.1.4 0 .7.1 1l.4.8c1.1 2.3 3.1 3.8 5.4 4.5-.3.7-.3 1.4-.1 1.9l.4.8c1.4 2.8 4 4.5 6.9 4.8 0 .3 0 .6.1.9l.4.8c1.4 2.8 4 4.5 6.9 4.8-.1.4 0 .7.1 1l.4.8c1.2 2.6 3.6 4.2 6.2 4.7-.1.5-.1.9.1 1.2l.4.8c1 2 2.6 3.4 4.4 4.2 0 .3.1.5.2.7l.4.8c1.4 2.8 4 4.5 6.9 4.8 0 .4 0 .7.2 1l.4.9c1.4 2.8 4.2 4.5 7.2 4.8l.7.7c-.3.7-.3 1.3-.1 1.8l.4.8c1.4 2.7 4.1 4.4 6.9 4.8 0 .3.1.6.2.8l.4.8c1.4 2.7 4 4.4 6.9 4.7l1.2 1.1c0 .3.1.5.2.7l.4.8c1.3 2.2 3.4 3.6 5.7 4.1h.06c-.2.7-.2 1.4.1 1.8l.5.8c1.6 2.7 4.4 4.3 7.27 4.4 0 .4.1.7.2 1l.5.8c1.3 2.2 3.4 3.6 5.7 4.1-.2.7-.2 1.4.1 1.8l.5.8c1.5 2.7 4.3 4.3 7.2 4.4 0 .34.05.7.2.95l.5.8c1.2 2.1 3.2 3.5 5.4 4.1 0 .1 0 .2.1.3l.4.8c.9 2 2.6 3.4 4.4 4.1 0 .3 0 .6.1.8l.4.8c1.4 2.8 4.1 4.5 6.95 4.8-.1.4 0 .7.1 1l.4.8c1.6 3.2 4.8 5 8.2 4.8-.5 1-.6 1.9-.3 2.5l.4.8c1.4 2.8 4 4.5 6.9 4.8 0 .3 0 .6.1.9l.4.8c1.6 3.2 4.9 5 8.2 4.8-.2.7-.2 1.3.1 1.8l.4.8c2.4 4.2 7.8 5.6 11.9 3.2 0 0 1.1-.9 2.7-2.3 2.5 1.1 5.5 1.1 8-.3 0 0 4.2-3.5 8.1-7.5 1.1-.2 2.1-.5 3-1.1l.9-.7c.7-.4 1.36-.9 2-1.4l.7.8c2.9 1.2 9.2-6.8 13.2-12.3.5.7.9 1.1.9 1.1 3.5 1.7 12.7-9.8 16.3-14.5v.1c4.4 2.1 17.7-16.4 17.7-16.4.6-1.1.8-2.3.9-3.5 5.6-3.2 14.7-15.8 14.7-15.8 1.5-3 1-6.4-.8-8.9z"/>
  </defs>
  <clipPath id="l">
    <use xlink:href="#k" overflow="visible"/>
  </clipPath>
  <g fill="#D89D25" clip-path="url(#l)">
    <path d="M121.66-1183.56c-3.76.7-7.5-2.6-8.37-7.33l-.2-.9c-.9-4.7 16-11.7 16-11.7 3.7-.7 8.5 8.3 8.5 8.3.8 4.8-16 11.8-16 11.8z"/>
    <path d="M131.95-1173.3c2.52-3.2 1.5-8.22-2.3-11.2l-.72-.55c-3.78-2.98-18.6 9.56-18.6 9.56-2.5 3.2 3.03 11.8 3.03 11.8 3.8 3 18.6-9.5 18.6-9.5z"/>
    <path d="M95.56-1152.96c-4.68 1.13-9.4-1.74-10.53-6.42l-.2-.9c-1.15-4.67 19.77-13.75 19.77-13.75 4.68-1.14 10.74 7.3 10.74 7.3 1.13 4.68-19.78 13.77-19.78 13.77z"/>
    <path d="M113.57-1146.57c-4.58 1.46-9.48-1.07-10.94-5.65l-.28-.87c-1.46-4.5 18.76-15.1 18.76-15.1 4.6-1.4 11.3 6.6 11.3 6.6 1.5 4.6-18.7 15.2-18.7 15.2zm55.65-1.7c-4.72.9-9.3-2.18-10.2-6.9l-.2-.9c-.9-4.7 20.4-12.85 20.4-12.85 4.73-.92 10.4 7.8 10.4 7.8.9 4.7-20.4 12.84-20.4 12.84z"/>
    <path d="M156.5-1143.56c-3.07 3.72-2.4 9.3 1.45 12.5l.73.6c3.87 3.2 21.3-11.57 21.3-11.57 3.05-3.72-2.2-13.1-2.2-13.1-3.86-3.18-21.3 11.58-21.3 11.58zm86.86 57.06c2.2-3.03 1.1-7.85-2.44-10.75l-.68-.55c-3.55-2.9-16.73 9-16.73 9-2.2 3.04 3.2 11.3 3.2 11.3 3.6 2.9 16.8-9 16.8-9z"/>
    <path d="M247.38-1072.7c-3.75.8-7.45-2.36-8.27-7.07l-.1-.9c-.8-4.7 16.1-12.3 16.1-12.3 3.8-.8 8.4 7.97 8.4 7.97.9 4.7-16 12.3-16 12.3z"/>
    <path d="M280.1-1096.06c2.98-3.66 2.65-9.15-.74-12.27l-.64-.6c-3.4-3.1-20.04 11.5-20.04 11.5-2.97 3.66 1.4 12.85 1.4 12.85 3.38 3.12 20.02-11.48 20.02-11.48z"/>
    <path d="M277.56-1077.1c3.2-3.44 3.24-8.95.08-12.3l-.6-.65c-3.17-3.37-20.73 9.95-20.73 9.95-3.2 3.43.6 12.95.6 12.95 3.2 3.36 20.7-9.95 20.7-9.95zm3.26 142.87c2.82-3.8 2.25-9.27-1.27-12.2l-.67-.57c-3.52-2.94-19.54 12.43-19.54 12.43-2.82 3.8 1.94 12.77 1.94 12.77 3.52 2.94 19.54-12.43 19.54-12.43z"/>
    <path d="M290.28-943.48c4.42-1.06 8.77 2.03 9.73 6.9l.2.94c1 4.88-18.8 13.8-18.8 13.8-4.4 1.07-9.9-7.83-9.9-7.83-.9-4.88 18.9-13.8 18.9-13.8zm42.7 66.18c-3.64 1.2-7.8-1.52-9.33-6.08l-.3-.87c-1.5-4.56 14.18-13.9 14.18-13.9 3.62-1.22 9.6 6.94 9.6 6.94 1.53 4.5-14.16 13.9-14.16 13.9z"/>
    <path d="M344.6-868.6c2.04-3.53.32-8.34-3.85-10.75l-.8-.46c-4.16-2.4-17.05 12-17.05 12-2.03 3.5 4.65 11.2 4.65 11.2 4.16 2.4 17.06-12.1 17.06-12.1z"/>
    <path d="M311.44-843.33c-4.47 1.8-9.53-.4-11.32-4.86l-.34-.8c-1.78-4.5 17.65-16.4 17.65-16.4 4.47-1.8 11.66 5.7 11.66 5.7 1.7 4.5-17.7 16.4-17.7 16.4z"/>
    <path d="M330.2-839.54c-4.35 2.1-9.56.28-11.65-4.05l-.4-.8c-2.1-4.3 16.44-17.6 16.44-17.6 4.3-2.1 12 4.9 12 4.9 2.1 4.4-16.5 17.6-16.5 17.6zm54.84-9.56c-4.55 1.6-9.52-.82-11.1-5.37l-.3-.86c-1.57-4.55 18.38-15.6 18.38-15.6 4.55-1.58 11.4 6.24 11.4 6.24 1.57 4.6-18.38 15.6-18.38 15.6z"/>
    <path d="M373.1-842.6c-2.5 4.1-1.07 9.54 3.2 12.15l.82.5c4.27 2.6 19.44-14.47 19.44-14.47 2.5-4.1-4.02-12.66-4.02-12.66-4.28-2.6-19.44 14.47-19.44 14.47zm-48.26-140.8c-1.74 3.36.18 7.94 4.28 10.2l.78.44c4.1 2.27 15.53-11.62 15.53-11.62 1.74-3.36-5.06-10.64-5.06-10.64-4.1-2.27-15.53 11.6-15.53 11.6z"/>
    <path d="M318.43-996.35c3.7-1.4 8 1.1 9.6 5.62l.32.86c1.62 4.5-14.26 14.77-14.26 14.77-3.7 1.4-10-6.48-10-6.48-1.6-4.5 14.2-14.77 14.2-14.77z"/>
    <path d="M289.02-967.92c-2.42 4.1-1.16 9.46 2.8 11.97l.77.48c3.9 2.52 18.4-14.63 18.4-14.63 2.4-4.1-3.6-12.4-3.6-12.4-4-2.5-18.5 14.62-18.5 14.62z"/>
    <path d="M288.43-987.04c-2.7 3.92-1.8 9.36 2 12.15l.7.6c3.8 2.8 19.44-13.2 19.44-13.2 2.7-3.9-2.7-12.7-2.7-12.7-3.8-2.8-19.44 13.3-19.44 13.3zm5.33-60.82c-2.23 4.22-.74 9.52 3.34 11.84l.77.44c4.08 2.32 17.8-15.47 17.8-15.47 2.24-4.22-4.1-12.28-4.1-12.28-4.07-2.32-17.8 15.47-17.8 15.47z"/>
    <path d="M285.67-1037.2c-4.32 1.8-9.27-.54-11.07-5.2l-.34-.88c-1.8-4.66 16.9-16.73 16.9-16.73 4.32-1.8 11.4 6.1 11.4 6.1 1.8 4.6-16.9 16.7-16.9 16.7zM128-1076.18c2.38-3.58-.1-8-5.54-9.9l-1.03-.34c-5.44-1.9-20.93 13.3-20.93 13.3-2.37 3.57 6.6 10.24 6.6 10.24 5.42 1.88 20.9-13.3 20.9-13.3z"/>
    <path d="M136.34-1063.75c-4.94 1.8-10.64-.3-12.73-4.7l-.4-.84c-2-4.4 19.3-16.3 19.3-16.3 5-1.8 13.1 5.6 13.1 5.6 2.1 4.4-19.2 16.4-19.2 16.4z"/>
    <path d="M176.07-1095.42c3.3-4.38 1.7-9.67-3.55-11.8l-1-.42c-5.25-2.14-24.9 16.62-24.9 16.62-3.3 4.4 4.55 12.23 4.55 12.23 5.25 2.2 24.9-16.6 24.9-16.6z"/>
    <path d="M176.53-1076.17c3.66-4.22 2.56-9.63-2.44-12.07l-1-.47c-5-2.5-26.2 15.3-26.2 15.3-3.7 4.2 3.4 12.5 3.4 12.5 5 2.4 26.1-15.3 26.1-15.3zm-24.8 54.8c3.04-4.5 1.14-9.7-4.26-11.63l-1.03-.37c-5.4-1.94-24.04 17.42-24.04 17.42-3.05 4.48 5.28 12 5.28 12 5.4 1.93 24.04-17.43 24.04-17.43z"/>
    <path d="M162.7-1032.98c5.8-2.22 12.36-.36 14.67 4.15l.45.87c2.3 4.52-22.85 18.6-22.85 18.6-5.8 2.2-15.12-5.03-15.12-5.03-2.3-4.5 22.84-18.5 22.84-18.5zM414.36-924.3c-1.85 2.83.02 6.5 4.2 8.16l.8.32c4.16 1.66 16.22-10.26 16.22-10.26 1.86-2.84-4.98-8.5-4.98-8.5-4.17-1.65-16.24 10.27-16.24 10.27z"/>
    <path d="M408.05-934.6c3.82-1.34 8.2.5 9.77 4.13l.3.7c1.57 3.62-15 12.78-15 12.78-3.82 1.4-10.06-4.8-10.06-4.8-1.58-3.6 15-12.8 15-12.8z"/>
    <path d="M377.16-909.92c-2.57 3.47-1.4 7.8 2.64 9.68l.76.36c4.04 1.87 19.34-12.86 19.34-12.86 2.57-3.48-3.4-10.04-3.4-10.04-4.04-1.87-19.34 12.86-19.34 12.86z"/>
    <path d="M376.97-925.56c-2.86 3.34-2.06 7.75 1.78 9.87l.73.4c3.84 2.2 20.3-11.7 20.3-11.7 2.84-3.3-2.53-10.3-2.53-10.3-3.84-2.1-20.28 11.8-20.28 11.8zm19.6-43.84c-2.4 3.56-.98 7.83 3.16 9.54l.8.33c4.14 1.7 18.66-13.53 18.66-13.53 2.3-3.56-4-9.87-4-9.87-4.2-1.7-18.7 13.53-18.7 13.53z"/>
    <path d="M388-960.27c-4.48 1.66-9.53-.02-11.27-3.75l-.34-.7c-1.8-3.74 17.7-14.52 17.7-14.52 4.5-1.65 11.6 4.47 11.6 4.47 1.7 3.72-17.8 14.5-17.8 14.5zm-184.58-56.5c-3.62 1.2-7.8-1.5-9.32-6.07l-.3-.87c-1.5-4.6 14.18-14 14.18-14 3.62-1.2 9.6 6.9 9.6 6.9 1.53 4.5-14.16 13.9-14.16 13.9z"/>
    <path d="M215.06-1008.07c2.04-3.52.3-8.33-3.85-10.74l-.8-.5c-4.1-2.4-17 12.1-17 12.1-2 3.5 4.7 11.2 4.7 11.2 4.2 2.4 17.1-12.1 17.1-12.1z"/>
    <path d="M181.9-982.8c-4.47 1.8-9.54-.4-11.33-4.85l-.33-.86c-1.78-4.5 17.64-16.5 17.64-16.5 4.47-1.8 11.66 5.7 11.66 5.7 1.78 4.5-17.64 16.4-17.64 16.4z"/>
    <path d="M200.64-979c-4.33 2.1-9.54.28-11.64-4.05l-.4-.83c-2.1-4.33 16.44-17.62 16.44-17.62 4.33-2.1 12.04 4.88 12.04 4.88 2.1 4.33-16.44 17.62-16.44 17.62zm54.86-9.55c-4.56 1.58-9.52-.83-11.1-5.38l-.3-.86c-1.58-4.5 18.38-15.6 18.38-15.6 4.54-1.5 11.38 6.3 11.38 6.3 1.58 4.6-18.37 15.6-18.37 15.6z"/>
    <path d="M243.56-982.07c-2.5 4.1-1.08 9.55 3.2 12.16l.8.5c4.3 2.6 19.45-14.5 19.45-14.5 2.6-4.1-4-12.7-4-12.7-4.2-2.6-19.4 14.4-19.4 14.4z"/>
  </g>
  <path fill="#437013" d="M454.38-773.9L76.92-1113.02S272.06-773.2 389.55-748.26c13.96 2.96 64.83-25.63 64.83-25.63z"/>
  <linearGradient id="m" x1="314.93" x2="182.03" y1="-1146.99" y2="-916.81" gradientUnits="userSpaceOnUse" gradientTransform="rotate(19.56 221.22 -1047.674)">
    <stop offset="0" stop-color="#FFF" stop-opacity="0"/>
    <stop offset="1" stop-color="#662D91"/>
  </linearGradient>
  <path fill="url(#m)" d="M498.9-797.65c0-6.8-8.9-25.05-6.34-31.46 2.96-7.4 4.03-28.8 5.32-41 4.9-46.3-298.88-346.8-324.3-438.4-7.3 49.6 37.26 87.7 98.6 185.1-.16-.1-.3-.2-.48-.3l-.84-.4c-.23-.1-.48-.1-.75-.1-.9-1.8-2.4-3.3-4.4-4.2l-.5-.7c-.3-.1-.6-.2-.8-.4l-.3.2c-.8-2.4-2.7-4.6-5.3-5.6l-.9-.3c-.1-.1-.3 0-.4-.1l-.8-.9c-.7-2.5-2.5-4.6-5.1-5.7l-.2-.1c-.7-.8-1.3-1.5-2.1-2.3-.7-1.8-2.1-3.3-3.9-4.3-57.8-62.3-148.7-152.4-169.9-183.2-26.5 13.6 46.7 78.2 52.9 107-15.1-15.6-60.9-53.7-76.3-66.5-19.4 9.6 17.6 65.6 11 80-17.1-24.2-34.6-64-48.1-84.8-22.3 8.3 64 166.9 62.3 182.5-.7 7-61.2-53.3-119.6-39.5 95.2 39 88 41.9 102.8 61.3 21.5 28.2 42.1 54.3 61.8 78.2.7 4.2 5.9 8.9 5.9 8.9.5.1 1 .1 1.6 0 28.4 34.2 54.8 64 79.1 89.9 59.2 79.5 128 154.7 180.9 166 6.3 1.3 19.9-3.7 33-9.6 2.1.2 4.3.8 7.1 1.8 5.7 2.1 21.2 18.3 26.4 15.2 5.8-3.4 43-41.2 42.9-56.8z" opacity=".5"/>
  <linearGradient id="n" x1="550.64" x2="550.64" y1="-1260.67" y2="-1218.08" gradientUnits="userSpaceOnUse">
    <stop offset="0" stop-color="#F2AF09"/>
    <stop offset="1" stop-color="#B37048"/>
  </linearGradient>
  <path fill="url(#n)" d="M547.75-1218.08c1.06-1.6 10.64-7.98 9.58-19.7s-4.75-22.9-4.75-22.9-7.5 15.98-8.56 21.3 3.73 21.3 3.73 21.3z"/>
  <linearGradient id="o" x1="549.34" x2="549.34" y1="-1256.38" y2="-1222.67" gradientUnits="userSpaceOnUse" gradientTransform="matrix(1.2324 .2295 .2295 1.2265 165.66 163.55)">
    <stop offset="0" stop-color="#F2AF09"/>
    <stop offset="1" stop-color="#B37048"/>
  </linearGradient>
  <path fill="url(#o)" d="M545.76-1213.02c.02-2.23-5.45-16.6 3.9-23.84 9.33-7.24 21-11.42 21-11.42s-3.43 19.05-6.07 23.93c-2.7 4.88-18.9 11.33-18.9 11.33z"/>
  <linearGradient id="p" x1="396.78" x2="396.78" y1="-787.32" y2="-1001" gradientUnits="userSpaceOnUse">
    <stop offset="0" stop-color="#F2AF09"/>
    <stop offset="1" stop-color="#B37048"/>
  </linearGradient>
  <path fill="url(#p)" d="M468.02-1001s-21.16 83.92-81.85 148.6c-60.7 64.7-52.5 63.8-55.35 65.07-2.6-1.4-6.43-3.3-4.95-5.12 18.37-22.36 75.9-85.96 89.85-107.07 20.48-31 47.92-101.48 47.92-101.48h4.38z"/>
  <linearGradient id="q" x1="540.23" x2="540.23" y1="-1249.49" y2="-1199.97" gradientUnits="userSpaceOnUse">
    <stop offset="0" stop-color="#F2AF09"/>
    <stop offset="1" stop-color="#B37048"/>
  </linearGradient>
  <path fill="url(#q)" d="M541.36-1199.97c1.06-1.6 9.62-11.43 5.6-28.88-4-17.44-5.6-20.64-5.6-20.64s-11.18 21.9-8.52 29.9 8.52 19.7 8.52 19.7z"/>
  <linearGradient id="r" x1="532.22" x2="532.22" y1="-1227.66" y2="-1173.36" gradientUnits="userSpaceOnUse">
    <stop offset="0" stop-color="#F2AF09"/>
    <stop offset="1" stop-color="#B37048"/>
  </linearGradient>
  <path fill="url(#r)" d="M532.43-1173.36s12.53-27.68 7.8-37.8c-4.73-10.1-12.7-16.5-12.7-16.5s-6.4 21.3-3.74 27.15c2.6 5.8 8.6 27.1 8.6 27.1z"/>
  <linearGradient id="s" x1="522.16" x2="522.16" y1="-1206.36" y2="-1150.99" gradientUnits="userSpaceOnUse">
    <stop offset="0" stop-color="#F2AF09"/>
    <stop offset="1" stop-color="#B37048"/>
  </linearGradient>
  <path fill="url(#s)" d="M523.14-1151c-.95-1.6 12.6-22.9 9.3-33-3.33-10.12-12.38-22.36-12.38-22.36s-10.1 18.63-8.5 27.68c1.58 9.05 11.58 27.7 11.58 27.7z"/>
  <linearGradient id="t" x1="512.11" x2="512.11" y1="-1182.41" y2="-1127.1" gradientUnits="userSpaceOnUse">
    <stop offset="0" stop-color="#F2AF09"/>
    <stop offset="1" stop-color="#B37048"/>
  </linearGradient>
  <path fill="url(#t)" d="M512.35-1127.1s15.68-26.5 11.67-36.87c-4-10.37-14.94-18.44-14.94-18.44s-11.53 20.7-9.22 27.6 12.5 27.6 12.5 27.6z"/>
  <linearGradient id="u" x1="502.29" x2="502.29" y1="-1156.85" y2="-1102.01" gradientUnits="userSpaceOnUse">
    <stop offset="0" stop-color="#F2AF09"/>
    <stop offset="1" stop-color="#B37048"/>
  </linearGradient>
  <path fill="url(#u)" d="M504.43-1102c.54-2.14 20.43-27.43 6.73-43.67-5.2-6.17-15.05-11.18-15.05-11.18s-7.9 17.57-7.4 22.63 15.8 32.2 15.8 32.2z"/>
  <linearGradient id="v" x1="492.38" x2="492.38" y1="-1137.17" y2="-1085.51" gradientUnits="userSpaceOnUse">
    <stop offset="0" stop-color="#F2AF09"/>
    <stop offset="1" stop-color="#B37048"/>
  </linearGradient>
  <path fill="url(#v)" d="M493.98-1085.5c1.06-1.6 17.77-20.63 6.5-36.75-11.3-16.1-17.15-14.9-17.15-14.9s-4.8 23.96-2.13 30.35 12.78 21.3 12.78 21.3z"/>
  <linearGradient id="w" x1="481.86" x2="481.86" y1="-1111.77" y2="-1061.55" gradientUnits="userSpaceOnUse">
    <stop offset="0" stop-color="#F2AF09"/>
    <stop offset="1" stop-color="#B37048"/>
  </linearGradient>
  <path fill="url(#w)" d="M485.46-1061.55c1.06-2.13 14.37-25.03 6.92-34.6-7.45-9.6-18.1-17.6-18.1-15.2 0 2.4-6.92 19.45-4.8 25.84s15.98 23.9 15.98 23.9z"/>
  <linearGradient id="x" x1="472.69" x2="472.69" y1="-1091.37" y2="-1037.06" gradientUnits="userSpaceOnUse">
    <stop offset="0" stop-color="#F2AF09"/>
    <stop offset="1" stop-color="#B37048"/>
  </linearGradient>
  <path fill="url(#x)" d="M475.88-1037.06c.53-2.66 13.02-23.43 5.98-37.8-7.05-14.38-19.3-16.5-19.3-16.5s-2.66 31.4 0 35.66c2.67 4.26 13.3 18.64 13.3 18.64z"/>
  <linearGradient id="y" x1="556.63" x2="556.63" y1="-1231.74" y2="-1196.51" gradientUnits="userSpaceOnUse">
    <stop offset="0" stop-color="#F2AF09"/>
    <stop offset="1" stop-color="#B37048"/>
  </linearGradient>
  <path fill="url(#y)" d="M539.24-1196.5c.36-1.9 1.2-14.9 16.3-24.5 15.1-9.6 18.48-10.74 18.48-10.74s-7.37 23.4-14.88 27.2c-7.5 3.8-19.9 8.03-19.9 8.03z"/>
  <linearGradient id="z" x1="547.72" x2="547.72" y1="-1206.62" y2="-1171.29" gradientUnits="userSpaceOnUse">
    <stop offset="0" stop-color="#F2AF09"/>
    <stop offset="1" stop-color="#B37048"/>
  </linearGradient>
  <path fill="url(#z)" d="M526.9-1171.3s10.53-28.5 21-32.37c10.47-3.88 20.64-2.8 20.64-2.8s-10.4 19.63-16.42 21.93c-6 2.3-25.23 13.25-25.23 13.25z"/>
  <linearGradient id="A" x1="547.15" x2="547.15" y1="-1166.7" y2="-1124.46" gradientUnits="userSpaceOnUse" gradientTransform="rotate(-6.47 372.627 -1066.347)">
    <stop offset="0" stop-color="#F2AF09"/>
    <stop offset="1" stop-color="#B37048"/>
  </linearGradient>
  <path fill="url(#A)" d="M516.3-1141.1c1.98-.76 4.8-29.25 14.86-35.95 10.05-6.7 26.7-11.28 26.7-11.28s-4.03 23.7-11.8 30.67c-7.77 6.95-29.75 16.56-29.75 16.56z"/>
  <linearGradient id="B" x1="531.36" x2="531.36" y1="-1161.2" y2="-1126.56" gradientUnits="userSpaceOnUse">
    <stop offset="0" stop-color="#F2AF09"/>
    <stop offset="1" stop-color="#B37048"/>
  </linearGradient>
  <path fill="url(#B)" d="M512.33-1126.56s6.9-27.6 16.26-31.83c9.3-4.2 21.8-2.4 21.8-2.4s-5.9 21.1-11.9 24.2c-6 3.1-26.2 10.1-26.2 10.1z"/>
  <linearGradient id="C" x1="522.79" x2="522.79" y1="-1136.84" y2="-1106.68" gradientUnits="userSpaceOnUse">
    <stop offset="0" stop-color="#F2AF09"/>
    <stop offset="1" stop-color="#B37048"/>
  </linearGradient>
  <path fill="url(#C)" d="M504.43-1106.68c1.12-1.9 10.15-28.9 18.15-29.96 8-1.08 18.57 2.6 18.57 2.6s-6.66 18.13-10.6 21.35c-3.92 3.3-26.12 6.1-26.12 6.1z"/>
  <linearGradient id="D" x1="514.47" x2="514.47" y1="-1113.73" y2="-1081.76" gradientUnits="userSpaceOnUse">
    <stop offset="0" stop-color="#F2AF09"/>
    <stop offset="1" stop-color="#B37048"/>
  </linearGradient>
  <path fill="url(#D)" d="M492.55-1081.76c.36-1.88 1.84-27.16 21.2-30.7 19.34-3.54 22.65 1.43 22.65 1.43s-13.42 20.42-19.8 23.1c-6.38 2.67-24.05 6.17-24.05 6.17z"/>
  <linearGradient id="E" x1="503.32" x2="503.32" y1="-1088.83" y2="-1058.73" gradientUnits="userSpaceOnUse">
    <stop offset="0" stop-color="#F2AF09"/>
    <stop offset="1" stop-color="#B37048"/>
  </linearGradient>
  <path fill="url(#E)" d="M481.78-1058.73c.74-2.26 7.35-27.9 19.38-29.5 12.04-1.57 25.24.22 23.55 1.93-1.6 1.7-8.7 18.7-14.7 21.74-6 3.06-28.2 5.83-28.2 5.83z"/>
  <linearGradient id="F" x1="495.21" x2="495.21" y1="-1067.62" y2="-1034.56" gradientUnits="userSpaceOnUse">
    <stop offset="0" stop-color="#F2AF09"/>
    <stop offset="1" stop-color="#B37048"/>
  </linearGradient>
  <path fill="url(#F)" d="M471.4-1034.56c1.5-2.27 7.18-25.83 22.3-31.1 15.1-5.3 25.32 1.8 25.32 1.8s-20.18 24.22-25.07 25.38c-4.88 1.17-22.56 3.92-22.56 3.92z"/>
  <linearGradient id="G" x1="480.46" x2="480.46" y1="-1041.44" y2="-1010.09" gradientUnits="userSpaceOnUse">
    <stop offset="0" stop-color="#F2AF09"/>
    <stop offset="1" stop-color="#B37048"/>
  </linearGradient>
  <path fill="url(#G)" d="M456.78-1010.1s15.33-27.5 25.1-30.57c9.78-3.06 22.25 4 22.25 4s-14.57 17.8-19.82 20.1c-5.2 2.3-27.5 6.48-27.5 6.48z"/>
  <linearGradient id="H" x1="463.64" x2="463.64" y1="-1061.55" y2="-1009.38" gradientUnits="userSpaceOnUse">
    <stop offset="0" stop-color="#F2AF09"/>
    <stop offset="1" stop-color="#B37048"/>
  </linearGradient>
  <path fill="url(#H)" d="M469.08-1009.38s8.42-30.35 3.6-39.4c-4.8-9.05-18.63-12.77-18.63-12.77s-2.13 22.9 0 28.2c2.13 5.34 15.03 23.97 15.03 23.97z"/>
  <linearGradient id="I" x1="456.24" x2="456.24" y1="-1035.46" y2="-987.02" gradientUnits="userSpaceOnUse">
    <stop offset="0" stop-color="#F2AF09"/>
    <stop offset="1" stop-color="#B37048"/>
  </linearGradient>
  <path fill="url(#I)" d="M463.64-987.02c.52-2.66 9.6-23.96 0-35.14s-19.18-13.3-19.18-13.3 1.07 28.74 4.8 33.53c3.72 4.8 14.38 14.9 14.38 14.9z"/>
  <linearGradient id="J" x1="480.41" x2="480.41" y1="-1023.19" y2="-986.49" gradientUnits="userSpaceOnUse">
    <stop offset="0" stop-color="#F2AF09"/>
    <stop offset="1" stop-color="#B37048"/>
  </linearGradient>
  <path fill="url(#J)" d="M461.77-986.5c.6-2.64 1-25.78 14.33-32.07 13.32-6.3 22.94-4.33 22.94-4.33s-12.7 25.8-18.06 28.66c-5.35 2.86-19.2 7.75-19.2 7.75z"/>
  <linearGradient id="K" x1="477.03" x2="477.03" y1="-1311.37" y2="-1268.77" gradientUnits="userSpaceOnUse" gradientTransform="rotate(-13.457 496.367 -1123.387)">
    <stop offset="0" stop-color="#F2AF09"/>
    <stop offset="1" stop-color="#B37048"/>
  </linearGradient>
  <path fill="url(#K)" d="M440.9-1259.55c.65-1.8 8.5-10.24 4.73-21.38-3.77-11.15-9.95-21.16-9.95-21.16s-3.57 17.3-3.37 22.7c.2 5.5 8.6 19.9 8.6 19.9z"/>
  <linearGradient id="L" x1="495.15" x2="495.15" y1="-1287.84" y2="-1254.14" gradientUnits="userSpaceOnUse" gradientTransform="matrix(1.252 -.0636 .5086 1.1394 474.626 205.447)">
    <stop offset="0" stop-color="#F2AF09"/>
    <stop offset="1" stop-color="#B37048"/>
  </linearGradient>
  <path fill="url(#L)" d="M440.13-1254.17c-.5-2.16-9.15-14.87-1.76-24.08 7.4-9.22 17.78-16 17.78-16s1.1 19.32-.34 24.68c-1.4 5.36-15.6 15.4-15.6 15.4z"/>
  <linearGradient id="M" x1="323.17" x2="323.17" y1="-838" y2="-1051.68" gradientUnits="userSpaceOnUse" gradientTransform="rotate(-13.457 496.367 -1123.387)">
    <stop offset="0" stop-color="#F2AF09"/>
    <stop offset="1" stop-color="#B37048"/>
  </linearGradient>
  <path fill="url(#M)" d="M413.87-1029.88s-1.05 86.55-45.02 163.58c-43.97 77.03-36.2 74.27-38.7 76.16-2.84-.75-7-1.72-6-3.83C336.83-820 377.95-895.23 386.63-919c12.7-34.92 23-109.86 23-109.86l4.25-1.02z"/>
  <linearGradient id="N" x1="466.62" x2="466.62" y1="-1300.18" y2="-1250.67" gradientUnits="userSpaceOnUse" gradientTransform="rotate(-13.457 496.367 -1123.387)">
    <stop offset="0" stop-color="#F2AF09"/>
    <stop offset="1" stop-color="#B37048"/>
  </linearGradient>
  <path fill="url(#N)" d="M438.9-1240.45c.65-1.8 6.68-13.36-1.28-29.4s-10.25-18.76-10.25-18.76-5.8 23.8-1.35 30.9c4.45 7.1 12.87 17.2 12.87 17.2z"/>
  <linearGradient id="O" x1="458.6" x2="458.6" y1="-1278.35" y2="-1224.05" gradientUnits="userSpaceOnUse" gradientTransform="rotate(-13.457 496.367 -1123.387)">
    <stop offset="0" stop-color="#F2AF09"/>
    <stop offset="1" stop-color="#B37048"/>
  </linearGradient>
  <path fill="url(#O)" d="M436.4-1212.5s5.74-29.83-1.2-38.57c-6.96-8.73-16.22-13.1-16.22-13.1s-1.26 22.2 2.7 27.3c3.95 5.06 14.72 24.38 14.72 24.38z"/>
  <linearGradient id="P" x1="448.55" x2="448.55" y1="-1257.06" y2="-1201.69" gradientUnits="userSpaceOnUse" gradientTransform="rotate(-13.457 496.367 -1123.387)">
    <stop offset="0" stop-color="#F2AF09"/>
    <stop offset="1" stop-color="#B37048"/>
  </linearGradient>
  <path fill="url(#P)" d="M432.57-1188.58c-1.3-1.33 6.93-25.2 1.35-34.27-5.58-9.06-17.23-18.86-17.23-18.86s-5.5 20.4-1.9 28.9c3.6 8.4 17.7 24.2 17.7 24.2z"/>
  <linearGradient id="Q" x1="438.5" x2="438.5" y1="-1233.1" y2="-1177.79" gradientUnits="userSpaceOnUse" gradientTransform="rotate(-13.457 496.367 -1123.387)">
    <stop offset="0" stop-color="#F2AF09"/>
    <stop offset="1" stop-color="#B37048"/>
  </linearGradient>
  <path fill="url(#Q)" d="M427.63-1162.83s9.08-29.42 2.78-38.57c-6.3-9.16-18.8-14.45-18.8-14.45s-6.4 22.85-2.5 29.04c3.9 6.1 18.6 23.9 18.6 23.9z"/>
  <linearGradient id="R" x1="428.68" x2="428.68" y1="-1207.54" y2="-1152.7" gradientUnits="userSpaceOnUse" gradientTransform="rotate(-13.457 496.367 -1123.387)">
    <stop offset="0" stop-color="#F2AF09"/>
    <stop offset="1" stop-color="#B37048"/>
  </linearGradient>
  <path fill="url(#R)" d="M425.78-1136.6c.02-2.2 13.48-31.4-3.62-44.02-6.5-4.8-17.25-7.36-17.25-7.36s-3.6 18.94-1.9 23.74 22.9 27.65 22.9 27.65z"/>
  <linearGradient id="S" x1="418.76" x2="418.76" y1="-1187.86" y2="-1136.2" gradientUnits="userSpaceOnUse" gradientTransform="rotate(-13.457 496.367 -1123.387)">
    <stop offset="0" stop-color="#F2AF09"/>
    <stop offset="1" stop-color="#B37048"/>
  </linearGradient>
  <path fill="url(#S)" d="M419.45-1118.1c.66-1.8 12.48-24.2-2.24-37.24-14.7-13.04-20.1-10.5-20.1-10.5s.9 24.4 5 30 17.4 17.73 17.4 17.73z"/>
  <linearGradient id="T" x1="408.24" x2="408.24" y1="-1162.46" y2="-1112.24" gradientUnits="userSpaceOnUse" gradientTransform="rotate(-13.457 496.367 -1123.387)">
    <stop offset="0" stop-color="#F2AF09"/>
    <stop offset="1" stop-color="#B37048"/>
  </linearGradient>
  <path fill="url(#T)" d="M416.74-1092.82c.54-2.32 8.15-27.7-1.33-35.27-9.4-7.5-21.6-12.8-21.1-10.5.6 2.4-2.2 20.5 1.4 26.3s21.1 19.6 21.1 19.6z"/>
  <linearGradient id="U" x1="399.08" x2="399.08" y1="-1142.05" y2="-1087.75" gradientUnits="userSpaceOnUse" gradientTransform="rotate(-13.457 496.367 -1123.387)">
    <stop offset="0" stop-color="#F2AF09"/>
    <stop offset="1" stop-color="#B37048"/>
  </linearGradient>
  <path fill="url(#U)" d="M413.12-1066.78c-.1-2.7 7.22-25.8-2.98-38.15-10.2-12.34-22.6-11.56-22.6-11.56s4.72 31.2 8.3 34.7c3.58 3.6 17.28 15.1 17.28 15.1z"/>
  <linearGradient id="V" x1="483.02" x2="483.02" y1="-1282.44" y2="-1247.2" gradientUnits="userSpaceOnUse" gradientTransform="rotate(-13.457 496.367 -1123.387)">
    <stop offset="0" stop-color="#F2AF09"/>
    <stop offset="1" stop-color="#B37048"/>
  </linearGradient>
  <path fill="url(#V)" d="M437.64-1236.6c-.1-1.9-2.32-14.75 10.14-27.6 12.46-12.85 15.48-14.75 15.48-14.75s-1.73 24.46-8.14 29.92c-6.4 5.45-17.48 12.44-17.48 12.44z"/>
  <linearGradient id="W" x1="474.1" x2="474.1" y1="-1257.31" y2="-1221.98" gradientUnits="userSpaceOnUse" gradientTransform="rotate(-13.457 496.367 -1123.387)">
    <stop offset="0" stop-color="#F2AF09"/>
    <stop offset="1" stop-color="#B37048"/>
  </linearGradient>
  <path fill="url(#W)" d="M431.5-1209.2s3.6-30.16 12.9-36.37c9.27-6.2 19.4-7.54 19.4-7.54s-5.55 21.5-10.86 25.1c-5.3 3.6-21.44 18.7-21.44 18.7z"/>
  <linearGradient id="X" x1="479.7" x2="479.7" y1="-1226.13" y2="-1183.88" gradientUnits="userSpaceOnUse" gradientTransform="matrix(.94 -.3408 .3408 .94 402.642 91.14)">
    <stop offset="0" stop-color="#F2AF09"/>
    <stop offset="1" stop-color="#B37048"/>
  </linearGradient>
  <path fill="url(#X)" d="M428.23-1177.36c1.74-1.2-2.14-29.57 6.08-38.43 8.3-8.8 23.4-17.1 23.4-17.1s1.6 24-4.3 32.6c-5.9 8.6-25 23.1-25 23.1z"/>
  <linearGradient id="Y" x1="457.75" x2="457.75" y1="-1211.89" y2="-1177.25" gradientUnits="userSpaceOnUse" gradientTransform="rotate(-13.457 496.367 -1123.387)">
    <stop offset="0" stop-color="#F2AF09"/>
    <stop offset="1" stop-color="#B37048"/>
  </linearGradient>
  <path fill="url(#Y)" d="M427.74-1162.3s.28-28.46 8.4-34.75c8.13-6.28 20.64-7.42 20.64-7.42s-.8 21.9-5.93 26.27c-5.13 4.37-23.1 15.9-23.1 15.9z"/>
  <linearGradient id="Z" x1="449.18" x2="449.18" y1="-1187.53" y2="-1157.37" gradientUnits="userSpaceOnUse" gradientTransform="rotate(-13.457 496.367 -1123.387)">
    <stop offset="0" stop-color="#F2AF09"/>
    <stop offset="1" stop-color="#B37048"/>
  </linearGradient>
  <path fill="url(#Z)" d="M424.7-1141.13c.64-2.1 3.14-30.45 10.67-33.36 7.53-2.9 18.66-1.7 18.66-1.7s-2.26 19.2-5.33 23.2c-3.07 4.1-24 11.9-24 11.9z"/>
  <linearGradient id="aa" x1="440.86" x2="440.86" y1="-1164.42" y2="-1132.45" gradientUnits="userSpaceOnUse" gradientTransform="rotate(-13.457 496.367 -1123.387)">
    <stop offset="0" stop-color="#F2AF09"/>
    <stop offset="1" stop-color="#B37048"/>
  </linearGradient>
  <path fill="url(#aa)" d="M418.93-1114.12c-.08-1.92-4.53-26.85 13.46-34.8 18-7.94 22.3-3.88 22.3-3.88s-8.3 22.98-13.9 27.07c-5.6 4.1-22 11.6-22 11.6z"/>
  <linearGradient id="ab" x1="429.71" x2="429.71" y1="-1139.52" y2="-1109.41" gradientUnits="userSpaceOnUse" gradientTransform="rotate(-13.457 496.367 -1123.387)">
    <stop offset="0" stop-color="#F2AF09"/>
    <stop offset="1" stop-color="#B37048"/>
  </linearGradient>
  <path fill="url(#ab)" d="M413.82-1089.22c.2-2.37.65-28.85 12-33.2 11.33-4.33 24.58-5.67 23.33-3.6-1.24 2.05-4.14 20.2-9.27 24.57-5.13 4.36-26.06 12.23-26.06 12.23z"/>
  <linearGradient id="ac" x1="421.59" x2="421.59" y1="-1118.31" y2="-1085.25" gradientUnits="userSpaceOnUse" gradientTransform="rotate(-13.457 496.367 -1123.387)">
    <stop offset="0" stop-color="#F2AF09"/>
    <stop offset="1" stop-color="#B37048"/>
  </linearGradient>
  <path fill="url(#ac)" d="M409.34-1063.3c.92-2.56.98-26.8 14.45-35.44 13.4-8.65 25-4.14 25-4.14s-14 28.26-18.5 30.52c-4.5 2.27-21.1 9.06-21.1 9.06z"/>
  <linearGradient id="ad" x1="406.84" x2="406.84" y1="-1092.12" y2="-1060.77" gradientUnits="userSpaceOnUse" gradientTransform="rotate(-13.457 496.367 -1123.387)">
    <stop offset="0" stop-color="#F2AF09"/>
    <stop offset="1" stop-color="#B37048"/>
  </linearGradient>
  <path fill="url(#ad)" d="M400.83-1036.1s8.5-30.32 17.3-35.58 22.56-1.28 22.56-1.28-10.1 20.7-14.6 24.14c-4.6 3.46-25.3 12.72-25.3 12.72z"/>
  <linearGradient id="ae" x1="390.02" x2="390.02" y1="-1112.24" y2="-1060.06" gradientUnits="userSpaceOnUse" gradientTransform="rotate(-13.457 496.367 -1123.387)">
    <stop offset="0" stop-color="#F2AF09"/>
    <stop offset="1" stop-color="#B37048"/>
  </linearGradient>
  <path fill="url(#ae)" d="M412.95-1038.27s1.13-31.47-5.65-39.16c-6.78-7.68-21.1-8.08-21.1-8.08s3.25 22.7 6.56 27.4c3.3 4.7 20.2 19.8 20.2 19.8z"/>
  <linearGradient id="af" x1="382.63" x2="382.63" y1="-1086.15" y2="-1037.7" gradientUnits="userSpaceOnUse" gradientTransform="rotate(-13.457 496.367 -1123.387)">
    <stop offset="0" stop-color="#F2AF09"/>
    <stop offset="1" stop-color="#B37048"/>
  </linearGradient>
  <path fill="url(#af)" d="M412.86-1015.26c-.1-2.7 3.76-25.53-8.17-34.17s-21.8-8.48-21.8-8.48 7.7 27.7 12.4 31.5c4.7 3.7 17.4 11.1 17.4 11.1z"/>
  <linearGradient id="ag" x1="406.79" x2="406.79" y1="-1073.88" y2="-1037.17" gradientUnits="userSpaceOnUse" gradientTransform="rotate(-13.457 496.367 -1123.387)">
    <stop offset="0" stop-color="#F2AF09"/>
    <stop offset="1" stop-color="#B37048"/>
  </linearGradient>
  <path fill="url(#ag)" d="M411.17-1014.3c-.02-2.72-5.02-25.33 6.47-34.55 11.5-9.22 21.3-9.55 21.3-9.55s-6.34 28.06-10.9 32.1c-4.53 4-16.87 12-16.87 12z"/>
  <linearGradient id="ah" x1="215.76" x2="215.76" y1="-497.08" y2="-242.48" gradientUnits="userSpaceOnUse">
    <stop offset="0" stop-color="#A16661"/>
    <stop offset="1" stop-color="#663139"/>
  </linearGradient>
  <path fill="url(#ah)" d="M-6.76-441.06C-110.1-311.3 349.82-132.48 440.56-331.36c70.7-154.97-175.1-132.27-188.96-133.1-112.35-6.74-173.86-82.7-258.36 23.4z"/>
  <path fill="#DFD9C9" d="M204.66-471.24s-19 13.6 34.24 18.76c40.83 3.96 26.05-12.33 25.72-12.32-.15 0-12.98.64-25.9-.75-16.54-1.78-34.06-5.7-34.06-5.7z"/>
  <linearGradient id="ai" x1="-7.79" x2="102.44" y1="-303.17" y2="-182.9" gradientUnits="userSpaceOnUse" gradientTransform="rotate(102.504 51.55 -248.492)">
    <stop offset="0" stop-color="#E9CB6B"/>
    <stop offset="1" stop-color="#E9AE6B"/>
  </linearGradient>
  <path fill="url(#ai)" d="M19.26-172.14c30.97 12.9 117.03-32.2 117.04-65.78 0-39.02-39.1-128.23-141.3-76.4-33.85 17.18-44.48 113.52 24.26 142.18z"/>
  <path fill="#F4E7B3" d="M7.44-320.4c13.73-4.1-35.78 59.03-36.57 44.73-.5-8.87 8.88-24.84 13.8-30.73 4.64-5.6 15.23-11.77 22.77-14z"/>
  <path fill="#DEBE97" d="M311-306.06c-7.6-10-14.73-50.1-25.44-56.66-30.3-18.6-112.85 3.97-139.5 27.5-28.98 25.57-63.76 111.25-48.53 146.8 15.47 36.1 92.34 101.4 129.6 88.9 82.85-27.75 126.57-150.4 83.87-206.54z"/>
  <g opacity=".4">
    <defs>
      <path id="aj" d="M311-306.06c-7.6-10-14.73-50.1-25.44-56.66-30.3-18.6-112.85 3.97-139.5 27.5-28.98 25.57-63.76 111.25-48.53 146.8 15.47 36.1 92.34 101.4 129.6 88.9 82.85-27.75 126.57-150.4 83.87-206.54z" opacity=".4"/>
    </defs>
    <clipPath id="al">
      <use xlink:href="#aj" overflow="visible"/>
    </clipPath>
    <radialGradient id="ak" cx="187.27" cy="-290" r="182.46" gradientTransform="matrix(1.1696 0 0 1 -56.028 0)" gradientUnits="userSpaceOnUse">
      <stop offset="0" stop-color="#DEE0DB"/>
      <stop offset="1" stop-color="#DEBE97"/>
    </radialGradient>
    <path fill="url(#ak)" d="M-36-484h398v388H-36z" clip-path="url(#al)"/>
  </g>
  <path fill="#DFD9C9" d="M253.25-344.63c-3.77-3.73-23.74-4.88-20.95 3.5 2.8 8.37 16.76 20.24 20.95 18.15 4.2-2.1 3.84-17.84 0-21.65z"/>
  <circle cx="209.47" cy="209.47" r="209.47" fill="#76B5F4"/>
  <defs>
    <circle id="am" cx="209.47" cy="209.47" r="209.47"/>
  </defs>
  <clipPath id="an">
    <use xlink:href="#am" overflow="visible"/>
  </clipPath>
  <g fill="#348E2F" clip-path="url(#an)">
    <path d="M-5 209.47s5.94-7.5 6.13-3.5c.54 11.66 4.37 24.9 4.37 24.9s1.43-1.6 2.7.6c7.34 12.6 7.18 26.2 7.18 26.2s3.24 1.54 3.95 4.33c4.54 3.5 5.13 5.58 5.8 8.42 2.2.25 2.08 2.9 3.37 4.08 2.5.38 10.74 4.6 13.88 9.38 4.65 7.06 5.9 19.68 6.95 31.8.15 1.66 17.67 33.82 16 33.5s-.5 1.48.38 3.1c2.7 4.9 21.9 25.4 21.4 27.23s-55.2-1.6-61.6-16.1C-24.7 249-5 209.5-5 209.5zM181 128c-.43-.6.46-2.4 0-3-2-2.58-12.38-3.13-12.63-3.5s-1.4-2.56-2.25-2.88c-.58-.2-2.62.5-2.5 0s3.66-2.33 4.13-3.62c.34-.93-.75-3.5-.75-3.88s1.24-2.48.75-3.12c-.27-.35-1.4.27-1.75 0-.6-.48-.12-2.55-.75-3-3.43-2.48-12.74.35-16.88 1.25-4.42.96-12.47 6.1-17 6.25-1.53.05-4.36-2-5.87-1.75-3.75.63-10 5.9-12.38 8.88-1.95 2.43-3.02 8.98-4.87 11.5-2.6 3.53-10.45 8.1-13.38 11.37C90.75 147.1 82.8 157.08 81 163c-.44 1.44 0 4.5 0 6 0 3.25.68 9.82 0 13-.84 3.92-6.7 10.62-6.56 14.63.05 1.34 2.23 3.44 2.56 4.75.34 1.36-.44 4.3 0 5.62.43 1.3 2.64 3.16 3.25 4.38.83 1.66 1.34 5.43 2.13 7.12.62 1.35 2.78 3.58 3.25 5 .43 1.3-.5 4.4.33 5.5.26.37 1.3.38 1.66.62 4.64 3.1 9.82 14.7 15.13 16.38.85.27 2.76-.25 3.5-.75.37-.25.6-1.27 1-1.5 1.8-1.07 6.27-.83 8.38-.75 2.12.1 8 1.38 8.37 1.5s4.65-3.26 6.38-4c1.8-.77 5.74-2.14 7.62-1.63 1.96.54 4.8 3.85 6 5.5.58.8.8 3.1 1.63 3.63 1.75 1.14 6.35-.54 8.37 0 1.22.32 3.77 1.4 4.38 2.5 1.5 2.74-2.67 10.24-.5 12.5.2.2.94-.22 1.12 0 .97 1.18.05 5.03-1.13 6-.36.3-1.6-.4-1.87 0-1.1 1.6 1.8 5.56 2.75 7.25 1.82 3.22 7.4 8.36 9.13 11.63 3.43 6.5 9.56 20.68 8.87 28-.2 2.18-4.38 8.12-4.38 7.62s-.57 12.37.63 16.25c1.3 4.27 7.66 11.06 9.5 15.13 1.53 3.38 2.72 10.86 4.25 14.25 1.58 3.5 6.6 9.48 8.13 13 .52 1.2.43 4.2 1.37 5.12.8.8 3.25 1.23 4.38 1.13 1.03-.1 2.7-1.73 3.75-1.75.95-.03 3.62 1.5 3.75.75s1.94-1.8 2.77-1.88c.74-.07 2.85.63 2.97.25s9.38-11.38 9.75-11.63 3.38-1.37 3.75-1.62 1.28-5.95 2.5-7.5c1.23-1.54 5.64-2.34 6.88-3.88 1.1-1.37 1.97-4.98 2.13-6.75.14-1.7-1.45-5.14-.88-6.75 1.05-2.97 7.63-7.25 9.75-8s11.75-6.75 11.88-10.25.37-6.35.56-6.86 1.5-5 1.3-7.5-2-9.2-1.4-11.6 2.7-1.1 1.4-3.7-1.8-6.7-.4-9.7 35-44.5 34.9-48.3 4-18.3 5-21 1.6-2.3 1-2.6c-.4-.2-.9-1.2-.9-1.6s.5-4.8-.5-4.4c-2.9 1.3-5.6 3.2-11.8 4.3-2.2.4-5.6 1.5-8.6.9-1.9-.3-5.2-1.6-5.1-1.9s2.4-2 .9-5-12.7-14-13-14-3.8-12.6-7.3-15c-.4-.3-1.9-.1-2-.5s-1.3-9.2-2.2-10.7-5.6-8.4-6-9.5 1.1-.9 1.2-1.4c.2-1.1-2.8-1.8-3.3-3.3s-9.2-16.7-10.7-20.3-3.3-6-5.3-6.5-2.2 2.4-7.2.9-10.4-2.5-13.4-4.2c-1.4-.8-2.9-2.6-5.9-2.8s-5.5-1-6.4 1.4.1 8.4-2.4 7.9-9.9-1.3-11.7-3.9zm104 188c1.32 3.75.25 8 0 12-.05.75-1.5.1-2 .67-.5.57-.27 1.64-.58 2.33-3.1 6.83-9.67 17.42-14.1 24.83-1.3 2.23-4.32 5.92-10 4.6-2.2-.54-1.24-7.78-.5-9.93.7-1.95 4.4-4.53 5.26-6.42.86-1.88 1.34-7.83 1.34-8.16s3.2-6.33 5.25-7.17c1.24-.5 2.6.44 3.83-.08.55-.23.84-1.63 1.42-2.34.94-1.17 2.08.1 3.4-5.16.26-.98 1.8-.1 2.18-.84 1.66-3.16 3.8-6.32 4.5-4.33zM138.83 34.92c-.2.13-2.56.87-3.16 1.5-.57.58-1.44 2.34-1.1 3.08.26.5 1.58.68 2.14.75 1.4.17 5.2-.5 5.4-.92s5.4-1.75 5.4-2.16.4-1.1 0-1.25-1.4-.42-1.9-.42c-1.2 0-4.7.83-4.8.58s-1.4-1.46-1.9-1.16zm-35.4 8.75c1.57-1.6.3 1.06.82 1.15.85.14 4.05-1.42 4.05-1.92s3.68-2.56 4.02-2.67c.33-.1 2.84-.47 3.67-.92 1.5-.8 5.5-5 5.6-4.4s4.1.2 4.3 0c.1-.2 1.8-.8 2.5-1 .9-.3 2.8-.9 3.8-1.1 3.6-.8 14.8-2.2 14.8-2.6 0-.3 1-2.1 1.7-2.5.8-.4 3.6 0 3.6-.5s2.1-2.1 2.9-2.5c.8-.3 2.9-.2 3.4-1 .2-.3-.2-1.1 0-1.5.4-.7 3.1-1.1 2.9-2-.3-.9-3.2.7-3.9 0-.2-.1.1-.6-.1-.6-5-.7-20.5-.5-20.8-.8s-.2-1.6-.6-1.7c-6.6-1.1-8.2-1.8-11.7-1.5-.6.1.8.6.5 1.6-7 22.1.4 2.3.6 3.4.2.9-1.6-3.8-.1 3.1 1.7 7.7-7.9 5.9-8.8 6.3-16.4 7.9-14.1 14.4-13.8 14z"/>
    <path d="M115.65 13.94c1.94.8 3.57 5.83 3.03 7.86-.26.97-2.6 1.66-3.1 2.52-.22.35-.1 1.24-.3 1.6-.73 1.15-4.4 3.26-4.3 3.38s.17.9.07 1.2c-.22.55-1.12 1.44-1.63 1.75-.5.3-2.17.6-2.3.38s-2.93 1.6-4 1.83c-.4.1-1.24-.2-1.62-.06-.9.33-1.97 2.25-2.87 2.6-.15.06-.48-.04-.63 0-.9.26-3.17 1.92-3.3 1.84s-1.12-1.62-1.7-1.6c-.94.07-2.64 2-2.42 2.93.1.35 1.26.22 1.34.58.33 1.6-3.24 3.7-4.46 4.8-1.32 1.17-4.8 2.66-5.67 4.2-.4.7-.1 2.4-.3 3.17-.2.58-.7 1.7-1 2.2-1.7 2.3-8.2 7.84-8.2 7.7s-.8.9-.8 1.26c-.1.35.4 1 .4 1.34-.5 2.44-6.4 7.58-6.6 7.5s-1-.7-1.4-.88c-.3-.13-1.2-.37-1.2-.5s1-1.1.8-1.5c-.2-.5-2-.13-2.1-.66-.5-2.44 8.1-4.23 7.4-6.63-.2-.48-1.5-.13-2-.33-.3-.1-.6-.6-.8-.63-1-.1-3.2 1-3.6 1.9-.1.2.3.6.3.8 0 .4-.4 1.2-.7 1.5-.5.4-1.8.7-2.3 1.1-.3.2-.8.9-1 1.2-.3.3-1 .9-1.2 1.3-.2.2-.5 1-.3 1.2.1.1.5-.1.7-.2.2-.1.5-.5.8-.5.2.1.4.8.4 1.1-.1.7-1.4 2.6-1.5 2.4s-1.6.1-2 .5c-.2.2-.4 1.1-.5 1.1s-6 5.3-8.2 4.5c-.2-.1-.1-.7-.3-.8-.6-.2-1.5 1.3-1.9 1.7-.9.9-3.3 3.6-3.4 3.6s-2.9 2.7-4 2.3c-3-1.3-2.6-13-2.3-12.8s31.9-39 32-38.8 36.1-26.3 48.3-21.3zm31.47 42.76c-.55.23-1.7.72-2.06 1.2-.3.4-.2 1.53-.46 1.97-.37.67-1.48 1.84-2.18 2.13-.56.23-1.82-.1-2.42 0-.78.13-2.22.87-3 1-.5.08-1.65.36-2 0s-.3-1.6 0-2c.18-.24.96-.1 1.17-.33.2-.22 0-.95.2-1.16.22-.2 1.14 0 1.3-.3.13-.2-.47-.8-.42-1.1.16-.8 1.47-2.5 2.33-2.6.42 0 1 1.1 1.4 1 .24 0 .27-.7.44-.9.5-.6 1.73-1.7 2.5-1.8.57-.1 1.7.9 2.25.7 1.27-.4 2.58-4 2.9-4.6s1.9-1.7 2.5-2.7c.46-.7 2.83-.6 3.43 0 .18.2.07.8 0 1-.1.4-.94.9-.83 1.3.1.3 1.1.3 1.25.6.13.2-.05.8-.18 1.1-.35.6-1.9 1.2-2.16 1.9-.36.9-.17 2.9.3 3.8.2.4 1.02.6 1.2.9.27.5-.14 1.7.17 2.1.22.3 1.12.2 1.33.5.23.3.22 1.2.13 1.5-.1.5-.8 1.2-1 1.6-.1.4 0 1.3-.2 1.6-.2.5-1 1.2-1.5 1.4-1.1.3-4.4-.5-4.6-.6s-.7.6-1 .7c-.1.1-.5 0-.6 0-.3 0-1.1-.6-1.4-.4-.2.2.1 1-.2 1.2-.9.9-5.2.8-5.1 0 .1-1 3-1.7 3.3-2.7.2-.5-.8-1.5-.5-1.9.3-.5 2.2-.7 2.2-1s-.1-1 .1-1.3c.1-.3.6-.7.9-.9.6-.3 2.1.1 2.6-.3.4-.3.6-1.7.6-1.7s-.4-.6-.7-.6c-.4-.1-1.2.2-1.5.3zm232.84 160.93c.95.02 1.77 2.3 2.04 3.2.15.52-.13 1.64 0 2.17.24.96 1.65 2.53 1.83 3.5.24 1.23.03 3.85-.5 4.98-.55 1.17-3.83 3.94-3.58 3.7s-1.54-3.32-1.7-4.5c-.24-1.62.83-4.8.95-6.43.1-1.3-.4-4 0-5.25.13-.4.54-1.38.96-1.38zm27.54 68.54c-.34-.04 1.4-16.83 2-23.65.4-4.7-.67-3.1-.75-3.35-.53-1.63 1.5-6.78.84-8.36-.2-.4-1.1-.3-1.3-.7-.6-1.3 1.1-4.7.4-6-.3-.5-1.7-.6-1.7-1.1s0-4.1-.6-5.2c-.2-.2-.9-.4-.9-.6-.2-.6.9-1.8 1.5-1.8.5 0 1.2 1.4 1.7 1.5.5.2 1.6-.7 2-.3 1.2 1.1-1.1 5.4 0 6.7.2.3 1.1.1 1.4.4.7.8.4 3.4.6 4.5.8 4.7 4.4 13.9 3.9 18.6-.7 5.4-4 20.3-9.5 19.7zM179.25 108c.48-.12 1.5-.8 1.5-1.3s1.14-2.8.56-3.45c-.2-.32-1.4.1-1.6-.03s-1.7.06-2.2-.02c-.4-.05-1.1-.5-1.5-.5-.7 0-2.4.4-2.8 1-.1.18-.2.77-.1 1 .4.55 2 .5 2.4.92.4.28.6 1.17.9 1.44.5.4 1.6.82 2.2.94.2.05.7.06.9 0zM163 100.75c.4.05 2.3-.5 2.75-2.7.05-.23.5-2.36 0-3.6-.14-.35-2.23-.78-2.75-.33-.32.28-.16 1.5-.27 1.66s-.67 2.28-.57 3.05c.06.52.32 1.85.84 1.92zm1.3-8.05c.37.3 1.82-.08 1.9-.33s1.64-4.8.43-5.37c-.45-.2-1 1.14-1.44 1.38-.4.2-1.4.32-1.5.68-.5.82-.2 3.06.6 3.64z"/>
    <path d="M414.56 199.94c3-.33 2.3 8.9 3.94 11.44 1.3 2.05 6.94 6.68 7 6.8s-2.37-51.87-2-51.55-8.13-34.6-12.8-45.44c-5.93-13.7-21.12-39.7-30.45-51.4-11.02-13.8-33.73-47.2-51.3-48.3-2.04-.2-4.58 4.5-6.6 4.7-.75 0-13.2-1.2-17.5-2.1-1.98-.4-5.78-3-7.68-2.4-.62.2-.93 1.8-1.5 2.1-.15.1-.5 0-.67 0h-5c-1 0-3.1.4-4 0-.6-.3-1.08-1.7-1.67-2-2.1-1-7 .1-9.33 0-.25 0-.75-.2-1-.2-.68.1-1.8 1.2-2.5 1.1-.54-.1-1.3-1.1-1.83-1.2-1.3-.1-3.9 1.1-4.67 2.2-.2.2.08 1.1-.18 1.3-.52.4-2-.3-2.65-.2-1.12 0-3.23 1.2-4.34 1-.55-.1-1.34-1.5-1.83-1.3-.28.1.23 1 0 1.2-1 .8-4.03-1.8-5-1-.5.4-.3 2.1 0 2.7.44.9 3.53 1.5 3.17 2.5-.8 2-7.15-2.3-8.67-.7-.32.3.5 1.5.2 1.8-1.52 1.6-8.37-.3-8.87 0s-4.76 2.3-6.33 1.8c-.56-.2-.97-1.6-1.5-1.8-.6-.3-2.27-.7-2.67-.2-.55.8 1.87 2.7 1.34 3.5-.38.6-2.08.3-2.67 0-.77-.4-1.25-2.4-2-2.8-2.94-1.7-10.3-.1-13.53-1.2-.45-.2-1.2-.8-1.64-1-.6-.3-2.45-.7-2.45-.9s-.5-.7-.75-.7c-1.3-.2-3.78 1-5.07 1.3-.6.1-1.87.1-2.47.3-5.1 1.4-16.3 4.2-19.1 8.6-.1.1 0 .3 0 .4-1.3 1.8-7 1.5-8.6 3.1-.5.4-.9 2.2-.9 2.3s1.1 1.4.9 2c-.1.4-1.3.5-1.4.9-.2.3.2 1.3.3 1.5s2.2 1.4 3.1 1.4c.9-.1 2.3-1.3 3.1-1.8.3-.3 1-1.1 1.5-1.1.3 0 1 .6 1.1.9.6 1.1 1.5 4.1.8 5.1-.5.6-2.6 1-3.2.5-.4-.4-.2-1.6 0-2.1s1.5-1.5 1.3-1.5-1.6 0-2.1.1c-.7.1-2.1.7-2.7 1.2-.3.3-.9 1.2-.9 1.7-.1.6.4 1.9.5 2.5 0 .4.1 1.3.1 1.7 0 .2 0 .8-.2 1-.1.1-.5.2-.7.3-.3.1-.6.6-.9.7-.9.2-2.7-.6-3.6-.4-.5.1-1.3.9-1.2 1.2s-2.3.8-2.8 1.3c-.4.3-.5 1.3-.8 1.6-.4.4-1.5 1-2.1 1.2-.7.2-2.2.1-2.9.3-.6.3-1.6 1.4-2.2 1.8-1 .7-3 1.9-4.2 2.2-.2 0-.7.1-.9 0-.5-.2-.9-1.6-1.5-1.6-.2 0-.6.4-.7.6-.3.4-.2 1.7-.6 2-.4.3-1.5.4-2 .4-.4 0-1-.3-1.4-.3-.7.1-2.5.4-2.8 1.1-.1.2.3.7.5.9.4.5 1.3 1.6 1.9 1.9.3.1 1.3-.3 1.6 0 .3.3.1 1.3-.1 1.7-.1.1-.9.5-.6.5s1.3 1.1 1.4 1.6c.1.4.2 1.2.1 1.6-.4 1.7-2.2 4.7-3.2 6.1-.2.2-.7.6-.8.6s-10-2-13.4-1.4c-.9.2-2.6.9-3.1 1.6-.7.9-.4 3.5-.8 4.5-1 2.6-5.9 6.5-5.9 9.3 0 .5 1 1.2 1 1.7 0 1.3-3.2 3.3-2.5 4.4.8 1.4 5.3-.9 6.8 0 .9.5 1 3.3 2 3.7 1.2.4 3.4-1.7 4.7-1.9 1.1-.2 3.5.4 4.5-.1.9-.4 2-2.3 2.9-2.8.3-.2 1.1-.2 1.5-.4 2-1.5 3.4-7 5.2-8.8 1.5-1.6 7.2-4.8 7.2-5s1.7-3 1.7-3.3 4.1-.8 4.1-1 1.6.8 2.1.8c1.5.1 4-2 5.5-2.1.7-.1 2.3.2 3 .6 2.2 1.2 4.6 6 6.7 7.3.6.4 2.1.5 2.7.9.3.2.5.9.7 1.2.6.7 2.1 1.9 3 2.2.4.1 1.3-.4 1.6-.1.8.9-.4 3.7-.5 5 0 .6-.3 1.8.1 2.2.3.3 1.3-.2 1.6-.4 1-.7 2.7-2.7 3-3.9.2-.8-1.2-2.6-.6-3.2.4-.4 1.7.6 2.3.5.2 0 .7-.2.8-.4.2-.3 0-1.8-.1-1.4s-5.1-3.8-5.1-3.9-4.7-5.7-6.7-7c-.2-.2-.8-.3-.9-.6s-.6-2-.1-2.4c.3-.4 1.6-.3 2 0 .3.2.3 1.2.7 1.4.4.3 1.6-.3 2 0 .2.2.1.8.2 1 1.9 2.6 9.2 4.1 10.9 6.8.8 1.4-.2 4.9.6 6.3.8 1.7 4.5 3.5 5.5 5.1.2.2.4.7.4 1 0 .3-.7.9-.7 1.2-.1.7.7 2.1 1.1 2.7.7.9 3.8 2.4 3.9 2.6s.2-2.9.8-3.5c.3-.4 1.7-.1 2-.5.2-.2.2-.9.2-1.2-.1-.6-1.1-2.3-1-2.3s-1.6-4.9-.6-6c.9-1 4.3-.9 5.5-.2.4.2.7 1 .9 1.5.1.3-.2 1.1 0 1.5.3.4 1.5.4 1.8.8.2.3.1 1.4.1 1.4s-.9.4-1.1.7c-.1.2-.2.8 0 1 .3.6 2 1 2.3 1.6.2.5-.5 2 0 2.4.3.3 1.3-.4 1.7-.1.2.2-.1 1.1.1 1.4.2.3 1 .8 1.4.9.7.3 2.4 0 3 .4.6.3 1 1.8 1.6 1.9.8.2 2.5-.8 3.2-1.3.3-.3.7-1.4 1.2-1.5.3-.1.8.6 1 .7l.9.5c.3.1 1 .3 1.3.5.7.3 2.1 1.2 2.8 1.4.4.1 1.3.2 1.6 0 .6-.3.7-2 1.2-2.4.4-.3 1.5-.3 2.1-.3.4 0 1.5-.1 1.8.2.6.7.3 2.7.3 3.6.1 1.2.6 3.6.4 4.8-.5 2.9-3 8.3-4.8 10.5-.6.7-2.5 1.5-3.1 2.3-.1.2-.2.5-.2.7.6 3.4 4.5 10 7.5 11.6.2.1.5.1.6 0 .7-.5.1-3.3.9-3.4 4.4-.6 6.2 11.5 8.6 15.2.4.6 1.3 1.9 1.9 2.5.8.7 2.7 1.5 3.4 2.2 1.8 1.9 3.7 6.9 4.3 9.4 0 .2.2.9 0 1.1-.2.2-.9-.2-1 0-.4.5.6 1.9 1 2.4 1 1.4 4.2 3.2 5.4 4.6 2.6 3.2 6.7 10.4 8.5 14.2.2.4.5 1.4.6 1.9.9 3.5 1.3 10.9 2.7 14.2.2.5.8 1.5 1.3 1.8.5.3 2.2.4 2.4.4s2.7-2.9 3.9-3.4c1-.5 3.3-.1 4.3-.6.6-.4 1.3-1.7 1.9-2.2.4-.3 1.3-.6 1.8-.9 2.6-1.4 10.5-6.1 10.5-6.2s1.5-1.3 1.6-1.6.1-1.9.5-2.4c1.3-1.9 7.7-4.9 7.8-5.1s.7-1.6 1.1-2c.5-.5 2.5-1.4 2.4-1.7s-.5-3.3.1-4.1c.4-.6 2.5-.2 2.9-.8.8-1.3-1.3-4.6-.8-6.1.2-.7 1.8-1.8 1.8-2.1s.94-5 .4-6.5c-.7-2-4.2-4.8-5.87-6.1-1.2-.9-5.3-3.1-5.2-3.2s-.9-3.7-1.45-4.8c-.3-.5-.8-1.7-1.3-1.7-1.3.1-2.4 4.9-2.4 4.7s-1.1.9-1.3 1.3c-.2.5 0 1.7-.3 2-1.2 1.2-5 1.7-6.5 1-.5-.2-1-1.3-1.2-1.8-.4-1.1-.4-3.5-.8-4.6-.3-.7-.9-2.5-1.7-2.5-.5-.1-.8 1.5-1.3 1.5-.8-.1-1.1-2.3-1.6-3-1.1-1.4-3.9-3.6-5.1-4.9-1.3-1.4-4.2-4.1-4.5-6-.2-.7.7-2.6.7-2.8s.9-1.5 1.4-1.5c.9-.1 2.3 1.3 2.9 1.9 3.1 2.5 7.8 9.5 11.3 11.4 1.1.6 3.8 1.1 5.1 1 1.2-.2 3.2-2.6 4.4-2.3 1.72.4 2.62 4.9 4.2 5.8 2.7 1.6 9.4 1.3 12.5 1.4 1.3 0 4-.9 5.2-.4.4.2 1.2 1.4 1.4 1.4s2.62-1.1 3.55-1.1c.6 0 1.8.1 2.2.5.3.3 0 1.8.2 1.8s1.7.3 2 .7c.4.5-.1 2 .3 2.5.5.6 2.2.9 2.8 1.3.5.3 1.3.9 1.6 1.3.4.7.4 2.4.9 2.9s2.2.3 2.7.8c.1.2.2.6.1.8-.2.3-.8.3-1.1.4-.4.1-1.4-.2-1.7.1-.2.2-.1.6 0 .8 1 2.1 6.4 6.4 6.6 6.4s2.4-2 3.4-2.3c.28-.1.8 0 1 .1.7.5 1.5 2.2 1.6 3.1.1.5-.3 1.5-.3 2 .8 7.4 7.2 20.9 9.5 27.9 1.8 5.7 6.8 22.9 6.9 22.9s1.5 3.2 2.5 3.1c1.7-.2 2.9-5.9 2.8-6.1s-.6-2.1-.4-2.8c.2-.8 1.6-1.9 1.9-2.7 1.1-3.4 1.7-11.1.5-14.6-.1-.4-1.1-1.2-1.1-1.4s.1-2 0-2.7c-.2-1.3-1.6-4-1.3-5.3.2-1.1 1.9-2.7 2.4-3.6.4-.8 1.2-3.2 1.2-3.3s1.8-3 2.1-4c.4-1.3.3-3.9.68-5.1.4-1.7 2.4-4.8 2.6-6.5.1-1.2-.7-3.6-.6-4.8 0-.5.2-1.7.6-2.1.3-.5 1.5-1.1 2-1.4.8-.4 2.3-1.7 3.2-1.4 2.3.8 2.6 7.3 4.7 8.8.2.2.9 0 1.2.2 1.3.8 3 3.5 3.5 4.9 1.4 3.5 2.2 15.3 2.4 14.9s3.1.7 4 .2c.7-.4.2-3.3 1-3.2 4.6.1 4 13.4 4.5 18 .5 4.7-2.2 14.4-.8 19 .1.4 1 1.1 1.2 1.5 2.4 9-5 36.7 4.3 37.1 6.5.2 9.6-21 5.1-25.8-.3-.3-1.4.5-1.7.2-4.2-2.6-5.6-13.8-6-18.7-.2-3-.6-8.9-.5-11.9 0-1.3-.7-5.3.6-5.4zm-213.3-147.7c-.77.1-2.43-1.4-2.5-1.74s-1.64 4.55-2.68 5.75c-.5.6-2.5 1.5-2.75 1.5s-4.18-1.1-5.58-.92c-1.3.17-3.5 1.83-4.75 2.17-1.92.5-6.63 1.5-7.93 0-.3-.35-.07-1.5.25-1.82.5-.5 2.13-.17 2.74-.5.36-.18.75-1.05 1.15-1.14.5-.1 1.3.6 1.8.63 1 .03 2.9-.68 3.8-1.1.6-.25 1.9-1.24 2.2-1.32s1.3-2.33 1.5-2.54 0-1.6.3-2c.4-.4 1.8-.3 2.3-.6.4-.2 1-1 1.1-1.4.1-.2.1-.9-.1-1.1-.3-.3-1.5.1-1.8-.3-.2-.2-.1-.9-.1-1.2.1-.6.2-1.9.6-2.3.7-.6 3.1-.6 3.4-.4s1.9-3.8 3-4.5c.8-.5 3.1-.1 3.6 0s.2 1.4.2 1.7-4.5 1.8-5.2 3.1c-.2.5.2 1.7.3 2.3.1.5.3 1.7.7 2 1 .8 4.6-.5 5.2.7.2.4-.9 1.2-.9 1.6 0 .7 1.3 2 1.5 2.4s-.4 1.4-.8 1.4zm47.12 39.56c-.14.6-.7 1.83-1.25 2.08-3.56 1.55-15.25-3.13-15.25-2.88s-10.6 3.93-14 2.88c-1.14-.36-3.06-2.23-3.38-3.38-.48-1.74.86-5.43 1.75-7 .17-.3.8-.7 1-1 .56-.82.8-3.08 1.63-3.63.47-.3 2.25 0 2.25-.37s1.2-2.08 1.87-2c.58.06.98 1.45 1.38 1.88.33.35 1.26.82 1.5 1.25.54.98.47 3.78 1.5 4.25 1.4.64 5.58-.72 5.75-2.25.04-.45-4.66-.86-4.63-2.13.04-2.05 5.68-3.65 7.63-3 .45.15.96 1.15 1 1.63.1 1.14-1.9 3.1-1.75 4.25.04.35.6.9.87 1.12 2.57 2.1 9.98 3.15 11.88 5.88.34.5.38 1.83.25 2.42zm37.5 14.95c-.5.7-2.75.25-3.38.38s-2.92 1.12-3.88.87c-.98-.26-2-2.53-3-2.75-.5-.1-1.5.8-2 .63-1.04-.35-1.94-2.7-2.3-3.75-.36-1.07-.98-3.48-.5-4.5.17-.32 1.18-.4 1.2-.75.46-4.66-.5 5.8-13.65-12.8-.5-.7-.75-2.72-.37-3.52.1-.23.68-.4.87-.56.47-.4 1.1-1.52 1.63-1.8.6-.34 2.17-.04 2.75-.42.7-.45 1.03-2.38 1.75-2.78.66-.36 2.32-.32 3 0 1.44.7 4.62 3.48 4.03 4.97-.4 1-3.45-.15-4.22.6-.6.58-.8 2.5-.5 3.3.5 1.62 3.1 4.55 4.7 4.88.6.12 1.7-1.2 2.3-1 .5.14.8 1.18 1 1.63.5 1.06-.1 4.23 1 4.5.5.1.8-1.07 1.1-1.38.3-.28.9-.95 1.3-1 .8-.1 2.9.57 3 1.38.1.32-.6.8-.8 1-.5.4-2 .56-2.4 1.1-.2.3-.4 1.18-.2 1.52.3.52 1.6.7 2.2 1 .5.3 1.6.95 2 1.38.8.78 2.2 2.6 2.6 3.62.4 1 1.6 3.36 1 4.25zM290 84.5c-.25.38-2.13 1.7-3 1.75-.78.04-2.48-.42-2.92-1.06-.42-.7-.25-2.2-.33-3-.06-.6-.25-1.6-.24-2.2 0-.5-.1-1.6.3-1.9.6-.6 2.9-.2 3.3 0s1 .9 1.2 1.2c.6.6 2.1 1.5 2.3 2.2.3.7-.3 2.4-.5 2.7z"/>
  </g>
  <defs>
    <circle id="ao" cx="209.47" cy="209.47" r="209.47"/>
  </defs>
  <clipPath id="aq">
    <use xlink:href="#ao" overflow="visible"/>
  </clipPath>
  <radialGradient id="ap" cx="150" cy="171.5" r="267.91" gradientUnits="userSpaceOnUse">
    <stop offset="0" stop-color="#FFF" stop-opacity="0"/>
    <stop offset=".1" stop-color="#F6F7F8" stop-opacity=".1"/>
    <stop offset=".26" stop-color="#DDE1E6" stop-opacity=".26"/>
    <stop offset=".46" stop-color="#B5BEC9" stop-opacity=".46"/>
    <stop offset=".7" stop-color="#7D8DA0" stop-opacity=".7"/>
    <stop offset=".97" stop-color="#364F6C" stop-opacity=".97"/>
    <stop offset="1" stop-color="#2E4866"/>
  </radialGradient>
  <path fill="url(#ap)" d="M-127-87h554v517h-554z" clip-path="url(#aq)"/>
</svg>
