<svg xmlns="http://www.w3.org/2000/svg" viewBox="0 0 751.99 482.72">
  <path fill="#AF9D95" d="M214.16 248.72c-.06 2.4-14.65 60.9-8 80 10.95 31.5 92.5 92.87 89.33 95.33-6 4.67-48.8 3.76-50.2.43s-85.2-60.43-119.2-83.76c-33.9-23.25-46.1-144.35-10-164 26.7-14.55 98.7 41.6 98 72zm193.34 68.66c2.28 1.37-6 54.82 15.32 108.25 2.78 6.97-29.33 1.6-30 0s-44.3-59.25-37.33-80.25c4.6-14 39.3-35.57 52-28zm195.33-242c7.24-11.98 39.66-30.33 53.58-31.13 6.1-.34-9.5 18.6-10.9 24.47-2.4 10.23 1.4 47 .7 43.66s-50.2-25.58-43.3-37z"/>
  <path fill="#D8BBAF" d="M174.16 250.72c-8.5 3.9-18.1 21.9-21.33 30.66-6.34 17.13-9.1 54.5-7.34 72.67 3 31.02 28.5 83.25 35.5 125-3.1 3.4-20.7 3.6-24.3 3.67-14-4.92-34.7-16.67-48-84.67-7-13.85-21.4-41.66-25.4-56.67-3.2-11.98.7-38.18-4.7-49.33-2.4-5-13.5-20.25-16-15.33-2.5 4.83 5.5 30.07 2.6 37-.4.98-1.8 2.6-2.4 1.58-9.1-15.63-10.6-30-11.6-39.92-80.7-119.08-54-178.73-5.4-214 176.7-128 277.6-14.96 370-22 210-16 240 74.67 276.7 108.67 8.6 8 34.8 14.13 40 24.67 24.6-16.67 28 38.66-4.7 46-3.6 4.6-16.4 6.2-22 8-22.6 7.22-67.9 22.2-91.3 25.33-44.8 5.97-131.4 34-175.4 30.67-13.5-1.02-24.9 37.47-33.4 48-43.6 54.26-27.6 58-20 123.33-10 3.85-33.8.97-37.1-23.7-.7-4.67-14.9-56.64-15.6-78.3-.7-21.34-12.9-52.92-14.7-83.33-34-10.67-105.4-14.67-144.7-18z"/>
  <path fill="#AF9D95" d="M546.16 142.75c3.27-.66 37.55-32.38 46-46.62 9.27-15.6-7.64-79.23-20.34-71.4-21.66 13.32-15.06 38.6-17.33 51-3.2 17.17-21.4 69.65-8.4 67.02z"/>
  <linearGradient id="a" x1="376" x2="376" y2="482.72" gradientUnits="userSpaceOnUse">
    <stop offset="0" stop-color="#FFF" stop-opacity="0"/>
    <stop offset=".19" stop-color="#D9C0C0" stop-opacity=".19"/>
    <stop offset=".41" stop-color="#B07C7C" stop-opacity=".41"/>
    <stop offset=".61" stop-color="#8F4747" stop-opacity=".61"/>
    <stop offset=".78" stop-color="#782020" stop-opacity=".78"/>
    <stop offset=".92" stop-color="#690909" stop-opacity=".92"/>
    <stop offset="1" stop-color="#640000"/>
  </linearGradient>
  <path fill="url(#a)" d="M732.83 172.72c-5.2-10.54-31.4-16.68-40-24.67-13.63-12.64-26.34-33.1-47.7-53-.54-9.92-.84-21.32.36-26.33 1.4-5.88 16.9-24.8 10.9-24.47-11.5.66-35.4 13.2-47.6 24.3-5.2-2.88-10.7-5.64-16.5-8.23-4.3-20.37-13.1-40.17-20.5-35.6-9.9 6.05-13.9 14.58-15.5 23.24-35-9.02-80.3-13.15-140.2-8.58-92.4 7.04-193.4-106-370 22-48.7 35.27-75.4 94.92 5.3 214 .9 9.93 2.5 24.3 11.6 39.92.6 1.03 1.9-.6 2.3-1.6 2.9-6.9-5.1-32.15-2.6-36.98 2.5-4.92 13.6 10.34 16 15.33 5.4 11.15 1.5 37.35 4.6 49.33 3.9 15 18.3 42.82 25.3 56.67 13.3 68 34 79.75 48 84.67 3.5-.06 21.2-.26 24.2-3.67-7-41.75-32.6-93.98-35.6-125 0-.03 0-.06-.1-.1 39.1 26.8 98.8 67.72 99.9 70.53 1.3 3.33 44.1 4.24 50.1-.43 3.1-2.46-78.4-63.83-89.4-95.33-5.6-16.05 3.8-59.87 7-74.92 37.3 3 81.2 7.23 105.7 14.92 1.8 30.4 14 62 14.6 83.33.6 21.66 14.9 73.63 15.5 78.3 3.3 24.67 27.1 27.55 37.1 23.7-2.6-22.5-6.2-37.68-8.1-50.14 7.7 12.1 14.4 21.2 14.7 21.8.6 1.6 32.7 7 30 0-15.8-39.3-15.4-78.7-15-97.3 8.2-12.9 19-46.5 31.6-45.6 44 3.3 130.6-24.7 175.3-30.7 23.5-3.1 68.8-18.1 91.4-25.3 5.5-1.8 18.4-3.4 22-8 32.6-7.3 29.3-62.6 4.6-46z" opacity=".3"/>
</svg>
