<svg xmlns="http://www.w3.org/2000/svg" width="751.99" height="482.72" xmlns:xlink="http://www.w3.org/1999/xlink">
  <path fill="#BFB5A9" d="M630.9-1429.23c-.8-.38-9.46 11.92-7.65 17.08.67 1.9 6.56 5.1 8.57 3.87 10.56-6.43 11.28-41.04-.9-20.95z"/>
  <path fill="#3D2D1E" d="M166.1-1103.94c4.76 2.9 19.05 4.54 22.26 0 4.74-6.68-26.78-52.62-29.23-61.2-7.5-26.3 18-89.2-.44-109.4-1.3-1.37-57.4 16.58-64.3 33.3-7.9 18.93 25.8 49.74 27.2 52 17 28.9 32.4 63.68 44.5 85.3z"/>
  <path fill="#BFB5A9" d="M138.9-1315.23c-16.4 1.73-25.7 25.87-30.12 38.9-5.1 15.03-11.37 38.36-2.54 53.25 2.57 4.34 6.84 7.9 11.18 10.37 2.58 1.4 5.3 2.6 8.13 3.5 7.2 2.2 2.54 2.6 6.63 7.6 2.84 3.5 6.95.6 8.98-2.1 6.52-8.6 5.5.8 10.5 4.4 7.38 5.3 7.46-9.2 11.32-10.1 1.24-.1 3.46 9.3 8.42 8.6 4.13-.6 5.8-6.4 5.07-10 .12-.2.33-7 2.6-2.4 1.6 3.2 6.34 8.8 10.65 7.4 3.24-1.3 3.6-4.9 3.18-8-1.15-8.3-1.5-5.7 6.9-11.3 15.28-10.3 15.1-22.9 14.25-39.7-2.14-42.7-36.57-54.7-75.14-50.7-24.6 2.6 82.9-8.8 0 0z"/>
  <path fill="#3D2D1E" d="M396.68-1240.86c1.85 17.93 3.92 41.82 6.8 57.18 1.42 7.63 6.2 22.55 6.8 30.3.84 11.1-4.6 41.63 1.85 50.73 2.7 3.8 17.78 1.93 21.63-.67 28.62-19.33 6.8-135.54 6.18-137.93-.6-2.4-44.45-11.03-43.26.4zm-325.1-39.17c2.86-26.04 12.85 5.02 12.92 5.62.08.6 1.44 12.2 1.87 16.3 1.88 17.8-12.14 62.2-15.53 65.9-1.93 2.1-4.8-51.2-4.87-53.5-.27-8.7 4.64-25.8 5.6-34.5z"/>
  <path fill="#664926" d="M82.2-1344.08c2.32 10.66 9.9 41.4 8.65 71.85-.58 14.5-21.53 32.76-19.65 47.14 5.8 44.3 6.05 108.1 18.57 130.8 3.88 3.3 19.27 3.6 22.56-.3.93-23.6-16.07-35.7-11.6-80.2 2.37-23.4 22.1-54.7 32.93-75.6 10.97-21.1 55.36-36.9 69.54-25.6 6.76 5.4 3.63 31.2 8.5 38.4 8.32 12.2 39.3 16.2 53.93 18.3 36.54 5.3 122.68-26 151.13-2.4 7.42 44.5 9.53 104.6 12.3 132.4 3.7 4 28.82 8.8 27.28-.8-5.87-36.4-7.43-58.9-.94-80.6 3.06-10.2 2.2-29.8 2.78-41.3 8-.1 47.87-13.8 64.32-38.7 9.82-14.8 31.88-53.6 49.38-53.5 17.57.1 54.08 5.8 69.2 16.2 13.05 9 35.03-4.8 33.14-17.6-.28-1.8-20.27-45.6-24.1-61.9-.76-3.2.6-10.3-1.25-13-18.7-27.2-15.56-50.1-25.5-48.2-12.77 2.4-10.2 11.9-11.28 9.5-1.3-1.6-5.8-13.8-12.1-15.1-11.5-2.2-11.2 16.3-9.4 19.6-111.1 4.7-100.5-8.4-135.6-14.6-59.8-10.6-198 6.7-256.8-8.4-19.5-5-45-8.2-64.6-8.7-32.5-.8-42.4 14.8-51 27.1-1 1.5-10.3 11.7-11.6 15.9-.5 1.5 7.2 31 2.8 77.5-6.9 72 13.2 61.7 10.5 51.8-5-18.2-2.3-69.7-2.2-69.4z"/>
  <path fill="#BFB5A9" d="M638.1-1462.22c-.65-.63-.26.08 0 .58 11.42 21.34-21.68 36.37-21.68 41.84 0 2 4.65 7.42 6.8 6.5 7.85-3.42 34.42-32.22 14.88-48.92z"/>
  <linearGradient id="a" x1="370.15" x2="370.15" y1="-1522.13" y2="-913.76" gradientUnits="userSpaceOnUse">
    <stop offset="0" stop-color="#FFF"/>
    <stop offset="1"/>
  </linearGradient>
  <path fill="url(#a)" d="M674.2-1305.95c-.26-1.84-20.25-45.55-24.1-61.93-.74-3.18.62-10.3-1.23-12.98-7.66-11.15-11.65-21.56-14.4-29.85 4.03-5.1 5.9-14.5 5.32-20.1 6-10.1 8.7-22.5-1.7-31.5-.7-.7-.3.1 0 .6 7.4 13.7-3.9 24.9-12.7 32.5-.7-.2-1.3-.2-2.1 0-12.8 2.4-10.2 11.9-11.3 9.4-1.3-1.6-5.7-13.9-12.1-15.1-11.5-2.2-11.2 16.2-9.4 19.6-111.1 4.6-100.5-8.4-135.6-14.6-59.8-10.6-198 6.6-256.8-8.5-19.5-5-45-8.3-64.6-8.7-32.5-.8-42.4 14.7-51 27.1-1 1.4-10.3 11.6-11.6 15.9-.5 1.4 7.2 31 2.8 77.4-1.7 17.5-1.8 30.2-1 39.2-.5 1.6-1 4-1.4 7.2-1 8.6-5.9 25.7-5.6 34.4 0 2.2 2.9 55.5 4.8 53.4.7-.8 1.8-3.2 3.1-6.7 3.5 40.3 5.6 86 15.8 104.5 3.8 3.3 19.2 3.6 22.5-.3.9-23.7-16.1-35.7-11.6-80.2.9-8.7 4.1-18.4 8.4-28.3 6.2 7.4 11.9 12.9 12.4 13.8 17 28.9 32.4 63.7 44.5 85.3 4.7 2.9 19 4.5 22.2 0 4.7-6.7-26.8-52.6-29.3-61.2-2.9-10-.9-25.3 1.5-41.6.6-1.4 1.3-2.4 2.3-2.6 1.2-.1 3.4 9.3 8.4 8.6 4.1-.6 5.8-6.4 5-10 .1-.2.3-7 2.6-2.4 1.6 3.2 6.3 8.8 10.6 7.4 3.2-1.3 3.6-4.9 3.2-8-1.2-8.2-1.5-5.7 6.9-11.3 5.9-4 9.5-8.4 11.6-13.2l.2.4c8.3 12.2 39.3 16.1 53.9 18.2 30.3 4.4 94.8-16.4 132.1-10.1 1.5 15.8 3.3 33.6 5.6 46 1.4 7.6 6.2 22.5 6.8 30.3.8 11.1-4.6 41.6 1.8 50.7 1.9 2.7 10 2.5 15.9 1.3l1 11.7c3.7 3.9 28.8 8.7 27.3-.8-5.9-36.5-7.5-59-1-80.6 3-10.2 2.2-29.8 2.7-41.3 8-.1 47.9-13.8 64.3-38.7 9.8-14.9 31.9-53.7 49.4-53.6 17.6.1 54.1 5.8 69.2 16.2 13.1 9 35-4.8 33.1-17.6zm-583.35 33.72c-.17 4.2-2.04 8.7-4.56 13.32l-1.7-14.4c0-.2-.1-.4-.1-.6l-.1-.6c0-.1-.1-.4-.3-.9-4.8-18.7-2.1-69.2-2.1-68.9 2.3 10.6 9.9 41.4 8.6 71.8z"/>
  <path fill="#BF9582" d="M392.6-385.12c-2.34-.3-12.93 63-14.9 63.65s-21.93 10.4-18.9 15.78c7.15-1.4 12.96-6.9 17.06-5.2.37 10.4 2 16.6 22.8 27.2.86-3.1-1.8-9.7-7.7-13.2 6.08-1.5 34.72 3.6 42.58 3.1-12.77-14.7-35.78-14.1-37.37-16.3-8.44-11.9-1.1-49.8 7.24-59.1-.6-4.3-6.4-15.2-10.8-15.7z"/>
  <path fill="#BF9582" d="M423.1-397.56c-2.35.13-.82 64.3-2.63 65.3s-19.57 14.37-15.6 19.07c6.77-2.7 11.42-9.2 15.8-8.3 2.3 10.1 5.08 15.9 27.5 22.5.25-3.2-3.6-9.2-10.05-11.5 5.67-2.6 34.76 5.5 42.4 3.6-15.33-12-37.85-15.7-39.8-17.6-10.53-10.1-13.62-62.1-7.18-72.9-1.43-4.1-6.07-.2-10.44 0z"/>
  <path fill="#D8D8D8" d="M584.95-744.44c1.08-2.53 9.6-16.85 8.08-22.67-1.87-7.2-15.4-17.6-22.63-19.4-16.6-4.1-53.85 4-66.64 15.3-49.98 44.3-27.07 69.4-37.74 90.9-6.2 12.4-15.5 38-27.08 45.7-10.18 6.8-12.52 10.1-48.16 15.6-43.33-6.7-64.33 17-84 2.3-3-2.3-1.1-11.4 0-15 18-58.4 2.28-161.9-36-152.4-8 2 8.33 27.6 5.57 37.7-4-17.4-20.9-27.7-32.57-21.1-21.33-4-11.33 14-11.33 14-16.67 2-23.34 21.6-22.67 24-17.33-13.7-35.33 22.6-27.33 24-5.67 2.3-4.7 5.7-5.5 8.6-31.5 1.6-19.7 23.3-17.84 30-39 11.3-5.5 33.2 3.3 42.7-3.6 10.8-2.5 33.6 20.8 50.6-12.3 13.3-10.5 19.9-6 26.7 5 7.3 21.6 15.4 28.7 20.6 9.7 57.4 103.7 166.4 183.3 139.4 4.1 3.9 9 17.8 14.7 17.3 26.4-2.2 23.7-18.9 32.7-20.7 40.4-8.4 132-89.4 149-140.7 13.6-40.8-28.1-134.9-19.6-177 2-9.7 15.3-28 19.2-37z"/>
  <path fill="#936565" d="M551.78-732.94c3.5 28 17.85 21.46 25.5 19 23.38-2 20.25-27.38 11.63-34.25-10.4-8.3-19.6 8.5-37.1 15.3z"/>
  <path fill="#BF9582" d="M584-746.53c1.87-.44 6.24-1.8 8.22-1.48 3.94.6 5.3.5 15.7 1.6.87.1 2.86 1.8 3.36 1.1 1.2-9.4-9.8-18.4-15.97-18.9-4-.4-10.3 6.9-12.3 10.5-.7 1.2-.6 6.1 1 7z"/>
  <path fill="#936565" d="M563.65-788c-.98-4.28-.44-16.53 3.94-16.32 2.6.13 8.4-1.9 9.6-1.07 1.7 1.3 1 5.2.9 5.7-.1.3-.2 1 0 .7 1.4-1.6 3.9-2.7 5.1-1.9 1.9 1.3.5 3.2-.5 5.9-.1.3 0 1 .2.7 1.9-2 4.7-3.7 6.3-2.2 2.3 2.2-.7 6.9-2 9.5-.1.2.4 0 .6-.1 3.3-.5 3.5-1.3 5.5-.3 5.8 2.8 14.6 18.9 10.2 23.7-2.6 2.9-11.8-.5-15.5-1.8-7.6-2.7-23.1-14.2-24.9-22.1z"/>
  <linearGradient id="b" x1="376" x2="376" y1="-805.59" y2="-283.69" gradientUnits="userSpaceOnUse">
    <stop offset="0" stop-color="#FFF" stop-opacity="0"/>
    <stop offset="1" stop-color="#3F4568"/>
  </linearGradient>
  <path fill="url(#b)" d="M598.85-763.07c2.23.27 4.18.08 5.18-1 4.34-4.76-4.45-20.83-10.25-23.62-2.03-.9-2.23-.1-5.55.4-.2.1-.73.3-.64.1 1.2-2.7 4.2-7.3 1.9-9.5-1.6-1.5-4.4.2-6.4 2.3-.2.3-.4-.4-.3-.7 1-2.6 2.4-4.6.4-5.8-1.3-.8-3.8.4-5.2 2-.3.3-.2-.4-.1-.6.1-.5.8-4.4-1-5.6-1.2-.8-7 1.2-9.7 1.1-4.4-.2-5 12.1-4 16.3 0 .3.1.5.2.7-18.4-1.2-48.8 6.3-60.1 16.3-50 44.3-27.1 69.4-37.8 90.9-6.2 12.5-15.5 38.1-27.1 45.8-10.2 6.8-12.5 10.2-48.2 15.7-43.3-6.7-64.3 17-84 2.3-3-2.2-1.1-11.4 0-15 18-58.3 2.3-161.9-36-152.3-8 2 8.3 27.7 5.6 37.7-4-17.3-20.9-27.7-32.6-21-21.3-4-11.3 14-11.3 14-16.7 2-23.4 21.7-22.7 24C192-742.3 174-706 182-704.7c-5.67 2.35-4.7 5.8-5.5 8.7-31.5 1.65-19.7 23.32-17.84 30-39 11.32-5.54 33.24 3.22 42.7-3.6 10.8-2.56 33.62 20.8 50.62-12.3 13.3-10.5 19.93-6 26.66 4.94 7.3 21.6 15.4 28.7 20.7 9.7 57.3 103.7 166.3 183.34 139.3.8.7 1.62 1.9 2.5 3.2-3.5 10.5-12.16 61.12-13.9 61.7-1.98.65-21.95 10.4-18.9 15.77 7.14-1.4 12.94-6.94 17.04-5.2.4 10.36 2 16.58 22.8 27.2.9-3.12-1.8-9.7-7.7-13.24 6.1-1.5 34.74 3.6 42.6 3.1-12.8-14.7-35.8-14.1-37.4-16.4-8.35-11.8-1.2-49.2 7.1-58.9h.53c8.5-.7 14-2.9 17.9-5.6-.3 18.6-.2 41.9-1.2 42.5-1.8 1-19.6 14.4-15.6 19.1 6.7-2.7 11.4-9.2 15.7-8.3 2.3 10.1 5.1 15.9 27.5 22.4.2-3.2-3.6-9.2-10.1-11.5 5.6-2.6 34.7 5.5 42.4 3.6-15.4-12.1-37.9-15.7-39.8-17.6-8.2-7.8-11.9-41-10.1-60.5 1.6-2.3 3.2-4 5.8-4.6 40.3-8.3 131.9-89.3 149-140.6 13.5-40.8-28.1-134.9-19.7-177 .2-1.3.6-2.6 1.2-4.1 3.7-.1 7.4-1.6 10.2-2.5 23-2 20.3-26.5 12-33.9 1.1-.2 2.1-.4 2.9-.2 3.9.6 5.3.5 15.6 1.6.9.1 2.9 1.9 3.4 1.2 1-7.7-6.4-15.2-12.4-17.9zm-4.47-.95c-.44.07-.88.2-1.35.4.05-.26.08-.5.1-.76.4.12.83.25 1.25.36z" opacity=".3"/>
  <path fill="#AF9D95" d="M214.16 248.72c-.06 2.4-14.65 60.9-8 80 10.95 31.5 92.5 92.87 89.33 95.33-6 4.67-48.8 3.76-50.2.43s-85.2-60.43-119.2-83.76c-33.9-23.25-46.1-144.35-10-164 26.7-14.55 98.7 41.6 98 72zm193.34 68.66c2.28 1.37-6 54.82 15.32 108.25 2.78 6.97-29.33 1.6-30 0s-44.3-59.25-37.33-80.25c4.6-14 39.3-35.57 52-28zm195.33-242c7.24-11.98 39.66-30.33 53.58-31.13 6.1-.34-9.5 18.6-10.9 24.47-2.4 10.23 1.4 47 .7 43.66s-50.2-25.58-43.3-37z"/>
  <path fill="#D8BBAF" d="M174.16 250.72c-8.5 3.9-18.1 21.9-21.33 30.66-6.34 17.13-9.1 54.5-7.34 72.67 3 31.02 28.5 83.25 35.5 125-3.1 3.4-20.7 3.6-24.3 3.67-14-4.92-34.7-16.67-48-84.67-7-13.85-21.4-41.66-25.4-56.67-3.2-11.98.7-38.18-4.7-49.33-2.4-5-13.5-20.25-16-15.33-2.5 4.83 5.5 30.07 2.6 37-.4.98-1.8 2.6-2.4 1.58-9.1-15.63-10.6-30-11.6-39.92-80.7-119.08-54-178.73-5.4-214 176.7-128 277.6-14.96 370-22 210-16 240 74.67 276.7 108.67 8.6 8 34.8 14.13 40 24.67 24.6-16.67 28 38.66-4.7 46-3.6 4.6-16.4 6.2-22 8-22.6 7.22-67.9 22.2-91.3 25.33-44.8 5.97-131.4 34-175.4 30.67-13.5-1.02-24.9 37.47-33.4 48-43.6 54.26-27.6 58-20 123.33-10 3.85-33.8.97-37.1-23.7-.7-4.67-14.9-56.64-15.6-78.3-.7-21.34-12.9-52.92-14.7-83.33-34-10.67-105.4-14.67-144.7-18z"/>
  <path fill="#AF9D95" d="M546.16 142.75c3.27-.66 37.55-32.38 46-46.62 9.27-15.6-7.64-79.23-20.34-71.4-21.66 13.32-15.06 38.6-17.33 51-3.2 17.17-21.4 69.65-8.4 67.02z"/>
  <linearGradient id="c" x1="376" x2="376" y2="482.72" gradientUnits="userSpaceOnUse">
    <stop offset="0" stop-color="#FFF" stop-opacity="0"/>
    <stop offset=".19" stop-color="#D9C0C0" stop-opacity=".19"/>
    <stop offset=".41" stop-color="#B07C7C" stop-opacity=".41"/>
    <stop offset=".61" stop-color="#8F4747" stop-opacity=".61"/>
    <stop offset=".78" stop-color="#782020" stop-opacity=".78"/>
    <stop offset=".92" stop-color="#690909" stop-opacity=".92"/>
    <stop offset="1" stop-color="#640000"/>
  </linearGradient>
  <path fill="url(#c)" d="M732.83 172.72c-5.2-10.54-31.4-16.68-40-24.67-13.63-12.64-26.34-33.1-47.7-53-.54-9.92-.84-21.32.36-26.33 1.4-5.88 16.9-24.8 10.9-24.47-11.5.66-35.4 13.2-47.6 24.3-5.2-2.88-10.7-5.64-16.5-8.23-4.3-20.37-13.1-40.17-20.5-35.6-9.9 6.05-13.9 14.58-15.5 23.24-35-9.02-80.3-13.15-140.2-8.58-92.4 7.04-193.4-106-370 22-48.7 35.27-75.4 94.92 5.3 214 .9 9.93 2.5 24.3 11.6 39.92.6 1.03 1.9-.6 2.3-1.6 2.9-6.9-5.1-32.15-2.6-36.98 2.5-4.92 13.6 10.34 16 15.33 5.4 11.15 1.5 37.35 4.6 49.33 3.9 15 18.3 42.82 25.3 56.67 13.3 68 34 79.75 48 84.67 3.5-.06 21.2-.26 24.2-3.67-7-41.75-32.6-93.98-35.6-125 0-.03 0-.06-.1-.1 39.1 26.8 98.8 67.72 99.9 70.53 1.3 3.33 44.1 4.24 50.1-.43 3.1-2.46-78.4-63.83-89.4-95.33-5.6-16.05 3.8-59.87 7-74.92 37.3 3 81.2 7.23 105.7 14.92 1.8 30.4 14 62 14.6 83.33.6 21.66 14.9 73.63 15.5 78.3 3.3 24.67 27.1 27.55 37.1 23.7-2.6-22.5-6.2-37.68-8.1-50.14 7.7 12.1 14.4 21.2 14.7 21.8.6 1.6 32.7 7 30 0-15.8-39.3-15.4-78.7-15-97.3 8.2-12.9 19-46.5 31.6-45.6 44 3.3 130.6-24.7 175.3-30.7 23.5-3.1 68.8-18.1 91.4-25.3 5.5-1.8 18.4-3.4 22-8 32.6-7.3 29.3-62.6 4.6-46z" opacity=".3"/>
  <path fill="#58385E" d="M592.28 906.25c-41.5-84.38-141.88-16.44-231.9-10.15-211.15 14.75-215.76 177.96-106.5 223.14 141.14 58.37 381.64-125.08 338.4-213z"/>
  <path fill="#5E7628" d="M593.76 909.58c4.97 10.04 4.75 33.02 2.38 41.96-5.88 22.14-56.42 72.27-64.66 64.95-15.73-12.6.05-63.4-11.55-79.8-11-15.6-68.62-17-67.33-36 8.3-3.7 45.32-10.5 53-23.1 2.03-3.3-2.68-7.2-.1-10.2 4.67-5.3 21.96-4.8 28.7-2.8 2.38.7 5.82 5.2 8.3 5.5 3.6.4 10.3-2.7 13.83-1.8 4.58 1.2 12.1 8.8 16.82 9.3 7.05.8 16.35-13.8 23-11.3 6.9 2.6-3.87 11 10.43 27.6-1.38 7.1-11.06 8.2-12.82 15.3z"/>
  <linearGradient id="d" x1="394.94" x2="394.94" y1="863.34" y2="1130.49" gradientUnits="userSpaceOnUse">
    <stop offset="0" stop-color="#FFF" stop-opacity="0"/>
    <stop offset=".14" stop-color="#D5D4E2" stop-opacity=".14"/>
    <stop offset=".37" stop-color="#9490B6" stop-opacity=".37"/>
    <stop offset=".58" stop-color="#605B93" stop-opacity=".58"/>
    <stop offset=".76" stop-color="#3A3479" stop-opacity=".76"/>
    <stop offset=".91" stop-color="#231D6A" stop-opacity=".91"/>
    <stop offset="1" stop-color="#1B1464"/>
  </linearGradient>
  <path fill="url(#d)" d="M606.57 894.26c-14.3-16.6-3.52-25.06-10.43-27.67-6.64-2.5-15.95 12.1-23 11.3-4.7-.6-12.24-8.2-16.8-9.4-1.08-.3-2.44-.2-3.92 0-5.75-2-11.82-3.2-18.16-3.9l-.07-.1c-5.5-1.7-17.7-2.3-24.7.3-44.8 4.5-98.6 27.4-149.2 31-211.1 14.8-215.7 178-106.5 223.2 111.8 46.2 285.9-59.3 332-148.8 5.1-7.1 8.9-13.8 10.3-19 2.4-9 2.6-31.9-2.4-42 1.7-7.1 11.4-8.2 12.8-15.3z" opacity=".4"/>
  <path fill="#EE1B08" d="M338.83 1005.75c0 74-68.17 133.6-142.13 131-75.54-2.66-130.2-57-130.2-131S127.83 872.2 215.88 872.2c74 0 122.95 59.54 122.95 133.55z"/>
  <path fill="#7D9D38" d="M204.58 932.5c-1.98 1.6-7.4-.05-9.75-1.25-2.52-1.3-4.96-7.3-7.75-7.75-6.93-1.13-26.18 11.26-28.58 11.25-14.92 0-101.42-24.25-107.34 10.67-.06-39.67 71.23-11.92 89.34-21.33 4.58-13.9-54.17-44.4-49.17-61.1 7.4 8.5 13 14.2 31 19.5 20 5.8 25.75 28.7 43.5 17.6 8.75-5.6-8.5-30.9-1.33-41.4 11.08 9.2 15.67 58.2 19.46 49.5 4.62-10.7 21.06-13 32.37-31.2 7.26-11.7 6.75-28.6 12.5-37.1 6.17-9.1 7.9-8.2 9-8-.87 1.1-1.1-.2-7 9.7-5.16 8.7-1.72 26-8 38.6-8.27 16.6-25.77 28.7-26.13 37.7-.18 4.4 5.2 7.8 7.88 14.4z"/>
  <g opacity=".5">
    <defs>
      <path id="e" d="M338.83 1005.75c0 74-68.17 133.6-142.13 131-75.54-2.66-130.2-57-130.2-131S127.83 872.2 215.88 872.2c74 0 122.95 59.54 122.95 133.55z" opacity=".5"/>
    </defs>
    <clipPath id="g">
      <use xlink:href="#e" overflow="visible"/>
    </clipPath>
    <radialGradient id="f" cx="135.63" cy="961.86" r="201.02" gradientTransform="matrix(.9288 0 0 1 39.024 0)" gradientUnits="userSpaceOnUse">
      <stop offset="0" stop-color="#FFF" stop-opacity="0"/>
      <stop offset=".19" stop-color="#C0C0C0" stop-opacity=".19"/>
      <stop offset=".41" stop-color="#7C7C7C" stop-opacity=".41"/>
      <stop offset=".61" stop-color="#474747" stop-opacity=".61"/>
      <stop offset=".78" stop-color="#202020" stop-opacity=".78"/>
      <stop offset=".92" stop-color="#090909" stop-opacity=".92"/>
      <stop offset="1"/>
    </radialGradient>
    <path fill="url(#f)" d="M-39 781.36h408v361H-39z" clip-path="url(#g)"/>
  </g>
  <path fill="#A5C44C" d="M517.66 1073.6l21.92-.78 42.42.54v-8l3.33-8.5-12.67-1.5-3.33-3.67 6-1.7-1.5-10.9-60.33 10.1"/>
  <path fill="#DD7236" d="M100.33 1101.78c-34.67 11.58-21 43.9-2.33 43.58 34.76-.62 94.5 5.87 156-3.67 139.66-21.7 282.43-9.6 270-82.4-9.34-54.7-96.34-21.7-200.67 4-51.2 12.6-106.5 20.5-157.67 29-21.63 3.6-46.18 3-65.33 9.4z"/>
  <linearGradient id="h" x1="325.56" x2="340.34" y1="1054.53" y2="1138.35" gradientUnits="userSpaceOnUse">
    <stop offset="0" stop-color="#FFF" stop-opacity="0"/>
    <stop offset=".08" stop-color="#F8E7E7" stop-opacity=".08"/>
    <stop offset=".33" stop-color="#E5A3A6" stop-opacity=".33"/>
    <stop offset=".56" stop-color="#D56E72" stop-opacity=".56"/>
    <stop offset=".75" stop-color="#CA474C" stop-opacity=".75"/>
    <stop offset=".9" stop-color="#C33035" stop-opacity=".9"/>
    <stop offset="1" stop-color="#C1272D"/>
  </linearGradient>
  <path fill="url(#h)" d="M572.66 1055.36l-3.33-3.67 6-1.7-1.5-10.9-53.38 9c-19.38-38.5-100.87-8.5-197.12 15.1-51.2 12.6-106.5 20.5-157.67 29-21.63 3.6-46.18 3-65.33 9.4-34.67 11.5-21 43.9-2.33 43.5 34.76-.6 94.5 5.9 156-3.7 129.95-20.2 262.58-11.1 270.4-68.4l15.18-.5 42.42.5v-8l3.33-8.5-12.67-1.5z" opacity=".2"/>
  <path fill="#437013" d="M512.02 1862.5c5.78-3.45 42.95-41.2 42.9-56.8-.04-6.8-8.92-25.04-6.36-31.45 2.95-7.4 4.03-28.77 5.3-40.94 4.92-46.2-298.87-346.8-324.28-438.3-7.8 53.1 43.5 92.8 111.23 205.7-38.6-50-182.1-188.6-209.5-228.4-26.5 13.7 46.6 78.2 52.8 107.1-15-15.6-60.9-53.7-76.3-66.5-19.3 9.6 17.6 65.7 11 80-17.1-24.2-34.6-64-48.2-84.9-22.3 8.4 64 167 62.4 182.6-.7 7.1-61.2-53.2-119.6-39.4 95.2 39 88 41.9 102.8 61.3 180.1 237.3 301.1 319.1 324.3 327.4 31.2 11.1 30.7 2.4 45.4 7.7 5.8 2.1 21.2 18.4 26.4 15.2z"/>
  <path fill="#FEC02D" d="M540.37 1760.16c2.54-2.28 4.34-4.06 4.34-4.06 1.7-2.4 2-5.34 1.1-7.9 1.6-1.47 2.6-2.47 2.6-2.47 2.8-3.93 1.9-9.36-2-12.15l-.7-.53c-.4-.32-1-.38-1.8-.25.5-3.34-1-6.8-4-8.68l-.7-.48c-.2-.15-.5-.23-.8-.25 0-2.9-1.5-5.7-4.1-7.4l-.8-.5c-.6-.4-1.4-.3-2.4 0 .5-3.3-1-6.8-4-8.6l-.7-.5c-.3-.2-.6-.3-1-.3 0-2.9-1.4-5.8-4.1-7.4l-.8-.5c-.2-.1-.4-.2-.7-.2-.6-1.9-1.8-3.7-3.6-4.8l-.7-.5c-.1-.1-.2-.1-.3-.2-.3-2.3-1.5-4.4-3.6-5.9l-.7-.6c-.3-.2-.6-.3-1-.3.2-2.9-1.1-5.8-3.6-7.6l-.7-.6c-.4-.3-1.1-.4-1.8-.3-.3-2.4-1.5-4.6-3.6-6l-.7-.6c-.2-.2-.6-.3-.9-.3.2-2.9-1.1-5.8-3.6-7.6l-.7-.6c-.5-.3-1.1-.4-1.9-.3-.3-2.4-1.5-4.6-3.6-6.1l-.7-.5c-.4-.3-1-.4-1.8-.3.5-3.3-.9-6.8-4-8.7l-.7-.5c-.3-.2-.5-.2-.9-.2 0-2.9-1.5-5.7-4.1-7.4l-.8-.4c-.6-.4-1.4-.3-2.4 0 .5-3.3-1-6.8-4-8.6l-.8-.5c-.3-.2-.6-.3-1-.3 0-2.9-1.5-5.7-4.1-7.4l-.8-.5c-.2-.1-.5-.2-.7-.2-.6-1.9-1.8-3.6-3.7-4.8l-.8-.4c-.3-.2-.7-.3-1.2-.3-.2-2.6-1.7-5.1-4.1-6.6l-.8-.4c-.3-.2-.6-.3-.9-.3 0-2.9-1.5-5.7-4.2-7.4l-.7-.5c-.2-.2-.5-.2-.9-.3 0-2.9-1.5-5.7-4.1-7.3l-.8-.5c-.5-.3-1.1-.3-1.9-.1-.4-2.3-1.8-4.5-4-5.8l-.7-.5c-.3-.2-.6-.2-1-.2 0-2.9-1.5-5.7-4.1-7.4l-.7-.4c-.7-.4-1.6-.3-2.6.1-.3-2.9-1.9-5.5-4.6-7l-.8-.5c-.3-.2-.6-.2-.9-.2-.2-2.9-1.9-5.6-4.6-7l-.8-.5c-.6-.4-1.5-.2-2.5.2.3-3.4-1.4-6.7-4.6-8.3l-.8-.5c-.5-.3-1.2-.3-2 0-.5-2.3-2-4.4-4.3-5.6l-.8-.5c-.2-.2-.5-.2-.8-.2-.7-1.9-2.1-3.5-4-4.6l-.8-.4c-.3-.2-.6-.2-.9-.2-.3-2.9-2.1-5.5-4.8-6.8l-.8-.4c-.3-.1-.7-.2-1-.2-.3-2.9-2-5.6-4.8-6.98l-.9-.4c-.5-.2-1.1-.2-1.8.1-.7-2.2-2.2-4.2-4.5-5.3l-.8-.4c-.3-.1-.6-.2-1-.1-.3-2.9-2-5.6-4.8-6.9l-.8-.4c-.5-.2-1.2-.2-1.9.1-.7-2.27-2.2-4.28-4.5-5.4l-.8-.4c-.5-.2-1.1-.2-1.7 0l-.2-.15c-.1-3.3-2.1-6.3-5.4-7.7l-.9-.3c-.3-.1-.6-.14-.9-.1-.5-2.84-2.4-5.4-5.2-6.55l-.8-.3c-.5-.2-1.2-.1-2 .25l-.5-.5c-.3-3-2.2-5.8-5.3-7.1l-.8-.3c-.3-.12-.6-.14-1-.1-.5-2.9-2.3-5.4-5.2-6.6l-.8-.4c-.2-.1-.5-.2-.7-.1-.9-1.8-2.4-3.3-4.4-4.2l-.8-.5c-.3-.1-.9 0-1.1-.12-.8-2.4-2.5-4.7-5.1-5.76l-.9-.3c-.3-.1-.6-.1-1-.1-.5-2.9-2.4-5.4-5.3-6.6l-.8-.3c-.2-.1-.5-.1-.9-.1-.5-2.8-2.4-5.3-5.2-6.5l-.8-.3c-.56-.3-1.2-.2-1.9.2-.8-2.3-2.5-4.2-4.9-5.1l-.85-.4c-.3-.1-.64-.14-1-.1-.5-2.9-2.4-5.4-5.3-6.6l-.9-.4c-.6-.3-1.4-.1-2.4.4l-.2-.1c-.7-2.7-2.7-4.96-5.6-5.9l-.8-.3c-.26-.1-.55-.15-.9-.1-.66-2.8-2.7-5.2-5.6-6.2l-.9-.3c-.6-.2-1.27-.05-2 .35l-.5-.4c-.57-3.1-2.67-5.8-5.8-6.8l-.9-.3c-.54-.2-1.2-.1-1.93.3-1-2.2-2.8-4.1-5.2-4.9l-.9-.3c-.2-.1-.5-.1-.8-.1-1-1.8-2.6-3.2-4.7-3.9l-.8-.3c-.4-.18-.9-.1-1.4.1-1.14-2.6-3.5-4.5-6.5-5-1.24-2.5-3.63-4.3-6.6-4.77l-.8-.1c-1.03-3-3.7-5.4-7.1-5.9l-.9-.1c-.3 0-.6.1-.94.2-1.2-2.6-3.6-4.6-6.7-5l-.9-.1c-.3-.1-.6 0-.9.1-1.2-2.6-3.65-4.6-6.7-5l-.9-.1c-.6-.1-1.2.2-1.8.7-1.35-2-3.46-3.4-6-3.7l-.9-.2c-.3 0-.64.1-1 .2-1.2-2.6-3.7-4.6-6.8-5l-.9-.1c-.7-.1-1.5.3-2.3 1.1-1.4-2.5-3.94-4.3-7-4.5l-.9-.1c-.5-.1-1 .1-1.44.5-.9-2.3-2.72-4.2-5.3-5.1l-.83-.3c-1.4-.5-3.3.9-5.3 3.15-1-1.1-2.2-1.96-3.7-2.5l-.9-.3c-1.6-.5-4 1.5-6.4 4.4-.9-.8-2-1.5-3.2-2l-.9-.3c-.9-.3-2.2.3-3.5 1.5-.8-1.1-1.8-2.1-3.2-2.7l-.8-.4c-4.4-2.1-17.7 16.3-17.7 16.3-.5.9-.5 2.1-.3 3.25-2.4 2-3.9 3.9-3.5 5.3l.3.9c.13.5.4 1 .6 1.5-3.8 2.7-6.9 5.5-6.3 7.4l.3.9c.3.9.7 1.7 1.2 2.5-1.6 1.5-2.6 3-2.2 4.1l.3.9c.2.8.6 1.5 1 2.2-.57.6-.86 1.2-.8 1.8l.1.9c.2 2.2 1.1 4.1 2.5 5.53-.2.2-.3.5-.3.7l-.2.9c-.5 3.7 1.2 7.1 4.1 8.8-.6.5-.96 1.1-1 1.7v.9c-.1 3 1.5 5.8 3.9 7.4-.9.7-1.4 1.4-1.3 2.2v.9c.1 3.1 1.8 5.7 4.4 7.2-.2.3-.3.6-.3.9v.9c.1 2.6 1.3 4.8 3.2 6.3-.5.6-.8 1.2-.8 1.73v.9c.1 3.1 1.8 5.76 4.3 7.2-.12.3-.2.6-.2.9v.9c.1 3.13 1.9 5.8 4.4 7.2-.2.34-.3.66-.22 1l.1.9c.1 3.4 2.28 6.3 5.2 7.6l.08.8c.1 3 1.7 5.53 4.1 7 .2 3 1.9 5.5 4.3 6.9-.3.5-.4 1-.3 1.4l.2.9c.5 2.1 1.8 3.8 3.4 5v.8l.2.9c.6 2.5 2.3 4.5 4.4 5.6-.5.7-.7 1.3-.6 1.9l.2.9c.8 3.44 3.6 5.92 6.9 6.55-.7.83-1 1.62-.9 2.3l.2.9c.8 3 2.9 5.3 5.7 6.2-.1.3-.1.6 0 .9l.2.9c.7 3 2.9 5.24 5.6 6.2-.7.93-1 1.8-.7 2.5l.2.9c.9 2.9 3.3 5.1 6.1 5.8-.1.4-.1.7 0 1l.28.9c.8 2.5 2.5 4.3 4.6 5.33-.4.7-.5 1.3-.3 1.9l.2.88c.9 2.93 3.2 5.1 6 5.84-.1.3-.1.6 0 .9l.3.9c.9 3 3.25 5.1 6 5.9-.1.36-.1.7 0 1l.3.87c.8 2.7 2.9 4.7 5.38 5.6-.1.4-.2.8-.04 1.2l.3.8c.7 2.1 2 3.7 3.7 4.8 0 .3 0 .5.1.8l.25.9c.9 3 3.3 5.1 6.1 5.8-.1.4-.1.7 0 1l.3.9c1.08 3.4 4 5.7 7.3 6.1-.6.9-.9 1.7-.7 2.4l.3.9c.9 3 3.26 5.1 6 5.9-.1.3-.1.6 0 .9l.3.9c1 3.4 4 5.7 7.4 6.1-.3.7-.4 1.3-.2 1.8l.3.8c.9 2.4 2.74 4.2 5 5.1-.3.7-.47 1.3-.27 1.8l.3.9c1.1 2.9 3.6 4.9 6.5 5.5-.1.36-.1.7 0 1l.3.85c.9 2.4 2.7 4.1 4.8 5-.3.7-.4 1.3-.2 1.8l.3.88c1.1 2.9 3.6 4.9 6.4 5.5-.1.4-.1.7 0 1l.4.9c1 2.9 3.5 4.8 6.2 5.5 0 .3 0 .6.1.9l.4.84c.8 2 2.3 3.5 4.1 4.4 0 .3 0 .54.1.8l.37.8c1 2.4 2.9 4.1 5.2 4.84-.4.75-.5 1.4-.2 2l.3.8c1.37 3.3 4.5 5.3 7.85 5.4-.6.9-.8 1.76-.5 2.4l.3.88c1.2 2.82 3.7 4.7 6.5 5.2 0 .3 0 .6.1.9l.4.9c1.2 2.8 3.7 4.7 6.5 5.2-.5 1-.7 1.9-.4 2.6l.4.8c1.4 2.8 4.1 4.5 6.96 4.8 0 .3 0 .7.2.9l.4.8c1.1 2.3 3.1 3.9 5.4 4.5-.3.7-.3 1.4-.1 1.9l.4.8c1.4 2.8 4 4.5 6.9 4.8 0 .4.05.7.2.9l.4.8c1.35 2.8 4 4.5 6.9 4.9-.05.4 0 .7.14 1l.4.8c1.3 2.6 3.6 4.2 6.2 4.7-.08.4 0 .8.1 1.2l.42.8c.94 2 2.55 3.4 4.4 4.1 0 .3.1.5.2.8l.4.8c1.4 2.8 4.1 4.5 6.94 4.8 0 .3 0 .7.2.9l.4.8c1.4 2.8 4.2 4.5 7.2 4.8l.7.7c-.3.7-.3 1.3-.1 1.8l.4.8c1.4 2.7 4 4.4 6.9 4.8 0 .3 0 .6.2.8l.4.8c1.4 2.7 4 4.4 6.9 4.8l1.2 1.1c0 .2.1.5.2.7l.5.8c1.3 2.2 3.35 3.6 5.63 4.1l.06.1c-.2.7-.2 1.3.1 1.8l.5.8c1.5 2.7 4.3 4.2 7.2 4.3 0 .4 0 .7.2 1l.42.8c1.3 2.2 3.3 3.6 5.6 4.16-.2.7-.2 1.3.1 1.8l.42.8c1.6 2.7 4.4 4.2 7.3 4.3 0 .4.1.7.2 1l.4.8c1.3 2.2 3.3 3.6 5.5 4.1l.2.4.4.8c1 1.9 2.6 3.3 4.43 4.1 0 .3.02.5.12.74l.5.8c1.4 2.8 4.1 4.5 7 4.8-.1.4 0 .7.1 1l.4.8c1.6 3.2 4.9 5 8.2 4.9-.4 1-.6 1.8-.3 2.5l.5.8c1.4 2.74 4 4.5 6.9 4.8 0 .3.03.6.2.8l.4.8c1.6 3.2 6.1 1.5 9.5 1.4-.2.7-.2 1.3.03 1.8l.46.8c2.4 4.1 10.1 4.5 14.23 2.1 0 0 1.1-.9 2.7-2.4 2.4 1.2 5.4 1.1 7.9-.3 0 0 .5 1.2 4.5-2.84 1-.1 2-.5 3-1l.8-.7c.7-.4 1.4-.9 2-1.3l.7.7c3 1.2 9.22-6.8 13.2-12.3l.9 1.1c3.5 1.7 12.7-9.8 16.3-14.5l.1.1c4.3 2.1 17.7-16.4 17.7-16.4.5-1.1.8-2.3.9-3.5 5.6-3.2 14.6-15.8 14.6-15.8 1.4-3 1-6.3-.8-8.9z"/>
  <defs>
    <path id="i" d="M482.46 1821.5c6.72-17.3 53.65-47.3 53.52-66.64-.42-66.38-315.68-434.4-397.45-364.33-80.23 68.75 309.1 520.8 343.93 430.97z"/>
  </defs>
  <clipPath id="j">
    <use xlink:href="#i" overflow="visible"/>
  </clipPath>
  <g fill="#FFE8CA" opacity=".5" clip-path="url(#j)">
    <path d="M178.74 1444.43c1.8-3.37-.2-7.94-4.45-10.2l-.9-.42c-4.3-2.2-16.1 11.7-16.1 11.7-1.8 3.4 5.2 10.7 5.2 10.7 4.2 2.3 16-11.6 16-11.6zm-35.22-11.7c-3.8 1.43-8.27-1.06-9.96-5.57l-.32-.85c-1.7-4.5 14.74-14.8 14.74-14.8 3.82-1.4 10.28 6.5 10.28 6.5 1.7 4.5-14.74 14.8-14.74 14.8z"/>
    <path d="M173.93 1404.2c2.5-4.1 1.2-9.46-2.92-11.95l-.7-.48c-4.1-2.5-19.1 14.7-19.1 14.7-2.5 4.1 3.7 12.43 3.7 12.43 4.1 2.5 19.1-14.7 19.1-14.7z"/>
    <path d="M174.57 1423.33c2.78-3.93 1.85-9.37-2.07-12.15l-.75-.53c-3.93-2.78-20.1 13.3-20.1 13.3-2.78 3.92 2.82 12.68 2.82 12.68 3.93 2.77 20.1-13.3 20.1-13.3zm14.5 85.65c2.3-4.22.76-9.52-3.46-11.83l-.8-.44c-4.2-2.3-18.4 15.6-18.4 15.6-2.3 4.3 4.3 12.3 4.3 12.3 4.3 2.3 18.5-15.5 18.5-15.5z"/>
    <path d="M197.44 1498.28c4.47-1.8 9.6.52 11.46 5.17l.36.9c1.86 4.63-17.48 16.77-17.48 16.77-4.47 1.8-11.82-6.06-11.82-6.06-1.86-4.65 17.48-16.78 17.48-16.78zm40.12 77.1c-3.57 1.17-7.83-1.33-9.5-5.6l-.33-.8c-1.68-4.26 13.63-13.22 13.63-13.22 3.58-1.18 9.84 6.4 9.84 6.4 1.68 4.26-13.63 13.22-13.63 13.22z"/>
    <path d="M249.5 1583.38c1.9-3.32 0-7.8-4.24-10.02l-.8-.42c-4.25-2.2-16.6 11.55-16.6 11.55-1.9 3.3 5.05 10.4 5.05 10.4 4.3 2.2 16.6-11.6 16.6-11.6z"/>
    <path d="M217.32 1607.5c-4.4 1.72-9.53-.26-11.47-4.43l-.37-.8c-1.94-4.16 17-15.6 17-15.6 4.4-1.73 11.84 5.22 11.84 5.22 1.95 4.1-17 15.6-17 15.6zm224.08 55.13c-4.47 1.54-9.5-.66-11.24-4.9l-.33-.8c-1.74-4.25 17.76-14.86 17.76-14.86 4.4-1.53 11.5 5.7 11.5 5.7 1.7 4.25-17.8 14.86-17.8 14.86z"/>
    <path d="M429.74 1668.86c-2.36 3.88-.73 8.97 3.63 11.36l.83.46c4.36 2.4 18.88-13.8 18.88-13.8 2.35-3.9-4.47-11.83-4.47-11.83-4.3-2.4-18.8 13.8-18.8 13.8zm50.13 60.74c2.25-3.1.92-7.9-2.96-10.74l-.7-.54c-3.9-2.83-17.5 9.3-17.5 9.3-2.2 3.08 3.7 11.25 3.7 11.25 3.9 2.84 17.6-9.28 17.6-9.28z"/>
    <path d="M484.63 1743.3c-3.97.88-8.03-2.22-9.07-6.92l-.2-.9c-1.03-4.7 16.7-12.6 16.7-12.6 3.97-.86 9.26 7.83 9.26 7.83 1.03 4.8-16.7 12.6-16.7 12.6z"/>
    <path d="M518.77 1719.36c3.05-3.72 2.5-9.2-1.2-12.26l-.72-.58c-3.72-3.06-21 11.84-21 11.84-3.04 3.72 1.93 12.84 1.93 12.84 3.72 3.06 21-11.84 21-11.84z"/>
    <path d="M516.7 1738.37c3.3-3.5 3.16-9-.34-12.32l-.66-.63c-3.5-3.3-21.78 10.33-21.78 10.33-3.3 3.5 1 12.95 1 12.95 3.5 3.3 21.78-10.33 21.78-10.33zm-25.72 49.38c2.88-3.86 2.1-9.3-1.77-12.2l-.7-.55c-3.8-2.88-20.4 12.8-20.4 12.8-2.9 3.85 2.5 12.73 2.5 12.73 3.9 2.9 20.5-12.78 20.5-12.78z"/>
    <path d="M500.77 1778.34c4.68-1.15 9.43 1.87 10.62 6.74l.2.92c1.2 4.87-19.7 14.15-19.7 14.15-4.7 1.14-10.9-7.67-10.9-7.67-1.2-4.86 19.6-14.14 19.6-14.14zM381.2 1689.7c3.75-.64 7.53 2.57 8.45 7.17l.17.87c.93 4.6-15.77 11.3-15.77 11.3-3.73.62-8.6-8.07-8.6-8.07-.93-4.6 15.76-11.28 15.76-11.28z"/>
    <path d="M370.82 1679.67c-2.46 3.08-1.36 7.94 2.44 10.85l.73.56c3.8 2.9 18.3-9.1 18.3-9.1 2.4-3.1-3.2-11.43-3.2-11.43-3.8-2.9-18.4 9.12-18.4 9.12z"/>
    <path d="M406.82 1660.25c4.64-1.06 9.37 1.76 10.56 6.3l.23.87c1.2 4.54-19.5 13.18-19.5 13.18-4.6 1.06-10.8-7.17-10.8-7.17-1.2-4.55 19.6-13.18 19.6-13.18z"/>
    <path d="M388.78 1653.9c4.55-1.4 9.46 1.1 10.98 5.57l.3.85c1.5 4.45-18.5 14.5-18.5 14.5-4.55 1.4-11.27-6.42-11.27-6.42-1.6-4.45 18.4-14.5 18.4-14.5zm-3.4-67.36c4.7-.86 9.3 2.17 10.27 6.76l.2.87c.97 4.6-20.15 12.3-20.15 12.3-4.7.84-10.46-7.65-10.46-7.65-.98-4.6 20.14-12.28 20.14-12.28z"/>
    <path d="M398 1582.06c3-3.58 2.28-9-1.6-12.12l-.75-.6c-3.9-3.12-21.06 11.04-21.06 11.04-3 3.58 2.3 12.72 2.3 12.72 3.9 3.12 21-11.04 21-11.04zm-118.85-99.04c-4.13 1.17-7.6-2.54-7.74-8.28v-1.1c-.1-5.75 19-15.9 19-15.9 4.2-1.2 7.8 9.36 7.8 9.36.2 5.75-19 15.92-19 15.92z"/>
    <path d="M288.47 1494.7c3.2-4.15 2.93-10.22-.63-13.54l-.67-.64c-3.56-3.3-21.43 13.43-21.43 13.43-3.2 4.16 1.3 14.18 1.3 14.18 3.56 3.33 21.43-13.42 21.43-13.42zm-88.2-23.1c-5.18 1.82-9.74-1.3-10.2-6.95l-.07-1.08c-.45-5.65 23.38-18.7 23.38-18.7 5.2-1.8 10.27 8.05 10.27 8.05.45 5.65-23.38 18.7-23.38 18.7z"/>
    <path d="M264.46 1529.26c-5.13 2.2-9.96-.48-10.77-6l-.2-1.04c-.8-5.5 22.5-20.28 22.5-20.28 5.1-2.2 10.9 7.03 10.9 7.03.8 5.52-22.5 20.3-22.5 20.3zm150.4 273.02c3.28-.9 6.2 2 6.53 6.47v.85c.3 4.48-14.7 12.37-14.7 12.37-3.3.9-6.6-7.32-6.6-7.32-.4-4.48 14.7-12.37 14.7-12.37z"/>
    <path d="M406.97 1793.15c-2.43 3.23-1.98 7.97 1 10.56l.56.5c2.97 2.6 16.72-10.4 16.72-10.4 2.43-3.2-1.56-11-1.56-11-3-2.6-16.8 10.4-16.8 10.4z"/>
    <path d="M439.85 1771.2c4.1-1.4 7.87 1.02 8.43 5.43l.1.84c.57 4.4-18.1 14.53-18.1 14.53-4.1 1.4-8.54-6.3-8.54-6.3-.56-4.4 18.1-14.5 18.1-14.5z"/>
    <path d="M425 1766.27c4.05-1.7 8.02.4 8.87 4.7l.16.8c.85 4.3-17.35 15.77-17.35 15.77-4.05 1.7-9.03-5.5-9.03-5.5-.85-4.3 17.36-15.77 17.36-15.77zm-19.45-25.7c3.82-1.96 7.9-.03 9.1 4.3l.22.8c1.2 4.33-15.7 16.9-15.7 16.9-3.8 1.95-9.3-5.12-9.3-5.12-1.2-4.3 15.68-16.9 15.68-16.9z"/>
    <path d="M415.64 1733.16c2.2-4.25 1.14-9.46-2.36-11.65l-.66-.4c-3.5-2.2-16.55 15.9-16.55 15.9-2.18 4.3 3.03 12.1 3.03 12.1 3.5 2.2 16.54-15.9 16.54-15.9zm-120.5-170.5c2.25-3.1.93-7.9-2.96-10.7l-.74-.55c-3.9-2.8-17.56 9.3-17.56 9.3-2.24 3.1 3.7 11.3 3.7 11.3 3.9 2.9 17.56-9.3 17.56-9.3z"/>
    <path d="M299.9 1576.4c-3.97.87-8.03-2.23-9.07-6.93l-.2-.9c-1.02-4.7 16.7-12.6 16.7-12.6 3.97-.87 9.26 7.84 9.26 7.84 1 4.7-16.7 12.6-16.7 12.6z"/>
    <path d="M334.04 1552.45c3.05-3.72 2.5-9.2-1.2-12.26l-.7-.6c-3.73-3.1-21 11.8-21 11.8-3.06 3.7 1.9 12.8 1.9 12.8 3.73 3 21-11.9 21-11.9z"/>
    <path d="M331.97 1571.46c3.3-3.5 3.16-9-.33-12.32l-.67-.63c-3.5-3.3-21.78 10.4-21.78 10.4-3.4 3.5 1 13 1 13 3.5 3.3 21.7-10.3 21.7-10.3zm-16.6 116.86c2.9-3.86 2.1-9.32-1.76-12.2l-.7-.55c-3.8-2.88-20.4 12.8-20.4 12.8-2.9 3.84 2.5 12.73 2.5 12.73 3.9 2.88 20.5-12.78 20.5-12.78z"/>
    <path d="M325.17 1678.9c4.67-1.14 9.42 1.88 10.6 6.74l.24.93c1.2 4.86-19.6 14.15-19.6 14.15-4.7 1.14-10.8-7.67-10.8-7.67-1.2-4.86 19.7-14.15 19.7-14.15z"/>
  </g>
  <defs>
    <path id="k" d="M540.37 1760.16c2.54-2.28 4.34-4.06 4.34-4.06 1.7-2.4 2-5.34 1.1-7.9 1.6-1.47 2.6-2.47 2.6-2.47 2.8-3.93 1.9-9.36-2-12.15l-.7-.53c-.4-.32-1-.38-1.8-.25.5-3.34-1-6.8-4-8.68l-.7-.48c-.2-.15-.5-.23-.8-.25 0-2.9-1.5-5.7-4.1-7.4l-.8-.5c-.6-.4-1.4-.3-2.4 0 .5-3.3-1-6.8-4-8.6l-.7-.5c-.3-.2-.6-.3-1-.3 0-2.9-1.4-5.8-4.1-7.4l-.8-.5c-.2-.1-.4-.2-.7-.2-.6-1.9-1.8-3.7-3.6-4.8l-.7-.5c-.1-.1-.2-.1-.3-.2-.3-2.3-1.5-4.4-3.6-5.9l-.7-.6c-.3-.2-.6-.3-1-.3.2-2.9-1.1-5.8-3.6-7.6l-.7-.6c-.4-.3-1.1-.4-1.8-.3-.3-2.4-1.5-4.6-3.6-6l-.7-.6c-.2-.2-.6-.3-.9-.3.2-2.9-1.1-5.8-3.6-7.6l-.7-.6c-.5-.3-1.1-.4-1.9-.3-.3-2.4-1.5-4.6-3.6-6.1l-.7-.5c-.4-.3-1-.4-1.8-.3.5-3.3-.9-6.8-4-8.7l-.7-.5c-.3-.2-.5-.2-.9-.2 0-2.9-1.5-5.7-4.1-7.4l-.8-.4c-.6-.4-1.4-.3-2.4 0 .5-3.3-1-6.8-4-8.6l-.8-.5c-.3-.2-.6-.3-1-.3 0-2.9-1.5-5.7-4.1-7.4l-.8-.5c-.2-.1-.5-.2-.7-.2-.6-1.9-1.8-3.6-3.7-4.8l-.8-.4c-.3-.2-.7-.3-1.2-.3-.2-2.6-1.7-5.1-4.1-6.6l-.8-.4c-.3-.2-.6-.3-.9-.3 0-2.9-1.5-5.7-4.2-7.4l-.7-.5c-.2-.2-.5-.2-.9-.3 0-2.9-1.5-5.7-4.1-7.3l-.8-.5c-.5-.3-1.1-.3-1.9-.1-.4-2.3-1.8-4.5-4-5.8l-.7-.5c-.3-.2-.6-.2-1-.2 0-2.9-1.5-5.7-4.1-7.4l-.7-.4c-.7-.4-1.6-.3-2.6.1-.3-2.9-1.9-5.5-4.6-7l-.8-.5c-.3-.2-.6-.2-.9-.2-.2-2.9-1.9-5.6-4.6-7l-.8-.5c-.6-.4-1.5-.2-2.5.2.3-3.4-1.4-6.7-4.6-8.3l-.8-.5c-.5-.3-1.2-.3-2 0-.5-2.3-2-4.4-4.3-5.6l-.8-.5c-.2-.2-.5-.2-.8-.2-.7-1.9-2.1-3.5-4-4.6l-.8-.4c-.3-.2-.6-.2-.9-.2-.3-2.9-2.1-5.5-4.8-6.8l-.8-.4c-.3-.1-.7-.2-1-.2-.3-2.9-2-5.6-4.8-6.98l-.9-.4c-.5-.2-1.1-.2-1.8.1-.7-2.2-2.2-4.2-4.5-5.3l-.8-.4c-.3-.1-.6-.2-1-.1-.3-2.9-2-5.6-4.8-6.9l-.8-.4c-.5-.2-1.2-.2-1.9.1-.7-2.27-2.2-4.28-4.5-5.4l-.8-.4c-.5-.2-1.1-.2-1.7 0l-.2-.15c-.1-3.3-2.1-6.3-5.4-7.7l-.9-.3c-.3-.1-.6-.14-.9-.1-.5-2.84-2.4-5.4-5.2-6.55l-.8-.3c-.5-.2-1.2-.1-2 .25l-.5-.5c-.3-3-2.2-5.8-5.3-7.1l-.8-.3c-.3-.12-.6-.14-1-.1-.5-2.9-2.3-5.4-5.2-6.6l-.8-.4c-.2-.1-.5-.2-.7-.1-.9-1.8-2.4-3.3-4.4-4.2l-.8-.5c-.3-.1-.9 0-1.1-.12-.8-2.4-2.5-4.7-5.1-5.76l-.9-.3c-.3-.1-.6-.1-1-.1-.5-2.9-2.4-5.4-5.3-6.6l-.8-.3c-.2-.1-.5-.1-.9-.1-.5-2.8-2.4-5.3-5.2-6.5l-.8-.3c-.56-.3-1.2-.2-1.9.2-.8-2.3-2.5-4.2-4.9-5.1l-.85-.4c-.3-.1-.64-.14-1-.1-.5-2.9-2.4-5.4-5.3-6.6l-.9-.4c-.6-.3-1.4-.1-2.4.4l-.2-.1c-.7-2.7-2.7-4.96-5.6-5.9l-.8-.3c-.26-.1-.55-.15-.9-.1-.66-2.8-2.7-5.2-5.6-6.2l-.9-.3c-.6-.2-1.27-.05-2 .35l-.5-.4c-.57-3.1-2.67-5.8-5.8-6.8l-.9-.3c-.54-.2-1.2-.1-1.93.3-1-2.2-2.8-4.1-5.2-4.9l-.9-.3c-.2-.1-.5-.1-.8-.1-1-1.8-2.6-3.2-4.7-3.9l-.8-.3c-.4-.18-.9-.1-1.4.1-1.14-2.6-3.5-4.5-6.5-5-1.24-2.5-3.63-4.3-6.6-4.77l-.8-.1c-1.03-3-3.7-5.4-7.1-5.9l-.9-.1c-.3 0-.6.1-.94.2-1.2-2.6-3.6-4.6-6.7-5l-.9-.1c-.3-.1-.6 0-.9.1-1.2-2.6-3.65-4.6-6.7-5l-.9-.1c-.6-.1-1.2.2-1.8.7-1.35-2-3.46-3.4-6-3.7l-.9-.2c-.3 0-.64.1-1 .2-1.2-2.6-3.7-4.6-6.8-5l-.9-.1c-.7-.1-1.5.3-2.3 1.1-1.4-2.5-3.94-4.3-7-4.5l-.9-.1c-.5-.1-1 .1-1.44.5-.9-2.3-2.72-4.2-5.3-5.1l-.83-.3c-1.4-.5-3.3.9-5.3 3.15-1-1.1-2.2-1.96-3.7-2.5l-.9-.3c-1.6-.5-4 1.5-6.4 4.4-.9-.8-2-1.5-3.2-2l-.9-.3c-.9-.3-2.2.3-3.5 1.5-.8-1.1-1.8-2.1-3.2-2.7l-.8-.4c-4.4-2.1-17.7 16.3-17.7 16.3-.5.9-.5 2.1-.3 3.25-2.4 2-3.9 3.9-3.5 5.3l.3.9c.13.5.4 1 .6 1.5-3.8 2.7-6.9 5.5-6.3 7.4l.3.9c.3.9.7 1.7 1.2 2.5-1.6 1.5-2.6 3-2.2 4.1l.3.9c.2.8.6 1.5 1 2.2-.57.6-.86 1.2-.8 1.8l.1.9c.2 2.2 1.1 4.1 2.5 5.53-.2.2-.3.5-.3.7l-.2.9c-.5 3.7 1.2 7.1 4.1 8.8-.6.5-.96 1.1-1 1.7v.9c-.1 3 1.5 5.8 3.9 7.4-.9.7-1.4 1.4-1.3 2.2v.9c.1 3.1 1.8 5.7 4.4 7.2-.2.3-.3.6-.3.9v.9c.1 2.6 1.3 4.8 3.2 6.3-.5.6-.8 1.2-.8 1.73v.9c.1 3.1 1.8 5.76 4.3 7.2-.12.3-.2.6-.2.9v.9c.1 3.13 1.9 5.8 4.4 7.2-.2.34-.3.66-.22 1l.1.9c.1 3.4 2.28 6.3 5.2 7.6l.08.8c.1 3 1.7 5.53 4.1 7 .2 3 1.9 5.5 4.3 6.9-.3.5-.4 1-.3 1.4l.2.9c.5 2.1 1.8 3.8 3.4 5v.8l.2.9c.6 2.5 2.3 4.5 4.4 5.6-.5.7-.7 1.3-.6 1.9l.2.9c.8 3.44 3.6 5.92 6.9 6.55-.7.83-1 1.62-.9 2.3l.2.9c.8 3 2.9 5.3 5.7 6.2-.1.3-.1.6 0 .9l.2.9c.7 3 2.9 5.24 5.6 6.2-.7.93-1 1.8-.7 2.5l.2.9c.9 2.9 3.3 5.1 6.1 5.8-.1.4-.1.7 0 1l.28.9c.8 2.5 2.5 4.3 4.6 5.33-.4.7-.5 1.3-.3 1.9l.2.88c.9 2.93 3.2 5.1 6 5.84-.1.3-.1.6 0 .9l.3.9c.9 3 3.25 5.1 6 5.9-.1.36-.1.7 0 1l.3.87c.8 2.7 2.9 4.7 5.38 5.6-.1.4-.2.8-.04 1.2l.3.8c.7 2.1 2 3.7 3.7 4.8 0 .3 0 .5.1.8l.25.9c.9 3 3.3 5.1 6.1 5.8-.1.4-.1.7 0 1l.3.9c1.08 3.4 4 5.7 7.3 6.1-.6.9-.9 1.7-.7 2.4l.3.9c.9 3 3.26 5.1 6 5.9-.1.3-.1.6 0 .9l.3.9c1 3.4 4 5.7 7.4 6.1-.3.7-.4 1.3-.2 1.8l.3.8c.9 2.4 2.74 4.2 5 5.1-.3.7-.47 1.3-.27 1.8l.3.9c1.1 2.9 3.6 4.9 6.5 5.5-.1.36-.1.7 0 1l.3.85c.9 2.4 2.7 4.1 4.8 5-.3.7-.4 1.3-.2 1.8l.3.88c1.1 2.9 3.6 4.9 6.4 5.5-.1.4-.1.7 0 1l.4.9c1 2.9 3.5 4.8 6.2 5.5 0 .3 0 .6.1.9l.4.84c.8 2 2.3 3.5 4.1 4.4 0 .3 0 .54.1.8l.37.8c1 2.4 2.9 4.1 5.2 4.84-.4.75-.5 1.4-.2 2l.3.8c1.37 3.3 4.5 5.3 7.85 5.4-.6.9-.8 1.76-.5 2.4l.3.88c1.2 2.82 3.7 4.7 6.5 5.2 0 .3 0 .6.1.9l.4.9c1.2 2.8 3.7 4.7 6.5 5.2-.5 1-.7 1.9-.4 2.6l.4.8c1.4 2.8 4.1 4.5 6.96 4.8 0 .3 0 .7.2.9l.4.8c1.1 2.3 3.1 3.9 5.4 4.5-.3.7-.3 1.4-.1 1.9l.4.8c1.4 2.8 4 4.5 6.9 4.8 0 .4.05.7.2.9l.4.8c1.35 2.8 4 4.5 6.9 4.9-.05.4 0 .7.14 1l.4.8c1.3 2.6 3.6 4.2 6.2 4.7-.08.4 0 .8.1 1.2l.42.8c.94 2 2.55 3.4 4.4 4.1 0 .3.1.5.2.8l.4.8c1.4 2.8 4.1 4.5 6.94 4.8 0 .3 0 .7.2.9l.4.8c1.4 2.8 4.2 4.5 7.2 4.8l.7.7c-.3.7-.3 1.3-.1 1.8l.4.8c1.4 2.7 4 4.4 6.9 4.8 0 .3 0 .6.2.8l.4.8c1.4 2.7 4 4.4 6.9 4.8l1.2 1.1c0 .2.1.5.2.7l.5.8c1.3 2.2 3.35 3.6 5.63 4.1l.06.1c-.2.7-.2 1.3.1 1.8l.5.8c1.5 2.7 4.3 4.2 7.2 4.3 0 .4 0 .7.2 1l.42.8c1.3 2.2 3.3 3.6 5.6 4.16-.2.7-.2 1.3.1 1.8l.42.8c1.6 2.7 4.4 4.2 7.3 4.3 0 .4.1.7.2 1l.4.8c1.3 2.2 3.3 3.6 5.5 4.1l.2.4.4.8c1 1.9 2.6 3.3 4.43 4.1 0 .3.02.5.12.74l.5.8c1.4 2.8 4.1 4.5 7 4.8-.1.4 0 .7.1 1l.4.8c1.6 3.2 4.9 5 8.2 4.9-.4 1-.6 1.8-.3 2.5l.5.8c1.4 2.74 4 4.5 6.9 4.8 0 .3.03.6.2.8l.4.8c1.6 3.2 4.9 5 8.22 4.8-.2.7-.2 1.3.1 1.8l.5.8c2.4 4.15 7.7 5.6 11.9 3.2 0 0 1.1-.9 2.7-2.4 2.48 1.1 5.4 1.1 7.98-.3 0 0 4.1-3.4 8.1-7.45 1.07-.1 2.1-.44 3-1l.9-.74c.7-.36 1.37-.8 2-1.3.4.5.7.7.7.7 2.9 1.3 9.2-6.7 13.17-12.3l.9 1.1c3.5 1.7 12.7-9.8 16.3-14.4l.1.1c4.3 2.1 17.7-16.4 17.7-16.4.52-1.2.8-2.4.83-3.5 5.6-3.3 14.6-15.8 14.6-15.8 1.5-3 1-6.4-.8-8.9z"/>
  </defs>
  <clipPath id="l">
    <use xlink:href="#k" overflow="visible"/>
  </clipPath>
  <g fill="#D89D25" clip-path="url(#l)">
    <path d="M177.66 1419.8c-3.76.7-7.5-2.6-8.37-7.33l-.2-.9c-.9-4.74 16-11.78 16-11.78 3.7-.7 8.5 8.2 8.5 8.2.8 4.7-16 11.7-16 11.7z"/>
    <path d="M187.95 1430.05c2.5-3.2 1.48-8.2-2.3-11.18l-.72-.56c-3.8-2.9-18.6 9.6-18.6 9.6-2.5 3.2 3.03 11.8 3.03 11.8 3.78 3 18.6-9.5 18.6-9.5z"/>
    <path d="M151.55 1450.4c-4.67 1.13-9.4-1.74-10.52-6.42l-.22-.9c-1.1-4.67 19.8-13.75 19.8-13.75 4.7-1.14 10.8 7.3 10.8 7.3 1.2 4.68-19.8 13.77-19.8 13.77z"/>
    <path d="M169.57 1456.8c-4.58 1.45-9.48-1.08-10.95-5.67l-.28-.87c-1.46-4.58 18.77-15.13 18.77-15.13 4.6-1.46 11.3 6.53 11.3 6.53 1.5 4.58-18.7 15.13-18.7 15.13zm55.65-1.72c-4.72.9-9.3-2.17-10.22-6.9l-.17-.9c-.92-4.7 20.4-12.84 20.4-12.84 4.7-.92 10.38 7.8 10.38 7.8 1 4.7-20.3 12.84-20.3 12.84z"/>
    <path d="M212.5 1459.8c-3.07 3.72-2.42 9.3 1.45 12.5l.73.6c3.87 3.2 21.3-11.57 21.3-11.57 3.05-3.72-2.2-13.1-2.2-13.1-3.87-3.18-21.3 11.57-21.3 11.57zm86.85 57.07c2.2-3.05 1.12-7.86-2.43-10.76l-.68-.5c-3.55-2.9-16.73 9-16.73 9-2.2 3.1 3.2 11.3 3.2 11.3 3.6 2.9 16.7-9 16.7-9z"/>
    <path d="M303.37 1530.66c-3.75.8-7.45-2.36-8.27-7.07l-.15-.9c-.82-4.8 16.02-12.3 16.02-12.3 3.75-.8 8.43 7.9 8.43 7.9.82 4.7-16.03 12.3-16.03 12.3z"/>
    <path d="M336.1 1507.3c2.98-3.66 2.65-9.15-.74-12.27l-.65-.6c-3.3-3.1-20 11.5-20 11.5-3 3.66 1.4 12.85 1.4 12.85 3.4 3.12 20-11.48 20-11.48z"/>
    <path d="M333.56 1526.26c3.2-3.44 3.24-8.95.07-12.3l-.6-.65c-3.17-3.3-20.72 10-20.72 10-3.2 3.5.6 13 .6 13 3.2 3.4 20.7-9.9 20.7-9.9zm3.24 142.87c2.83-3.8 2.27-9.27-1.25-12.2l-.67-.58c-3.52-2.94-19.54 12.44-19.54 12.44-2.82 3.8 1.94 12.7 1.94 12.7 3.52 2.9 19.53-12.5 19.53-12.5z"/>
    <path d="M346.28 1659.88c4.4-1.06 8.77 2.03 9.73 6.9l.2.94c1 4.88-18.8 13.8-18.8 13.8-4.4 1.07-9.9-7.83-9.9-7.83-.9-4.9 18.9-13.9 18.9-13.9zm42.68 66.18c-3.62 1.2-7.8-1.52-9.32-6.08l-.28-.87c-1.53-4.5 14.16-13.9 14.16-13.9 3.63-1.2 9.6 7 9.6 7 1.53 4.6-14.16 13.9-14.16 13.9z"/>
    <path d="M400.6 1734.75c2.04-3.52.3-8.33-3.85-10.74l-.8-.4c-4.16-2.4-17.05 12.1-17.05 12.1-2.04 3.5 4.65 11.2 4.65 11.2 4.16 2.4 17.05-12.1 17.05-12.1z"/>
    <path d="M367.44 1760.03c-4.47 1.78-9.54-.4-11.32-4.86l-.34-.86c-1.78-4.4 17.65-16.4 17.65-16.4 4.46-1.8 11.65 5.7 11.65 5.7 1.8 4.5-17.64 16.5-17.64 16.5z"/>
    <path d="M386.18 1763.82c-4.33 2.1-9.54.28-11.64-4.05l-.4-.83c-2.1-4.33 16.44-17.62 16.44-17.62 4.34-2.1 12.04 4.87 12.04 4.87 2.1 4.3-16.44 17.6-16.44 17.6zm54.85-9.55c-4.54 1.58-9.5-.83-11.08-5.38l-.3-.9c-1.58-4.6 18.37-15.6 18.37-15.6 4.55-1.6 11.4 6.2 11.4 6.2 1.56 4.5-18.4 15.6-18.4 15.6z"/>
    <path d="M429.1 1760.75c-2.5 4.1-1.07 9.55 3.2 12.16l.8.5c4.3 2.6 19.46-14.4 19.46-14.4 2.5-4.1-4.02-12.6-4.02-12.6-4.28-2.6-19.44 14.5-19.44 14.5zm-48.27-140.8c-1.73 3.37.2 7.94 4.3 10.2l.77.45c4.1 2.27 15.53-11.62 15.53-11.62 1.74-3.36-5.07-10.64-5.07-10.64-4.1-2.27-15.53 11.6-15.53 11.6z"/>
    <path d="M374.43 1607c3.68-1.4 7.98 1.12 9.6 5.63l.32.86c1.62 4.5-14.26 14.7-14.26 14.7-3.7 1.4-10-6.5-10-6.5-1.6-4.5 14.2-14.8 14.2-14.8z"/>
    <path d="M345.02 1635.43c-2.42 4.1-1.16 9.47 2.8 11.98l.76.5c3.98 2.5 18.48-14.6 18.48-14.6 2.42-4.1-3.57-12.4-3.57-12.4-4-2.5-18.5 14.7-18.5 14.7z"/>
    <path d="M344.43 1616.32c-2.7 3.9-1.8 9.36 2 12.15l.7.54c3.8 2.8 19.44-13.2 19.44-13.2 2.7-3.9-2.7-12.7-2.7-12.7-3.8-2.8-19.44 13.3-19.44 13.3zm5.33-60.82c-2.24 4.22-.74 9.5 3.33 11.84l.7.44c4.1 2.32 17.8-15.48 17.8-15.48 2.2-4.2-4.1-12.27-4.1-12.27-4.1-2.33-17.8 15.47-17.8 15.47z"/>
    <path d="M341.67 1566.17c-4.32 1.78-9.27-.55-11.07-5.2l-.34-.9c-1.8-4.65 16.9-16.72 16.9-16.72 4.32-1.77 11.4 6.1 11.4 6.1 1.8 4.65-16.9 16.72-16.9 16.72zm-157.67-39c2.38-3.57-.1-8-5.54-9.9l-1.04-.33c-5.43-1.9-20.92 13.3-20.92 13.3-2.37 3.57 6.58 10.24 6.58 10.24 5.44 1.88 20.93-13.3 20.93-13.3z"/>
    <path d="M192.33 1539.6c-4.94 1.8-10.64-.3-12.72-4.7l-.4-.84c-2-4.4 19.3-16.35 19.3-16.35 5-1.8 13.1 5.6 13.1 5.6 2.1 4.4-19.2 16.4-19.2 16.4z"/>
    <path d="M232.07 1507.94c3.3-4.4 1.7-9.68-3.55-11.82l-1-.4c-5.26-2.14-24.9 16.62-24.9 16.62-3.3 4.4 4.55 12.23 4.55 12.23 5.25 2.14 24.9-16.63 24.9-16.63z"/>
    <path d="M232.53 1527.2c3.66-4.24 2.56-9.64-2.44-12.1l-1-.45c-5-2.44-26.2 15.3-26.2 15.3-3.7 4.24 3.4 12.56 3.4 12.56 5 2.5 26.1-15.3 26.1-15.3zm-24.83 54.78c3.07-4.5 1.17-9.7-4.23-11.63l-1.03-.37c-5.4-1.93-24.04 17.43-24.04 17.43-3.05 4.5 5.28 12 5.28 12 5.4 2 24.03-17.4 24.03-17.4z"/>
    <path d="M218.7 1570.38c5.8-2.23 12.36-.37 14.67 4.15l.45.87c2.3 4.52-22.85 18.58-22.85 18.58-5.8 2.23-15.12-5-15.12-5-2.3-4.53 22.84-18.6 22.84-18.6zm251.66 108.67c-1.86 2.84.02 6.5 4.18 8.17l.8.3c4.18 1.68 16.24-10.24 16.24-10.24 1.86-2.84-4.98-8.5-4.98-8.5-4.17-1.65-16.24 10.27-16.24 10.27z"/>
    <path d="M464.05 1668.74c3.82-1.32 8.2.53 9.76 4.15l.3.6c1.6 3.6-14.9 12.8-14.9 12.8-3.8 1.3-10-4.9-10-4.9-1.5-3.6 15-12.8 15-12.8z"/>
    <path d="M433.16 1693.43c-2.58 3.48-1.4 7.82 2.63 9.7l.7.35c4 1.87 19.3-12.86 19.3-12.86 2.5-3.48-3.4-10.04-3.4-10.04-4.1-1.87-19.4 12.85-19.4 12.85z"/>
    <path d="M432.96 1677.8c-2.85 3.34-2.05 7.75 1.8 9.87l.72.4c3.84 2.1 20.28-11.76 20.28-11.76 2.86-3.3-2.5-10.2-2.5-10.2-3.85-2.1-20.3 11.8-20.3 11.8zm19.6-43.84c-2.4 3.56-.97 7.83 3.17 9.54l.8.33c4.13 1.7 18.66-13.53 18.66-13.53 2.3-3.56-4-9.87-4-9.87-4.2-1.7-18.7 13.53-18.7 13.53z"/>
    <path d="M444 1643.1c-4.5 1.65-9.53-.03-11.28-3.76l-.33-.7c-1.8-3.74 17.7-14.52 17.7-14.52 4.5-1.65 11.6 4.47 11.6 4.47 1.7 3.7-17.8 14.5-17.8 14.5zm-184.58-56.5c-3.63 1.2-7.8-1.52-9.32-6.08l-.3-.87c-1.5-4.56 14.18-13.9 14.18-13.9 3.62-1.22 9.6 6.93 9.6 6.93 1.53 4.57-14.16 13.92-14.16 13.92z"/>
    <path d="M271.06 1595.3c2.03-3.53.3-8.34-3.86-10.75l-.8-.46c-4.16-2.5-17.05 12-17.05 12-2.04 3.5 4.65 11.2 4.65 11.2 4.17 2.4 17.06-12.1 17.06-12.1z"/>
    <path d="M237.9 1620.57c-4.48 1.78-9.55-.4-11.33-4.87l-.34-.85c-1.78-4.47 17.65-16.42 17.65-16.42 4.47-1.78 11.66 5.72 11.66 5.72 1.78 4.47-17.65 16.42-17.65 16.42z"/>
    <path d="M256.64 1624.36c-4.34 2.1-9.55.28-11.64-4.06l-.4-.82c-2.1-4.33 16.44-17.63 16.44-17.63 4.33-2.1 12.03 4.88 12.03 4.88 2.1 4.34-16.43 17.63-16.43 17.63zm54.86-9.56c-4.56 1.6-9.52-.82-11.1-5.37l-.3-.86c-1.58-4.55 18.37-15.6 18.37-15.6 4.55-1.58 11.4 6.24 11.4 6.24 1.57 4.6-18.38 15.6-18.38 15.6z"/>
    <path d="M299.55 1621.28c-2.5 4.12-1.07 9.56 3.2 12.17l.82.5c4.27 2.6 19.44-14.47 19.44-14.47 2.5-4.1-4-12.66-4-12.66-4.3-2.6-19.4 14.46-19.4 14.46z"/>
  </g>
  <path fill="#437013" d="M510.38 1829.47l-377.46-339.14s195.14 339.84 312.62 364.77c13.96 2.96 64.84-25.63 64.84-25.63z"/>
  <linearGradient id="m" x1="370.62" x2="237.72" y1="1456.76" y2="1686.94" gradientUnits="userSpaceOnUse" gradientTransform="rotate(19.56 278.172 1556.62)">
    <stop offset="0" stop-color="#FFF" stop-opacity="0"/>
    <stop offset="1" stop-color="#662D91"/>
  </linearGradient>
  <path fill="url(#m)" d="M554.9 1805.7c-.02-6.8-8.9-25.04-6.34-31.45 2.95-7.4 4.03-28.77 5.3-40.94 4.92-46.2-298.87-346.8-324.28-438.3-7.32 49.7 37.26 87.8 98.6 185.1-.16-.1-.3-.1-.48-.2l-.85-.3c-.22-.1-.48-.1-.74-.1-.9-1.8-2.4-3.3-4.4-4.1l-.5-.7c-.3-.1-.6-.1-.8-.3l-.3.2c-.8-2.3-2.7-4.5-5.3-5.6l-.9-.2h-.4l-.8-.8c-.7-2.5-2.5-4.6-5-5.7l-.2-.1-2.1-2.2c-.8-1.8-2.1-3.3-3.9-4.3-57.8-62.3-148.7-152.4-169.9-183.2-26.5 13.7 46.6 78.2 52.8 107.1-15-15.6-60.8-53.7-76.3-66.5-19.3 9.6 17.6 65.6 11 80-17.1-24.3-34.6-64-48.1-84.9-22.3 8.3 64 166.9 62.3 182.6-.7 7-61.2-53.2-119.6-39.4 95.2 39 88 41.9 102.8 61.4 21.5 28.2 42.1 54.2 61.8 78.2.7 4.2 5.9 8.9 5.9 8.9.4.2 1 .2 1.6.1 28.4 34.2 54.8 64 79.1 89.9 59.6 79.3 128.3 154.5 181.3 165.8 6.3 1.3 19.9-3.7 33-9.6 2.1.3 4.3.8 7.1 1.8 5.7 2.1 21.2 18.3 26.4 15.2 5.8-3.4 43-41.2 42.9-56.8z" opacity=".5"/>
  <linearGradient id="n" x1="606.64" x2="606.64" y1="1342.69" y2="1385.28" gradientUnits="userSpaceOnUse">
    <stop offset="0" stop-color="#F2AF09"/>
    <stop offset="1" stop-color="#B37048"/>
  </linearGradient>
  <path fill="url(#n)" d="M603.74 1385.28c1.07-1.6 10.65-7.98 9.6-19.7s-4.76-22.9-4.76-22.9-7.5 15.98-8.56 21.3 3.72 21.3 3.72 21.3z"/>
  <linearGradient id="o" x1="605.34" x2="605.34" y1="1346.98" y2="1380.69" gradientUnits="userSpaceOnUse" gradientTransform="matrix(1.2324 .2295 .2295 1.2265 -444.825 -438.96)">
    <stop offset="0" stop-color="#F2AF09"/>
    <stop offset="1" stop-color="#B37048"/>
  </linearGradient>
  <path fill="url(#o)" d="M601.76 1390.34c.02-2.23-5.45-16.6 3.9-23.84 9.32-7.24 21-11.42 21-11.42s-3.44 19.04-6.07 23.93c-2.7 4.9-18.9 11.4-18.9 11.4z"/>
  <linearGradient id="p" x1="452.78" x2="452.78" y1="1816.03" y2="1602.36" gradientUnits="userSpaceOnUse">
    <stop offset="0" stop-color="#F2AF09"/>
    <stop offset="1" stop-color="#B37048"/>
  </linearGradient>
  <path fill="url(#p)" d="M524.02 1602.36s-21.16 83.92-81.85 148.6c-60.7 64.7-52.5 63.8-55.36 65.07-2.5-1.4-6.4-3.3-4.9-5.12 18.4-22.3 75.9-85.9 89.9-107 20.5-31 48-101.5 48-101.5h4.4z"/>
  <linearGradient id="q" x1="596.23" x2="596.23" y1="1353.87" y2="1403.38" gradientUnits="userSpaceOnUse">
    <stop offset="0" stop-color="#F2AF09"/>
    <stop offset="1" stop-color="#B37048"/>
  </linearGradient>
  <path fill="url(#q)" d="M597.36 1403.38c1.06-1.6 9.6-11.43 5.6-28.87-4-17.4-5.6-20.6-5.6-20.6s-11.18 21.9-8.52 29.8 8.5 19.7 8.5 19.7z"/>
  <linearGradient id="r" x1="588.22" x2="588.22" y1="1375.7" y2="1430" gradientUnits="userSpaceOnUse">
    <stop offset="0" stop-color="#F2AF09"/>
    <stop offset="1" stop-color="#B37048"/>
  </linearGradient>
  <path fill="url(#r)" d="M588.43 1430s12.53-27.68 7.8-37.8c-4.73-10.1-12.72-16.5-12.72-16.5s-6.3 21.3-3.7 27.15c2.7 5.86 8.7 27.15 8.7 27.15z"/>
  <linearGradient id="s" x1="578.16" x2="578.16" y1="1397" y2="1452.36" gradientUnits="userSpaceOnUse">
    <stop offset="0" stop-color="#F2AF09"/>
    <stop offset="1" stop-color="#B37048"/>
  </linearGradient>
  <path fill="url(#s)" d="M579.14 1452.36c-.95-1.6 12.6-22.9 9.3-33-3.33-10.12-12.38-22.36-12.38-22.36s-10.1 18.63-8.52 27.68c1.6 9.05 11.6 27.68 11.6 27.68z"/>
  <linearGradient id="t" x1="568.11" x2="568.11" y1="1420.95" y2="1476.26" gradientUnits="userSpaceOnUse">
    <stop offset="0" stop-color="#F2AF09"/>
    <stop offset="1" stop-color="#B37048"/>
  </linearGradient>
  <path fill="url(#t)" d="M568.34 1476.26s15.68-26.5 11.68-36.87c-4-10.4-14.95-18.5-14.95-18.5s-11.52 20.7-9.22 27.6 12.5 27.6 12.5 27.6z"/>
  <linearGradient id="u" x1="558.29" x2="558.29" y1="1446.51" y2="1501.34" gradientUnits="userSpaceOnUse">
    <stop offset="0" stop-color="#F2AF09"/>
    <stop offset="1" stop-color="#B37048"/>
  </linearGradient>
  <path fill="url(#u)" d="M560.43 1501.35c.53-2.14 20.43-27.42 6.73-43.66-5.2-6.2-15.06-11.2-15.06-11.2s-7.98 17.5-7.45 22.6 15.78 32.2 15.78 32.2z"/>
  <linearGradient id="v" x1="548.38" x2="548.38" y1="1466.19" y2="1517.85" gradientUnits="userSpaceOnUse">
    <stop offset="0" stop-color="#F2AF09"/>
    <stop offset="1" stop-color="#B37048"/>
  </linearGradient>
  <path fill="url(#v)" d="M549.97 1517.85c1.07-1.6 17.78-20.63 6.5-36.74-11.3-16.1-17.14-14.9-17.14-14.9s-4.8 24-2.14 30.4 12.7 21.3 12.7 21.3z"/>
  <linearGradient id="w" x1="537.85" x2="537.85" y1="1491.59" y2="1541.81" gradientUnits="userSpaceOnUse">
    <stop offset="0" stop-color="#F2AF09"/>
    <stop offset="1" stop-color="#B37048"/>
  </linearGradient>
  <path fill="url(#w)" d="M541.46 1541.8c1.06-2.12 14.37-25.02 6.92-34.6-7.46-9.58-18.1-17.6-18.1-15.18 0 2.4-6.93 19.44-4.8 25.83s15.98 23.96 15.98 23.96z"/>
  <linearGradient id="x" x1="528.69" x2="528.69" y1="1511.99" y2="1566.29" gradientUnits="userSpaceOnUse">
    <stop offset="0" stop-color="#F2AF09"/>
    <stop offset="1" stop-color="#B37048"/>
  </linearGradient>
  <path fill="url(#x)" d="M531.87 1566.3c.53-2.67 13.03-23.43 5.98-37.8-7.04-14.38-19.3-16.5-19.3-16.5s-2.65 31.4 0 35.66c2.67 4.26 13.32 18.63 13.32 18.63z"/>
  <linearGradient id="y" x1="612.63" x2="612.63" y1="1371.62" y2="1406.85" gradientUnits="userSpaceOnUse">
    <stop offset="0" stop-color="#F2AF09"/>
    <stop offset="1" stop-color="#B37048"/>
  </linearGradient>
  <path fill="url(#y)" d="M595.24 1406.85c.36-1.88 1.18-14.9 16.3-24.48 15.1-9.6 18.48-10.75 18.48-10.75s-7.38 23.4-14.88 27.2c-7.5 3.8-19.9 8.03-19.9 8.03z"/>
  <linearGradient id="z" x1="603.71" x2="603.71" y1="1396.74" y2="1432.07" gradientUnits="userSpaceOnUse">
    <stop offset="0" stop-color="#F2AF09"/>
    <stop offset="1" stop-color="#B37048"/>
  </linearGradient>
  <path fill="url(#z)" d="M582.9 1432.07s10.52-28.5 21-32.38c10.47-3.9 20.64-2.9 20.64-2.9s-10.42 19.6-16.43 21.9c-6 2.3-25.2 13.2-25.2 13.2z"/>
  <linearGradient id="A" x1="603.14" x2="603.14" y1="1436.66" y2="1478.9" gradientUnits="userSpaceOnUse" gradientTransform="rotate(-6.47 429.287 1537.034)">
    <stop offset="0" stop-color="#F2AF09"/>
    <stop offset="1" stop-color="#B37048"/>
  </linearGradient>
  <path fill="url(#A)" d="M572.3 1462.26c1.97-.76 4.8-29.25 14.86-35.95 10.05-6.7 26.7-11.2 26.7-11.2s-4.03 23.7-11.8 30.7c-7.77 7-29.75 16.6-29.75 16.6z"/>
  <linearGradient id="B" x1="587.36" x2="587.36" y1="1442.16" y2="1476.79" gradientUnits="userSpaceOnUse">
    <stop offset="0" stop-color="#F2AF09"/>
    <stop offset="1" stop-color="#B37048"/>
  </linearGradient>
  <path fill="url(#B)" d="M568.33 1476.8s6.9-27.6 16.25-31.84c9.37-4.22 21.8-2.42 21.8-2.42s-5.88 21.13-11.9 24.18c-6 3.05-26.15 10.07-26.15 10.07z"/>
  <linearGradient id="C" x1="578.79" x2="578.79" y1="1466.52" y2="1496.68" gradientUnits="userSpaceOnUse">
    <stop offset="0" stop-color="#F2AF09"/>
    <stop offset="1" stop-color="#B37048"/>
  </linearGradient>
  <path fill="url(#C)" d="M560.43 1496.68c1.12-1.9 10.15-28.9 18.15-29.97 8-1 18.57 2.7 18.57 2.7s-6.66 18.1-10.6 21.4c-3.93 3.3-26.12 6-26.12 6z"/>
  <linearGradient id="D" x1="570.47" x2="570.47" y1="1489.63" y2="1521.6" gradientUnits="userSpaceOnUse">
    <stop offset="0" stop-color="#F2AF09"/>
    <stop offset="1" stop-color="#B37048"/>
  </linearGradient>
  <path fill="url(#D)" d="M548.54 1521.6c.37-1.88 1.84-27.16 21.2-30.7 19.34-3.54 22.66 1.43 22.66 1.43s-13.42 20.42-19.8 23.1c-6.4 2.67-24.06 6.17-24.06 6.17z"/>
  <linearGradient id="E" x1="559.32" x2="559.32" y1="1514.53" y2="1544.63" gradientUnits="userSpaceOnUse">
    <stop offset="0" stop-color="#F2AF09"/>
    <stop offset="1" stop-color="#B37048"/>
  </linearGradient>
  <path fill="url(#E)" d="M537.77 1544.63c.74-2.26 7.35-27.9 19.4-29.5 12.03-1.57 25.23.2 23.54 1.93-1.6 1.7-8.7 18.7-14.7 21.74-6 3.05-28.2 5.83-28.2 5.83z"/>
  <linearGradient id="F" x1="551.2" x2="551.2" y1="1535.74" y2="1568.79" gradientUnits="userSpaceOnUse">
    <stop offset="0" stop-color="#F2AF09"/>
    <stop offset="1" stop-color="#B37048"/>
  </linearGradient>
  <path fill="url(#F)" d="M527.4 1568.8c1.48-2.27 7.18-25.83 22.3-31.1 15.1-5.3 25.3 1.8 25.3 1.8s-20.16 24.22-25.05 25.38c-4.88 1.16-22.56 3.9-22.56 3.9z"/>
  <linearGradient id="G" x1="536.45" x2="536.45" y1="1561.92" y2="1593.27" gradientUnits="userSpaceOnUse">
    <stop offset="0" stop-color="#F2AF09"/>
    <stop offset="1" stop-color="#B37048"/>
  </linearGradient>
  <path fill="url(#G)" d="M512.78 1593.27s15.32-27.5 25.1-30.58c9.78-3.1 22.25 4 22.25 4s-14.57 17.8-19.82 20c-5.2 2.3-27.5 6.5-27.5 6.5z"/>
  <linearGradient id="H" x1="519.63" x2="519.63" y1="1541.81" y2="1593.98" gradientUnits="userSpaceOnUse">
    <stop offset="0" stop-color="#F2AF09"/>
    <stop offset="1" stop-color="#B37048"/>
  </linearGradient>
  <path fill="url(#H)" d="M525.08 1593.98s8.42-30.35 3.6-39.4c-4.8-9.05-18.64-12.77-18.64-12.77s-2.13 22.9 0 28.3c2.13 5.4 15.04 24 15.04 24z"/>
  <linearGradient id="I" x1="512.24" x2="512.24" y1="1567.89" y2="1616.34" gradientUnits="userSpaceOnUse">
    <stop offset="0" stop-color="#F2AF09"/>
    <stop offset="1" stop-color="#B37048"/>
  </linearGradient>
  <path fill="url(#I)" d="M519.64 1616.34c.52-2.66 9.6-23.96 0-35.14s-19.18-13.3-19.18-13.3 1.06 28.74 4.8 33.53c3.72 4.8 14.38 14.9 14.38 14.9z"/>
  <linearGradient id="J" x1="536.4" x2="536.4" y1="1580.16" y2="1616.87" gradientUnits="userSpaceOnUse">
    <stop offset="0" stop-color="#F2AF09"/>
    <stop offset="1" stop-color="#B37048"/>
  </linearGradient>
  <path fill="url(#J)" d="M517.77 1616.87c.6-2.65 1-25.8 14.33-32.08 13.32-6.3 22.94-4.4 22.94-4.4s-12.7 25.8-18.06 28.6c-5.35 2.8-19.2 7.7-19.2 7.7z"/>
  <linearGradient id="K" x1="532.42" x2="532.42" y1="1291.65" y2="1334.24" gradientUnits="userSpaceOnUse" gradientTransform="rotate(-13.457 553.866 1477.544)">
    <stop offset="0" stop-color="#F2AF09"/>
    <stop offset="1" stop-color="#B37048"/>
  </linearGradient>
  <path fill="url(#K)" d="M496.9 1343.8c.65-1.8 8.48-10.23 4.72-21.37-3.76-11.15-9.95-21.16-9.95-21.16s-3.57 17.27-3.36 22.7c.2 5.43 8.6 19.84 8.6 19.84z"/>
  <linearGradient id="L" x1="550.98" x2="550.98" y1="1315.54" y2="1349.24" gradientUnits="userSpaceOnUse" gradientTransform="matrix(1.252 -.0636 .5086 1.1394 -863.388 -153.938)">
    <stop offset="0" stop-color="#F2AF09"/>
    <stop offset="1" stop-color="#B37048"/>
  </linearGradient>
  <path fill="url(#L)" d="M496.13 1349.2c-.5-2.18-9.16-14.88-1.76-24.1 7.4-9.2 17.77-16 17.77-16s1.1 19.33-.33 24.7c-1.4 5.35-15.6 15.4-15.6 15.4z"/>
  <linearGradient id="M" x1="378.56" x2="378.56" y1="1764.99" y2="1551.31" gradientUnits="userSpaceOnUse" gradientTransform="rotate(-13.457 553.866 1477.544)">
    <stop offset="0" stop-color="#F2AF09"/>
    <stop offset="1" stop-color="#B37048"/>
  </linearGradient>
  <path fill="url(#M)" d="M469.87 1573.48s-1.05 86.54-45.02 163.58c-43.97 77.03-36.2 74.27-38.7 76.16-2.84-.75-7-1.73-6-3.83 12.67-26.1 53.8-101.3 62.47-125.1 12.7-34.9 23-109.9 23-109.9l4.25-1.1z"/>
  <linearGradient id="N" x1="522.01" x2="522.01" y1="1302.83" y2="1352.34" gradientUnits="userSpaceOnUse" gradientTransform="rotate(-13.457 553.866 1477.544)">
    <stop offset="0" stop-color="#F2AF09"/>
    <stop offset="1" stop-color="#B37048"/>
  </linearGradient>
  <path fill="url(#N)" d="M494.9 1362.9c.65-1.8 6.68-13.35-1.28-29.38s-10.26-18.77-10.26-18.77-5.8 23.83-1.34 30.98c4.44 7.14 12.87 17.17 12.87 17.17z"/>
  <linearGradient id="O" x1="514" x2="514" y1="1324.66" y2="1378.96" gradientUnits="userSpaceOnUse" gradientTransform="rotate(-13.457 553.866 1477.544)">
    <stop offset="0" stop-color="#F2AF09"/>
    <stop offset="1" stop-color="#B37048"/>
  </linearGradient>
  <path fill="url(#O)" d="M492.4 1390.87s5.74-29.84-1.2-38.58c-6.97-8.8-16.22-13.1-16.22-13.1s-1.26 22.2 2.7 27.2c3.95 5.1 14.72 24.4 14.72 24.4z"/>
  <linearGradient id="P" x1="503.95" x2="503.95" y1="1345.95" y2="1401.32" gradientUnits="userSpaceOnUse" gradientTransform="rotate(-13.457 553.866 1477.544)">
    <stop offset="0" stop-color="#F2AF09"/>
    <stop offset="1" stop-color="#B37048"/>
  </linearGradient>
  <path fill="url(#P)" d="M488.57 1414.78c-1.3-1.33 6.93-25.2 1.35-34.27-5.58-9-17.23-18.8-17.23-18.8s-5.5 20.5-1.9 28.9c3.6 8.5 17.7 24.3 17.7 24.3z"/>
  <linearGradient id="Q" x1="493.9" x2="493.9" y1="1369.91" y2="1425.22" gradientUnits="userSpaceOnUse" gradientTransform="rotate(-13.457 553.866 1477.544)">
    <stop offset="0" stop-color="#F2AF09"/>
    <stop offset="1" stop-color="#B37048"/>
  </linearGradient>
  <path fill="url(#Q)" d="M483.63 1440.53s9.08-29.42 2.77-38.58c-6.3-9.15-18.82-14.45-18.82-14.45s-6.38 22.86-2.53 29.04c3.85 6.2 18.58 24 18.58 24z"/>
  <linearGradient id="R" x1="484.08" x2="484.08" y1="1395.46" y2="1450.3" gradientUnits="userSpaceOnUse" gradientTransform="rotate(-13.457 553.866 1477.544)">
    <stop offset="0" stop-color="#F2AF09"/>
    <stop offset="1" stop-color="#B37048"/>
  </linearGradient>
  <path fill="url(#R)" d="M481.77 1466.77c.02-2.2 13.5-31.42-3.62-44.03-6.5-4.8-17.24-7.37-17.24-7.37s-3.6 18.95-1.9 23.75 22.9 27.65 22.9 27.65z"/>
  <linearGradient id="S" x1="474.16" x2="474.16" y1="1415.14" y2="1466.8" gradientUnits="userSpaceOnUse" gradientTransform="rotate(-13.457 553.866 1477.544)">
    <stop offset="0" stop-color="#F2AF09"/>
    <stop offset="1" stop-color="#B37048"/>
  </linearGradient>
  <path fill="url(#S)" d="M475.44 1485.25c.67-1.8 12.5-24.2-2.23-37.24-14.7-13-20.1-10.5-20.1-10.5s.9 24.5 5 30.1 17.4 17.8 17.4 17.8z"/>
  <linearGradient id="T" x1="463.64" x2="463.64" y1="1440.54" y2="1490.76" gradientUnits="userSpaceOnUse" gradientTransform="rotate(-13.457 553.866 1477.544)">
    <stop offset="0" stop-color="#F2AF09"/>
    <stop offset="1" stop-color="#B37048"/>
  </linearGradient>
  <path fill="url(#T)" d="M472.74 1510.53c.54-2.3 8.15-27.68-1.33-35.26-9.4-7.6-21.7-12.9-21.1-10.56.6 2.4-2.2 20.6 1.4 26.3s21.1 19.6 21.1 19.6z"/>
  <linearGradient id="U" x1="454.48" x2="454.48" y1="1460.95" y2="1515.25" gradientUnits="userSpaceOnUse" gradientTransform="rotate(-13.457 553.866 1477.544)">
    <stop offset="0" stop-color="#F2AF09"/>
    <stop offset="1" stop-color="#B37048"/>
  </linearGradient>
  <path fill="url(#U)" d="M469.1 1536.58c-.1-2.7 7.23-25.8-2.97-38.15-10.2-12.34-22.6-11.56-22.6-11.56s4.73 31.17 8.3 34.7c3.58 3.5 17.28 15 17.28 15z"/>
  <linearGradient id="V" x1="538.41" x2="538.41" y1="1320.57" y2="1355.81" gradientUnits="userSpaceOnUse" gradientTransform="rotate(-13.457 553.866 1477.544)">
    <stop offset="0" stop-color="#F2AF09"/>
    <stop offset="1" stop-color="#B37048"/>
  </linearGradient>
  <path fill="url(#V)" d="M493.63 1366.77c-.08-1.92-2.3-14.76 10.15-27.6 12.46-12.86 15.48-14.76 15.48-14.76s-1.73 24.5-8.15 30c-6.4 5.5-17.4 12.5-17.4 12.5z"/>
  <linearGradient id="W" x1="529.5" x2="529.5" y1="1345.7" y2="1381.03" gradientUnits="userSpaceOnUse" gradientTransform="rotate(-13.457 553.866 1477.544)">
    <stop offset="0" stop-color="#F2AF09"/>
    <stop offset="1" stop-color="#B37048"/>
  </linearGradient>
  <path fill="url(#W)" d="M487.5 1394.17s3.6-30.18 12.88-36.38c9.3-6.3 19.43-7.6 19.43-7.6s-5.5 21.5-10.8 25.1c-5.3 3.6-21.4 18.7-21.4 18.7z"/>
  <linearGradient id="X" x1="535.15" x2="535.15" y1="1377.57" y2="1419.82" gradientUnits="userSpaceOnUse" gradientTransform="rotate(-19.926 515.85 1501.675)">
    <stop offset="0" stop-color="#F2AF09"/>
    <stop offset="1" stop-color="#B37048"/>
  </linearGradient>
  <path fill="url(#X)" d="M484.23 1426c1.73-1.2-2.14-29.58 6.08-38.43 8.3-8.85 23.4-17.18 23.4-17.18s1.6 24-4.3 32.5-25 23-25 23z"/>
  <linearGradient id="Y" x1="513.14" x2="513.14" y1="1391.12" y2="1425.75" gradientUnits="userSpaceOnUse" gradientTransform="rotate(-13.457 553.866 1477.544)">
    <stop offset="0" stop-color="#F2AF09"/>
    <stop offset="1" stop-color="#B37048"/>
  </linearGradient>
  <path fill="url(#Y)" d="M483.74 1441.05s.28-28.45 8.4-34.74c8.13-6.2 20.64-7.4 20.64-7.4s-.8 21.9-5.94 26.3c-5.13 4.4-23.1 15.9-23.1 15.9z"/>
  <linearGradient id="Z" x1="504.57" x2="504.57" y1="1415.47" y2="1445.63" gradientUnits="userSpaceOnUse" gradientTransform="rotate(-13.457 553.866 1477.544)">
    <stop offset="0" stop-color="#F2AF09"/>
    <stop offset="1" stop-color="#B37048"/>
  </linearGradient>
  <path fill="url(#Z)" d="M480.7 1462.23c.63-2.1 3.13-30.45 10.66-33.36 7.54-2.9 18.67-1.78 18.67-1.78s-2.26 19.1-5.33 23.2c-3.08 4-24 11.9-24 11.9z"/>
  <linearGradient id="aa" x1="496.26" x2="496.26" y1="1438.58" y2="1470.56" gradientUnits="userSpaceOnUse" gradientTransform="rotate(-13.457 553.866 1477.544)">
    <stop offset="0" stop-color="#F2AF09"/>
    <stop offset="1" stop-color="#B37048"/>
  </linearGradient>
  <path fill="url(#aa)" d="M474.93 1489.23c-.1-1.9-4.54-26.84 13.46-34.8 17.9-7.93 22.3-3.87 22.3-3.87s-8.3 22.98-13.9 27.07c-5.6 4.08-22 11.6-22 11.6z"/>
  <linearGradient id="ab" x1="485.1" x2="485.1" y1="1463.48" y2="1493.59" gradientUnits="userSpaceOnUse" gradientTransform="rotate(-13.457 553.866 1477.544)">
    <stop offset="0" stop-color="#F2AF09"/>
    <stop offset="1" stop-color="#B37048"/>
  </linearGradient>
  <path fill="url(#ab)" d="M469.8 1514.14c.2-2.37.67-28.85 12-33.2 11.34-4.33 24.6-5.67 23.35-3.6-1.24 2.05-4.14 20.2-9.27 24.57-5.13 4.4-26.07 12.3-26.07 12.3z"/>
  <linearGradient id="ac" x1="476.99" x2="476.99" y1="1484.69" y2="1517.75" gradientUnits="userSpaceOnUse" gradientTransform="rotate(-13.457 553.866 1477.544)">
    <stop offset="0" stop-color="#F2AF09"/>
    <stop offset="1" stop-color="#B37048"/>
  </linearGradient>
  <path fill="url(#ac)" d="M465.34 1540.06c.92-2.56.98-26.8 14.44-35.44 13.48-8.65 25.05-4.14 25.05-4.14s-13.98 28.25-18.46 30.52c-4.48 2.27-21.03 9.06-21.03 9.06z"/>
  <linearGradient id="ad" x1="462.24" x2="462.24" y1="1510.88" y2="1542.23" gradientUnits="userSpaceOnUse" gradientTransform="rotate(-13.457 553.866 1477.544)">
    <stop offset="0" stop-color="#F2AF09"/>
    <stop offset="1" stop-color="#B37048"/>
  </linearGradient>
  <path fill="url(#ad)" d="M456.82 1567.26s8.5-30.32 17.3-35.58 22.57-1.28 22.57-1.28-10.1 20.7-14.7 24.14c-4.6 3.45-25.3 12.72-25.3 12.72z"/>
  <linearGradient id="ae" x1="445.42" x2="445.42" y1="1490.76" y2="1542.94" gradientUnits="userSpaceOnUse" gradientTransform="rotate(-13.457 553.866 1477.544)">
    <stop offset="0" stop-color="#F2AF09"/>
    <stop offset="1" stop-color="#B37048"/>
  </linearGradient>
  <path fill="url(#ae)" d="M468.95 1565.1s1.12-31.48-5.65-39.17c-6.8-7.68-21.1-8.1-21.1-8.1s3.24 22.78 6.55 27.46c3.3 4.6 20.2 19.8 20.2 19.8z"/>
  <linearGradient id="af" x1="438.02" x2="438.02" y1="1516.85" y2="1565.3" gradientUnits="userSpaceOnUse" gradientTransform="rotate(-13.457 553.866 1477.544)">
    <stop offset="0" stop-color="#F2AF09"/>
    <stop offset="1" stop-color="#B37048"/>
  </linearGradient>
  <path fill="url(#af)" d="M468.86 1588.1c-.1-2.7 3.75-25.53-8.18-34.17s-21.74-8.48-21.74-8.48 7.72 27.7 12.46 31.5c4.74 3.8 17.46 11.15 17.46 11.15z"/>
  <linearGradient id="ag" x1="462.19" x2="462.19" y1="1529.12" y2="1565.82" gradientUnits="userSpaceOnUse" gradientTransform="rotate(-13.457 553.866 1477.544)">
    <stop offset="0" stop-color="#F2AF09"/>
    <stop offset="1" stop-color="#B37048"/>
  </linearGradient>
  <path fill="url(#ag)" d="M467.17 1589.05c-.03-2.7-5.02-25.32 6.47-34.54 11.5-9.2 21.3-9.5 21.3-9.5s-6.34 28.1-10.9 32.1c-4.53 4.1-16.87 12-16.87 12z"/>
  <linearGradient id="ah" x1="271.75" x2="271.75" y1="2106.28" y2="2360.88" gradientUnits="userSpaceOnUse">
    <stop offset="0" stop-color="#A16661"/>
    <stop offset="1" stop-color="#663139"/>
  </linearGradient>
  <path fill="url(#ah)" d="M49.23 2162.3c-103.34 129.76 356.6 308.58 447.33 109.7 70.7-154.97-175.1-132.28-188.96-133.1-112.35-6.74-173.86-82.7-258.37 23.4z"/>
  <path fill="#DFD9C9" d="M260.65 2132.12s-19 13.6 34.25 18.76c40.83 3.96 26.05-12.34 25.7-12.32-.13 0-12.96.64-25.87-.76-16.55-1.77-34.08-5.68-34.08-5.68z"/>
  <linearGradient id="ai" x1="48.28" x2="158.5" y1="2300.43" y2="2420.7" gradientUnits="userSpaceOnUse" gradientTransform="rotate(102.504 107.667 2354.935)">
    <stop offset="0" stop-color="#E9CB6B"/>
    <stop offset="1" stop-color="#E9AE6B"/>
  </linearGradient>
  <path fill="url(#ai)" d="M75.25 2431.22c30.98 12.9 117.04-32.2 117.05-65.78 0-39.02-39.1-128.23-141.3-76.4-33.85 17.18-44.5 113.52 24.25 142.18z"/>
  <path fill="#F4E7B3" d="M63.43 2282.95c13.73-4.08-35.77 59.04-36.57 44.74-.5-8.9 8.9-24.9 13.8-30.8 4.65-5.6 15.24-11.8 22.77-14z"/>
  <path fill="#DEBE97" d="M367 2297.3c-7.6-10-14.73-50.1-25.45-56.66-30.3-18.6-112.84 3.97-139.5 27.5-28.97 25.57-63.75 111.25-48.53 146.78 15.48 36.12 92.34 101.4 129.6 88.92 82.86-27.75 126.58-150.4 83.88-206.54z"/>
  <g opacity=".4">
    <defs>
      <path id="aj" d="M367 2297.3c-7.6-10-14.73-50.1-25.45-56.66-30.3-18.6-112.84 3.97-139.5 27.5-28.97 25.57-63.75 111.25-48.53 146.78 15.48 36.12 92.34 101.4 129.6 88.92 82.86-27.75 126.58-150.4 83.88-206.54z" opacity=".4"/>
    </defs>
    <clipPath id="al">
      <use xlink:href="#aj" overflow="visible"/>
    </clipPath>
    <radialGradient id="ak" cx="243.21" cy="2313.36" r="182.46" gradientTransform="matrix(1.1696 0 0 1 -65.468 0)" gradientUnits="userSpaceOnUse">
      <stop offset="0" stop-color="#DEE0DB"/>
      <stop offset="1" stop-color="#DEBE97"/>
    </radialGradient>
    <path fill="url(#ak)" d="M20 2119.36h398v388H20z" clip-path="url(#al)"/>
  </g>
  <path fill="#DFD9C9" d="M309.25 2258.73c-3.77-3.74-23.74-4.9-20.95 3.5 2.8 8.37 16.76 20.24 20.95 18.15 4.2-2.1 3.84-17.84 0-21.65z"/>
</svg>
