<svg xmlns="http://www.w3.org/2000/svg" xmlns:xlink="http://www.w3.org/1999/xlink" viewBox="0 0 555.41 315.06">
  <path fill="#58385E" d="M541.12 74.37C499.62-10 399.24 57.93 309.22 64.22 98.06 78.97 93.45 242.18 202.72 287.36c141.14 58.37 381.63-125.08 338.4-213z"/>
  <path fill="#5E7628" d="M542.6 77.7c4.97 10.03 4.75 33.02 2.37 41.96-5.88 22.14-56.4 72.27-64.65 64.95-15.73-12.5.05-63.3-11.56-79.7-10.98-15.6-68.6-16.9-67.32-36 8.28-3.7 45.32-10.4 53-23 2.03-3.3-2.68-7.2-.1-10.1 4.66-5.2 21.96-4.8 28.7-2.8 2.37.7 5.8 5.2 8.3 5.6 3.6.5 10.3-2.6 13.82-1.7 4.58 1.2 12.1 8.8 16.82 9.4 7.05.8 16.36-13.8 23-11.3 6.9 2.6-3.86 11.1 10.43 27.7-1.3 7.2-11 8.3-12.8 15.3z"/>
  <linearGradient id="a" x1="343.77" x2="343.77" y1="31.46" y2="298.61" gradientUnits="userSpaceOnUse">
    <stop offset="0" stop-color="#FFF" stop-opacity="0"/>
    <stop offset=".14" stop-color="#D5D4E2" stop-opacity=".14"/>
    <stop offset=".37" stop-color="#9490B6" stop-opacity=".37"/>
    <stop offset=".58" stop-color="#605B93" stop-opacity=".58"/>
    <stop offset=".76" stop-color="#3A3479" stop-opacity=".76"/>
    <stop offset=".91" stop-color="#231D6A" stop-opacity=".91"/>
    <stop offset="1" stop-color="#1B1464"/>
  </linearGradient>
  <path fill="url(#a)" d="M555.4 62.38c-14.28-16.6-3.5-25.06-10.43-27.66-6.63-2.5-15.94 12.1-23 11.3-4.7-.54-12.23-8.12-16.8-9.35-1.07-.28-2.43-.2-3.9.06-5.76-1.98-11.83-3.22-18.17-3.83-.03 0-.05-.02-.07-.03-5.42-1.64-17.7-2.24-24.7.34-44.8 4.6-98.6 27.5-149.1 31.1C98.05 79 93.43 242.2 202.73 287.4 314.5 333.6 488.6 228.13 534.7 138.6c5.12-7.12 8.9-13.8 10.27-18.94 2.38-8.94 2.6-31.92-2.38-41.96 1.7-7.05 11.4-8.2 12.8-15.32z" opacity=".4"/>
  <path fill="#EE1B08" d="M287.67 173.87c0 74-68.18 133.6-142.14 131-75.53-2.66-130.2-57-130.2-131S76.67 40.32 164.73 40.32c74 0 122.94 59.54 122.94 133.55z"/>
  <path fill="#7D9D38" d="M153.42 100.62c-1.98 1.6-7.42-.05-9.75-1.25-2.52-1.3-4.96-7.3-7.75-7.75-6.94-1.13-26.18 11.25-28.6 11.25-14.9 0-101.4-24.25-107.32 10.67-.06-39.67 71.23-11.93 89.33-21.33 4.6-13.8-54.16-44.3-49.16-61 7.4 8.6 13 14.3 31 19.5 20 5.9 25.75 28.8 43.5 17.6 8.75-5.5-8.5-30.8-1.34-41.3 11.1 9.3 15.67 58.2 19.46 49.5 4.6-10.6 21-13 32.3-31.1 7.2-11.6 6.7-28.6 12.5-37.1 6.1-9.1 7.9-8.2 9-8-.9 1.2-1.1-.2-7 9.8-5.2 8.7-1.7 26-8 38.6-8.3 16.6-25.8 28.7-26.2 37.7-.2 4.5 5.2 7.9 7.9 14.4z"/>
  <g opacity=".5">
    <defs>
      <path id="b" d="M287.67 173.87c0 74-68.18 133.6-142.14 131-75.53-2.66-130.2-57-130.2-131S76.67 40.32 164.73 40.32c74 0 122.94 59.54 122.94 133.55z" opacity=".5"/>
    </defs>
    <clipPath id="d">
      <use xlink:href="#b" overflow="visible"/>
    </clipPath>
    <radialGradient id="c" cx="84.47" cy="129.98" r="201.02" gradientTransform="matrix(.9288 0 0 1 35.38 0)" gradientUnits="userSpaceOnUse">
      <stop offset="0" stop-color="#FFF" stop-opacity="0"/>
      <stop offset=".19" stop-color="#C0C0C0" stop-opacity=".19"/>
      <stop offset=".41" stop-color="#7C7C7C" stop-opacity=".41"/>
      <stop offset=".61" stop-color="#474747" stop-opacity=".61"/>
      <stop offset=".78" stop-color="#202020" stop-opacity=".78"/>
      <stop offset=".92" stop-color="#090909" stop-opacity=".92"/>
      <stop offset="1"/>
    </radialGradient>
    <path fill="url(#c)" d="M-90.17-50.52h408v361h-408z" clip-path="url(#d)"/>
  </g>
  <path fill="#A5C44C" d="M466.5 241.73l21.92-.8 42.4.55v-8l3.35-8.5-12.67-1.5-3.33-3.67 6-1.6-1.5-10.8-60.34 10.2"/>
  <path fill="#DD7236" d="M49.17 269.9c-34.67 11.58-21 43.9-2.34 43.58 34.77-.62 94.5 5.87 156-3.67 139.67-21.6 282.44-9.5 270-82.3-9.33-54.6-96.33-21.6-200.66 4-51.22 12.6-106.52 20.5-157.67 29-21.63 3.6-46.2 3-65.33 9.4z"/>
  <linearGradient id="e" x1="274.39" x2="289.17" y1="222.65" y2="306.47" gradientUnits="userSpaceOnUse">
    <stop offset="0" stop-color="#FFF" stop-opacity="0"/>
    <stop offset=".08" stop-color="#F8E7E7" stop-opacity=".08"/>
    <stop offset=".33" stop-color="#E5A3A6" stop-opacity=".33"/>
    <stop offset=".56" stop-color="#D56E72" stop-opacity=".56"/>
    <stop offset=".75" stop-color="#CA474C" stop-opacity=".75"/>
    <stop offset=".9" stop-color="#C33035" stop-opacity=".9"/>
    <stop offset="1" stop-color="#C1272D"/>
  </linearGradient>
  <path fill="url(#e)" d="M521.5 223.48l-3.33-3.67 6-1.6-1.5-10.8-53.38 9c-19.4-38.4-100.9-8.4-197.2 15.2-51.2 12.6-106.5 20.6-157.7 29-21.7 3.6-46.2 3.1-65.4 9.5-34.7 11.6-21 43.9-2.4 43.6 34.7-.6 94.5 5.9 156-3.6 129.9-20.1 262.5-11 270.4-68.3l15.2-.5 42.4.6v-8l3.3-8.5-12.7-1.5z" opacity=".2"/>
</svg>
