<svg xmlns="http://www.w3.org/2000/svg" width="555.41" height="315.06" xmlns:xlink="http://www.w3.org/1999/xlink">
  <path fill="#BFB5A9" d="M579.75-2261.1c-.83-.4-9.47 11.9-7.66 17.07.6 1.9 6.5 5.1 8.5 3.87 10.5-6.43 11.3-41.04-.9-20.95z"/>
  <path fill="#3D2D1E" d="M114.95-1935.82c4.74 2.9 19.03 4.54 22.25 0 4.74-6.68-26.78-52.62-29.23-61.2-7.52-26.3 18-89.2-.44-109.4-1.25-1.37-57.34 16.58-64.3 33.3-7.85 18.93 25.88 49.74 27.2 52 17 28.9 32.43 63.68 44.52 85.3z"/>
  <path fill="#BFB5A9" d="M87.75-2147.1c-16.4 1.72-25.72 25.85-30.13 38.9-5.1 15.02-11.37 38.35-2.55 53.24 2.58 4.34 6.85 7.9 11.18 10.37 2.6 1.5 5.3 2.7 8.14 3.5 7.2 2.3 2.5 2.7 6.6 7.7 2.8 3.5 6.9.6 9-2 6.5-8.5 5.5.8 10.5 4.4 7.3 5.4 7.4-9.2 11.3-10.1 1.2 0 3.4 9.3 8.4 8.6 4.1-.5 5.8-6.4 5.1-9.9.1-.2.3-7 2.6-2.3 1.6 3.3 6.3 8.9 10.6 7.4 3.2-1.2 3.6-4.9 3.2-7.9-1.2-8.2-1.5-5.6 6.9-11.3 15.3-10.3 15.1-22.9 14.2-39.7-2.2-42.7-36.6-54.7-75.2-50.6-24.6 2.6 82.8-8.7 0 0z"/>
  <path fill="#3D2D1E" d="M345.5-2072.74c1.87 17.93 3.94 41.82 6.8 57.18 1.44 7.63 6.22 22.55 6.8 30.3.85 11.1-4.58 41.63 1.86 50.73 2.7 3.8 17.8 1.93 21.64-.67 28.6-19.32 6.8-135.54 6.18-137.93-.62-2.4-44.45-11.03-43.27.4zM20.4-2111.9c2.87-26.05 12.87 5 12.94 5.6.07.6 1.44 12.25 1.87 16.33 1.9 17.8-12.1 62.26-15.5 65.95-1.9 2.1-4.8-51.2-4.8-53.43-.2-8.72 4.7-25.78 5.6-34.46z"/>
  <path fill="#664926" d="M31.04-2175.96c2.3 10.66 9.9 41.4 8.65 71.85-.6 14.4-21.6 32.7-19.7 47.1 5.8 44.2 6 108 18.5 130.7 3.8 3.3 19.2 3.6 22.5-.3.9-23.7-16.1-35.7-11.6-80.2 2.3-23.5 22.1-54.7 32.9-75.6 10.9-21.2 55.3-37 69.5-25.7 6.7 5.4 3.6 31.1 8.5 38.3 8.3 12.2 39.3 16.1 53.9 18.2 36.5 5.2 122.6-26 151.1-2.5 7.4 44.5 9.5 104.6 12.3 132.4 3.7 3.9 28.8 8.7 27.2-.8-5.9-36.5-7.5-59-1-80.6 3-10.3 2.2-29.9 2.8-41.3 8-.2 47.8-13.8 64.3-38.8 9.8-14.9 31.9-53.7 49.4-53.6 17.6.1 54.1 5.8 69.2 16.2 13 9 35-4.9 33.1-17.6-.3-1.9-20.3-45.6-24.1-62-.8-3.2.6-10.3-1.3-13-18.7-27.2-15.6-50.1-25.5-48.2-12.8 2.4-10.2 11.9-11.3 9.4-1.3-1.7-5.7-13.9-12.1-15.1-11.5-2.2-11.2 16.2-9.4 19.6-111.1 4.6-100.5-8.4-135.6-14.6-59.8-10.6-198 6.7-256.8-8.5-19.6-5-45-8.2-64.6-8.7-32.5-.8-42.4 14.7-51 27.1-1 1.4-10.3 11.6-11.6 15.9-.5 1.4 7.2 31 2.8 77.4-6.9 72 13.2 61.8 10.5 51.8-5-18.2-2.3-69.7-2.2-69.4z"/>
  <path fill="#BFB5A9" d="M586.93-2294.1c-.65-.63-.25.08.02.58 11.4 21.34-21.7 36.37-21.7 41.84 0 2 4.65 7.42 6.8 6.5 7.86-3.42 34.43-32.22 14.88-48.92z"/>
  <linearGradient id="a" x1="318.98" x2="318.98" y1="-2354.01" y2="-1745.64" gradientUnits="userSpaceOnUse">
    <stop offset="0" stop-color="#FFF"/>
    <stop offset="1"/>
  </linearGradient>
  <path fill="url(#a)" d="M623.05-2137.83c-.27-1.84-20.26-45.56-24.1-61.93-.75-3.18.6-10.3-1.24-12.98-7.6-11.15-11.6-21.56-14.3-29.85 4-5 5.9-14.4 5.3-20 6-10.1 8.8-22.5-1.7-31.4-.6-.6-.2.1 0 .6 7.4 13.8-3.8 25-12.7 32.6-.6-.1-1.3-.1-2 0-12.7 2.4-10.2 11.9-11.2 9.5-1.2-1.6-5.7-13.8-12-15-11.4-2.2-11.1 16.3-9.4 19.6-111 4.7-100.4-8.4-135.6-14.6-59.8-10.6-197.9 6.7-256.7-8.4-19.5-5-44.9-8.2-64.6-8.7-32.4-.8-42.3 14.7-51 27.1-1 1.4-10.2 11.7-11.6 15.9-.4 1.4 7.2 31 2.8 77.4-1.6 17.6-1.7 30.2-.9 39.2-.5 1.6-1 4-1.4 7.3-.9 8.7-5.8 25.8-5.6 34.5.1 2.2 3 55.5 4.9 53.4.7-.8 1.8-3.2 3.2-6.7 3.6 40.2 5.6 85.9 15.8 104.4 3.9 3.3 19.3 3.6 22.6-.3.9-23.6-16.1-35.7-11.6-80.2.9-8.7 4.1-18.4 8.4-28.3 6.2 7.5 11.9 13 12.5 13.9 17 28.9 32.5 63.7 44.5 85.3 4.8 2.9 19.1 4.6 22.3 0 4.7-6.7-26.8-52.6-29.2-61.2-2.8-10-.9-25.3 1.6-41.6.7-1.3 1.4-2.4 2.3-2.6 1.3 0 3.5 9.4 8.4 8.6 4.2-.6 5.8-6.4 5.1-9.9.1-.2.3-7 2.6-2.4 1.6 3.3 6.3 8.9 10.7 7.4 3.2-1.2 3.6-4.9 3.2-7.9-1.1-8.2-1.5-5.7 6.9-11.3 6-4 9.6-8.4 11.7-13.2l.2.4c8.3 12.2 39.3 16.1 53.9 18.2 30.4 4.4 94.9-16.4 132.2-10.1 1.6 15.9 3.4 33.7 5.7 46 1.5 7.6 6.2 22.6 6.8 30.3.9 11.1-4.6 41.6 1.9 50.7 1.9 2.7 10 2.6 15.9 1.3l1 11.8c3.7 3.9 28.9 8.7 27.3-.8-5.8-36.5-7.4-59-.9-80.6 3.1-10.2 2.2-29.8 2.8-41.3 8-.1 47.9-13.8 64.3-38.7 9.8-14.8 31.9-53.6 49.4-53.5 17.6.1 54.1 5.8 69.2 16.3 13 9 35-4.8 33.1-17.6zM39.7-2104.1c-.18 4.18-2.05 8.68-4.58 13.32-.4-3.8-1.3-11.43-1.64-14.35-.02-.2-.04-.4-.08-.62l-.06-.54-.25-.8c-4.8-18.7-2.2-69.1-2.1-68.8 2.3 10.7 9.9 41.4 8.6 71.9z"/>
  <path fill="#BF9582" d="M341.44-1217c-2.34-.3-12.94 63-14.9 63.65s-21.93 10.4-18.9 15.78c7.15-1.44 12.95-6.97 17.06-5.22.37 10.4 2 16.6 22.8 27.3.85-3.1-1.8-9.7-7.7-13.2 6.08-1.5 34.72 3.6 42.58 3.1-12.77-14.7-35.78-14.1-37.38-16.3-8.44-11.9-1.1-49.7 7.25-59.1-.63-4.3-6.47-15.2-10.8-15.8z"/>
  <path fill="#BF9582" d="M371.94-1229.44c-2.36.13-.83 64.3-2.63 65.3s-19.5 14.37-15.6 19.07c6.8-2.76 11.5-9.28 15.8-8.34 2.3 10 5.1 15.9 27.6 22.4.3-3.3-3.6-9.2-10-11.6 5.7-2.7 34.8 5.5 42.4 3.5-15.3-12.1-37.8-15.7-39.8-17.6-10.5-10.1-13.6-62.2-7.2-72.9-1.4-4.1-6-.3-10.4 0z"/>
  <path fill="#D8D8D8" d="M533.78-1576.32c1.1-2.53 9.6-16.85 8.1-22.67-1.9-7.2-15.4-17.5-22.64-19.3-16.6-4-53.85 4-66.65 15.4-50 44.4-27.1 69.5-37.8 91-6.2 12.5-15.5 38.1-27.1 45.8-10.2 6.8-12.6 10.2-48.2 15.7-43.4-6.6-64.4 17-84 2.4-3-2.2-1.1-11.4 0-15 18-58.3 2.3-161.9-36-152.3-8 2 8.3 27.7 5.5 37.7-4-17.3-20.9-27.7-32.6-21-21.3-4-11.3 14-11.3 14-16.7 2-23.4 21.7-22.7 24-17.4-13.6-35.4 22.7-27.4 24-5.7 2.4-4.7 5.8-5.5 8.7-31.5 1.7-19.7 23.3-17.9 30-39 11.3-5.6 33.3 3.2 42.7-3.6 10.8-2.6 33.6 20.7 50.6-12.4 13.3-10.6 20-6 26.7 4.9 7.3 21.5 15.4 28.6 20.7 9.8 57.2 103.8 166.2 183.4 139.2 4.1 3.9 9 17.8 14.7 17.4 26.4-2.1 23.7-18.8 32.7-20.6 40.4-8.3 131.9-89.3 149-140.7 13.6-40.7-28.1-134.8-19.6-177 2-9.6 15.3-27.9 19.2-37z"/>
  <path fill="#936565" d="M500.62-1564.82c3.5 28 17.85 21.46 25.5 19 23.37-2 20.25-27.38 11.62-34.25-10.4-8.3-19.62 8.5-37.12 15.25z"/>
  <path fill="#BF9582" d="M532.83-1578.4c1.88-.45 6.25-1.8 8.22-1.5 3.94.64 5.32.5 15.7 1.7.88.1 2.87 1.86 3.37 1.13 1.18-9.36-9.8-18.35-15.97-18.88-4.07-.35-10.38 6.92-12.35 10.5-.68 1.25-.57 6.1 1.03 7.04z"/>
  <path fill="#936565" d="M512.5-1619.9c-1-4.26-.46-16.5 3.93-16.3 2.62.13 8.46-1.9 9.67-1.07 1.75 1.2 1.06 5.12.92 5.62-.08.28-.2.97.08.64 1.4-1.7 3.92-2.8 5.14-2 1.97 1.3.56 3.2-.47 5.8-.08.2.02.9.25.7 1.94-2.1 4.73-3.8 6.35-2.3 2.3 2.1-.66 6.8-1.94 9.5-.1.2.43-.1.63-.1 3.32-.5 3.52-1.3 5.56-.4 5.8 2.8 14.6 18.8 10.25 23.6-2.63 2.9-11.82-.6-15.5-1.9-7.57-2.7-23.08-14.3-24.88-22.1z"/>
  <linearGradient id="b" x1="324.83" x2="324.83" y1="-1637.47" y2="-1115.57" gradientUnits="userSpaceOnUse">
    <stop offset="0" stop-color="#FFF" stop-opacity="0"/>
    <stop offset="1" stop-color="#3F4568"/>
  </linearGradient>
  <path fill="url(#b)" d="M547.7-1594.95c2.22.27 4.17.08 5.17-1 4.34-4.76-4.45-20.83-10.25-23.62-2.04-.98-2.24-.17-5.56.34-.2.03-.73.3-.63.1 1.28-2.7 4.24-7.36 1.94-9.5-1.62-1.5-4.4.16-6.35 2.23-.23.23-.33-.47-.25-.7 1.03-2.65 2.44-4.58.47-5.87-1.22-.8-3.75.33-5.14 1.96-.28.3-.16-.4-.08-.7.14-.5.83-4.4-.92-5.6-1.2-.9-7.05 1.2-9.67 1-4.4-.2-4.93 12-3.94 16.3 0 .2.1.4.1.6-18.4-1.2-48.8 6.2-60.1 16.3-50 44.3-27.1 69.4-37.8 90.9-6.2 12.4-15.5 38-27.1 45.7-10.2 6.8-12.5 10.1-48.2 15.6-43.4-6.7-64.4 17-84 2.3-3-2.2-1.1-11.4 0-15 18-58.3 2.3-161.9-36-152.3-8 2 8.3 27.7 5.5 37.7-4-17.3-20.9-27.7-32.6-21-21.4-4-11.4 14-11.4 14-16.7 2-23.4 21.7-22.7 24-17.4-13.7-35.4 22.7-27.4 24-5.6 2.3-4.6 5.8-5.5 8.7-31.5 1.6-19.7 23.3-17.8 30-39 11.3-5.5 33.2 3.2 42.7-3.6 10.8-2.5 33.6 20.8 50.6-12.3 13.3-10.5 19.9-6 26.7 5 7.3 21.6 15.4 28.7 20.6 9.7 57.3 103.7 166.3 183.3 139.3.8.7 1.6 1.9 2.5 3.2-3.5 10.6-12.2 61.2-13.9 61.8-2 .6-22 10.4-18.9 15.7 7.2-1.4 13-7 17.1-5.2.3 10.4 2 16.6 22.8 27.2.8-3.2-1.8-9.7-7.7-13.3 6.1-1.6 34.7 3.5 42.6 3.1-12.8-14.8-35.8-14.2-37.4-16.4-8.4-11.8-1.2-49.2 7-58.9h.6c8.6-.7 14.1-2.9 17.9-5.7-.2 18.6-.1 41.9-1.2 42.5-1.8 1-19.6 14.3-15.6 19 6.8-2.8 11.4-9.3 15.8-8.4 2.3 10.1 5.1 15.9 27.5 22.4.2-3.2-3.6-9.2-10.1-11.6 5.7-2.6 34.7 5.5 42.4 3.6-15.3-12-37.9-15.7-39.8-17.5-8.2-7.9-11.9-41.1-10.1-60.5 1.6-2.3 3.2-4.1 5.8-4.6 40.3-8.4 131.9-89.4 149-140.7 13.5-40.8-28.1-134.9-19.7-177 .3-1.2.7-2.6 1.3-4.1 3.7-.1 7.4-1.6 10.2-2.5 23-2 20.4-26.5 12.1-33.9 1.1-.2 2.2-.3 2.9-.2 3.9.6 5.3.5 15.7 1.7.8.1 2.8 1.8 3.3 1.1 1-7.8-6.3-15.3-12.4-17.9zm-4.5-.95c-.42.07-.87.2-1.33.4.04-.26.08-.5.1-.76.4.12.82.25 1.24.36z" opacity=".3"/>
  <path fill="#AF9D95" d="M163-583.16c-.06 2.4-14.65 60.9-8 80 10.95 31.5 92.48 92.88 89.33 95.33-6 4.67-48.8 3.76-50.13.43S109-467.83 75-491.16c-33.9-23.24-46.1-144.34-10-164 26.7-14.55 98.68 41.6 98 72zm193.33 68.66c2.3 1.37-6 54.82 15.33 108.25 2.78 6.97-29.33 1.6-30 0s-44.3-59.24-37.33-80.25c4.65-14 39.32-35.57 52-28zm195.33-242c7.24-11.98 39.67-30.33 53.58-31.13 6.03-.34-9.5 18.6-10.9 24.47-2.47 10.23 1.32 47 .65 43.66s-50.3-25.58-43.4-37z"/>
  <path fill="#D8BBAF" d="M123-581.16c-8.5 3.9-18.1 21.9-21.34 30.66-6.33 17.13-9.08 54.5-7.33 72.67 3 31.02 28.58 83.25 35.58 125-3 3.4-20.6 3.6-24.2 3.67-14-4.92-34.6-16.67-48-84.67-7-13.85-21.4-41.66-25.3-56.67-3.1-11.98.8-38.18-4.6-49.33-2.4-5-13.4-20.25-16-15.33-2.5 4.83 5.6 30.07 2.6 37-.4.98-1.7 2.6-2.3 1.58C3-532.2 1.5-546.58.5-556.5c-80.68-119.08-54-178.73-5.34-214 176.66-128 277.6-14.96 370-22 210-16 240 74.67 276.66 108.67 8.6 8 34.8 14.13 40 24.67 24.65-16.67 28 38.66-4.7 46-3.6 4.6-16.4 6.2-22 8-22.55 7.22-67.83 22.2-91.32 25.33-44.74 5.97-131.34 34-175.33 30.67-13.45-1.02-24.9 37.47-33.33 48-43.5 54.26-27.54 58-20 123.33-10 3.85-33.8.97-37.1-23.7-.63-4.67-14.9-56.64-15.54-78.3-.65-21.34-12.87-52.92-14.66-83.33-34-10.67-105.4-14.67-144.7-18z"/>
  <path fill="#AF9D95" d="M495-689.13c3.26-.66 37.55-32.38 46-46.62 9.26-15.6-7.64-79.23-20.34-71.4-21.67 13.32-15.06 38.6-17.33 51-3.15 17.15-21.33 69.65-8.33 67z"/>
  <linearGradient id="c" x1="324.83" x2="324.83" y1="-831.88" y2="-349.16" gradientUnits="userSpaceOnUse">
    <stop offset="0" stop-color="#FFF" stop-opacity="0"/>
    <stop offset=".19" stop-color="#D9C0C0" stop-opacity=".19"/>
    <stop offset=".41" stop-color="#B07C7C" stop-opacity=".41"/>
    <stop offset=".61" stop-color="#8F4747" stop-opacity=".61"/>
    <stop offset=".78" stop-color="#782020" stop-opacity=".78"/>
    <stop offset=".92" stop-color="#690909" stop-opacity=".92"/>
    <stop offset="1" stop-color="#640000"/>
  </linearGradient>
  <path fill="url(#c)" d="M681.66-659.16c-5.2-10.54-31.38-16.68-40-24.67-13.62-12.64-26.33-33.1-47.7-53-.54-9.92-.83-21.32.37-26.33 1.4-5.88 16.94-24.8 10.9-24.47-11.43.66-35.4 13.2-47.57 24.3-5.14-2.88-10.62-5.64-16.5-8.23-4.24-20.37-13.08-40.17-20.5-35.6-9.84 6.05-13.84 14.58-15.5 23.24-34.95-9.02-80.22-13.15-140.16-8.58-92.4 7.04-193.34-106-370 22-48.68 35.27-75.34 94.92 5.33 214 .96 9.93 2.5 24.3 11.58 39.92.6 1.03 2-.6 2.4-1.6 3-6.9-5.1-32.15-2.6-36.98 2.6-4.92 13.6 10.34 16 15.33 5.4 11.15 1.5 37.35 4.7 49.33 4 15 18.4 42.82 25.4 56.67 13.4 68 34 79.75 48 84.67 3.6-.06 21.2-.26 24.3-3.67-7-41.75-32.6-93.98-35.5-125v-.1c39.1 26.8 98.8 67.72 99.9 70.52 1.4 3.3 44.2 4.2 50.2-.5 3.2-2.5-78.3-63.9-89.3-95.4-5.5-16.1 3.8-59.9 7-74.9 37.3 3 81.2 7.2 105.7 14.9 1.8 30.4 14 62 14.7 83.3.7 21.6 14.9 73.6 15.6 78.3 3.3 24.6 27.1 27.5 37.1 23.7-2.6-22.5-6.2-37.7-8-50.2 7.8 12.1 14.5 21.1 14.7 21.7.7 1.6 32.8 7 30 0-15.7-39.4-15.3-78.7-15-97.3 8.3-13 19.1-46.6 31.7-45.6 44 3.3 130.6-24.7 175.3-30.7 23.5-3.2 68.8-18.1 91.4-25.4 5.6-1.8 18.4-3.4 22-8 32.7-7.4 29.4-62.7 4.7-46z" opacity=".3"/>
  <path fill="#58385E" d="M541.12 74.37C499.62-10 399.24 57.93 309.22 64.22 98.06 78.97 93.45 242.18 202.72 287.36c141.14 58.37 381.63-125.08 338.4-213z"/>
  <path fill="#5E7628" d="M542.6 77.7c4.97 10.03 4.75 33.02 2.37 41.96-5.88 22.14-56.4 72.27-64.65 64.95-15.73-12.5.05-63.3-11.56-79.7-10.98-15.6-68.6-16.9-67.32-36 8.28-3.7 45.32-10.4 53-23 2.03-3.3-2.68-7.2-.1-10.1 4.66-5.2 21.96-4.8 28.7-2.8 2.37.7 5.8 5.2 8.3 5.6 3.6.5 10.3-2.6 13.82-1.7 4.58 1.2 12.1 8.8 16.82 9.4 7.05.8 16.36-13.8 23-11.3 6.9 2.6-3.86 11.1 10.43 27.7-1.3 7.2-11 8.3-12.8 15.3z"/>
  <linearGradient id="d" x1="343.77" x2="343.77" y1="31.46" y2="298.61" gradientUnits="userSpaceOnUse">
    <stop offset="0" stop-color="#FFF" stop-opacity="0"/>
    <stop offset=".14" stop-color="#D5D4E2" stop-opacity=".14"/>
    <stop offset=".37" stop-color="#9490B6" stop-opacity=".37"/>
    <stop offset=".58" stop-color="#605B93" stop-opacity=".58"/>
    <stop offset=".76" stop-color="#3A3479" stop-opacity=".76"/>
    <stop offset=".91" stop-color="#231D6A" stop-opacity=".91"/>
    <stop offset="1" stop-color="#1B1464"/>
  </linearGradient>
  <path fill="url(#d)" d="M555.4 62.38c-14.28-16.6-3.5-25.06-10.43-27.66-6.63-2.5-15.94 12.1-23 11.3-4.7-.54-12.23-8.12-16.8-9.35-1.07-.28-2.43-.2-3.9.06-5.76-1.98-11.83-3.22-18.17-3.83-.03 0-.05-.02-.07-.03-5.42-1.64-17.7-2.24-24.7.34-44.8 4.6-98.6 27.5-149.1 31.1C98.05 79 93.43 242.2 202.73 287.4 314.5 333.6 488.6 228.13 534.7 138.6c5.12-7.12 8.9-13.8 10.27-18.94 2.38-8.94 2.6-31.92-2.38-41.96 1.7-7.05 11.4-8.2 12.8-15.32z" opacity=".4"/>
  <path fill="#EE1B08" d="M287.67 173.87c0 74-68.18 133.6-142.14 131-75.53-2.66-130.2-57-130.2-131S76.67 40.32 164.73 40.32c74 0 122.94 59.54 122.94 133.55z"/>
  <path fill="#7D9D38" d="M153.42 100.62c-1.98 1.6-7.42-.05-9.75-1.25-2.52-1.3-4.96-7.3-7.75-7.75-6.94-1.13-26.18 11.25-28.6 11.25-14.9 0-101.4-24.25-107.32 10.67-.06-39.67 71.23-11.93 89.33-21.33 4.6-13.8-54.16-44.3-49.16-61 7.4 8.6 13 14.3 31 19.5 20 5.9 25.75 28.8 43.5 17.6 8.75-5.5-8.5-30.8-1.34-41.3 11.1 9.3 15.67 58.2 19.46 49.5 4.6-10.6 21-13 32.3-31.1 7.2-11.6 6.7-28.6 12.5-37.1 6.1-9.1 7.9-8.2 9-8-.9 1.2-1.1-.2-7 9.8-5.2 8.7-1.7 26-8 38.6-8.3 16.6-25.8 28.7-26.2 37.7-.2 4.5 5.2 7.9 7.9 14.4z"/>
  <g opacity=".5">
    <defs>
      <path id="e" d="M287.67 173.87c0 74-68.18 133.6-142.14 131-75.53-2.66-130.2-57-130.2-131S76.67 40.32 164.73 40.32c74 0 122.94 59.54 122.94 133.55z" opacity=".5"/>
    </defs>
    <clipPath id="g">
      <use xlink:href="#e" overflow="visible"/>
    </clipPath>
    <radialGradient id="f" cx="84.47" cy="129.98" r="201.02" gradientTransform="matrix(.9288 0 0 1 35.38 0)" gradientUnits="userSpaceOnUse">
      <stop offset="0" stop-color="#FFF" stop-opacity="0"/>
      <stop offset=".19" stop-color="#C0C0C0" stop-opacity=".19"/>
      <stop offset=".41" stop-color="#7C7C7C" stop-opacity=".41"/>
      <stop offset=".61" stop-color="#474747" stop-opacity=".61"/>
      <stop offset=".78" stop-color="#202020" stop-opacity=".78"/>
      <stop offset=".92" stop-color="#090909" stop-opacity=".92"/>
      <stop offset="1"/>
    </radialGradient>
    <path fill="url(#f)" d="M-90.17-50.52h408v361h-408z" clip-path="url(#g)"/>
  </g>
  <path fill="#A5C44C" d="M466.5 241.73l21.92-.8 42.4.55v-8l3.35-8.5-12.67-1.5-3.33-3.67 6-1.6-1.5-10.8-60.34 10.2"/>
  <path fill="#DD7236" d="M49.17 269.9c-34.67 11.58-21 43.9-2.34 43.58 34.77-.62 94.5 5.87 156-3.67 139.67-21.6 282.44-9.5 270-82.3-9.33-54.6-96.33-21.6-200.66 4-51.22 12.6-106.52 20.5-157.67 29-21.63 3.6-46.2 3-65.33 9.4z"/>
  <linearGradient id="h" x1="274.39" x2="289.17" y1="222.65" y2="306.47" gradientUnits="userSpaceOnUse">
    <stop offset="0" stop-color="#FFF" stop-opacity="0"/>
    <stop offset=".08" stop-color="#F8E7E7" stop-opacity=".08"/>
    <stop offset=".33" stop-color="#E5A3A6" stop-opacity=".33"/>
    <stop offset=".56" stop-color="#D56E72" stop-opacity=".56"/>
    <stop offset=".75" stop-color="#CA474C" stop-opacity=".75"/>
    <stop offset=".9" stop-color="#C33035" stop-opacity=".9"/>
    <stop offset="1" stop-color="#C1272D"/>
  </linearGradient>
  <path fill="url(#h)" d="M521.5 223.48l-3.33-3.67 6-1.6-1.5-10.8-53.38 9c-19.4-38.4-100.9-8.4-197.2 15.2-51.2 12.6-106.5 20.6-157.7 29-21.7 3.6-46.2 3.1-65.4 9.5-34.7 11.6-21 43.9-2.4 43.6 34.7-.6 94.5 5.9 156-3.6 129.9-20.1 262.5-11 270.4-68.3l15.2-.5 42.4.6v-8l3.3-8.5-12.7-1.5z" opacity=".2"/>
  <path fill="#437013" d="M460.86 1030.62c5.77-3.45 42.94-41.2 42.88-56.8-.02-6.8-8.9-25.04-6.34-31.45 2.95-7.4 4.02-28.77 5.3-40.94 4.92-46.27-298.87-346.8-324.28-438.35-7.8 53.03 43.5 92.82 111.22 205.63-38.66-50-182.14-188.6-209.54-228.4-26.54 13.7 46.6 78.2 52.82 107-15.08-15.5-60.9-53.7-76.3-66.5-19.37 9.6 17.57 65.7 11 80-17.17-24.2-34.67-64-48.2-84.9-22.3 8.3 64 167 62.33 182.6-.74 7-61.2-53.2-119.66-39.4 95.1 39 88 41.9 102.8 61.4C245 917.6 366 999.5 389.1 1007.7c31.1 11.06 30.6 2.4 45.3 7.72 5.73 2.07 21.17 18.33 26.4 15.2z"/>
  <path fill="#FEC02D" d="M489.2 928.28c2.55-2.28 4.34-4.06 4.34-4.06 1.7-2.4 2-5.34 1.1-7.9 1.58-1.47 2.6-2.47 2.6-2.47 2.77-3.93 1.84-9.36-2.1-12.15l-.73-.53c-.4-.32-1-.38-1.7-.25.5-3.34-1-6.8-4-8.68l-.8-.48c-.2-.15-.5-.23-.8-.25 0-2.8-1.4-5.6-4.1-7.3l-.8-.5c-.6-.3-1.4-.3-2.4.1.5-3.3-1-6.7-4-8.6l-.8-.5c-.2-.1-.6-.2-.9-.2 0-2.9-1.5-5.7-4.1-7.4l-.8-.5c-.2-.1-.4-.2-.7-.2-.6-1.9-1.8-3.6-3.7-4.8l-.8-.5-.3-.1c-.3-2.2-1.5-4.4-3.5-5.8l-.7-.5c-.3-.2-.6-.3-.9-.3.2-2.9-1.1-5.8-3.6-7.6l-.7-.5c-.4-.3-1-.4-1.8-.2-.3-2.3-1.5-4.5-3.6-6l-.7-.5c-.3-.2-.6-.3-.9-.3.2-2.9-1.1-5.8-3.6-7.6l-.8-.5c-.5-.3-1.1-.4-1.9-.2-.3-2.4-1.5-4.6-3.6-6.1l-.7-.5c-.4-.3-1-.4-1.8-.3.5-3.3-1-6.8-4-8.7l-.8-.5c-.2-.1-.5-.2-.8-.2 0-2.9-1.4-5.7-4.1-7.3l-.7-.5c-.6-.4-1.5-.3-2.5 0 .5-3.3-1-6.7-4-8.6l-.7-.4c-.3-.2-.6-.2-.9-.2 0-2.9-1.4-5.7-4.1-7.3l-.8-.5c-.2-.1-.4-.1-.7-.2-.6-1.9-1.8-3.6-3.7-4.8l-.7-.4c-.3-.2-.7-.2-1.2-.2-.2-2.6-1.6-5.1-4-6.6l-.8-.5c-.3-.1-.6-.2-1-.2 0-2.9-1.4-5.7-4.1-7.4l-.8-.5c-.2-.1-.5-.2-.8-.2 0-2.9-1.5-5.6-4.1-7.3l-.8-.4c-.5-.3-1.1-.3-1.9-.1-.4-2.3-1.8-4.5-3.93-5.8l-.8-.4c-.3-.1-.6-.2-1-.2-.1-2.9-1.5-5.7-4.2-7.4l-.8-.4c-.62-.4-1.52-.3-2.6.1-.23-2.8-1.9-5.5-4.6-7l-.8-.5c-.23-.1-.52-.2-.9-.2-.2-2.8-1.8-5.5-4.6-7l-.8-.4c-.6-.3-1.4-.2-2.4.2.26-3.3-1.43-6.6-4.6-8.3l-.8-.4c-.5-.3-1.2-.3-2 0-.54-2.3-2.03-4.4-4.32-5.6l-.8-.44c-.2-.1-.46-.1-.7-.1-.8-1.9-2.1-3.56-4-4.6l-.8-.4c-.3-.1-.6-.2-.9-.2-.4-2.8-2.1-5.4-4.8-6.7l-.8-.4c-.3-.1-.6-.2-1-.1-.3-2.9-2-5.6-4.8-7l-.8-.4c-.5-.2-1.1-.2-1.8.1-.7-2.3-2.3-4.25-4.5-5.4l-.9-.4c-.3-.1-.63-.2-1-.1-.3-2.9-2.03-5.57-4.82-6.9l-.8-.4c-.5-.3-1.1-.2-1.9 0-.6-2.3-2.2-4.3-4.5-5.4l-.8-.4c-.5-.2-1.04-.2-1.7 0l-.2-.2c-.1-3.3-2.1-6.4-5.33-7.7l-.87-.3c-.26-.1-.56-.2-.9-.1-.5-2.9-2.4-5.4-5.25-6.6l-.9-.4c-.5-.2-1.2-.1-1.94.2l-.5-.5c-.4-3-2.3-5.8-5.3-7.1l-.9-.3c-.3-.1-.6-.13-1-.1-.5-2.9-2.35-5.4-5.2-6.6l-.9-.4c-.22-.1-.5-.1-.74-.1-.9-1.8-2.4-3.3-4.4-4.1l-.8-.44c-.4-.2-.9 0-1.1-.2h-.1c-.8-2.4-2.53-4.7-5.2-5.8l-.84-.3c-.3-.1-.66-.1-1 0-.5-2.82-2.4-5.4-5.3-6.53l-.85-.4c-.2-.1-.5-.1-.9-.1-.5-2.8-2.4-5.33-5.2-6.5l-.85-.34c-.5-.2-1.2-.1-1.9.2-.8-2.2-2.5-4.1-4.88-5.1l-.9-.3c-.3-.1-.6-.14-.97-.1-.5-2.84-2.4-5.4-5.3-6.6l-.8-.3c-.7-.3-1.5-.1-2.4.5l-.2-.2c-.8-2.68-2.8-4.9-5.6-5.9l-.9-.3c-.3-.08-.6-.1-.9 0-.7-2.8-2.7-5.2-5.6-6.2l-.84-.3c-.6-.2-1.25-.08-2 .32l-.56-.4c-.6-3.1-2.7-5.7-5.8-6.8l-.9-.3c-.6-.2-1.2 0-2 .4-.92-2.2-2.73-4-5.2-4.85l-.84-.3c-.3-.04-.5-.05-.8-.02-1-1.7-2.6-3.1-4.7-3.8l-.9-.3c-.4-.14-.9-.1-1.4.1-1.2-2.6-3.5-4.5-6.5-5-1.22-2.44-3.6-4.3-6.6-4.7l-.8-.1c-1-3.1-3.6-5.44-7-5.9l-.9-.13c-.3 0-.6 0-.9.2-1.2-2.7-3.7-4.7-6.8-5.1l-.9-.2c-.3-.03-.6 0-.9.1-1.2-2.64-3.63-4.6-6.7-5l-.9-.15c-.6-.1-1.2.1-1.8.6-1.33-1.94-3.43-3.36-6-3.7l-.9-.1c-.3-.04-.62 0-1 .16-1.13-2.7-3.6-4.7-6.7-5.1l-.9-.1c-.74-.1-1.53.34-2.34 1.15-1.35-2.5-3.9-4.3-7-4.53h-.9c-.46 0-.94.18-1.4.5-.9-2.24-2.75-4.14-5.3-5.04l-.85-.3c-1.3-.5-3.3.9-5.3 3.15-1-1.1-2.2-1.94-3.7-2.5l-.9-.3c-1.6-.52-4 1.5-6.43 4.4-.9-.8-1.9-1.5-3.2-2l-.8-.3c-.95-.3-2.2.3-3.53 1.47-.8-1.1-1.8-2.1-3.1-2.7l-.8-.4c-4.3-2.1-17.7 16.4-17.7 16.4-.4.9-.4 2-.2 3.2-2.4 1.9-3.9 3.9-3.5 5.3l.3.8c.15.58.36 1.08.6 1.5-3.8 2.7-6.9 5.5-6.3 7.4l.26.9c.3.97.77 1.8 1.3 2.5-1.6 1.6-2.6 3.07-2.2 4.2l.2.88c.3.8.6 1.5 1 2.2-.5.6-.8 1.2-.8 1.8l.1.9c.2 2.2 1.2 4.1 2.6 5.6-.1.2-.2.4-.23.7l-.1.9c-.5 3.6 1.2 7.1 4.12 8.8-.56.5-.9 1.1-.9 1.6v.9c0 3.1 1.5 5.8 3.9 7.4-.8.7-1.4 1.4-1.3 2.2v.9c.1 3.1 1.9 5.76 4.4 7.2-.15.3-.24.6-.23.96l.1.9c.1 2.6 1.3 4.8 3.2 6.3-.5.6-.8 1.2-.8 1.7l.05.9c.2 3.1 1.9 5.8 4.4 7.2-.1.3-.2.6-.2.9l.1.95c.1 3.1 1.9 5.8 4.4 7.2-.2.3-.2.64-.2 1v.9c.1 3.4 2.3 6.3 5.2 7.6v.8c.2 3 1.8 5.5 4.1 7 .2 3 1.9 5.5 4.4 6.9-.25.5-.34 1-.24 1.4l.2.9c.5 2.1 1.76 3.8 3.4 5-.1.23-.1.5 0 .72l.2.9c.6 2.5 2.2 4.5 4.3 5.6-.5.7-.7 1.3-.5 1.9l.2.9c.8 3.45 3.6 5.9 6.9 6.55-.7.8-1 1.6-.86 2.3l.2.9c.7 3 2.9 5.3 5.7 6.2-.1.3-.1.6-.1.9l.2.9c.7 3 2.9 5.2 5.6 6.2-.7.9-1 1.8-.8 2.5l.3.8c.9 3 3.3 5.1 6.1 5.9-.1.32-.1.65 0 .95l.23.9c.7 2.5 2.45 4.3 4.6 5.3-.4.7-.55 1.3-.4 1.8l.3.9c.9 2.9 3.23 5.1 6 5.86-.06.3-.06.6.03.9l.26.9c.9 3 3.2 5.1 6 5.9-.1.4-.1.7 0 1l.3.9c.8 2.7 2.8 4.7 5.3 5.7-.1.4-.2.8-.1 1.2l.3.9c.6 2.04 2 3.7 3.7 4.8-.1.2-.1.5 0 .7l.27.9c.9 3 3.24 5.1 6.04 5.84-.1.4-.1.7 0 1l.3.9c1 3.4 4 5.7 7.3 6.1-.6.9-.9 1.7-.7 2.4l.3.9c.9 3 3.26 5.1 6 5.86-.05.3-.05.6 0 .9l.27.84c1.04 3.45 4 5.75 7.4 6.1-.3.7-.4 1.3-.2 1.8l.3.88c.9 2.4 2.74 4.2 4.94 5-.3.7-.4 1.3-.2 1.8l.3.9c1.1 3 3.6 4.9 6.5 5.5-.1.4-.1.7 0 1l.3.9c.9 2.4 2.7 4.1 4.9 5-.3.7-.4 1.3-.2 1.8l.3.9c1.1 2.9 3.6 4.87 6.4 5.45-.1.36-.1.7 0 1l.3.85c1.1 2.9 3.5 4.8 6.3 5.4 0 .34 0 .64.1.9l.4.86c.8 2 2.3 3.5 4.1 4.4 0 .3 0 .5.1.8l.37.8c1 2.4 2.9 4 5.2 4.8-.3.7-.4 1.4-.2 2l.3.8c1.4 3.3 4.5 5.3 7.9 5.35-.5.9-.7 1.8-.43 2.4l.4.83c1.18 2.87 3.7 4.75 6.55 5.25 0 .3 0 .6.1.8l.4.8c1.2 2.9 3.7 4.76 6.5 5.27-.5 1-.7 1.9-.4 2.5l.4.8c1.4 2.8 4.03 4.5 6.9 4.8 0 .34 0 .7.16.95l.4.9c1.1 2.3 3.12 3.9 5.4 4.58-.27.7-.3 1.3-.07 1.9l.4.8c1.4 2.7 4 4.5 6.9 4.8 0 .3.1.6.2.8l.4.8c1.4 2.8 4.1 4.5 6.92 4.8 0 .4 0 .7.2 1l.4.8c1.2 2.58 3.6 4.2 6.2 4.7-.1.47-.1.87.1 1.2l.4.8c1 1.98 2.6 3.38 4.5 4.17 0 .26 0 .5.1.7l.4.8c1.4 2.8 4.1 4.5 7 4.8 0 .4 0 .7.2 1l.4.8c1.4 2.88 4.2 4.58 7.2 4.8l.7.7c-.25.7-.3 1.3 0 1.8l.4.8c1.4 2.8 4 4.5 6.9 4.8 0 .3 0 .6.15.8l.4.9c1.4 2.8 4 4.5 6.9 4.8l1.2 1.1c.1.3.1.55.3.8l.4.8c1.3 2.2 3.33 3.6 5.6 4.1l.03.04c-.2.76-.2 1.4.1 1.88l.47.8c1.5 2.7 4.3 4.26 7.2 4.4 0 .3 0 .7.2.9l.4.8c1.2 2.2 3.3 3.6 5.6 4.2-.2.7-.2 1.3.1 1.8l.4.8c1.55 2.7 4.33 4.2 7.23 4.3 0 .37.1.7.2.98l.5.75c1.2 2.16 3.2 3.57 5.47 4.1l.2.4.4.8c1 2 2.6 3.4 4.5 4.16 0 .3.1.5.2.73l.4.8c1.4 2.8 4.1 4.5 7 4.75 0 .4.03.7.2 1l.4.8c1.6 3.2 4.8 5 8.2 4.8-.5.95-.67 1.8-.3 2.4l.4.8c1.33 2.8 4 4.5 6.9 4.8 0 .3 0 .6.12.9l.4.8c1.6 3.2 6.1 1.56 9.5 1.4-.2.8-.2 1.4.04 1.8l.5.8c2.4 4.2 10 4.5 14.2 2.1 0 0 1.1-.9 2.7-2.3 2.5 1.17 5.4 1.1 8-.3 0 0 .57 1.14 4.5-2.9 1.06-.1 2.1-.4 3-1 0 0 .37-.2.9-.7.7-.4 1.33-.8 1.95-1.3l.8.75c2.97 1.2 9.26-6.7 13.2-12.3l.9 1.1c3.5 1.7 12.7-9.8 16.3-14.46l.1.1c4.3 2.1 17.67-16.4 17.67-16.4.6-1.1.9-2.3.9-3.5 5.66-3.2 14.7-15.8 14.7-15.8 1.5-3 1-6.3-.8-8.9z"/>
  <defs>
    <path id="i" d="M431.3 989.62c6.7-17.3 53.64-47.3 53.52-66.64-.43-66.38-315.7-434.4-397.46-364.33-80.22 68.75 309.1 520.8 343.94 430.97z"/>
  </defs>
  <clipPath id="j">
    <use xlink:href="#i" overflow="visible"/>
  </clipPath>
  <g fill="#FFE8CA" opacity=".5" clip-path="url(#j)">
    <path d="M127.58 612.55c1.8-3.37-.2-7.94-4.46-10.2l-.8-.42c-4.26-2.26-16.07 11.67-16.07 11.67-1.8 3.37 5.26 10.63 5.26 10.63 4.3 2.25 16.1-11.68 16.1-11.68zm-35.23-11.7c-3.8 1.43-8.27-1.06-9.95-5.57l-.33-.85c-1.68-4.5 14.75-14.83 14.75-14.83 3.8-1.42 10.28 6.44 10.28 6.44 1.68 4.5-14.75 14.82-14.75 14.82z"/>
    <path d="M122.77 572.34c2.5-4.12 1.2-9.47-2.93-11.97l-.78-.48c-4.1-2.5-19.1 14.6-19.1 14.6-2.5 4.1 3.7 12.4 3.7 12.4 4.12 2.5 19.1-14.7 19.1-14.7z"/>
    <path d="M123.4 591.45c2.8-3.93 1.86-9.37-2.07-12.15l-.74-.53c-4-2.78-20.2 13.3-20.2 13.3-2.8 3.92 2.8 12.68 2.8 12.68 3.9 2.77 20.1-13.3 20.1-13.3zm14.5 85.65c2.32-4.22.77-9.52-3.45-11.83l-.8-.43c-4.23-2.3-18.43 15.54-18.43 15.54-2.3 4.22 4.27 12.26 4.27 12.26 4.2 2.3 18.4-15.54 18.4-15.54z"/>
    <path d="M146.28 666.4c4.47-1.8 9.6.52 11.46 5.17l.36.9c1.86 4.63-17.5 16.77-17.5 16.77-4.45 1.8-11.8-6.06-11.8-6.06-1.87-4.65 17.48-16.78 17.48-16.78zm40.12 77.1c-3.57 1.17-7.83-1.33-9.5-5.6l-.34-.8c-1.68-4.26 13.64-13.22 13.64-13.22 3.57-1.18 9.84 6.4 9.84 6.4 1.68 4.26-13.64 13.22-13.64 13.22z"/>
    <path d="M198.33 751.5c1.9-3.32 0-7.8-4.24-10.02l-.8-.42c-4.3-2.2-16.6 11.55-16.6 11.55-1.9 3.4 5 10.5 5 10.5 4.2 2.2 16.6-11.5 16.6-11.5z"/>
    <path d="M166.15 775.62c-4.4 1.72-9.53-.26-11.47-4.43l-.37-.8c-1.9-4.2 17.1-15.6 17.1-15.6 4.4-1.8 11.9 5.2 11.9 5.2 2 4.1-17 15.6-17 15.6zm224.1 55.13c-4.48 1.54-9.52-.66-11.25-4.9l-.34-.8c-1.73-4.25 17.77-14.86 17.77-14.86 4.48-1.6 11.58 5.7 11.58 5.7 1.8 4.2-17.7 14.8-17.7 14.8z"/>
    <path d="M378.57 836.98c-2.35 3.88-.72 8.97 3.64 11.36l.9.46c4.4 2.4 18.9-13.8 18.9-13.8 2.4-3.9-4.4-11.82-4.4-11.82-4.3-2.4-18.9 13.8-18.9 13.8zm50.13 60.72c2.26-3.08.93-7.9-2.96-10.72l-.74-.55c-3.9-2.82-17.55 9.3-17.55 9.3-2.25 3.1 3.7 11.26 3.7 11.26 3.9 2.8 17.56-9.3 17.56-9.3z"/>
    <path d="M433.47 911.43c-3.98.87-8.04-2.23-9.07-6.93l-.2-.9c-1.03-4.7 16.7-12.6 16.7-12.6 3.97-.86 9.26 7.83 9.26 7.83 1.03 4.7-16.7 12.6-16.7 12.6z"/>
    <path d="M467.6 887.48c3.06-3.72 2.5-9.2-1.2-12.26l-.7-.58c-3.73-3.06-21 11.84-21 11.84-3.06 3.72 1.9 12.84 1.9 12.84 3.74 3.05 21-11.84 21-11.84z"/>
    <path d="M465.54 906.5c3.3-3.5 3.15-9.02-.34-12.33l-.66-.63c-3.5-3.3-21.78 10.33-21.78 10.33-3.3 3.5 1 12.95 1 12.95 3.5 3.3 21.78-10.33 21.78-10.33zm-25.72 49.37c2.88-3.85 2.1-9.3-1.77-12.2l-.73-.55c-3.86-2.87-20.43 12.8-20.43 12.8-2.9 3.85 2.5 12.74 2.5 12.74 3.8 2.88 20.4-12.8 20.4-12.8z"/>
    <path d="M449.6 946.46c4.7-1.15 9.44 1.87 10.63 6.74l.23.92c1.18 4.87-19.68 14.15-19.68 14.15-4.68 1.14-10.84-7.67-10.84-7.67-1.2-4.86 19.67-14.14 19.67-14.14zM330.05 857.8c3.74-.62 7.5 2.6 8.44 7.2l.1.86c.9 4.6-15.8 11.3-15.8 11.3-3.8.62-8.6-8.07-8.6-8.07-1-4.6 15.7-11.3 15.7-11.3z"/>
    <path d="M319.66 847.8c-2.46 3.07-1.37 7.93 2.44 10.85l.72.55c3.8 2.9 18.4-9.1 18.4-9.1 2.46-3.1-3.17-11.43-3.17-11.43-3.8-2.9-18.4 9.12-18.4 9.12z"/>
    <path d="M355.65 828.37c4.65-1.06 9.38 1.76 10.57 6.3l.22.87c1.2 4.54-19.52 13.18-19.52 13.18-4.65 1.06-10.8-7.18-10.8-7.18-1.2-4.54 19.53-13.17 19.53-13.17z"/>
    <path d="M337.62 822.02c4.54-1.38 9.46 1.12 10.98 5.57l.3.8c1.5 4.4-18.5 14.5-18.5 14.5-4.55 1.4-11.28-6.4-11.28-6.4-1.5-4.5 18.5-14.5 18.5-14.5zm-3.4-67.36c4.7-.86 9.3 2.17 10.27 6.76l.1.87c.9 4.5-20.2 12.2-20.2 12.2-4.7.8-10.5-7.7-10.5-7.7-1-4.6 20.1-12.3 20.1-12.3z"/>
    <path d="M346.84 750.18c3-3.58 2.28-9-1.6-12.12l-.76-.6c-3.9-3.12-21.05 11.04-21.05 11.04-3 3.58 2.36 12.72 2.36 12.72 3.8 3.12 21-11.04 21-11.04zm-118.86-99.04c-4.12 1.17-7.6-2.54-7.74-8.28l-.02-1.1c-.15-5.75 19-15.9 19-15.9 4.13-1.2 7.77 9.36 7.77 9.36.1 5.75-19.1 15.92-19.1 15.92z"/>
    <path d="M237.3 662.83c3.2-4.16 2.93-10.23-.63-13.55l-.67-.64c-3.56-3.3-21.43 13.43-21.43 13.43-3.2 4.16 1.3 14.18 1.3 14.18 3.57 3.33 21.44-13.42 21.44-13.42zm-88.2-23.1c-5.17 1.8-9.73-1.3-10.18-6.96l-.1-1.08c-.43-5.7 23.4-18.7 23.4-18.7 5.18-1.8 10.27 8 10.27 8 .4 5.6-23.4 18.7-23.4 18.7z"/>
    <path d="M213.3 697.38c-5.14 2.2-9.96-.48-10.77-6l-.16-1.04c-.8-5.5 22.52-20.28 22.52-20.28 5.1-2.2 10.9 7.03 10.9 7.03.8 5.5-22.5 20.2-22.5 20.2zM363.7 970.4c3.28-.9 6.2 2 6.53 6.47l.06.85c.3 4.5-14.7 12.37-14.7 12.37-3.3.9-6.6-7.4-6.6-7.4-.4-4.5 14.7-12.4 14.7-12.4z"/>
    <path d="M355.8 961.27c-2.42 3.23-1.98 7.97 1 10.56l.56.5c2.98 2.6 16.73-10.42 16.73-10.42 2.4-3.2-1.6-11-1.6-11-3-2.6-16.8 10.5-16.8 10.5z"/>
    <path d="M388.7 939.3c4.08-1.4 7.86 1.05 8.42 5.45l.1.84c.57 4.4-18.1 14.5-18.1 14.5-4.1 1.4-8.54-6.3-8.54-6.3-.56-4.4 18.1-14.6 18.1-14.6z"/>
    <path d="M373.84 934.4c4.05-1.72 8.02.38 8.86 4.67l.17.82c.85 4.3-17.35 15.7-17.35 15.7-4.05 1.7-9.03-5.5-9.03-5.5-.9-4.3 17.3-15.8 17.3-15.8zm-19.46-25.72c3.83-1.95 7.9-.02 9.1 4.3l.22.82c1.2 4.32-15.68 16.9-15.68 16.9-3.83 1.94-9.32-5.13-9.32-5.13-1.2-4.3 15.68-16.9 15.68-16.9z"/>
    <path d="M364.48 901.28c2.18-4.25 1.13-9.46-2.36-11.65l-.67-.4c-3.5-2.2-16.54 15.86-16.54 15.86-2.1 4.2 3.1 12 3.1 12 3.5 2.2 16.6-15.9 16.6-15.9zM243.98 730.8c2.25-3.1.92-7.9-2.96-10.73l-.75-.54c-3.9-2.84-17.55 9.3-17.55 9.3-2.25 3.07 3.7 11.25 3.7 11.25 3.9 2.83 17.56-9.3 17.56-9.3z"/>
    <path d="M248.74 744.52c-3.98.87-8.04-2.23-9.07-6.93l-.2-.9c-1.03-4.7 16.7-12.6 16.7-12.6 3.97-.9 9.25 7.8 9.25 7.8 1.04 4.7-16.68 12.6-16.68 12.6z"/>
    <path d="M282.88 720.57c3.05-3.72 2.5-9.2-1.2-12.26l-.72-.5c-3.72-3-21 11.9-21 11.9-3.05 3.7 1.93 12.9 1.93 12.9 3.7 3.1 20.9-11.8 20.9-11.8z"/>
    <path d="M280.8 739.58c3.32-3.5 3.17-9-.33-12.32l-.66-.63c-3.5-3.3-21.7 10.32-21.7 10.32-3.3 3.5 1 12.96 1 12.96 3.5 3.3 21.8-10.3 21.8-10.3zm-16.6 116.86c2.9-3.86 2.1-9.32-1.75-12.2l-.74-.55c-3.8-2.9-20.4 12.7-20.4 12.7-2.9 3.8 2.5 12.7 2.5 12.7 3.9 2.9 20.5-12.8 20.5-12.8z"/>
    <path d="M274 847.02c4.68-1.14 9.43 1.88 10.62 6.74l.23.93c1.2 4.8-19.68 14.1-19.68 14.1-4.67 1.1-10.84-7.7-10.84-7.7C253.13 856.3 274 847 274 847z"/>
  </g>
  <defs>
    <path id="k" d="M489.2 928.28c2.55-2.28 4.34-4.06 4.34-4.06 1.7-2.4 2-5.34 1.1-7.9 1.58-1.47 2.6-2.47 2.6-2.47 2.77-3.93 1.84-9.36-2.1-12.15l-.73-.53c-.4-.32-1-.38-1.7-.25.5-3.34-1-6.8-4-8.68l-.8-.48c-.2-.15-.5-.23-.8-.25 0-2.8-1.4-5.6-4.1-7.3l-.8-.5c-.6-.3-1.4-.3-2.4.1.5-3.3-1-6.7-4-8.6l-.8-.5c-.2-.1-.6-.2-.9-.2 0-2.9-1.5-5.7-4.1-7.4l-.8-.5c-.2-.1-.4-.2-.7-.2-.6-1.9-1.8-3.6-3.7-4.8l-.8-.5-.3-.1c-.3-2.2-1.5-4.4-3.5-5.8l-.7-.5c-.3-.2-.6-.3-.9-.3.2-2.9-1.1-5.8-3.6-7.6l-.7-.5c-.4-.3-1-.4-1.8-.2-.3-2.3-1.5-4.5-3.6-6l-.7-.5c-.3-.2-.6-.3-.9-.3.2-2.9-1.1-5.8-3.6-7.6l-.8-.5c-.5-.3-1.1-.4-1.9-.2-.3-2.4-1.5-4.6-3.6-6.1l-.7-.5c-.4-.3-1-.4-1.8-.3.5-3.3-1-6.8-4-8.7l-.8-.5c-.2-.1-.5-.2-.8-.2 0-2.9-1.4-5.7-4.1-7.3l-.7-.5c-.6-.4-1.5-.3-2.5 0 .5-3.3-1-6.7-4-8.6l-.7-.4c-.3-.2-.6-.2-.9-.2 0-2.9-1.4-5.7-4.1-7.3l-.8-.5c-.2-.1-.4-.1-.7-.2-.6-1.9-1.8-3.6-3.7-4.8l-.7-.4c-.3-.2-.7-.2-1.2-.2-.2-2.6-1.6-5.1-4-6.6l-.8-.5c-.3-.1-.6-.2-1-.2 0-2.9-1.4-5.7-4.1-7.4l-.8-.5c-.2-.1-.5-.2-.8-.2 0-2.9-1.5-5.6-4.1-7.3l-.8-.4c-.5-.3-1.1-.3-1.9-.1-.4-2.3-1.8-4.5-3.93-5.8l-.8-.4c-.3-.1-.6-.2-1-.2-.1-2.9-1.5-5.7-4.2-7.4l-.8-.4c-.62-.4-1.52-.3-2.6.1-.23-2.8-1.9-5.5-4.6-7l-.8-.5c-.23-.1-.52-.2-.9-.2-.2-2.8-1.8-5.5-4.6-7l-.8-.4c-.6-.3-1.4-.2-2.4.2.26-3.3-1.43-6.6-4.6-8.3l-.8-.4c-.5-.3-1.2-.3-2 0-.54-2.3-2.03-4.4-4.32-5.6l-.8-.44c-.2-.1-.46-.1-.7-.1-.8-1.9-2.1-3.56-4-4.6l-.8-.4c-.3-.1-.6-.2-.9-.2-.4-2.8-2.1-5.4-4.8-6.7l-.8-.4c-.3-.1-.6-.2-1-.1-.3-2.9-2-5.6-4.8-7l-.8-.4c-.5-.2-1.1-.2-1.8.1-.7-2.3-2.3-4.25-4.5-5.4l-.9-.4c-.3-.1-.63-.2-1-.1-.3-2.9-2.03-5.57-4.82-6.9l-.8-.4c-.5-.3-1.1-.2-1.9 0-.6-2.3-2.2-4.3-4.5-5.4l-.8-.4c-.5-.2-1.04-.2-1.7 0l-.2-.2c-.1-3.3-2.1-6.4-5.33-7.7l-.87-.3c-.26-.1-.56-.2-.9-.1-.5-2.9-2.4-5.4-5.25-6.6l-.9-.4c-.5-.2-1.2-.1-1.94.2l-.5-.5c-.4-3-2.3-5.8-5.3-7.1l-.9-.3c-.3-.1-.6-.13-1-.1-.5-2.9-2.35-5.4-5.2-6.6l-.9-.4c-.22-.1-.5-.1-.74-.1-.9-1.8-2.4-3.3-4.4-4.1l-.8-.44c-.4-.2-.9 0-1.1-.2h-.1c-.8-2.4-2.53-4.7-5.2-5.8l-.84-.3c-.3-.1-.66-.1-1 0-.5-2.82-2.4-5.4-5.3-6.53l-.85-.4c-.2-.1-.5-.1-.9-.1-.5-2.8-2.4-5.33-5.2-6.5l-.85-.34c-.5-.2-1.2-.1-1.9.2-.8-2.2-2.5-4.1-4.88-5.1l-.9-.3c-.3-.1-.6-.14-.97-.1-.5-2.84-2.4-5.4-5.3-6.6l-.8-.3c-.7-.3-1.5-.1-2.4.5l-.2-.2c-.8-2.68-2.8-4.9-5.6-5.9l-.9-.3c-.3-.08-.6-.1-.9 0-.7-2.8-2.7-5.2-5.6-6.2l-.84-.3c-.6-.2-1.25-.08-2 .32l-.56-.4c-.6-3.1-2.7-5.7-5.8-6.8l-.9-.3c-.6-.2-1.2 0-2 .4-.92-2.2-2.73-4-5.2-4.85l-.84-.3c-.3-.04-.5-.05-.8-.02-1-1.7-2.6-3.1-4.7-3.8l-.9-.3c-.4-.14-.9-.1-1.4.1-1.2-2.6-3.5-4.5-6.5-5-1.22-2.44-3.6-4.3-6.6-4.7l-.8-.1c-1-3.1-3.6-5.44-7-5.9l-.9-.13c-.3 0-.6 0-.9.2-1.2-2.7-3.7-4.7-6.8-5.1l-.9-.2c-.3-.03-.6 0-.9.1-1.2-2.64-3.63-4.6-6.7-5l-.9-.15c-.6-.1-1.2.1-1.8.6-1.33-1.94-3.43-3.36-6-3.7l-.9-.1c-.3-.04-.62 0-1 .16-1.13-2.7-3.6-4.7-6.7-5.1l-.9-.1c-.74-.1-1.53.34-2.34 1.15-1.35-2.5-3.9-4.3-7-4.53h-.9c-.46 0-.94.18-1.4.5-.9-2.24-2.75-4.14-5.3-5.04l-.85-.3c-1.3-.5-3.3.9-5.3 3.15-1-1.1-2.2-1.94-3.7-2.5l-.9-.3c-1.6-.52-4 1.5-6.43 4.4-.9-.8-1.9-1.5-3.2-2l-.8-.3c-.95-.3-2.2.3-3.53 1.47-.8-1.1-1.8-2.1-3.1-2.7l-.8-.4c-4.3-2.1-17.7 16.4-17.7 16.4-.4.9-.4 2-.2 3.2-2.4 1.9-3.9 3.9-3.5 5.3l.3.8c.15.58.36 1.08.6 1.5-3.8 2.7-6.9 5.5-6.3 7.4l.26.9c.3.97.77 1.8 1.3 2.5-1.6 1.6-2.6 3.07-2.2 4.2l.2.88c.3.8.6 1.5 1 2.2-.5.6-.8 1.2-.8 1.8l.1.9c.2 2.2 1.2 4.1 2.6 5.6-.1.2-.2.4-.23.7l-.1.9c-.5 3.6 1.2 7.1 4.12 8.8-.56.5-.9 1.1-.9 1.6v.9c0 3.1 1.5 5.8 3.9 7.4-.8.7-1.4 1.4-1.3 2.2v.9c.1 3.1 1.9 5.76 4.4 7.2-.15.3-.24.6-.23.96l.1.9c.1 2.6 1.3 4.8 3.2 6.3-.5.6-.8 1.2-.8 1.7l.05.9c.2 3.1 1.9 5.8 4.4 7.2-.1.3-.2.6-.2.9l.1.95c.1 3.1 1.9 5.8 4.4 7.2-.2.3-.2.64-.2 1v.9c.1 3.4 2.3 6.3 5.2 7.6v.8c.2 3 1.8 5.5 4.1 7 .2 3 1.9 5.5 4.4 6.9-.25.5-.34 1-.24 1.4l.2.9c.5 2.1 1.76 3.8 3.4 5-.1.23-.1.5 0 .72l.2.9c.6 2.5 2.2 4.5 4.3 5.6-.5.7-.7 1.3-.5 1.9l.2.9c.8 3.45 3.6 5.9 6.9 6.55-.7.8-1 1.6-.86 2.3l.2.9c.7 3 2.9 5.3 5.7 6.2-.1.3-.1.6-.1.9l.2.9c.7 3 2.9 5.2 5.6 6.2-.7.9-1 1.8-.8 2.5l.3.8c.9 3 3.3 5.1 6.1 5.9-.1.32-.1.65 0 .95l.23.9c.7 2.5 2.45 4.3 4.6 5.3-.4.7-.55 1.3-.4 1.8l.3.9c.9 2.9 3.23 5.1 6 5.86-.06.3-.06.6.03.9l.26.9c.9 3 3.2 5.1 6 5.9-.1.4-.1.7 0 1l.3.9c.8 2.7 2.8 4.7 5.3 5.7-.1.4-.2.8-.1 1.2l.3.9c.6 2.04 2 3.7 3.7 4.8-.1.2-.1.5 0 .7l.27.9c.9 3 3.24 5.1 6.04 5.84-.1.4-.1.7 0 1l.3.9c1 3.4 4 5.7 7.3 6.1-.6.9-.9 1.7-.7 2.4l.3.9c.9 3 3.26 5.1 6 5.86-.05.3-.05.6 0 .9l.27.84c1.04 3.45 4 5.75 7.4 6.1-.3.7-.4 1.3-.2 1.8l.3.88c.9 2.4 2.74 4.2 4.94 5-.3.7-.4 1.3-.2 1.8l.3.9c1.1 3 3.6 4.9 6.5 5.5-.1.4-.1.7 0 1l.3.9c.9 2.4 2.7 4.1 4.9 5-.3.7-.4 1.3-.2 1.8l.3.9c1.1 2.9 3.6 4.87 6.4 5.45-.1.36-.1.7 0 1l.3.85c1.1 2.9 3.5 4.8 6.3 5.4 0 .34 0 .64.1.9l.4.86c.8 2 2.3 3.5 4.1 4.4 0 .3 0 .5.1.8l.37.8c1 2.4 2.9 4 5.2 4.8-.3.7-.4 1.4-.2 2l.3.8c1.4 3.3 4.5 5.3 7.9 5.35-.5.9-.7 1.8-.43 2.4l.4.83c1.18 2.87 3.7 4.75 6.55 5.25 0 .3 0 .6.1.8l.4.8c1.2 2.9 3.7 4.76 6.5 5.27-.5 1-.7 1.9-.4 2.5l.4.8c1.4 2.8 4.03 4.5 6.9 4.8 0 .34 0 .7.16.95l.4.9c1.1 2.3 3.12 3.9 5.4 4.58-.27.7-.3 1.3-.07 1.9l.4.8c1.4 2.7 4 4.5 6.9 4.8 0 .3.1.6.2.8l.4.8c1.4 2.8 4.1 4.5 6.92 4.8 0 .4 0 .7.2 1l.4.8c1.2 2.58 3.6 4.2 6.2 4.7-.1.47-.1.87.1 1.2l.4.8c1 1.98 2.6 3.38 4.5 4.17 0 .26 0 .5.1.7l.4.8c1.4 2.8 4.1 4.5 7 4.8 0 .4 0 .7.2 1l.4.8c1.4 2.88 4.2 4.58 7.2 4.8l.7.7c-.25.7-.3 1.3 0 1.8l.4.8c1.4 2.8 4 4.5 6.9 4.8 0 .3 0 .6.15.8l.4.9c1.4 2.8 4 4.5 6.9 4.8l1.2 1.1c.1.3.1.55.3.8l.4.8c1.3 2.2 3.33 3.6 5.6 4.1l.03.04c-.2.76-.2 1.4.1 1.88l.47.8c1.5 2.7 4.3 4.26 7.2 4.4 0 .3 0 .7.2.9l.4.8c1.2 2.2 3.3 3.6 5.6 4.2-.2.7-.2 1.3.1 1.8l.4.8c1.55 2.7 4.33 4.2 7.23 4.3 0 .37.1.7.2.98l.5.75c1.2 2.16 3.2 3.57 5.47 4.1l.2.4.4.8c1 2 2.6 3.4 4.5 4.16 0 .3.1.5.2.73l.4.8c1.4 2.8 4.1 4.5 7 4.75 0 .4.03.7.2 1l.4.8c1.6 3.2 4.8 5 8.2 4.8-.5.95-.67 1.8-.3 2.4l.4.8c1.33 2.8 4 4.5 6.9 4.8 0 .3 0 .6.12.9l.4.8c1.6 3.2 4.9 5 8.23 4.8-.2.7-.2 1.37 0 1.8l.44.8c2.4 4.2 7.7 5.6 11.9 3.2 0 0 1.1-.9 2.7-2.3 2.4 1.1 5.4 1.1 7.9-.35 0 0 4.14-3.4 8.1-7.4 1.05-.17 2.1-.5 3-1.05l.9-.7c.7-.4 1.3-.9 1.9-1.38l.8.7c2.9 1.2 9.2-6.8 13.15-12.3l1 1.1c3.5 1.7 12.7-9.8 16.3-14.5l.1.1c4.3 2.1 17.7-16.4 17.7-16.4.5-1.13.8-2.33.8-3.5 5.63-3.24 14.7-15.8 14.7-15.8 1.5-3 1.02-6.36-.8-8.9z"/>
  </defs>
  <clipPath id="l">
    <use xlink:href="#k" overflow="visible"/>
  </clipPath>
  <g fill="#D89D25" clip-path="url(#l)">
    <path d="M126.5 587.92c-3.77.7-7.52-2.6-8.38-7.33l-.16-.9c-.87-4.8 16-11.8 16-11.8 3.74-.7 8.52 8.2 8.52 8.2.87 4.7-16 11.7-16 11.7z"/>
    <path d="M136.8 598.17c2.5-3.2 1.47-8.2-2.3-11.18l-.74-.6c-3.78-3-18.6 9.5-18.6 9.5-2.5 3.2 3.04 11.7 3.04 11.7 3.78 2.9 18.6-9.6 18.6-9.6z"/>
    <path d="M100.4 618.52c-4.7 1.13-9.4-1.74-10.53-6.42l-.22-.9c-1.13-4.67 19.78-13.75 19.78-13.75 4.68-1.14 10.74 7.3 10.74 7.3 1.14 4.68-19.78 13.77-19.78 13.77z"/>
    <path d="M118.4 624.9c-4.58 1.47-9.48-1.06-10.94-5.65l-.28-.87c-1.46-4.58 18.76-15.13 18.76-15.13 4.6-1.46 11.23 6.53 11.23 6.53 1.46 4.6-18.76 15.13-18.76 15.13zm55.66-1.7c-4.73.9-9.3-2.17-10.22-6.9l-.18-.9c-.92-4.7 20.4-12.84 20.4-12.84 4.72-.92 10.4 7.8 10.4 7.8.9 4.7-20.4 12.84-20.4 12.84z"/>
    <path d="M161.33 627.92c-3.07 3.72-2.4 9.3 1.45 12.5l.74.6c3.86 3.2 21.3-11.57 21.3-11.57 3.05-3.72-2.2-13.1-2.2-13.1-3.87-3.18-21.3 11.57-21.3 11.57zM248.2 685c2.2-3.06 1.1-7.87-2.45-10.77l-.68-.55c-3.55-2.9-16.73 9-16.73 9-2.2 3.04 3.12 11.3 3.12 11.3 3.55 2.9 16.73-9 16.73-9z"/>
    <path d="M252.2 698.78c-3.74.8-7.44-2.36-8.26-7.07l-.16-.9c-.82-4.7 16.03-12.3 16.03-12.3 3.8-.8 8.5 8 8.5 8 .8 4.7-16 12.3-16 12.3z"/>
    <path d="M284.94 675.42c2.97-3.66 2.64-9.15-.75-12.27l-.7-.6c-3.4-3.1-20.1 11.5-20.1 11.5-3 3.66 1.4 12.85 1.4 12.85 3.4 3.12 20-11.48 20-11.48z"/>
    <path d="M282.4 694.38c3.2-3.44 3.24-8.95.07-12.3l-.6-.66c-3.17-3.36-20.72 9.96-20.72 9.96-3.2 3.43.53 12.95.53 12.95 3.16 3.36 20.7-9.96 20.7-9.96zm3.25 142.87c2.82-3.8 2.25-9.27-1.26-12.2l-.7-.57c-3.5-2.95-19.6 12.43-19.6 12.43-2.8 3.8 1.9 12.8 1.9 12.8 3.5 3 19.5-12.4 19.5-12.4z"/>
    <path d="M295.12 828c4.4-1.06 8.76 2.03 9.72 6.9l.2.94c.95 4.88-18.88 13.8-18.88 13.8-4.42 1.07-9.92-7.83-9.92-7.83-.95-4.8 18.88-13.8 18.88-13.8zm42.68 66.18c-3.62 1.2-7.8-1.52-9.32-6.08l-.3-.87c-1.5-4.56 14.18-13.9 14.18-13.9 3.62-1.22 9.6 6.94 9.6 6.94 1.53 4.56-14.16 13.9-14.16 13.9z"/>
    <path d="M349.44 902.87c2.03-3.52.3-8.33-3.85-10.74l-.8-.46c-4.2-2.4-17.1 12.1-17.1 12.1-2.1 3.52 4.6 11.2 4.6 11.2 4.1 2.4 17-12.1 17-12.1z"/>
    <path d="M316.27 928.15c-4.46 1.78-9.53-.4-11.32-4.86l-.33-.9c-1.8-4.5 17.64-16.4 17.64-16.4 4.47-1.8 11.66 5.7 11.66 5.7 1.78 4.5-17.65 16.4-17.65 16.4z"/>
    <path d="M335.02 931.94c-4.33 2.1-9.54.28-11.64-4.05l-.4-.9c-2.1-4.4 16.44-17.6 16.44-17.6 4.33-2.1 12.04 4.8 12.04 4.8 2.1 4.3-16.44 17.6-16.44 17.6zm54.85-9.54c-4.55 1.57-9.5-.84-11.1-5.4l-.3-.85c-1.57-4.55 18.38-15.6 18.38-15.6 4.55-1.58 11.4 6.24 11.4 6.24 1.57 4.5-18.38 15.6-18.38 15.6z"/>
    <path d="M377.93 928.87c-2.5 4.1-1.07 9.55 3.2 12.16l.82.5c4.27 2.6 19.44-14.47 19.44-14.47 2.5-4.1-4.1-12.66-4.1-12.66-4.3-2.6-19.5 14.47-19.5 14.47zm-48.26-140.8c-1.73 3.37.18 7.94 4.3 10.2l.77.45c4.1 2.27 15.53-11.62 15.53-11.62 1.73-3.36-5.07-10.64-5.07-10.64-4.1-2.27-15.53 11.6-15.53 11.6z"/>
    <path d="M323.27 775.13c3.68-1.4 7.98 1.1 9.6 5.62l.3.86c1.64 4.6-14.24 14.8-14.24 14.8-3.7 1.4-9.92-6.5-9.92-6.5-1.6-4.5 14.3-14.7 14.3-14.7z"/>
    <path d="M293.85 803.55c-2.42 4.1-1.15 9.47 2.8 11.98l.77.48c3.97 2.6 18.48-14.6 18.48-14.6 2.4-4.1-3.57-12.4-3.57-12.4-3.97-2.5-18.48 14.6-18.48 14.6z"/>
    <path d="M293.26 784.44c-2.7 3.9-1.8 9.36 2 12.15l.7.5c3.8 2.8 19.44-13.3 19.44-13.3 2.7-4-2.7-12.7-2.7-12.7-3.8-2.8-19.44 13.2-19.44 13.2zm5.34-60.82c-2.24 4.22-.75 9.5 3.33 11.84l.77.44c4.08 2.32 17.8-15.47 17.8-15.47 2.25-4.22-4.1-12.28-4.1-12.28-4.07-2.33-17.8 15.47-17.8 15.47z"/>
    <path d="M290.5 734.3c-4.32 1.77-9.27-.56-11.06-5.22l-.35-.9c-1.8-4.64 16.9-16.7 16.9-16.7 4.3-1.78 11.4 6.1 11.4 6.1 1.8 4.65-16.9 16.7-16.9 16.7zm-157.66-39c2.37-3.58-.1-8-5.54-9.9l-1.04-.34c-5.44-1.9-20.92 13.3-20.92 13.3-2.38 3.57 6.58 10.23 6.58 10.23 5.43 1.8 20.92-13.3 20.92-13.3z"/>
    <path d="M141.17 707.73c-4.94 1.8-10.64-.3-12.73-4.7l-.4-.84c-2.08-4.4 19.28-16.4 19.28-16.4 4.94-1.8 13.13 5.5 13.13 5.5 2.1 4.4-19.28 16.3-19.28 16.3z"/>
    <path d="M180.9 676.06c3.3-4.38 1.7-9.67-3.54-11.8l-1-.42c-5.26-2.14-24.9 16.62-24.9 16.62-3.3 4.4 4.54 12.23 4.54 12.23 5.26 2.1 24.9-16.7 24.9-16.7z"/>
    <path d="M181.37 695.3c3.65-4.2 2.56-9.62-2.45-12.06l-.95-.47c-5-2.44-26.16 15.3-26.16 15.3-3.6 4.24 3.4 12.56 3.4 12.56 5.1 2.44 26.2-15.32 26.2-15.32zm-24.82 54.8c3.05-4.5 1.15-9.7-4.25-11.63l-1.03-.37c-5.4-1.93-24.03 17.43-24.03 17.43-3.06 4.48 5.27 12 5.27 12 5.4 1.93 24.1-17.43 24.1-17.43z"/>
    <path d="M167.53 738.5c5.8-2.22 12.36-.36 14.67 4.15l.45.87c2.3 4.52-22.84 18.58-22.84 18.58-5.8 2.23-15.1-5-15.1-5-2.3-4.53 22.9-18.6 22.9-18.6zM419.2 847.17c-1.86 2.84.02 6.5 4.18 8.17l.8.3c4.17 1.68 16.24-10.24 16.24-10.24 1.85-2.84-5-8.5-5-8.5-4.16-1.65-16.22 10.27-16.22 10.27z"/>
    <path d="M412.88 836.87c3.82-1.33 8.2.52 9.77 4.14l.3.7c1.57 3.7-15 12.8-15 12.8-3.8 1.4-10.06-4.8-10.06-4.8-1.6-3.6 14.9-12.8 14.9-12.8z"/>
    <path d="M382 861.55c-2.58 3.48-1.4 7.82 2.63 9.7l.77.35c4.03 1.87 19.33-12.86 19.33-12.86 2.58-3.48-3.4-10.04-3.4-10.04-4.04-1.87-19.33 12.85-19.33 12.85z"/>
    <path d="M381.8 845.92c-2.85 3.34-2.05 7.75 1.78 9.87l.73.4c3.9 2.1 20.3-11.8 20.3-11.8 2.9-3.4-2.5-10.3-2.5-10.3-3.8-2.1-20.3 11.7-20.3 11.7zm19.6-43.84c-2.4 3.56-.98 7.83 3.17 9.54l.78.33c4.15 1.7 18.67-13.53 18.67-13.53 2.4-3.56-3.96-9.87-3.96-9.87-4.14-1.7-18.67 13.53-18.67 13.53z"/>
    <path d="M392.83 811.2c-4.48 1.67-9.53 0-11.27-3.74l-.34-.7c-1.74-3.74 17.76-14.52 17.76-14.52 4.48-1.65 11.6 4.47 11.6 4.47 1.76 3.8-17.75 14.5-17.75 14.5zm-184.58-56.48c-3.62 1.2-7.8-1.52-9.32-6.08l-.3-.87c-1.5-4.56 14.18-13.9 14.18-13.9 3.7-1.22 9.7 6.93 9.7 6.93 1.6 4.57-14.1 13.92-14.1 13.92z"/>
    <path d="M219.9 763.4c2.03-3.5.3-8.32-3.86-10.73l-.8-.46c-4.16-2.4-17.05 12.1-17.05 12.1-2.1 3.6 4.6 11.2 4.6 11.2 4.1 2.4 17-12.1 17-12.1z"/>
    <path d="M186.73 788.7c-4.47 1.77-9.54-.4-11.32-4.88l-.3-.85c-1.8-4.47 17.7-16.42 17.7-16.42 4.5-1.78 11.7 5.72 11.7 5.72 1.8 4.48-17.6 16.42-17.6 16.42z"/>
    <path d="M205.47 792.48c-4.33 2.1-9.54.28-11.63-4.05l-.4-.83c-2.1-4.33 16.43-17.62 16.43-17.62 4.34-2.1 12.04 4.88 12.04 4.88 2.1 4.33-16.4 17.62-16.4 17.62zm54.85-9.55c-4.54 1.58-9.5-.83-11.1-5.38l-.3-.86c-1.56-4.6 18.4-15.7 18.4-15.7 4.53-1.6 11.38 6.2 11.38 6.2 1.57 4.5-18.38 15.6-18.38 15.6z"/>
    <path d="M248.4 789.4c-2.52 4.12-1.08 9.56 3.2 12.17l.8.5c4.28 2.6 19.45-14.47 19.45-14.47 2.5-4.1-4.03-12.66-4.03-12.66-4.27-2.6-19.43 14.46-19.43 14.46z"/>
  </g>
  <path fill="#437013" d="M459.2 997.6L81.77 658.44s195.13 339.86 312.6 364.78c13.97 2.96 64.84-25.63 64.84-25.63z"/>
  <linearGradient id="m" x1="319.45" x2="186.56" y1="624.88" y2="855.06" gradientUnits="userSpaceOnUse" gradientTransform="rotate(19.56 227.024 724.83)">
    <stop offset="0" stop-color="#FFF" stop-opacity="0"/>
    <stop offset="1" stop-color="#662D91"/>
  </linearGradient>
  <path fill="url(#m)" d="M503.74 973.83c-.02-6.8-8.9-25.05-6.34-31.46 2.95-7.4 4.02-28.77 5.3-40.94 4.92-46.27-298.87-346.8-324.28-438.35-7.32 49.68 37.25 87.74 98.6 185.1-.17-.08-.32-.16-.5-.23l-.83-.36c-.3-.1-.5-.2-.8-.1-.9-1.8-2.4-3.4-4.4-4.2l-.5-.7c-.4-.2-.7-.2-.9-.4l-.3.2c-.9-2.4-2.7-4.6-5.3-5.6l-1-.3c-.2-.1-.3 0-.5-.1l-.9-.9c-.7-2.5-2.5-4.6-5.1-5.7l-.3-.1-2.1-2.3c-.8-1.8-2.1-3.3-4-4.3-57.9-62.3-148.7-152.4-169.9-183.2-26.6 13.6 46.6 78.2 52.8 107-15.1-15.6-60.9-53.7-76.3-66.5-19.4 9.6 17.6 65.6 11 80-17.1-24.2-34.6-64-48.1-84.9-22.4 8.3 64 166.9 62.3 182.6-.8 7-61.2-53.3-119.7-39.4 95.1 39 88 41.8 102.8 61.3 21.4 28.3 42 54.3 61.7 78.3.6 4.2 5.8 8.9 5.8 8.9.4.2.9.2 1.5.1 28.3 34.2 54.7 64 79 89.9C272.2 936.5 341 1011.7 394 1023c6.25 1.35 19.87-3.64 33-9.55 2.04.2 4.3.7 7.1 1.73 5.7 2.1 21.16 18.32 26.4 15.2 5.77-3.45 42.94-41.2 42.9-56.8z" opacity=".5"/>
  <linearGradient id="n" x1="555.47" x2="555.47" y1="510.81" y2="553.4" gradientUnits="userSpaceOnUse">
    <stop offset="0" stop-color="#F2AF09"/>
    <stop offset="1" stop-color="#B37048"/>
  </linearGradient>
  <path fill="url(#n)" d="M552.58 553.4c1.06-1.6 10.65-7.98 9.58-19.7s-4.75-22.9-4.75-22.9-7.4 15.98-8.5 21.3 3.8 21.3 3.8 21.3z"/>
  <linearGradient id="o" x1="554.18" x2="554.18" y1="515.1" y2="548.81" gradientUnits="userSpaceOnUse" gradientTransform="matrix(1.2324 .2295 .2295 1.2265 -242.018 -238.8)">
    <stop offset="0" stop-color="#F2AF09"/>
    <stop offset="1" stop-color="#B37048"/>
  </linearGradient>
  <path fill="url(#o)" d="M550.6 558.46c0-2.23-5.45-16.6 3.88-23.84 9.34-7.24 21.02-11.42 21.02-11.42s-3.44 19.04-6.07 23.92c-2.64 4.9-18.84 11.34-18.84 11.34z"/>
  <linearGradient id="p" x1="401.62" x2="401.62" y1="984.15" y2="770.48" gradientUnits="userSpaceOnUse">
    <stop offset="0" stop-color="#F2AF09"/>
    <stop offset="1" stop-color="#B37048"/>
  </linearGradient>
  <path fill="url(#p)" d="M472.85 770.48S451.7 854.4 391 919.08c-60.7 64.7-52.5 63.8-55.35 65.07-2.6-1.4-6.43-3.3-4.94-5.12 18.4-22.36 75.9-85.96 89.9-107.07 20.5-31 47.9-101.48 47.9-101.48h4.4z"/>
  <linearGradient id="q" x1="545.06" x2="545.06" y1="521.99" y2="571.5" gradientUnits="userSpaceOnUse">
    <stop offset="0" stop-color="#F2AF09"/>
    <stop offset="1" stop-color="#B37048"/>
  </linearGradient>
  <path fill="url(#q)" d="M546.2 571.5c1.06-1.6 9.6-11.43 5.6-28.87S546.2 522 546.2 522s-11.2 21.82-8.53 29.8 8.52 19.7 8.52 19.7z"/>
  <linearGradient id="r" x1="537.05" x2="537.05" y1="543.82" y2="598.12" gradientUnits="userSpaceOnUse">
    <stop offset="0" stop-color="#F2AF09"/>
    <stop offset="1" stop-color="#B37048"/>
  </linearGradient>
  <path fill="url(#r)" d="M537.26 598.12s12.53-27.68 7.8-37.8c-4.72-10.1-12.7-16.5-12.7-16.5s-6.4 21.3-3.74 27.15c2.66 5.86 8.64 27.15 8.64 27.15z"/>
  <linearGradient id="s" x1="527" x2="527" y1="565.12" y2="620.48" gradientUnits="userSpaceOnUse">
    <stop offset="0" stop-color="#F2AF09"/>
    <stop offset="1" stop-color="#B37048"/>
  </linearGradient>
  <path fill="url(#s)" d="M527.97 620.48c-.94-1.6 12.6-22.9 9.3-33-3.32-10.12-12.37-22.36-12.37-22.36s-10.12 18.63-8.52 27.68c1.6 9.05 11.6 27.68 11.6 27.68z"/>
  <linearGradient id="t" x1="516.95" x2="516.95" y1="589.07" y2="644.38" gradientUnits="userSpaceOnUse">
    <stop offset="0" stop-color="#F2AF09"/>
    <stop offset="1" stop-color="#B37048"/>
  </linearGradient>
  <path fill="url(#t)" d="M517.18 644.38s15.68-26.5 11.68-36.87c-4-10.3-14.95-18.4-14.95-18.4s-11.5 20.8-9.2 27.7 12.5 27.7 12.5 27.7z"/>
  <linearGradient id="u" x1="507.13" x2="507.13" y1="614.63" y2="669.46" gradientUnits="userSpaceOnUse">
    <stop offset="0" stop-color="#F2AF09"/>
    <stop offset="1" stop-color="#B37048"/>
  </linearGradient>
  <path fill="url(#u)" d="M509.27 669.47c.53-2.14 20.42-27.42 6.72-43.66-5.2-6.1-15.1-11.1-15.1-11.1s-8 17.6-7.5 22.6 15.7 32.2 15.7 32.2z"/>
  <linearGradient id="v" x1="497.21" x2="497.21" y1="634.31" y2="685.97" gradientUnits="userSpaceOnUse">
    <stop offset="0" stop-color="#F2AF09"/>
    <stop offset="1" stop-color="#B37048"/>
  </linearGradient>
  <path fill="url(#v)" d="M498.8 685.97c1.07-1.6 17.8-20.63 6.5-36.74-11.28-16.1-17.14-14.9-17.14-14.9s-4.8 23.95-2.13 30.34 12.78 21.3 12.78 21.3z"/>
  <linearGradient id="w" x1="486.69" x2="486.69" y1="659.71" y2="709.93" gradientUnits="userSpaceOnUse">
    <stop offset="0" stop-color="#F2AF09"/>
    <stop offset="1" stop-color="#B37048"/>
  </linearGradient>
  <path fill="url(#w)" d="M490.3 709.93c1.06-2.13 14.36-25.03 6.9-34.6-7.44-9.6-18.1-17.6-18.1-15.2 0 2.4-6.9 19.45-4.78 25.84s15.97 23.96 15.97 23.96z"/>
  <linearGradient id="x" x1="477.53" x2="477.53" y1="680.11" y2="734.41" gradientUnits="userSpaceOnUse">
    <stop offset="0" stop-color="#F2AF09"/>
    <stop offset="1" stop-color="#B37048"/>
  </linearGradient>
  <path fill="url(#x)" d="M480.7 734.4c.54-2.65 13.04-23.4 6-37.78-7.06-14.38-19.3-16.5-19.3-16.5s-2.66 31.4 0 35.66c2.66 4.26 13.3 18.63 13.3 18.63z"/>
  <linearGradient id="y" x1="561.47" x2="561.47" y1="539.74" y2="574.97" gradientUnits="userSpaceOnUse">
    <stop offset="0" stop-color="#F2AF09"/>
    <stop offset="1" stop-color="#B37048"/>
  </linearGradient>
  <path fill="url(#y)" d="M544.07 574.97c.37-1.88 1.2-14.9 16.3-24.5 15.1-9.58 18.5-10.73 18.5-10.73s-7.4 23.4-14.9 27.2c-7.5 3.8-19.9 8.03-19.9 8.03z"/>
  <linearGradient id="z" x1="552.55" x2="552.55" y1="564.86" y2="600.19" gradientUnits="userSpaceOnUse">
    <stop offset="0" stop-color="#F2AF09"/>
    <stop offset="1" stop-color="#B37048"/>
  </linearGradient>
  <path fill="url(#z)" d="M531.73 600.2s10.53-28.52 21-32.4c10.47-3.87 20.64-2.8 20.64-2.8s-10.4 19.64-16.42 21.94c-6 2.3-25.22 13.25-25.22 13.25z"/>
  <linearGradient id="A" x1="551.98" x2="551.98" y1="604.78" y2="647.02" gradientUnits="userSpaceOnUse" gradientTransform="rotate(-6.47 377.91 705.155)">
    <stop offset="0" stop-color="#F2AF09"/>
    <stop offset="1" stop-color="#B37048"/>
  </linearGradient>
  <path fill="url(#A)" d="M521.15 630.38c1.96-.76 4.8-29.25 14.85-35.95 10.04-6.7 26.7-11.28 26.7-11.28s-4.04 23.7-11.8 30.67c-7.77 6.95-29.75 16.56-29.75 16.56z"/>
  <linearGradient id="B" x1="536.19" x2="536.19" y1="610.28" y2="644.91" gradientUnits="userSpaceOnUse">
    <stop offset="0" stop-color="#F2AF09"/>
    <stop offset="1" stop-color="#B37048"/>
  </linearGradient>
  <path fill="url(#B)" d="M517.16 644.9s6.9-27.6 16.26-31.82c9.36-4.22 21.8-2.42 21.8-2.42s-5.9 21.13-11.9 24.18c-6 3.05-26.16 10.07-26.16 10.07z"/>
  <linearGradient id="C" x1="527.62" x2="527.62" y1="634.64" y2="664.8" gradientUnits="userSpaceOnUse">
    <stop offset="0" stop-color="#F2AF09"/>
    <stop offset="1" stop-color="#B37048"/>
  </linearGradient>
  <path fill="url(#C)" d="M509.27 664.8c1.12-1.9 10.14-28.9 18.14-29.97 8.1-1.07 18.6 2.62 18.6 2.62s-6.6 18.12-10.6 21.34c-3.9 3.2-26.1 6-26.1 6z"/>
  <linearGradient id="D" x1="519.31" x2="519.31" y1="657.75" y2="689.72" gradientUnits="userSpaceOnUse">
    <stop offset="0" stop-color="#F2AF09"/>
    <stop offset="1" stop-color="#B37048"/>
  </linearGradient>
  <path fill="url(#D)" d="M497.38 689.72c.36-1.88 1.84-27.16 21.2-30.7 19.34-3.54 22.66 1.43 22.66 1.43s-13.42 20.42-19.8 23.1c-6.4 2.67-24.06 6.17-24.06 6.17z"/>
  <linearGradient id="E" x1="508.15" x2="508.15" y1="682.65" y2="712.75" gradientUnits="userSpaceOnUse">
    <stop offset="0" stop-color="#F2AF09"/>
    <stop offset="1" stop-color="#B37048"/>
  </linearGradient>
  <path fill="url(#E)" d="M486.6 712.75c.75-2.26 7.36-27.9 19.4-29.5 12.03-1.57 25.24.22 23.55 1.93-1.7 1.7-8.74 18.7-14.74 21.74-6 3.06-28.2 5.83-28.2 5.83z"/>
  <linearGradient id="F" x1="500.04" x2="500.04" y1="703.86" y2="736.91" gradientUnits="userSpaceOnUse">
    <stop offset="0" stop-color="#F2AF09"/>
    <stop offset="1" stop-color="#B37048"/>
  </linearGradient>
  <path fill="url(#F)" d="M476.23 736.9c1.5-2.25 7.18-25.8 22.3-31.1 15.1-5.27 25.32 1.82 25.32 1.82S503.67 731.84 498.8 733c-4.9 1.16-22.57 3.9-22.57 3.9z"/>
  <linearGradient id="G" x1="485.29" x2="485.29" y1="730.04" y2="761.39" gradientUnits="userSpaceOnUse">
    <stop offset="0" stop-color="#F2AF09"/>
    <stop offset="1" stop-color="#B37048"/>
  </linearGradient>
  <path fill="url(#G)" d="M461.6 761.4s15.34-27.52 25.12-30.6c9.78-3.05 22.25 4.02 22.25 4.02s-14.57 17.8-19.83 20.08c-5.25 2.3-27.53 6.5-27.53 6.5z"/>
  <linearGradient id="H" x1="468.47" x2="468.47" y1="709.93" y2="762.1" gradientUnits="userSpaceOnUse">
    <stop offset="0" stop-color="#F2AF09"/>
    <stop offset="1" stop-color="#B37048"/>
  </linearGradient>
  <path fill="url(#H)" d="M473.9 762.1s8.43-30.35 3.63-39.4c-4.8-9.05-18.65-12.77-18.65-12.77s-2.13 22.9 0 28.2c2.13 5.34 15.03 23.97 15.03 23.97z"/>
  <linearGradient id="I" x1="461.08" x2="461.08" y1="736.01" y2="784.46" gradientUnits="userSpaceOnUse">
    <stop offset="0" stop-color="#F2AF09"/>
    <stop offset="1" stop-color="#B37048"/>
  </linearGradient>
  <path fill="url(#I)" d="M468.47 784.46c.53-2.66 9.6-23.96 0-35.14s-19.17-13.3-19.17-13.3 1.06 28.74 4.8 33.53c3.7 4.8 14.37 14.9 14.37 14.9z"/>
  <linearGradient id="J" x1="485.24" x2="485.24" y1="748.28" y2="784.99" gradientUnits="userSpaceOnUse">
    <stop offset="0" stop-color="#F2AF09"/>
    <stop offset="1" stop-color="#B37048"/>
  </linearGradient>
  <path fill="url(#J)" d="M466.6 785c.6-2.66 1.02-25.8 14.33-32.1 13.32-6.3 22.94-4.33 22.94-4.33s-12.7 25.82-18.05 28.67c-5.36 2.86-19.22 7.75-19.22 7.75z"/>
  <linearGradient id="K" x1="481.26" x2="481.26" y1="459.77" y2="502.36" gradientUnits="userSpaceOnUse" gradientTransform="rotate(-13.457 502.687 645.558)">
    <stop offset="0" stop-color="#F2AF09"/>
    <stop offset="1" stop-color="#B37048"/>
  </linearGradient>
  <path fill="url(#K)" d="M445.72 511.93c.67-1.8 8.5-10.24 4.74-21.38-3.77-11.15-9.95-21.16-9.95-21.16s-3.5 17.2-3.3 22.7c.2 5.4 8.6 19.8 8.6 19.8z"/>
  <linearGradient id="L" x1="499.81" x2="499.81" y1="483.66" y2="517.36" gradientUnits="userSpaceOnUse" gradientTransform="matrix(1.252 -.0636 .5086 1.1394 -427.368 -41.22)">
    <stop offset="0" stop-color="#F2AF09"/>
    <stop offset="1" stop-color="#B37048"/>
  </linearGradient>
  <path fill="url(#L)" d="M444.97 517.3c-.5-2.15-9.16-14.86-1.77-24.08 7.4-9.2 17.78-16 17.78-16s1.1 19.33-.34 24.7c-1.42 5.35-15.67 15.4-15.67 15.4z"/>
  <linearGradient id="M" x1="327.4" x2="327.4" y1="933.11" y2="719.43" gradientUnits="userSpaceOnUse" gradientTransform="rotate(-13.457 502.687 645.558)">
    <stop offset="0" stop-color="#F2AF09"/>
    <stop offset="1" stop-color="#B37048"/>
  </linearGradient>
  <path fill="url(#M)" d="M418.7 741.6s-1.05 86.54-45.02 163.58c-43.97 77.03-36.2 74.27-38.68 76.16-2.86-.75-7.03-1.73-6-3.83 12.66-26 53.8-101.2 62.45-125 12.7-34.9 23-109.8 23-109.8l4.25-1z"/>
  <linearGradient id="N" x1="470.85" x2="470.85" y1="470.95" y2="520.46" gradientUnits="userSpaceOnUse" gradientTransform="rotate(-13.457 502.687 645.558)">
    <stop offset="0" stop-color="#F2AF09"/>
    <stop offset="1" stop-color="#B37048"/>
  </linearGradient>
  <path fill="url(#N)" d="M443.72 531.02c.67-1.8 6.7-13.35-1.27-29.38s-10.25-18.77-10.25-18.77-5.8 23.83-1.35 30.98c4.45 7.14 12.87 17.17 12.87 17.17z"/>
  <linearGradient id="O" x1="462.84" x2="462.84" y1="492.78" y2="547.08" gradientUnits="userSpaceOnUse" gradientTransform="rotate(-13.457 502.687 645.558)">
    <stop offset="0" stop-color="#F2AF09"/>
    <stop offset="1" stop-color="#B37048"/>
  </linearGradient>
  <path fill="url(#O)" d="M441.23 559s5.75-29.85-1.2-38.6c-6.96-8.72-16.2-13.08-16.2-13.08s-1.27 22.2 2.68 27.27c4 5 14.8 24.4 14.8 24.4z"/>
  <linearGradient id="P" x1="452.78" x2="452.78" y1="514.07" y2="569.44" gradientUnits="userSpaceOnUse" gradientTransform="rotate(-13.457 502.687 645.558)">
    <stop offset="0" stop-color="#F2AF09"/>
    <stop offset="1" stop-color="#B37048"/>
  </linearGradient>
  <path fill="url(#P)" d="M437.4 582.9c-1.3-1.33 6.94-25.2 1.36-34.27-5.58-9.06-17.23-18.86-17.23-18.86s-5.5 20.47-1.85 28.9c3.66 8.43 17.72 24.23 17.72 24.23z"/>
  <linearGradient id="Q" x1="442.73" x2="442.73" y1="538.03" y2="593.34" gradientUnits="userSpaceOnUse" gradientTransform="rotate(-13.457 502.687 645.558)">
    <stop offset="0" stop-color="#F2AF09"/>
    <stop offset="1" stop-color="#B37048"/>
  </linearGradient>
  <path fill="url(#Q)" d="M432.46 608.65s9.1-29.42 2.78-38.58c-6.3-9.15-18.83-14.45-18.83-14.45s-6.3 22.86-2.5 29.04c3.9 6.2 18.6 24 18.6 24z"/>
  <linearGradient id="R" x1="432.91" x2="432.91" y1="563.58" y2="618.42" gradientUnits="userSpaceOnUse" gradientTransform="rotate(-13.457 502.687 645.558)">
    <stop offset="0" stop-color="#F2AF09"/>
    <stop offset="1" stop-color="#B37048"/>
  </linearGradient>
  <path fill="url(#R)" d="M430.6 634.9c.03-2.2 13.5-31.43-3.6-44.04-6.5-4.8-17.25-7.36-17.25-7.36s-3.68 18.94-2 23.74 22.86 27.65 22.86 27.65z"/>
  <linearGradient id="S" x1="423" x2="423" y1="583.26" y2="634.92" gradientUnits="userSpaceOnUse" gradientTransform="rotate(-13.457 502.687 645.558)">
    <stop offset="0" stop-color="#F2AF09"/>
    <stop offset="1" stop-color="#B37048"/>
  </linearGradient>
  <path fill="url(#S)" d="M424.28 653.37c.66-1.8 12.5-24.2-2.24-37.24-14.72-13.04-20.13-10.5-20.13-10.5s1 24.4 5 30 17.4 17.74 17.4 17.74z"/>
  <linearGradient id="T" x1="412.48" x2="412.48" y1="608.66" y2="658.88" gradientUnits="userSpaceOnUse" gradientTransform="rotate(-13.457 502.687 645.558)">
    <stop offset="0" stop-color="#F2AF09"/>
    <stop offset="1" stop-color="#B37048"/>
  </linearGradient>
  <path fill="url(#T)" d="M421.57 678.65c.54-2.3 8.16-27.68-1.32-35.26-9.48-7.6-21.7-12.9-21.14-10.6.6 2.3-2.2 20.5 1.4 26.2s21.1 19.6 21.1 19.6z"/>
  <linearGradient id="U" x1="403.31" x2="403.31" y1="629.07" y2="683.37" gradientUnits="userSpaceOnUse" gradientTransform="rotate(-13.457 502.687 645.558)">
    <stop offset="0" stop-color="#F2AF09"/>
    <stop offset="1" stop-color="#B37048"/>
  </linearGradient>
  <path fill="url(#U)" d="M417.95 704.7c-.1-2.7 7.22-25.8-2.98-38.15-10.2-12.34-22.6-11.56-22.6-11.56s4.72 31.1 8.3 34.6c3.58 3.5 17.28 15 17.28 15z"/>
  <linearGradient id="V" x1="487.25" x2="487.25" y1="488.69" y2="523.93" gradientUnits="userSpaceOnUse" gradientTransform="rotate(-13.457 502.687 645.558)">
    <stop offset="0" stop-color="#F2AF09"/>
    <stop offset="1" stop-color="#B37048"/>
  </linearGradient>
  <path fill="url(#V)" d="M442.47 534.9c-.1-1.93-2.3-14.77 10.15-27.62 12.46-12.85 15.48-14.75 15.48-14.75s-1.74 24.46-8.15 29.92c-6.4 5.45-17.48 12.44-17.48 12.44z"/>
  <linearGradient id="W" x1="478.33" x2="478.33" y1="513.82" y2="549.15" gradientUnits="userSpaceOnUse" gradientTransform="rotate(-13.457 502.687 645.558)">
    <stop offset="0" stop-color="#F2AF09"/>
    <stop offset="1" stop-color="#B37048"/>
  </linearGradient>
  <path fill="url(#W)" d="M436.33 562.3s3.6-30.2 12.9-36.4c9.27-6.2 19.4-7.53 19.4-7.53s-5.54 21.53-10.85 25.16c-5.3 3.63-21.45 18.76-21.45 18.76z"/>
  <linearGradient id="X" x1="483.99" x2="483.99" y1="545.69" y2="587.94" gradientUnits="userSpaceOnUse" gradientTransform="rotate(-19.926 464.59 669.674)">
    <stop offset="0" stop-color="#F2AF09"/>
    <stop offset="1" stop-color="#B37048"/>
  </linearGradient>
  <path fill="url(#X)" d="M433.07 594.1c1.73-1.18-2.15-29.56 6.07-38.4 8.2-8.86 23.34-17.2 23.34-17.2s1.6 24-4.34 32.58c-5.94 8.57-25.07 23.03-25.07 23.03z"/>
  <linearGradient id="Y" x1="461.98" x2="461.98" y1="559.24" y2="593.87" gradientUnits="userSpaceOnUse" gradientTransform="rotate(-13.457 502.687 645.558)">
    <stop offset="0" stop-color="#F2AF09"/>
    <stop offset="1" stop-color="#B37048"/>
  </linearGradient>
  <path fill="url(#Y)" d="M432.58 609.17s.27-28.45 8.4-34.74c8.12-6.28 20.64-7.42 20.64-7.42s-.82 22-5.94 26.3c-5.13 4.4-23.1 15.9-23.1 15.9z"/>
  <linearGradient id="Z" x1="453.41" x2="453.41" y1="583.59" y2="613.75" gradientUnits="userSpaceOnUse" gradientTransform="rotate(-13.457 502.687 645.558)">
    <stop offset="0" stop-color="#F2AF09"/>
    <stop offset="1" stop-color="#B37048"/>
  </linearGradient>
  <path fill="url(#Z)" d="M429.52 630.35c.65-2.1 3.15-30.46 10.68-33.37 7.53-2.9 18.67-1.77 18.67-1.77s-2.27 19.2-5.34 23.3c-3.07 4.1-24 11.9-24 11.9z"/>
  <linearGradient id="aa" x1="445.09" x2="445.09" y1="606.7" y2="638.68" gradientUnits="userSpaceOnUse" gradientTransform="rotate(-13.457 502.687 645.558)">
    <stop offset="0" stop-color="#F2AF09"/>
    <stop offset="1" stop-color="#B37048"/>
  </linearGradient>
  <path fill="url(#aa)" d="M423.76 657.35c-.08-1.9-4.53-26.84 13.46-34.8 18-7.93 22.38-3.87 22.38-3.87s-8.3 22.98-13.88 27.07c-5.6 4.08-21.96 11.6-21.96 11.6z"/>
  <linearGradient id="ab" x1="433.94" x2="433.94" y1="631.6" y2="661.71" gradientUnits="userSpaceOnUse" gradientTransform="rotate(-13.457 502.687 645.558)">
    <stop offset="0" stop-color="#F2AF09"/>
    <stop offset="1" stop-color="#B37048"/>
  </linearGradient>
  <path fill="url(#ab)" d="M418.65 682.26c.2-2.37.65-28.85 12-33.2 11.33-4.33 24.58-5.67 23.34-3.6-1.3 2.05-4.2 20.2-9.3 24.57-5.2 4.36-26.1 12.23-26.1 12.23z"/>
  <linearGradient id="ac" x1="425.82" x2="425.82" y1="652.81" y2="685.87" gradientUnits="userSpaceOnUse" gradientTransform="rotate(-13.457 502.687 645.558)">
    <stop offset="0" stop-color="#F2AF09"/>
    <stop offset="1" stop-color="#B37048"/>
  </linearGradient>
  <path fill="url(#ac)" d="M414.17 708.17c.93-2.55.98-26.78 14.45-35.43 13.47-8.65 25.05-4.14 25.05-4.14s-13.98 28.25-18.46 30.52c-4.4 2.27-21 9.05-21 9.05z"/>
  <linearGradient id="ad" x1="411.08" x2="411.08" y1="679" y2="710.35" gradientUnits="userSpaceOnUse" gradientTransform="rotate(-13.457 502.687 645.558)">
    <stop offset="0" stop-color="#F2AF09"/>
    <stop offset="1" stop-color="#B37048"/>
  </linearGradient>
  <path fill="url(#ad)" d="M405.66 735.38s8.5-30.32 17.3-35.58 22.57-1.28 22.57-1.28-10.03 20.7-14.6 24.14c-4.6 3.45-25.27 12.72-25.27 12.72z"/>
  <linearGradient id="ae" x1="394.26" x2="394.26" y1="658.88" y2="711.06" gradientUnits="userSpaceOnUse" gradientTransform="rotate(-13.457 502.687 645.558)">
    <stop offset="0" stop-color="#F2AF09"/>
    <stop offset="1" stop-color="#B37048"/>
  </linearGradient>
  <path fill="url(#ae)" d="M417.78 733.2s1.13-31.47-5.65-39.15-21.1-8.08-21.1-8.08 3.25 22.76 6.56 27.44c3.3 4.7 20.1 19.8 20.1 19.8z"/>
  <linearGradient id="af" x1="386.86" x2="386.86" y1="684.97" y2="733.42" gradientUnits="userSpaceOnUse" gradientTransform="rotate(-13.457 502.687 645.558)">
    <stop offset="0" stop-color="#F2AF09"/>
    <stop offset="1" stop-color="#B37048"/>
  </linearGradient>
  <path fill="url(#af)" d="M417.7 756.22c-.1-2.7 3.75-25.53-8.18-34.17s-21.75-8.48-21.75-8.48 7.73 27.7 12.47 31.5c4.74 3.8 17.46 11.15 17.46 11.15z"/>
  <linearGradient id="ag" x1="411.02" x2="411.02" y1="697.24" y2="733.94" gradientUnits="userSpaceOnUse" gradientTransform="rotate(-13.457 502.687 645.558)">
    <stop offset="0" stop-color="#F2AF09"/>
    <stop offset="1" stop-color="#B37048"/>
  </linearGradient>
  <path fill="url(#ag)" d="M416 757.17c-.02-2.7-5-25.32 6.48-34.54 11.48-9.22 21.3-9.55 21.3-9.55s-6.34 28.06-10.9 32.08c-4.54 4.03-16.88 12-16.88 12z"/>
  <linearGradient id="ah" x1="220.59" x2="220.59" y1="1274.4" y2="1529" gradientUnits="userSpaceOnUse">
    <stop offset="0" stop-color="#A16661"/>
    <stop offset="1" stop-color="#663139"/>
  </linearGradient>
  <path fill="url(#ah)" d="M-1.93 1330.4c-103.35 129.8 356.58 308.6 447.33 109.73 70.7-154.97-175.1-132.27-188.96-133.1-112.36-6.74-173.87-82.7-258.37 23.4z"/>
  <path fill="#DFD9C9" d="M209.5 1300.24s-19 13.6 34.23 18.76c40.84 3.96 26.05-12.34 25.72-12.32-.15 0-12.97.64-25.9-.76-16.54-1.77-34.06-5.68-34.06-5.68z"/>
  <linearGradient id="ai" x1="-2.88" x2="107.34" y1="1468.55" y2="1588.82" gradientUnits="userSpaceOnUse" gradientTransform="rotate(102.504 56.507 1523.063)">
    <stop offset="0" stop-color="#E9CB6B"/>
    <stop offset="1" stop-color="#E9AE6B"/>
  </linearGradient>
  <path fill="url(#ai)" d="M24.1 1599.34c30.97 12.9 117.02-32.2 117.03-65.78 0-39.02-39.1-128.23-141.3-76.4-33.85 17.18-44.48 113.52 24.26 142.18z"/>
  <path fill="#F4E7B3" d="M12.27 1451.07C26 1447-23.5 1510.1-24.3 1495.8c-.5-8.86 8.88-24.83 13.8-30.72 4.64-5.6 15.24-11.77 22.77-14z"/>
  <path fill="#DEBE97" d="M315.83 1465.42c-7.6-10-14.73-50.1-25.44-56.66-30.3-18.6-112.9 3.97-139.5 27.5-29 25.57-63.8 111.25-48.6 146.78 15.4 36.12 92.3 101.4 129.6 88.92 82.8-27.75 126.6-150.4 83.8-206.54z"/>
  <g opacity=".4">
    <defs>
      <path id="aj" d="M315.83 1465.42c-7.6-10-14.73-50.1-25.44-56.66-30.3-18.6-112.9 3.97-139.5 27.5-29 25.57-63.8 111.25-48.6 146.78 15.4 36.12 92.3 101.4 129.6 88.92 82.8-27.75 126.6-150.4 83.8-206.54z" opacity=".4"/>
    </defs>
    <clipPath id="al">
      <use xlink:href="#aj" overflow="visible"/>
    </clipPath>
    <radialGradient id="ak" cx="192.05" cy="1481.48" r="182.46" gradientTransform="matrix(1.1696 0 0 1 -56.79 0)" gradientUnits="userSpaceOnUse">
      <stop offset="0" stop-color="#DEE0DB"/>
      <stop offset="1" stop-color="#DEBE97"/>
    </radialGradient>
    <path fill="url(#ak)" d="M-31.17 1287.48h398v388h-398z" clip-path="url(#al)"/>
  </g>
  <path fill="#DFD9C9" d="M258.08 1426.85c-3.77-3.73-23.74-4.88-20.94 3.5 2.8 8.37 16.75 20.24 20.94 18.15 4.2-2.1 3.85-17.84 0-21.65z"/>
</svg>
