<svg xmlns="http://www.w3.org/2000/svg" xmlns:xlink="http://www.w3.org/1999/xlink" viewBox="0 0 484.83 399.13">
  <linearGradient id="a" x1="247.27" x2="247.27" y2="254.6" gradientUnits="userSpaceOnUse">
    <stop offset="0" stop-color="#A16661"/>
    <stop offset="1" stop-color="#663139"/>
  </linearGradient>
  <path fill="url(#a)" d="M24.75 56.02C-78.6 185.78 381.35 364.6 472.07 165.72 542.77 10.75 297 33.45 283.13 32.62c-112.36-6.73-173.87-82.7-258.37 23.4z"/>
  <path fill="#DFD9C9" d="M236.17 25.84s-19 13.6 34.25 18.77c40.83 4 26.04-12.3 25.7-12.3-.14 0-12.96.7-25.88-.7-16.54-1.8-34.07-5.7-34.07-5.7z"/>
  <linearGradient id="b" x1="23.8" x2="134.02" y1="194.15" y2="314.43" gradientUnits="userSpaceOnUse" gradientTransform="rotate(102.504 83.193 248.68)">
    <stop offset="0" stop-color="#E9CB6B"/>
    <stop offset="1" stop-color="#E9AE6B"/>
  </linearGradient>
  <path fill="url(#b)" d="M50.77 324.94c30.98 12.9 117.03-32.2 117.05-65.77 0-39.03-39.1-128.24-141.3-76.4C-7.35 199.94-18 296.3 50.76 324.94z"/>
  <path fill="#F4E7B3" d="M38.95 176.67C52.68 172.6 3.18 235.7 2.38 221.4c-.5-8.86 8.88-24.83 13.8-30.72 4.65-5.58 15.24-11.77 22.77-14z"/>
  <path fill="#DEBE97" d="M342.5 191.03c-7.6-10-14.7-50.1-25.43-56.67-30.3-18.6-112.84 3.98-139.5 27.5-28.97 25.57-63.75 111.26-48.53 146.8 15.48 36.1 92.34 101.4 129.6 88.9 82.85-27.75 126.58-150.4 83.87-206.53z"/>
  <g opacity=".4">
    <defs>
      <path id="c" d="M342.5 191.03c-7.6-10-14.7-50.1-25.43-56.67-30.3-18.6-112.84 3.98-139.5 27.5-28.97 25.57-63.75 111.26-48.53 146.8 15.48 36.1 92.34 101.4 129.6 88.9 82.85-27.75 126.58-150.4 83.87-206.53z" opacity=".4"/>
    </defs>
    <clipPath id="e">
      <use xlink:href="#c" overflow="visible"/>
    </clipPath>
    <radialGradient id="d" cx="218.73" cy="207.08" r="182.46" gradientTransform="matrix(1.1696 0 0 1 -61.315 0)" gradientUnits="userSpaceOnUse">
      <stop offset="0" stop-color="#DEE0DB"/>
      <stop offset="1" stop-color="#DEBE97"/>
    </radialGradient>
    <path fill="url(#d)" d="M-4.5 13.08h398v388h-398z" clip-path="url(#e)"/>
  </g>
  <path fill="#DFD9C9" d="M284.76 152.46c-3.76-3.74-23.73-4.9-20.94 3.5 2.8 8.36 16.76 20.23 20.95 18.14 4.18-2.1 3.84-17.84 0-21.64z"/>
</svg>
