<svg xmlns="http://www.w3.org/2000/svg" width="484.83" height="399.13" xmlns:xlink="http://www.w3.org/1999/xlink">
  <path fill="#BFB5A9" d="M606.43-3535.5c-.83-.4-9.47 11.92-7.66 17.08.66 1.9 6.56 5.08 8.57 3.86 10.56-6.42 11.28-41.04-.9-20.95z"/>
  <path fill="#3D2D1E" d="M141.63-3210.22c4.74 2.9 19.03 4.54 22.25 0 4.74-6.68-26.78-52.62-29.23-61.2-7.52-26.3 18-89.2-.44-109.4-1.2-1.37-57.3 16.58-64.2 33.3-7.8 18.93 25.9 49.74 27.2 52 17 28.9 32.4 63.68 44.5 85.3z"/>
  <path fill="#BFB5A9" d="M114.43-3421.5c-16.4 1.73-25.72 25.86-30.13 38.9-5.1 15.03-11.37 38.35-2.54 53.24 2.57 4.35 6.84 7.9 11.18 10.37 2.58 1.5 5.3 2.7 8.13 3.5 7.2 2.3 2.54 2.7 6.63 7.7 2.84 3.5 6.95.6 8.97-2 6.53-8.5 5.52.8 10.5 4.4 7.4 5.4 7.47-9.2 11.33-10.1 1.24 0 3.46 9.4 8.42 8.6 4.13-.5 5.8-6.4 5.07-9.9.1-.2.3-7 2.6-2.3 1.6 3.3 6.3 8.8 10.6 7.4 3.2-1.3 3.6-4.9 3.2-8-1.2-8.2-1.5-5.6 6.9-11.2 15.2-10.3 15.1-22.9 14.2-39.7-2.2-42.7-36.6-54.7-75.2-50.6-24.6 2.6 82.8-8.7 0 0z"/>
  <path fill="#3D2D1E" d="M372.2-3347.13c1.85 17.92 3.92 41.82 6.8 57.17 1.42 7.63 6.2 22.55 6.8 30.3.83 11.1-4.6 41.63 1.84 50.73 2.7 3.8 17.8 1.93 21.64-.67 28.6-19.32 6.8-135.53 6.18-137.92-.62-2.4-44.45-11.04-43.27.4zM47.08-3386.3c2.87-26.05 12.87 5 12.94 5.6.07.6 1.44 12.25 1.87 16.34 1.8 17.78-12.2 62.25-15.6 65.94-2 2.1-4.8-51.2-4.9-53.43-.3-8.72 4.6-25.78 5.6-34.46z"/>
  <path fill="#664926" d="M57.72-3450.36c2.32 10.66 9.9 41.4 8.65 71.86-.6 14.5-21.53 32.75-19.65 47.13 5.8 44.27 6.05 108.02 18.57 130.73 3.8 3.32 19.2 3.6 22.5-.3.9-23.65-16.1-35.7-11.6-80.2 2.3-23.42 22.1-54.68 32.9-75.58 10.9-21.17 55.3-36.97 69.5-25.65 6.7 5.4 3.6 31.18 8.5 38.33 8.3 12.2 39.3 16.12 53.9 18.23 36.5 5.2 122.7-26 151.1-2.5 7.4 44.5 9.5 104.6 12.3 132.4 3.7 3.9 28.8 8.7 27.3-.8-5.9-36.5-7.5-59-1-80.6 3.1-10.2 2.2-29.9 2.8-41.3 8-.1 47.8-13.8 64.3-38.7 9.8-14.9 31.9-53.7 49.4-53.6 17.5.1 54 5.8 69.2 16.2 13 9 35-4.9 33.1-17.7-.3-1.9-20.3-45.6-24.1-62-.8-3.2.6-10.3-1.3-13-18.7-27.2-15.6-50.1-25.5-48.2-12.8 2.3-10.2 11.9-11.3 9.4-1.3-1.6-5.7-13.9-12.1-15.1-11.5-2.2-11.2 16.2-9.4 19.6-111.1 4.6-100.4-8.4-135.6-14.6-59.8-10.6-198 6.6-256.8-8.5-19.5-5-45-8.3-64.6-8.7-32.5-.8-42.4 14.7-51 27.1-1 1.4-10.3 11.6-11.6 15.9-.5 1.4 7.2 31 2.7 77.4-6.8 72 13.3 61.8 10.5 51.8-5-18.2-2.3-69.7-2.2-69.4z"/>
  <path fill="#BFB5A9" d="M613.6-3568.5c-.64-.63-.24.1.03.6 11.4 21.32-21.7 36.35-21.7 41.82 0 2 4.65 7.43 6.8 6.5 7.86-3.42 34.43-32.22 14.88-48.9z"/>
  <linearGradient id="a" x1="345.66" x2="345.66" y1="-3628.41" y2="-3020.04" gradientUnits="userSpaceOnUse">
    <stop offset="0" stop-color="#FFF"/>
    <stop offset="1"/>
  </linearGradient>
  <path fill="url(#a)" d="M649.73-3412.23c-.27-1.83-20.26-45.55-24.1-61.93-.75-3.17.6-10.3-1.24-12.98-7.7-11.14-11.7-21.56-14.4-29.85 4-5 5.9-14.4 5.3-20 6-10.1 8.7-22.5-1.7-31.4-.7-.6-.3.1 0 .6 7.4 13.8-3.8 24.9-12.7 32.6-.6-.1-1.3-.1-2.1 0-12.8 2.4-10.2 11.9-11.3 9.4-1.3-1.6-5.7-13.8-12.1-15-11.5-2.2-11.2 16.3-9.4 19.6-111.1 4.7-100.5-8.4-135.6-14.6-59.8-10.6-198 6.7-256.8-8.4-19.6-5-45-8.2-64.6-8.7-32.5-.8-42.4 14.7-51 27.1-1 1.5-10.3 11.7-11.6 15.9-.5 1.4 7.2 31 2.8 77.4-1.7 17.6-1.8 30.3-1 39.2-.6 1.7-1 4-1.4 7.3-1 8.7-5.9 25.8-5.6 34.5.1 2.2 2.9 55.5 4.9 53.4.7-.7 1.8-3.1 3.1-6.6 3.5 40.2 5.6 86 15.8 104.5 3.8 3.3 19.2 3.6 22.5-.3.9-23.6-16.1-35.7-11.6-80.2.9-8.6 4.1-18.3 8.4-28.2 6.2 7.5 11.9 13 12.4 13.9 17 28.9 32.4 63.7 44.5 85.3 4.7 2.9 19 4.6 22.2 0 4.7-6.6-26.8-52.6-29.3-61.2-2.9-10-1-25.3 1.5-41.6.6-1.3 1.3-2.4 2.3-2.6 1.2 0 3.4 9.4 8.4 8.6 4.1-.5 5.8-6.4 5.1-9.9.1-.1.3-7 2.6-2.3 1.6 3.3 6.3 8.9 10.6 7.4 3.2-1.2 3.6-4.9 3.2-7.9-1.2-8.2-1.5-5.6 6.9-11.3 5.9-4 9.5-8.4 11.6-13.2l.2.4c8.3 12.2 39.3 16.1 53.9 18.2 30.3 4.4 94.8-16.4 132.1-10.1 1.6 15.8 3.4 33.7 5.7 46 1.4 7.6 6.2 22.5 6.8 30.3.9 11.2-4.6 41.7 1.9 50.8 1.9 2.7 9.9 2.6 15.9 1.3.3 4.4.6 8.3 1 11.8 3.7 4 28.8 8.8 27.2-.8-5.9-36.4-7.5-59-1-80.6 3.1-10.2 2.2-29.8 2.8-41.3 8-.1 47.9-13.8 64.3-38.7 9.8-14.8 31.9-53.6 49.4-53.5 17.6.1 54.1 5.8 69.2 16.2 13 9 35-4.8 33.1-17.6zM66.37-3378.5c-.17 4.18-2.04 8.7-4.57 13.32-.4-3.8-1.3-11.43-1.64-14.35 0-.2-.04-.4-.07-.62l-.1-.54-.3-.8c-4.8-18.7-2.1-69.1-2.1-68.8 2.3 10.7 9.9 41.4 8.6 71.9z"/>
  <path fill="#BF9582" d="M368.12-2491.4c-2.34-.3-12.93 63-14.9 63.65s-21.93 10.4-18.9 15.78c7.15-1.43 12.96-6.97 17.06-5.2.37 10.33 2 16.55 22.8 27.2.86-3.15-1.8-9.7-7.7-13.27 6.08-1.54 34.72 3.57 42.58 3.1-12.77-14.72-35.78-14.1-37.37-16.36-8.5-11.9-1.2-49.78 7.2-59.1-.7-4.34-6.5-15.22-10.8-15.8z"/>
  <path fill="#BF9582" d="M398.62-2503.84c-2.36.14-.82 64.3-2.63 65.3s-19.6 14.37-15.6 19.08c6.7-2.76 11.4-9.3 15.7-8.34 2.3 10.1 5.1 15.9 27.5 22.42.2-3.25-3.6-9.2-10.1-11.57 5.6-2.66 34.7 5.5 42.4 3.56-15.4-12-37.9-15.7-39.8-17.5-10.6-10.1-13.6-62.1-7.2-72.9-1.5-4.1-6.1-.2-10.5 0z"/>
  <path fill="#D8D8D8" d="M560.46-2850.72c1.1-2.53 9.6-16.84 8.1-22.67-1.88-7.2-15.4-17.5-22.64-19.3-16.6-4-53.85 4-66.64 15.4-49.98 44.4-27.07 69.5-37.75 91-6.2 12.5-15.5 38.1-27.07 45.8-10.18 6.8-12.52 10.2-48.16 15.7-43.34-6.6-64.34 17-84 2.4-3-2.2-1.1-11.4 0-15 18-58.3 2.28-161.9-36-152.3-8 2 8.33 27.7 5.57 37.7-4-17.3-20.9-27.7-32.57-21-21.34-4-11.34 14-11.34 14-16.66 2-23.33 21.7-22.66 24-17.34-13.6-35.34 22.7-27.34 24-5.66 2.4-4.68 5.8-5.5 8.7-31.5 1.7-19.7 23.4-17.83 30-39 11.4-5.54 33.3 3.22 42.7-3.6 10.8-2.55 33.7 20.78 50.7-12.33 13.4-10.53 20-6 26.7 4.94 7.4 21.57 15.4 28.67 20.7 9.67 57.3 103.67 166.3 183.33 139.3 4.1 3.9 9 17.8 14.67 17.3 26.43-2.1 23.72-18.8 32.67-20.6 40.33-8.3 131.92-89.3 149-140.6 13.56-40.7-28.1-134.9-19.67-177 1.93-9.7 15.27-27.9 19.16-37z"/>
  <path fill="#936565" d="M527.3-2839.22c3.5 28 17.85 21.47 25.5 19 23.37-2 20.25-27.38 11.62-34.25-10.4-8.3-19.62 8.5-37.12 15.25z"/>
  <path fill="#BF9582" d="M559.5-2852.8c1.9-.45 6.26-1.8 8.24-1.48 3.93.62 5.3.5 15.68 1.68.9.1 2.88 1.86 3.38 1.13 1.2-9.36-9.8-18.35-15.97-18.88-4.07-.35-10.37 6.92-12.34 10.5-.7 1.25-.6 6.1 1 7.04z"/>
  <path fill="#936565" d="M539.17-2894.28c-.98-4.28-.44-16.52 3.94-16.32 2.7.13 8.5-1.9 9.7-1.06 1.8 1.2 1.1 5.1 1 5.6-.1.3-.2.98.1.65 1.4-1.7 4-2.8 5.2-2 2 1.3.6 3.2-.4 5.8-.1.2 0 .9.3.7 2-2.1 4.8-3.8 6.4-2.3 2.3 2.1-.7 6.8-1.9 9.5-.1.2.5-.1.7-.1 3.3-.5 3.5-1.3 5.6-.4 5.8 2.8 14.6 18.8 10.2 23.6-2.6 2.9-11.8-.6-15.5-1.9-7.6-2.7-23.1-14.2-24.9-22.1z"/>
  <linearGradient id="b" x1="351.51" x2="351.51" y1="-2911.87" y2="-2389.97" gradientUnits="userSpaceOnUse">
    <stop offset="0" stop-color="#FFF" stop-opacity="0"/>
    <stop offset="1" stop-color="#3F4568"/>
  </linearGradient>
  <path fill="url(#b)" d="M574.37-2869.35c2.23.27 4.18.1 5.18-1 4.34-4.76-4.45-20.83-10.25-23.62-2.04-.98-2.23-.17-5.55.35-.2.03-.74.3-.64.1 1.3-2.7 4.3-7.37 2-9.5-1.6-1.52-4.4.16-6.3 2.22-.2.24-.3-.46-.2-.7 1.1-2.64 2.5-4.57.5-5.86-1.2-.8-3.7.33-5.1 1.95-.3.3-.1-.4-.1-.7.2-.5.9-4.4-.9-5.6-1.2-.9-7 1.2-9.6 1-4.3-.2-4.9 12-3.9 16.3 0 .2.1.4.2.6-18.4-1.2-48.8 6.2-60.1 16.2-49.9 44.3-27 69.4-37.7 90.9-6.2 12.5-15.5 38-27 45.7-10.2 6.8-12.5 10.1-48.1 15.7-43.3-6.7-64.3 17-84 2.3-3-2.3-1.1-11.4 0-15 18-58.4 2.3-161.9-36-152.4-8 2 8.4 27.7 5.6 37.7-4-17.3-20.9-27.7-32.6-21-21.3-4-11.3 14-11.3 14-16.7 2-23.3 21.7-22.7 24-17.3-13.7-35.3 22.7-27.3 24-5.6 2.3-4.7 5.8-5.5 8.7-31.5 1.6-19.7 23.3-17.8 30-39 11.3-5.5 33.2 3.2 42.7-3.6 10.8-2.5 33.6 20.8 50.6-12.3 13.3-10.5 19.9-6 26.7 5 7.3 21.6 15.4 28.7 20.6 9.6 57.4 103.6 166.4 183.3 139.4.8.7 1.6 1.9 2.5 3.2-3.5 10.5-12.2 61.1-13.9 61.7-2 .6-21.9 10.4-18.9 15.8 7.2-1.5 13-7 17.1-5.2.4 10.3 2 16.5 22.8 27.2.9-3.2-1.8-9.7-7.7-13.3 6.1-1.6 34.8 3.5 42.6 3.1-12.7-14.8-35.8-14.1-37.3-16.4-8.4-11.8-1.2-49.2 7.1-58.9h.6c8.6-.7 14.1-2.9 17.9-5.7-.2 18.6-.1 41.9-1.2 42.5-1.8 1-19.6 14.3-15.6 19 6.8-2.8 11.4-9.3 15.8-8.4 2.3 10 5.1 15.9 27.5 22.4.2-3.3-3.6-9.2-10.1-11.6 5.7-2.7 34.8 5.5 42.4 3.6-15.3-12.1-37.9-15.7-39.8-17.6-8.2-7.9-11.9-41.1-10.1-60.5 1.6-2.3 3.2-4.1 5.8-4.6 40.4-8.3 131.9-89.3 149-140.7 13.6-40.8-28.1-134.9-19.6-177 .3-1.3.7-2.6 1.3-4.1 3.8-.1 7.5-1.6 10.3-2.5 23-2 20.3-26.5 12-33.9 1.1-.2 2.2-.3 2.9-.2 3.9.6 5.3.5 15.7 1.7.9.1 2.9 1.9 3.4 1.1 1-7.7-6.4-15.2-12.4-17.9zm-4.47-.94c-.44.1-.9.3-1.35.4.04-.2.08-.5.1-.7l1.25.4z" opacity=".3"/>
  <path fill="#AF9D95" d="M189.68-1857.56c-.06 2.4-14.65 60.9-8 80 10.95 31.5 92.5 92.88 89.33 95.33-6 4.67-48.8 3.76-50.1.43s-85.2-60.43-119.2-83.76c-33.8-23.24-46-144.34-10-164 26.7-14.55 98.7 41.6 98 72zM383-1788.9c2.3 1.37-6 54.82 15.34 108.26 2.78 6.96-29.33 1.58-30 0s-44.3-59.25-37.33-80.25c4.7-14 39.4-35.5 52-28zm195.34-242c7.25-11.97 39.67-30.33 53.58-31.12 6.04-.35-9.5 18.58-10.9 24.46-2.46 10.23 1.32 47 .66 43.67s-50.24-25.5-43.34-37z"/>
  <path fill="#D8BBAF" d="M149.68-1855.56c-8.5 3.9-18.1 21.9-21.34 30.67-6.33 17.2-9.08 54.5-7.33 72.7 3 31 28.6 83.3 35.6 125-3 3.4-20.6 3.6-24.2 3.7-14-4.9-34.6-16.6-48-84.6-7-13.8-21.4-41.6-25.3-56.6-3.1-11.9.8-38.1-4.6-49.3-2.4-5-13.4-20.2-16-15.3-2.5 4.9 5.6 30.1 2.6 37-.4 1-1.7 2.7-2.3 1.6-9-15.6-10.6-30-11.6-39.9-80.6-119.1-54-178.7-5.3-214 176.7-128 277.6-15 370-22 210-16 240 74.7 276.7 108.7 8.6 8 34.8 14.1 40 24.7 24.7-16.6 28 38.7-4.7 46-3.6 4.7-16.4 6.3-22 8-22.5 7.3-67.8 22.2-91.3 25.4-44.7 6-131.3 34-175.3 30.7-13.4-1-24.9 37.5-33.3 48-43.5 54.3-27.5 58-20 123.4-10 3.8-33.8 1-37.1-23.7-.6-4.7-14.9-56.7-15.5-78.3-.7-21.4-12.9-52.9-14.7-83.3-34-10.7-105.3-14.7-144.6-18z"/>
  <path fill="#AF9D95" d="M521.68-1963.53c3.26-.66 37.55-32.38 46-46.6 9.26-15.63-7.64-79.24-20.34-71.43-21.66 13.33-15.06 38.6-17.33 51-3.1 17.18-21.3 69.66-8.3 67.03z"/>
  <linearGradient id="c" x1="351.51" x2="351.51" y1="-2106.28" y2="-1623.56" gradientUnits="userSpaceOnUse">
    <stop offset="0" stop-color="#FFF" stop-opacity="0"/>
    <stop offset=".19" stop-color="#D9C0C0" stop-opacity=".19"/>
    <stop offset=".41" stop-color="#B07C7C" stop-opacity=".41"/>
    <stop offset=".61" stop-color="#8F4747" stop-opacity=".61"/>
    <stop offset=".78" stop-color="#782020" stop-opacity=".78"/>
    <stop offset=".92" stop-color="#690909" stop-opacity=".92"/>
    <stop offset="1" stop-color="#640000"/>
  </linearGradient>
  <path fill="url(#c)" d="M708.35-1933.56c-5.2-10.54-31.4-16.68-40-24.67-13.63-12.63-26.34-33.1-47.7-53-.54-9.92-.84-21.3.36-26.33 1.5-5.88 17-24.8 11-24.46-11.4.65-35.4 13.18-47.6 24.28-5.1-2.87-10.6-5.62-16.5-8.22-4.2-20.37-13.1-40.16-20.5-35.6-9.8 6.06-13.8 14.58-15.5 23.24-34.9-9.02-80.2-13.14-140.1-8.57-92.4 7.1-193.3-106-370 22-48.6 35.3-75.3 95 5.4 214 1 10 2.5 24.3 11.6 40 .6 1.1 2-.6 2.4-1.6 3-6.9-5.1-32.1-2.6-37 2.6-4.9 13.6 10.4 16 15.4 5.4 11.2 1.5 37.4 4.7 49.4 4 15 18.4 42.8 25.4 56.7 13.3 68 34 79.8 48 84.7 3.6 0 21.2-.2 24.2-3.6-7-41.7-32.6-94-35.6-125v-.1c39.2 26.8 98.8 67.7 99.9 70.5 1.4 3.4 44.2 4.3 50.2-.4 3.2-2.4-78.4-63.8-89.3-95.3-5.5-16 3.8-59.8 7-74.9 37.3 3 81.2 7.3 105.7 15 1.8 30.4 14 62 14.7 83.3.7 21.7 15 73.7 15.6 78.3 3.3 24.7 27.1 27.6 37.1 23.7-2.6-22.5-6.2-37.6-8-50.1 7.7 12.1 14.4 21.1 14.7 21.8.7 1.6 32.8 7 30 0-15.7-39.3-15.4-78.7-15-97.3 8.3-12.9 19.1-46.5 31.7-45.6 44 3.3 130.6-24.7 175.4-30.7 23.5-3.1 68.8-18.1 91.3-25.3 5.6-1.8 18.4-3.4 22-8 32.7-7.3 29.3-62.6 4.7-46z" opacity=".3"/>
  <path fill="#58385E" d="M567.8-1200.03c-41.5-84.37-141.88-16.43-231.9-10.14-211.15 14.75-215.76 177.95-106.5 223.14 141.14 58.36 381.63-125.08 338.4-213z"/>
  <path fill="#5E7628" d="M569.27-1196.7c4.98 10.04 4.76 33.02 2.4 41.96-5.9 22.15-56.43 72.27-64.67 64.95-15.73-12.5.05-63.3-11.55-79.7-11-15.6-68.62-16.9-67.33-35.9 8.28-3.7 45.32-10.5 53-23 2.03-3.3-2.68-7.2-.1-10.1 4.66-5.2 21.96-4.8 28.7-2.8 2.37.7 5.8 5.2 8.3 5.5 3.6.5 10.3-2.6 13.83-1.7 4.57 1.2 12.1 8.8 16.82 9.4 7.04.8 16.35-13.8 23-11.3 6.9 2.6-3.87 11.1 10.42 27.7-1.4 7.1-11.1 8.3-12.9 15.3z"/>
  <linearGradient id="d" x1="370.46" x2="370.46" y1="-1242.94" y2="-975.78" gradientUnits="userSpaceOnUse">
    <stop offset="0" stop-color="#FFF" stop-opacity="0"/>
    <stop offset=".14" stop-color="#D5D4E2" stop-opacity=".14"/>
    <stop offset=".37" stop-color="#9490B6" stop-opacity=".37"/>
    <stop offset=".58" stop-color="#605B93" stop-opacity=".58"/>
    <stop offset=".76" stop-color="#3A3479" stop-opacity=".76"/>
    <stop offset=".91" stop-color="#231D6A" stop-opacity=".91"/>
    <stop offset="1" stop-color="#1B1464"/>
  </linearGradient>
  <path fill="url(#d)" d="M582.1-1212.02c-14.3-16.6-3.53-25.06-10.45-27.66-6.63-2.5-15.94 12.1-23 11.3-4.7-.54-12.23-8.12-16.8-9.34-1.07-.3-2.43-.2-3.9.06-5.76-2-11.83-3.23-18.17-3.84l-.07-.03c-5.4-1.64-17.6-2.24-24.7.34-44.8 4.6-98.5 27.5-149.1 31.1-211.1 14.7-215.7 177.9-106.5 223.1 111.8 46.2 285.9-59.2 332-148.8 5.1-7.1 8.9-13.7 10.3-18.9 2.4-8.9 2.6-31.9-2.4-41.9 1.8-7 11.5-8.2 12.9-15.3z" opacity=".4"/>
  <path fill="#EE1B08" d="M314.35-1100.53c0 74-68.17 133.62-142.13 131-75.54-2.66-130.2-57-130.2-131s61.33-133.54 149.38-133.54c74 0 122.95 59.54 122.95 133.54z"/>
  <path fill="#7D9D38" d="M180.1-1173.78c-1.98 1.6-7.4-.04-9.75-1.25-2.52-1.3-4.96-7.3-7.75-7.75-6.94-1.12-26.18 11.26-28.58 11.26-14.92 0-101.42-24.26-107.34 10.66-.06-39.67 71.23-11.92 89.34-21.33 4.58-13.8-54.17-44.3-49.17-61 7.4 8.6 13 14.3 31 19.5 20 5.9 25.75 28.8 43.5 17.6 8.75-5.5-8.5-30.8-1.33-41.3 11.08 9.3 15.66 58.2 19.45 49.5 4.63-10.6 21.07-13 32.38-31.1 7.26-11.6 6.75-28.6 12.5-37.1 6.17-9.1 7.9-8.2 9-8-.87 1.2-1.1-.2-7 9.8-5.17 8.8-1.72 26-8 38.7-8.27 16.6-25.77 28.7-26.13 37.7-.18 4.5 5.2 7.9 7.88 14.5z"/>
  <g opacity=".5">
    <defs>
      <path id="e" d="M314.35-1100.53c0 74-68.17 133.62-142.13 131-75.54-2.66-130.2-57-130.2-131s61.33-133.54 149.38-133.54c74 0 122.95 59.54 122.95 133.54z" opacity=".5"/>
    </defs>
    <clipPath id="g">
      <use xlink:href="#e" overflow="visible"/>
    </clipPath>
    <radialGradient id="f" cx="111.15" cy="-1144.42" r="201.02" gradientTransform="matrix(.9288 0 0 1 37.28 0)" gradientUnits="userSpaceOnUse">
      <stop offset="0" stop-color="#FFF" stop-opacity="0"/>
      <stop offset=".19" stop-color="#C0C0C0" stop-opacity=".19"/>
      <stop offset=".41" stop-color="#7C7C7C" stop-opacity=".41"/>
      <stop offset=".61" stop-color="#474747" stop-opacity=".61"/>
      <stop offset=".78" stop-color="#202020" stop-opacity=".78"/>
      <stop offset=".92" stop-color="#090909" stop-opacity=".92"/>
      <stop offset="1"/>
    </radialGradient>
    <path fill="url(#f)" d="M-63.48-1324.92h408v361h-408z" clip-path="url(#g)"/>
  </g>
  <path fill="#A5C44C" d="M493.18-1032.67l21.92-.8 42.4.55v-8l3.35-8.5-12.67-1.5-3.33-3.67 6-1.6-1.5-10.8-60.35 10.1"/>
  <path fill="#DD7236" d="M75.85-1004.5c-34.67 11.58-21 43.92-2.33 43.58 34.76-.62 94.5 5.87 156-3.67 139.66-21.6 282.43-9.5 270-82.3-9.34-54.6-96.34-21.6-200.67 4-51.22 12.6-106.52 20.5-157.67 29-21.63 3.6-46.2 3-65.33 9.4z"/>
  <linearGradient id="h" x1="301.08" x2="315.86" y1="-1051.74" y2="-967.92" gradientUnits="userSpaceOnUse">
    <stop offset="0" stop-color="#FFF" stop-opacity="0"/>
    <stop offset=".08" stop-color="#F8E7E7" stop-opacity=".08"/>
    <stop offset=".33" stop-color="#E5A3A6" stop-opacity=".33"/>
    <stop offset=".56" stop-color="#D56E72" stop-opacity=".56"/>
    <stop offset=".75" stop-color="#CA474C" stop-opacity=".75"/>
    <stop offset=".9" stop-color="#C33035" stop-opacity=".9"/>
    <stop offset="1" stop-color="#C1272D"/>
  </linearGradient>
  <path fill="url(#h)" d="M548.18-1050.92l-3.33-3.66 6-1.67-1.5-10.83-53.38 9c-19.38-38.43-100.87-8.5-197.12 15.16-51.22 12.6-106.52 20.52-157.67 29-21.63 3.6-46.2 3.02-65.33 9.42-34.67 11.58-21 43.92-2.33 43.58 34.76-.62 94.5 5.87 156-3.66 129.94-20.16 262.57-11.04 270.4-68.33l15.18-.6 42.42.5v-8l3.33-8.5-12.67-1.5z" opacity=".2"/>
  <path fill="#437013" d="M487.54-243.78c5.77-3.45 42.94-41.2 42.88-56.8-.02-6.8-8.9-25.04-6.34-31.45 2.95-7.38 4.02-28.77 5.3-40.93 4.92-46.28-298.87-346.82-324.28-438.36-7.8 53.03 43.5 92.82 111.23 205.63-38.67-50-182.15-188.6-209.55-228.4-26.54 13.7 46.6 78.2 52.82 107.1-15.08-15.5-60.9-53.7-76.3-66.5-19.37 9.6 17.57 65.7 11 80-17.17-24.2-34.67-64-48.18-84.9-22.33 8.3 63.98 167 62.32 182.6-.75 7-61.2-53.2-119.67-39.4 95.16 39 88 41.9 102.8 61.4 180.13 237 301.13 318.9 324.25 327.1 31.1 11.1 30.63 2.4 45.33 7.7 5.72 2.1 21.16 18.4 26.4 15.3z"/>
  <path fill="#FEC02D" d="M515.9-346.1c2.53-2.3 4.32-4.08 4.32-4.08 1.7-2.38 2-5.33 1.1-7.9 1.58-1.47 2.6-2.47 2.6-2.47 2.77-3.92 1.84-9.36-2.08-12.14l-.74-.5c-.46-.3-1.07-.4-1.8-.2.5-3.3-.98-6.8-4.03-8.7l-.77-.5c-.25-.1-.54-.2-.85-.2-.04-2.8-1.48-5.6-4.1-7.3l-.8-.5c-.6-.3-1.45-.3-2.45.1.45-3.3-1-6.7-4.04-8.6l-.77-.5c-.3-.1-.6-.2-1-.2 0-2.9-1.5-5.7-4.1-7.4l-.8-.5c-.2-.1-.5-.2-.7-.2-.6-1.9-1.9-3.6-3.7-4.8l-.8-.5-.4-.1c-.4-2.2-1.6-4.4-3.6-5.8l-.8-.5c-.3-.2-.6-.3-1-.3.1-2.9-1.1-5.8-3.7-7.6l-.8-.5c-.5-.3-1.1-.3-1.8-.2-.3-2.3-1.5-4.5-3.6-6l-.8-.5c-.2-.2-.6-.3-.9-.3.1-2.9-1.1-5.8-3.7-7.6l-.8-.5c-.5-.3-1.1-.4-1.9-.2-.3-2.3-1.5-4.6-3.6-6l-.8-.5c-.5-.3-1.1-.4-1.8-.2.5-3.3-1-6.8-4.1-8.7l-.8-.4c-.3-.2-.5-.2-.9-.3 0-2.8-1.5-5.6-4.1-7.3l-.8-.5c-.6-.3-1.5-.3-2.5.1.4-3.3-1-6.7-4-8.6l-.8-.5c-.3-.1-.6-.2-1-.2 0-2.9-1.5-5.7-4.1-7.4l-.8-.5c-.2-.1-.4-.2-.7-.2-.6-1.9-1.8-3.6-3.7-4.8l-.8-.5c-.4-.2-.8-.2-1.2-.2-.3-2.6-1.7-5.1-4.1-6.6l-.8-.5c-.3-.1-.6-.2-1-.2 0-2.9-1.5-5.7-4.2-7.3l-.8-.5c-.2-.1-.5-.2-.8-.2 0-2.9-1.5-5.7-4.1-7.3l-.8-.5c-.5-.3-1.2-.3-1.9-.1-.5-2.3-1.8-4.5-4-5.8l-.8-.5c-.2-.2-.6-.3-.9-.3 0-2.9-1.5-5.7-4.1-7.3l-.8-.5c-.7-.4-1.6-.3-2.6.1-.3-2.8-1.9-5.5-4.6-6.9l-.8-.4c-.3-.1-.6-.2-.9-.2-.2-2.8-1.8-5.5-4.6-7l-.8-.4c-.6-.3-1.5-.2-2.4.2.2-3.3-1.5-6.6-4.6-8.3l-.8-.4c-.6-.3-1.2-.2-2 0-.6-2.3-2.1-4.4-4.4-5.6l-.8-.4c-.2-.1-.5-.2-.8-.2-.7-1.8-2.1-3.5-4-4.5l-.8-.4c-.3-.1-.6-.2-.9-.2-.3-2.8-2.1-5.4-4.8-6.7l-.8-.4c-.3-.1-.6-.2-1-.1-.3-2.9-2-5.6-4.8-6.9l-.8-.4c-.5-.2-1.1-.2-1.8.1-.7-2.2-2.3-4.2-4.5-5.3l-.9-.4c-.3-.2-.6-.2-1-.2-.3-2.9-2-5.5-4.8-6.9l-.8-.4c-.5-.3-1.2-.2-1.9 0-.7-2.2-2.2-4.3-4.5-5.4l-.9-.4c-.5-.2-1.1-.2-1.7 0l-.1-.1c-.2-3.3-2.1-6.4-5.4-7.7l-.9-.3c-.3-.1-.6-.1-.9-.1-.5-2.8-2.4-5.4-5.3-6.5l-.9-.4c-.5-.3-1.2-.2-2 .2l-.5-.5c-.3-3.1-2.2-5.9-5.3-7.1l-.8-.4c-.3-.14-.7-.16-1-.1-.5-2.9-2.4-5.4-5.3-6.6l-.8-.4c-.2-.1-.5-.1-.7-.1-.9-1.8-2.4-3.3-4.5-4.13l-.7-.5c-.4-.15-.9 0-1.1-.2-.9-2.32-2.6-4.63-5.2-5.7l-.9-.3c-.3-.1-.7-.1-1-.04-.5-2.8-2.4-5.4-5.3-6.5l-.9-.4c-.3-.1-.6-.1-.9-.1-.5-2.8-2.4-5.4-5.3-6.5l-.88-.4c-.56-.2-1.2-.13-1.9.2-.8-2.24-2.5-4.14-4.9-5.1l-.8-.35c-.3-.1-.6-.1-1-.1-.5-2.8-2.4-5.4-5.3-6.6l-.9-.4c-.6-.2-1.5 0-2.4.5l-.2-.2c-.7-2.6-2.74-4.9-5.6-5.9l-.84-.3c-.3 0-.6-.1-.9 0-.7-2.8-2.75-5.2-5.7-6.2l-.9-.3c-.6-.2-1.2 0-2 .4l-.6-.4c-.5-3.05-2.6-5.73-5.76-6.8l-.8-.3c-.6-.2-1.3-.03-2 .37-.96-2.2-2.8-4-5.2-4.8l-.9-.3c-.2-.1-.5-.1-.7-.1-1-1.7-2.6-3.2-4.7-3.8l-.8-.3c-.44-.14-.9-.1-1.44.1-1.1-2.55-3.5-4.5-6.43-5-1.2-2.5-3.6-4.33-6.6-4.74l-.8-.1c-1-3.05-3.7-5.4-7.1-5.9l-.9-.13c-.3-.1-.6 0-.94.1-1.2-2.7-3.7-4.64-6.7-5.1l-.9-.1c-.3 0-.6 0-.9.1-1.2-2.6-3.7-4.6-6.7-5l-.9-.1c-.6-.1-1.2.2-1.8.7-1.4-2-3.5-3.4-6-3.7l-.9-.1c-.4-.05-.7 0-1 .15-1.2-2.6-3.7-4.6-6.8-5l-.9-.2c-.8-.1-1.57.4-2.4 1.2-1.4-2.5-3.95-4.3-7-4.5l-.9-.1c-.5 0-1 .2-1.46.5-.9-2.2-2.7-4.1-5.3-5l-.8-.3c-1.3-.5-3.25.9-5.3 3.13-1-1.1-2.2-1.95-3.7-2.5l-.8-.3c-1.6-.55-4 1.5-6.4 4.4-.9-.8-1.98-1.5-3.2-2l-.86-.3c-.95-.4-2.2.2-3.5 1.4-.8-1.1-1.9-2.1-3.2-2.7l-.87-.4c-4.2-2.2-17.6 16.2-17.6 16.2-.47 1-.5 2.1-.2 3.3-2.4 2-4 3.9-3.57 5.3l.3.9c.2.5.4 1 .7 1.5-3.8 2.6-6.9 5.5-6.3 7.4l.3.8c.2.9.7 1.7 1.2 2.5-1.6 1.5-2.6 3-2.3 4.1l.3.9c.2.8.6 1.5 1 2.2-.6.6-.8 1.2-.8 1.8l.1.9c.1 2.2 1.1 4.1 2.5 5.5l-.3.7-.1.98c-.5 3.6 1.2 7 4.2 8.7-.6.6-.9 1.1-.9 1.7v1c-.1 3 1.4 5.8 3.8 7.4-.9.7-1.4 1.4-1.4 2.2v.9c.1 3.1 1.9 5.7 4.4 7.2-.2.3-.3.6-.2.9l.1.9c.1 2.6 1.3 4.8 3.1 6.3-.6.6-.9 1.2-.9 1.8v.9c.1 3.1 1.8 5.7 4.3 7.1-.1.3-.2.6-.2.9l.1.9c.2 3.1 1.9 5.7 4.4 7.2-.1.3-.2.6-.2.9l.1.93c.1 3.4 2.2 6.3 5.2 7.6v.8c.2 3 1.8 5.57 4.1 7 .2 3 1.9 5.5 4.3 6.9-.2.5-.3 1-.2 1.4l.2.9c.5 2.1 1.8 3.9 3.4 5.1v.8l.2.9c.6 2.5 2.3 4.5 4.4 5.7-.5.6-.7 1.3-.5 1.9l.2.9c.8 3.4 3.6 5.9 6.8 6.5-.6.8-1 1.6-.8 2.3l.2.9c.73 3 2.9 5.2 5.64 6.2-.1.3-.1.6-.1.9l.2.8c.8 3 2.9 5.2 5.6 6.2-.6.9-1 1.7-.7 2.5l.3.8c.9 2.9 3.2 5.1 6 5.8-.1.36-.1.7 0 1l.23.86c.7 2.45 2.5 4.3 4.6 5.34-.4.7-.5 1.3-.4 1.9l.3.8c.9 3 3.2 5.1 6 5.9-.1.3-.1.6 0 .9l.3.9c.9 3 3.28 5.1 6 5.9-.1.4-.1.7 0 1l.3.9c.8 2.8 2.9 4.8 5.3 5.7-.1.48-.1.88 0 1.2l.3.9c.6 2.1 2 3.7 3.7 4.8-.1.3-.1.5 0 .77l.3.9c.9 3 3.2 5.1 6.1 5.9-.1.37-.1.7-.1 1l.3.9c1.1 3.4 4 5.7 7.3 6.1-.6.8-.9 1.65-.7 2.3l.3.87c.9 2.9 3.3 5.1 6.08 5.8-.1.4-.1.6 0 .9l.25.9c1.1 3.4 4 5.7 7.4 6.1-.3.7-.4 1.3-.2 1.8l.3.9c.9 2.4 2.8 4.1 5 5-.3.7-.4 1.3-.2 1.9l.37.8c1.1 3 3.6 4.9 6.4 5.5-.1.4-.1.7 0 1l.3.9c.9 2.4 2.7 4.1 4.9 5-.3.7-.4 1.3-.2 1.8l.3.85c1.1 2.9 3.6 4.9 6.4 5.48-.1.4-.1.7 0 1l.3.9c1.04 2.86 3.5 4.8 6.23 5.4 0 .3 0 .6.1.9l.4.9c.8 2 2.3 3.5 4.1 4.4 0 .3 0 .55.1.78l.4.9c.9 2.4 2.9 4.06 5.2 4.85-.4.8-.5 1.4-.3 2l.4.8c1.34 3.3 4.5 5.3 7.82 5.4-.5 1-.7 1.8-.5 2.5l.4.9c1.2 2.9 3.8 4.8 6.6 5.3 0 .3 0 .6.1.9l.34.8c1.13 2.9 3.7 4.7 6.5 5.23-.5 1-.7 1.9-.4 2.6l.4.8c1.35 2.8 4 4.5 6.9 4.8-.06.3 0 .7.13 1l.4.8c1.1 2.3 3.1 3.8 5.4 4.5-.3.7-.3 1.4-.1 1.9l.4.8c1.4 2.8 4 4.5 6.9 4.8 0 .3.05.6.18.8l.4.8c1.3 2.8 4 4.5 6.9 4.8 0 .4 0 .7.1 1l.4.8c1.3 2.6 3.6 4.2 6.2 4.7-.1.5 0 .9.1 1.2l.4.8c1 1.94 2.6 3.3 4.4 4.1.1.3.1.5.2.8l.4.8c1.4 2.8 4.1 4.5 7 4.8 0 .4.1.7.2 1l.4.8c1.4 2.9 4.2 4.6 7.2 4.8l.7.7c-.2.7-.2 1.3 0 1.8l.4.8c1.4 2.8 4.1 4.5 6.9 4.8 0 .3.1.6.2.9l.4.8c1.4 2.7 4 4.4 6.9 4.8l1.3 1.1c0 .2.1.5.2.7l.5.8c1.24 2.2 3.3 3.6 5.6 4.1h.06c-.2.7-.2 1.3 0 1.8l.5.8c1.5 2.7 4.3 4.2 7.2 4.4 0 .3.1.7.2.9l.5.75c1.3 2.2 3.3 3.6 5.6 4.14-.2.7-.2 1.3.1 1.8l.5.8c1.5 2.7 4.3 4.2 7.2 4.3 0 .4.05.7.2 1l.5.8c1.24 2.1 3.25 3.5 5.5 4.1l.1.3.4.8c1 2 2.6 3.4 4.4 4.16 0 .2.1.5.2.7l.4.8c1.4 2.8 4.1 4.5 7 4.8-.1.3 0 .7.1 1l.4.8c1.6 3.2 4.9 4.9 8.2 4.8-.5 1-.6 1.8-.3 2.4l.4.8c1.4 2.8 4 4.5 6.9 4.8 0 .3 0 .6.2.9l.4.8c1.6 3.2 6.1 1.6 9.5 1.4-.2.7-.2 1.36.1 1.8l.5.8c2.4 4.2 10.1 4.5 14.2 2.1 0 0 1.1-.9 2.7-2.3 2.5 1.1 5.4 1.1 8-.3 0 0 .55 1.1 4.5-2.9 1.1-.2 2.1-.5 3.04-1.05l.86-.7c.7-.4 1.3-.82 1.9-1.32l.7.74c2.9 1.2 9.2-6.8 13.1-12.3l.9 1.1c3.5 1.7 12.7-9.8 16.3-14.5l.1.1c4.38 2.1 17.7-16.4 17.7-16.4.6-1.1.87-2.3.9-3.5 5.6-3.2 14.7-15.7 14.7-15.7 1.4-3 1-6.3-.8-8.9z"/>
  <defs>
    <path id="i" d="M457.98-284.78c6.72-17.3 53.65-47.3 53.52-66.64-.42-66.37-315.68-434.4-397.46-364.33-80.22 68.75 309.1 520.8 343.94 430.97z"/>
  </defs>
  <clipPath id="j">
    <use xlink:href="#i" overflow="visible"/>
  </clipPath>
  <g fill="#FFE8CA" opacity=".5" clip-path="url(#j)">
    <path d="M154.26-661.85c1.8-3.37-.2-7.93-4.45-10.2l-.8-.42c-4.2-2.26-16 11.67-16 11.67-1.8 3.38 5.3 10.63 5.3 10.63 4.3 2.26 16.1-11.68 16.1-11.68zm-35.23-11.68c-3.8 1.42-8.26-1.08-9.95-5.6l-.32-.84c-1.7-4.5 14.74-14.82 14.74-14.82 3.82-1.4 10.28 6.5 10.28 6.5 1.7 4.5-14.75 14.8-14.75 14.8z"/>
    <path d="M149.45-702.06c2.5-4.1 1.2-9.47-2.93-11.97l-.78-.48c-4.1-2.5-19.1 14.6-19.1 14.6-2.5 4.1 3.7 12.4 3.7 12.4 4.12 2.5 19.1-14.7 19.1-14.7z"/>
    <path d="M150.1-682.95c2.77-3.92 1.84-9.36-2.08-12.15l-.75-.53c-3.93-2.78-20.1 13.3-20.1 13.3-2.8 3.93 2.8 12.68 2.8 12.68 3.94 2.78 20.12-13.3 20.12-13.3zm14.5 85.65c2.3-4.22.75-9.52-3.47-11.82l-.8-.44c-4.23-2.3-18.43 15.54-18.43 15.54-2.3 4.22 4.27 12.26 4.27 12.26 4.23 2.3 18.43-15.54 18.43-15.54z"/>
    <path d="M172.96-608c4.47-1.8 9.6.52 11.46 5.17l.36.9c1.86 4.64-17.48 16.77-17.48 16.77-4.47 1.8-11.82-6.06-11.82-6.06-1.87-4.64 17.48-16.78 17.48-16.78zm40.12 77.1c-3.57 1.18-7.83-1.32-9.5-5.58l-.33-.8c-1.7-4.28 13.63-13.24 13.63-13.24 3.58-1.17 9.84 6.4 9.84 6.4 1.68 4.26-13.64 13.22-13.64 13.22z"/>
    <path d="M225-522.9c1.9-3.32.02-7.8-4.23-10.02l-.8-.42c-4.25-2.2-16.6 11.55-16.6 11.55-1.9 3.4 5.06 10.5 5.06 10.5 4.24 2.2 16.58-11.5 16.58-11.5z"/>
    <path d="M192.83-498.78c-4.4 1.73-9.52-.25-11.46-4.42l-.37-.8c-1.94-4.17 17-15.6 17-15.6 4.4-1.73 11.84 5.2 11.84 5.2 1.94 4.18-17 15.62-17 15.62zm224.1 55.14c-4.48 1.53-9.52-.66-11.25-4.9l-.33-.8c-1.74-4.26 17.76-14.87 17.76-14.87 4.5-1.6 11.6 5.7 11.6 5.7 1.8 4.2-17.7 14.8-17.7 14.8z"/>
    <path d="M405.26-437.42c-2.36 3.88-.73 8.97 3.63 11.36l.8.46c4.3 2.4 18.8-13.8 18.8-13.8 2.3-3.9-4.5-11.82-4.5-11.82-4.4-2.4-18.9 13.8-18.9 13.8zm50.14 60.72c2.24-3.08.9-7.88-2.98-10.72l-.74-.54c-3.9-2.83-17.55 9.3-17.55 9.3-2.25 3.08 3.7 11.26 3.7 11.26 3.9 2.83 17.56-9.3 17.56-9.3z"/>
    <path d="M460.15-362.97c-3.98.87-8.04-2.23-9.07-6.92l-.2-.9c-1.03-4.7 16.7-12.5 16.7-12.5 3.97-.9 9.26 7.8 9.26 7.8 1.03 4.7-16.7 12.6-16.7 12.6z"/>
    <path d="M494.3-386.9c3.04-3.74 2.5-9.23-1.22-12.28l-.7-.58c-3.73-3.05-21 11.84-21 11.84-3.06 3.72 1.92 12.85 1.92 12.85 3.72 3.05 21-11.84 21-11.84z"/>
    <path d="M492.22-367.9c3.3-3.5 3.16-9.02-.34-12.32l-.66-.63c-3.5-3.3-21.78 10.32-21.78 10.32-3.3 3.5 1 12.95 1 12.95 3.5 3.3 21.78-10.33 21.78-10.33zm-25.72 49.38c2.88-3.86 2.1-9.32-1.77-12.2l-.73-.55c-3.85-2.88-20.43 12.8-20.43 12.8-2.88 3.84 2.5 12.73 2.5 12.73 3.86 2.88 20.43-12.78 20.43-12.78z"/>
    <path d="M476.3-327.94c4.67-1.14 9.42 1.88 10.6 6.74l.24.92c1.2 4.87-19.68 14.15-19.68 14.15-4.67 1.14-10.84-7.67-10.84-7.67-1.2-4.86 19.67-14.14 19.67-14.14zm-119.57-88.64c3.74-.64 7.52 2.58 8.44 7.17l.17.8c.93 4.6-15.77 11.3-15.77 11.3-3.74.6-8.6-8.1-8.6-8.1-.94-4.6 15.76-11.3 15.76-11.3z"/>
    <path d="M346.34-426.6c-2.46 3.08-1.36 7.93 2.44 10.85l.73.55c3.9 2.92 18.4-9.1 18.4-9.1 2.5-3.1-3.1-11.42-3.1-11.42-3.8-2.92-18.4 9.12-18.4 9.12z"/>
    <path d="M382.34-446.03c4.64-1.06 9.37 1.76 10.56 6.3l.23.87c1.2 4.55-19.53 13.18-19.53 13.18-4.64 1.06-10.8-7.17-10.8-7.17-1.2-4.55 19.54-13.18 19.54-13.18z"/>
    <path d="M364.3-452.38c4.54-1.38 9.46 1.12 10.98 5.57l.3.8c1.5 4.4-18.5 14.5-18.5 14.5-4.55 1.3-11.27-6.5-11.27-6.5-1.5-4.5 18.5-14.5 18.5-14.5zm-3.4-67.36c4.7-.86 9.3 2.17 10.27 6.76l.2.87c.97 4.5-20.16 12.2-20.16 12.2-4.6.8-10.4-7.7-10.4-7.7-1-4.6 20.2-12.3 20.2-12.3z"/>
    <path d="M373.52-524.22c3-3.58 2.28-9-1.6-12.12l-.75-.6c-3.9-3.12-21.06 11.04-21.06 11.04-3 3.58 2.4 12.72 2.4 12.72 3.9 3.12 21.1-11.04 21.1-11.04zm-118.85-99.04c-4.13 1.17-7.6-2.53-7.75-8.28l-.02-1.1c-.15-5.75 19-15.9 19-15.9 4.13-1.2 7.78 9.36 7.78 9.36.15 5.75-19 15.92-19 15.92z"/>
    <path d="M264-611.56c3.2-4.17 2.9-10.23-.64-13.56l-.68-.63c-3.56-3.32-21.42 13.42-21.42 13.42-3.2 4.16 1.3 14.2 1.3 14.2 3.56 3.3 21.43-13.43 21.43-13.43zm-88.2-23.1c-5.2 1.8-9.75-1.3-10.2-6.96l-.1-1.08c-.43-5.66 23.4-18.7 23.4-18.7 5.18-1.8 10.27 8.04 10.27 8.04.45 5.66-23.38 18.7-23.38 18.7z"/>
    <path d="M239.98-577c-5.14 2.2-9.96-.5-10.77-6l-.1-1.05c-.8-5.52 22.5-20.3 22.5-20.3 5.2-2.2 11 7.05 11 7.05.8 5.5-22.5 20.28-22.5 20.28zM390.4-304c3.26-.9 6.18 2 6.5 6.47l.07.86c.32 4.48-14.7 12.36-14.7 12.36-3.27.9-6.57-7.4-6.57-7.4-.33-4.5 14.7-12.4 14.7-12.4z"/>
    <path d="M382.48-313.13c-2.42 3.24-1.98 7.97 1 10.56l.56.5c2.98 2.6 16.73-10.42 16.73-10.42 2.42-3.2-1.56-11-1.56-11-2.9-2.6-16.7 10.4-16.7 10.4z"/>
    <path d="M415.37-335.08c4.1-1.4 7.87 1.03 8.43 5.44l.1.83c.57 4.4-18.1 14.5-18.1 14.5-4.1 1.4-8.54-6.3-8.54-6.3-.56-4.4 18.1-14.5 18.1-14.5z"/>
    <path d="M400.52-340c4.05-1.72 8.02.38 8.87 4.68l.1.8c.8 4.32-17.4 15.78-17.4 15.78-4.1 1.7-9.1-5.5-9.1-5.5-.9-4.3 17.3-15.77 17.3-15.77zm-19.46-25.72c3.83-1.95 7.9-.02 9.1 4.3l.22.82c1.2 4.32-15.68 16.9-15.68 16.9-3.82 1.94-9.32-5.12-9.32-5.12-1.2-4.32 15.68-16.9 15.68-16.9z"/>
    <path d="M391.16-373.12c2.2-4.25 1.13-9.46-2.36-11.64l-.67-.42c-3.5-2.18-16.54 15.88-16.54 15.88-2.2 4.25 3 12.06 3 12.06 3.5 2.18 16.5-15.88 16.5-15.88zM270.66-543.6c2.25-3.1.92-7.9-2.96-10.73l-.75-.54c-3.9-2.84-17.55 9.3-17.55 9.3-2.25 3.08 3.7 11.26 3.7 11.26 3.9 2.8 17.56-9.3 17.56-9.3z"/>
    <path d="M275.42-529.88c-3.97.87-8.03-2.23-9.07-6.93l-.2-.9c-1.03-4.7 16.7-12.6 16.7-12.6 3.97-.9 9.26 7.8 9.26 7.8 1.1 4.7-16.6 12.6-16.6 12.6z"/>
    <path d="M309.56-553.83c3.05-3.72 2.5-9.2-1.2-12.26l-.72-.5c-3.72-3-21 11.9-21 11.9-3.04 3.7 1.93 12.9 1.93 12.9 3.72 3.1 21-11.8 21-11.8z"/>
    <path d="M307.5-534.82c3.3-3.5 3.15-9-.35-12.32l-.66-.63c-3.5-3.3-21.8 10.33-21.8 10.33-3.3 3.5 1 12.95 1 12.95 3.5 3.4 21.7-10.3 21.7-10.3zm-16.6 116.86c2.88-3.85 2.08-9.3-1.77-12.2l-.74-.54c-3.9-2.9-20.5 12.78-20.5 12.78-2.9 3.86 2.5 12.74 2.5 12.74 3.8 2.9 20.4-12.78 20.4-12.78z"/>
    <path d="M300.68-427.37c4.68-1.15 9.43 1.87 10.62 6.74l.23.92c1.2 4.8-19.67 14.1-19.67 14.1-4.68 1.1-10.85-7.7-10.85-7.7-1.1-4.9 19.7-14.2 19.7-14.2z"/>
  </g>
  <defs>
    <path id="k" d="M515.9-346.1c2.53-2.3 4.32-4.08 4.32-4.08 1.7-2.38 2-5.33 1.1-7.9 1.58-1.47 2.6-2.47 2.6-2.47 2.77-3.92 1.84-9.36-2.08-12.14l-.74-.5c-.46-.3-1.07-.4-1.8-.2.5-3.3-.98-6.8-4.03-8.7l-.77-.5c-.25-.1-.54-.2-.85-.2-.04-2.8-1.48-5.6-4.1-7.3l-.8-.5c-.6-.3-1.45-.3-2.45.1.45-3.3-1-6.7-4.04-8.6l-.77-.5c-.3-.1-.6-.2-1-.2 0-2.9-1.5-5.7-4.1-7.4l-.8-.5c-.2-.1-.5-.2-.7-.2-.6-1.9-1.9-3.6-3.7-4.8l-.8-.5-.4-.1c-.4-2.2-1.6-4.4-3.6-5.8l-.8-.5c-.3-.2-.6-.3-1-.3.1-2.9-1.1-5.8-3.7-7.6l-.8-.5c-.5-.3-1.1-.3-1.8-.2-.3-2.3-1.5-4.5-3.6-6l-.8-.5c-.2-.2-.6-.3-.9-.3.1-2.9-1.1-5.8-3.7-7.6l-.8-.5c-.5-.3-1.1-.4-1.9-.2-.3-2.3-1.5-4.6-3.6-6l-.8-.5c-.5-.3-1.1-.4-1.8-.2.5-3.3-1-6.8-4.1-8.7l-.8-.4c-.3-.2-.5-.2-.9-.3 0-2.8-1.5-5.6-4.1-7.3l-.8-.5c-.6-.3-1.5-.3-2.5.1.4-3.3-1-6.7-4-8.6l-.8-.5c-.3-.1-.6-.2-1-.2 0-2.9-1.5-5.7-4.1-7.4l-.8-.5c-.2-.1-.4-.2-.7-.2-.6-1.9-1.8-3.6-3.7-4.8l-.8-.5c-.4-.2-.8-.2-1.2-.2-.3-2.6-1.7-5.1-4.1-6.6l-.8-.5c-.3-.1-.6-.2-1-.2 0-2.9-1.5-5.7-4.2-7.3l-.8-.5c-.2-.1-.5-.2-.8-.2 0-2.9-1.5-5.7-4.1-7.3l-.8-.5c-.5-.3-1.2-.3-1.9-.1-.5-2.3-1.8-4.5-4-5.8l-.8-.5c-.2-.2-.6-.3-.9-.3 0-2.9-1.5-5.7-4.1-7.3l-.8-.5c-.7-.4-1.6-.3-2.6.1-.3-2.8-1.9-5.5-4.6-6.9l-.8-.4c-.3-.1-.6-.2-.9-.2-.2-2.8-1.8-5.5-4.6-7l-.8-.4c-.6-.3-1.5-.2-2.4.2.2-3.3-1.5-6.6-4.6-8.3l-.8-.4c-.6-.3-1.2-.2-2 0-.6-2.3-2.1-4.4-4.4-5.6l-.8-.4c-.2-.1-.5-.2-.8-.2-.7-1.8-2.1-3.5-4-4.5l-.8-.4c-.3-.1-.6-.2-.9-.2-.3-2.8-2.1-5.4-4.8-6.7l-.8-.4c-.3-.1-.6-.2-1-.1-.3-2.9-2-5.6-4.8-6.9l-.8-.4c-.5-.2-1.1-.2-1.8.1-.7-2.2-2.3-4.2-4.5-5.3l-.9-.4c-.3-.2-.6-.2-1-.2-.3-2.9-2-5.5-4.8-6.9l-.8-.4c-.5-.3-1.2-.2-1.9 0-.7-2.2-2.2-4.3-4.5-5.4l-.9-.4c-.5-.2-1.1-.2-1.7 0l-.1-.1c-.2-3.3-2.1-6.4-5.4-7.7l-.9-.3c-.3-.1-.6-.1-.9-.1-.5-2.8-2.4-5.4-5.3-6.5l-.9-.4c-.5-.3-1.2-.2-2 .2l-.5-.5c-.3-3.1-2.2-5.9-5.3-7.1l-.8-.4c-.3-.14-.7-.16-1-.1-.5-2.9-2.4-5.4-5.3-6.6l-.8-.4c-.2-.1-.5-.1-.7-.1-.9-1.8-2.4-3.3-4.5-4.13l-.7-.5c-.4-.15-.9 0-1.1-.2-.9-2.32-2.6-4.63-5.2-5.7l-.9-.3c-.3-.1-.7-.1-1-.04-.5-2.8-2.4-5.4-5.3-6.5l-.9-.4c-.3-.1-.6-.1-.9-.1-.5-2.8-2.4-5.4-5.3-6.5l-.88-.4c-.56-.2-1.2-.13-1.9.2-.8-2.24-2.5-4.14-4.9-5.1l-.8-.35c-.3-.1-.6-.1-1-.1-.5-2.8-2.4-5.4-5.3-6.6l-.9-.4c-.6-.2-1.5 0-2.4.5l-.2-.2c-.7-2.6-2.74-4.9-5.6-5.9l-.84-.3c-.3 0-.6-.1-.9 0-.7-2.8-2.75-5.2-5.7-6.2l-.9-.3c-.6-.2-1.2 0-2 .4l-.6-.4c-.5-3.05-2.6-5.73-5.76-6.8l-.8-.3c-.6-.2-1.3-.03-2 .37-.96-2.2-2.8-4-5.2-4.8l-.9-.3c-.2-.1-.5-.1-.7-.1-1-1.7-2.6-3.2-4.7-3.8l-.8-.3c-.44-.14-.9-.1-1.44.1-1.1-2.55-3.5-4.5-6.43-5-1.2-2.5-3.6-4.33-6.6-4.74l-.8-.1c-1-3.05-3.7-5.4-7.1-5.9l-.9-.13c-.3-.1-.6 0-.94.1-1.2-2.7-3.7-4.64-6.7-5.1l-.9-.1c-.3 0-.6 0-.9.1-1.2-2.6-3.7-4.6-6.7-5l-.9-.1c-.6-.1-1.2.2-1.8.7-1.4-2-3.5-3.4-6-3.7l-.9-.1c-.4-.05-.7 0-1 .15-1.2-2.6-3.7-4.6-6.8-5l-.9-.2c-.8-.1-1.57.4-2.4 1.2-1.4-2.5-3.95-4.3-7-4.5l-.9-.1c-.5 0-1 .2-1.46.5-.9-2.2-2.7-4.1-5.3-5l-.8-.3c-1.3-.5-3.25.9-5.3 3.13-1-1.1-2.2-1.95-3.7-2.5l-.8-.3c-1.6-.55-4 1.5-6.4 4.4-.9-.8-1.98-1.5-3.2-2l-.86-.3c-.95-.4-2.2.2-3.5 1.4-.8-1.1-1.9-2.1-3.2-2.7l-.87-.4c-4.2-2.2-17.6 16.2-17.6 16.2-.47 1-.5 2.1-.2 3.3-2.4 2-4 3.9-3.57 5.3l.3.9c.2.5.4 1 .7 1.5-3.8 2.6-6.9 5.5-6.3 7.4l.3.8c.2.9.7 1.7 1.2 2.5-1.6 1.5-2.6 3-2.3 4.1l.3.9c.2.8.6 1.5 1 2.2-.6.6-.8 1.2-.8 1.8l.1.9c.1 2.2 1.1 4.1 2.5 5.5l-.3.7-.1.98c-.5 3.6 1.2 7 4.2 8.7-.6.6-.9 1.1-.9 1.7v1c-.1 3 1.4 5.8 3.8 7.4-.9.7-1.4 1.4-1.4 2.2v.9c.1 3.1 1.9 5.7 4.4 7.2-.2.3-.3.6-.2.9l.1.9c.1 2.6 1.3 4.8 3.1 6.3-.6.6-.9 1.2-.9 1.8v.9c.1 3.1 1.8 5.7 4.3 7.1-.1.3-.2.6-.2.9l.1.9c.2 3.1 1.9 5.7 4.4 7.2-.1.3-.2.6-.2.9l.1.93c.1 3.4 2.2 6.3 5.2 7.6v.8c.2 3 1.8 5.57 4.1 7 .2 3 1.9 5.5 4.3 6.9-.2.5-.3 1-.2 1.4l.2.9c.5 2.1 1.8 3.9 3.4 5.1v.8l.2.9c.6 2.5 2.3 4.5 4.4 5.7-.5.6-.7 1.3-.5 1.9l.2.9c.8 3.4 3.6 5.9 6.8 6.5-.6.8-1 1.6-.8 2.3l.2.9c.73 3 2.9 5.2 5.64 6.2-.1.3-.1.6-.1.9l.2.8c.8 3 2.9 5.2 5.6 6.2-.6.9-1 1.7-.7 2.5l.3.8c.9 2.9 3.2 5.1 6 5.8-.1.36-.1.7 0 1l.23.86c.7 2.45 2.5 4.3 4.6 5.34-.4.7-.5 1.3-.4 1.9l.3.8c.9 3 3.2 5.1 6 5.9-.1.3-.1.6 0 .9l.3.9c.9 3 3.28 5.1 6 5.9-.1.4-.1.7 0 1l.3.9c.8 2.8 2.9 4.8 5.3 5.7-.1.48-.1.88 0 1.2l.3.9c.6 2.1 2 3.7 3.7 4.8-.1.3-.1.5 0 .77l.3.9c.9 3 3.2 5.1 6.1 5.9-.1.37-.1.7-.1 1l.3.9c1.1 3.4 4 5.7 7.3 6.1-.6.8-.9 1.65-.7 2.3l.3.87c.9 2.9 3.3 5.1 6.08 5.8-.1.4-.1.6 0 .9l.25.9c1.1 3.4 4 5.7 7.4 6.1-.3.7-.4 1.3-.2 1.8l.3.9c.9 2.4 2.8 4.1 5 5-.3.7-.4 1.3-.2 1.9l.37.8c1.1 3 3.6 4.9 6.4 5.5-.1.4-.1.7 0 1l.3.9c.9 2.4 2.7 4.1 4.9 5-.3.7-.4 1.3-.2 1.8l.3.85c1.1 2.9 3.6 4.9 6.4 5.48-.1.4-.1.7 0 1l.3.9c1.04 2.86 3.5 4.8 6.23 5.4 0 .3 0 .6.1.9l.4.9c.8 2 2.3 3.5 4.1 4.4 0 .3 0 .55.1.78l.4.9c.9 2.4 2.9 4.06 5.2 4.85-.4.8-.5 1.4-.3 2l.4.8c1.34 3.3 4.5 5.3 7.82 5.4-.5 1-.7 1.8-.5 2.5l.4.9c1.2 2.9 3.8 4.8 6.6 5.3 0 .3 0 .6.1.9l.34.8c1.13 2.9 3.7 4.7 6.5 5.23-.5 1-.7 1.9-.4 2.6l.4.8c1.35 2.8 4 4.5 6.9 4.8-.06.3 0 .7.13 1l.4.8c1.1 2.3 3.1 3.8 5.4 4.5-.3.7-.3 1.4-.1 1.9l.4.8c1.4 2.8 4 4.5 6.9 4.8 0 .3.05.6.18.8l.4.8c1.3 2.8 4 4.5 6.9 4.8 0 .4 0 .7.1 1l.4.8c1.3 2.6 3.6 4.2 6.2 4.7-.1.5 0 .9.1 1.2l.4.8c1 1.94 2.6 3.3 4.4 4.1.1.3.1.5.2.8l.4.8c1.4 2.8 4.1 4.5 7 4.8 0 .4.1.7.2 1l.4.8c1.4 2.9 4.2 4.6 7.2 4.8l.7.7c-.2.7-.2 1.3 0 1.8l.4.8c1.4 2.8 4.1 4.5 6.9 4.8 0 .3.1.6.2.9l.4.8c1.4 2.7 4 4.4 6.9 4.8l1.3 1.1c0 .2.1.5.2.7l.5.8c1.24 2.2 3.3 3.6 5.6 4.1h.06c-.2.7-.2 1.3 0 1.8l.5.8c1.5 2.7 4.3 4.2 7.2 4.4 0 .3.1.7.2.9l.5.75c1.3 2.2 3.3 3.6 5.6 4.14-.2.7-.2 1.3.1 1.8l.5.8c1.5 2.7 4.3 4.2 7.2 4.3 0 .4.05.7.2 1l.5.8c1.24 2.1 3.25 3.5 5.5 4.1l.1.3.4.8c1 2 2.6 3.4 4.4 4.16 0 .2.1.5.2.7l.4.8c1.4 2.8 4.1 4.5 7 4.8-.1.3 0 .7.1 1l.4.8c1.6 3.2 4.9 4.9 8.2 4.8-.5 1-.6 1.8-.3 2.4l.4.8c1.4 2.8 4 4.5 6.9 4.8 0 .3 0 .6.2.9l.4.8c1.6 3.2 4.9 5 8.24 4.9-.2.7-.2 1.4.1 1.8l.47.8c2.4 4.2 7.7 5.6 11.9 3.2 0 0 1.1-.9 2.7-2.4 2.5 1.1 5.4 1.1 8-.36 0 0 4.1-3.4 8.1-7.4 1-.1 2-.4 3-1l.8-.7c.7-.4 1.3-.86 1.9-1.36.4.5.7.7.7.7 2.9 1.2 9.2-6.74 13.2-12.32l.9 1.1c3.5 1.7 12.7-9.8 16.3-14.4l.1.1c4.3 2.1 17.7-16.4 17.7-16.4.5-1.1.8-2.3.8-3.5 5.6-3.2 14.7-15.8 14.7-15.8 1.5-3 1-6.4-.8-8.9z"/>
  </defs>
  <clipPath id="l">
    <use xlink:href="#k" overflow="visible"/>
  </clipPath>
  <g fill="#D89D25" clip-path="url(#l)">
    <path d="M153.17-686.48c-3.75.7-7.5-2.6-8.37-7.33l-.16-.9c-.87-4.8 16-11.8 16-11.8 3.75-.7 8.52 8.2 8.52 8.2.87 4.7-16 11.7-16 11.7z"/>
    <path d="M163.47-676.23c2.5-3.2 1.48-8.2-2.3-11.18l-.72-.6c-3.8-3-18.6 9.5-18.6 9.5-2.5 3.2 3.03 11.7 3.03 11.7 3.78 2.9 18.6-9.6 18.6-9.6z"/>
    <path d="M127.07-655.88c-4.68 1.13-9.4-1.74-10.52-6.4l-.22-.9c-1.13-4.7 19.8-13.77 19.8-13.77 4.66-1.13 10.72 7.3 10.72 7.3 1.14 4.68-19.78 13.77-19.78 13.77z"/>
    <path d="M145.1-649.5c-4.6 1.47-9.5-1.06-10.96-5.64l-.28-.87c-1.46-4.6 18.77-15.2 18.77-15.2 4.58-1.5 11.22 6.5 11.22 6.5 1.46 4.5-18.76 15.1-18.76 15.1zm55.64-1.7c-4.72.92-9.3-2.16-10.22-6.9l-.18-.9c-.9-4.7 20.4-12.84 20.4-12.84 4.72-.92 10.4 7.8 10.4 7.8.9 4.7-20.4 12.84-20.4 12.84z"/>
    <path d="M188-646.47c-3.05 3.7-2.4 9.3 1.46 12.5l.74.6c3.87 3.18 21.3-11.58 21.3-11.58 3.05-3.72-2.2-13.1-2.2-13.1-3.87-3.18-21.3 11.58-21.3 11.58zm86.87 57.07c2.2-3.05 1.1-7.87-2.44-10.76l-.67-.56c-3.56-2.9-16.73 9-16.73 9-2.2 3.04 3.1 11.3 3.1 11.3 3.56 2.9 16.74-9 16.74-9z"/>
    <path d="M278.9-575.62c-3.76.8-7.46-2.36-8.28-7.07l-.16-.8c-.8-4.7 16.03-12.3 16.03-12.3 3.7-.8 8.4 8 8.4 8 .8 4.7-16.1 12.3-16.1 12.3z"/>
    <path d="M311.62-598.98c2.97-3.66 2.64-9.15-.74-12.26l-.65-.6c-3.4-3.1-20.03 11.5-20.03 11.5-2.98 3.65 1.4 12.85 1.4 12.85 3.37 3.2 20.02-11.4 20.02-11.4z"/>
    <path d="M309.08-580.02c3.2-3.44 3.24-8.95.07-12.3l-.6-.65c-3.17-3.36-20.72 9.95-20.72 9.95-3.2 3.44.53 12.95.53 12.95 3.16 3.37 20.72-9.95 20.72-9.95zm3.25 142.87c2.82-3.8 2.26-9.27-1.26-12.2l-.67-.57c-3.52-2.94-19.54 12.43-19.54 12.43-2.82 3.9 1.94 12.8 1.94 12.8 3.5 3 19.53-12.4 19.53-12.4z"/>
    <path d="M321.8-446.4c4.4-1.06 8.77 2.03 9.72 6.9l.2.94c.95 4.88-18.88 13.8-18.88 13.8-4.42 1.07-9.9-7.83-9.9-7.83-.97-4.8 18.86-13.8 18.86-13.8zm42.68 66.18c-3.62 1.2-7.8-1.5-9.32-6.08l-.3-.86c-1.5-4.57 14.18-13.92 14.18-13.92 3.63-1.2 9.6 6.95 9.6 6.95 1.53 4.56-14.16 13.9-14.16 13.9z"/>
    <path d="M376.12-371.52c2.04-3.53.3-8.34-3.85-10.75l-.8-.45c-4.16-2.4-17.05 12.1-17.05 12.1-2.04 3.5 4.65 11.2 4.65 11.2 4.16 2.4 17.05-12.1 17.05-12.1z"/>
    <path d="M342.96-346.25c-4.47 1.8-9.54-.4-11.32-4.86l-.34-.9c-1.8-4.5 17.64-16.4 17.64-16.4 4.47-1.8 11.66 5.7 11.66 5.7 1.8 4.4-17.64 16.4-17.64 16.4z"/>
    <path d="M361.7-342.46c-4.33 2.1-9.54.28-11.64-4.05l-.4-.9c-2.1-4.3 16.44-17.6 16.44-17.6 4.33-2.1 12.04 4.9 12.04 4.9 2.1 4.3-16.44 17.6-16.44 17.6zm54.85-9.54c-4.54 1.57-9.5-.84-11.1-5.4l-.3-.85c-1.57-4.54 18.4-15.6 18.4-15.6 4.53-1.58 11.37 6.24 11.37 6.24 1.58 4.5-18.37 15.6-18.37 15.6z"/>
    <path d="M404.6-345.53c-2.5 4.1-1.06 9.55 3.22 12.16l.8.5c4.28 2.6 19.45-14.46 19.45-14.46 2.5-4.12-4.02-12.66-4.02-12.66-4.27-2.6-19.44 14.5-19.44 14.5zm-48.25-140.8c-1.73 3.37.2 7.95 4.3 10.2l.77.45c4.1 2.28 15.53-11.6 15.53-11.6 1.73-3.38-5.07-10.66-5.07-10.66-4.1-2.27-15.53 11.62-15.53 11.62z"/>
    <path d="M349.95-499.26c3.68-1.4 7.98 1.1 9.6 5.6l.3.87c1.64 4.6-14.24 14.8-14.24 14.8-3.6 1.4-9.9-6.4-9.9-6.4-1.6-4.5 14.3-14.7 14.3-14.7z"/>
    <path d="M320.54-470.84c-2.42 4.1-1.16 9.46 2.8 11.98l.76.47c3.97 2.6 18.48-14.6 18.48-14.6 2.42-4.1-3.58-12.4-3.58-12.4-3.9-2.5-18.4 14.7-18.4 14.7z"/>
    <path d="M319.94-489.95c-2.68 3.9-1.8 9.35 2 12.15l.7.53c3.8 2.8 19.45-13.23 19.45-13.23 2.6-3.9-2.8-12.68-2.8-12.68-3.8-2.8-19.5 13.23-19.5 13.23zm5.33-60.82c-2.23 4.2-.74 9.5 3.34 11.83l.8.45c4.1 2.4 17.8-15.4 17.8-15.4 2.3-4.2-4.1-12.3-4.1-12.3-4.1-2.3-17.8 15.5-17.8 15.5z"/>
    <path d="M317.2-540.1c-4.34 1.77-9.3-.56-11.08-5.22l-.34-.88c-1.8-4.65 16.9-16.72 16.9-16.72 4.32-1.78 11.4 6.1 11.4 6.1 1.8 4.65-16.9 16.72-16.9 16.72zm-157.68-39c2.37-3.57-.1-8-5.54-9.88l-1.04-.36c-5.44-1.9-20.92 13.3-20.92 13.3-2.38 3.57 6.58 10.24 6.58 10.24 5.43 1.88 20.92-13.3 20.92-13.3z"/>
    <path d="M167.85-566.67c-4.94 1.8-10.64-.3-12.72-4.7l-.4-.84c-2.1-4.4 19.27-16.4 19.27-16.4 4.95-1.8 13.13 5.5 13.13 5.5 2.1 4.4-19.28 16.3-19.28 16.3z"/>
    <path d="M207.6-598.33c3.28-4.4 1.7-9.68-3.56-11.82l-1-.4c-5.26-2.15-24.9 16.62-24.9 16.62-3.3 4.4 4.54 12.22 4.54 12.22 5.26 2.1 24.9-16.7 24.9-16.7z"/>
    <path d="M208.05-579.08c3.65-4.23 2.56-9.64-2.45-12.08l-.95-.47c-5-2.44-26.16 15.3-26.16 15.3-3.7 4.24 3.4 12.56 3.4 12.56 5 2.44 26.1-15.3 26.1-15.3zm-24.82 54.78c3.05-4.48 1.15-9.7-4.25-11.62l-1.03-.37c-5.4-1.9-24.03 17.5-24.03 17.5-3.06 4.5 5.28 12 5.28 12 5.4 2 24.03-17.4 24.03-17.4z"/>
    <path d="M194.2-535.9c5.8-2.22 12.37-.36 14.7 4.16l.43.86c2.32 4.52-22.84 18.6-22.84 18.6-5.8 2.22-15.2-5.03-15.2-5.03-2.3-4.6 22.8-18.6 22.8-18.6zm251.68 108.67c-1.86 2.84.02 6.5 4.18 8.17l.8.32c4.17 1.67 16.24-10.26 16.24-10.26 1.86-2.84-5-8.5-5-8.5-4.16-1.65-16.22 10.27-16.22 10.27z"/>
    <path d="M439.56-437.53c3.82-1.33 8.2.53 9.77 4.15l.3.7c1.57 3.6-15 12.77-15 12.77-3.8 1.3-10.06-4.9-10.06-4.9-1.57-3.6 15-12.8 15-12.8z"/>
    <path d="M408.68-412.84c-2.58 3.48-1.4 7.8 2.63 9.68l.8.36c4.1 1.87 19.4-12.86 19.4-12.86 2.6-3.48-3.4-10.04-3.4-10.04-4-1.87-19.3 12.86-19.3 12.86z"/>
    <path d="M408.48-428.48c-2.85 3.34-2.05 7.76 1.78 9.87l.73.4c3.8 2.1 20.2-11.8 20.2-11.8 2.8-3.4-2.5-10.3-2.5-10.3-3.9-2.1-20.3 11.7-20.3 11.7zm19.6-43.84c-2.4 3.56-.98 7.83 3.17 9.55l.8.32c4.13 1.7 18.66-13.53 18.66-13.53 2.4-3.55-3.9-9.86-3.9-9.86-4.1-1.72-18.6 13.52-18.6 13.52z"/>
    <path d="M419.5-463.2c-4.47 1.67-9.52 0-11.26-3.74l-.34-.7c-1.74-3.74 17.76-14.52 17.76-14.52 4.5-1.65 11.6 4.47 11.6 4.47 1.76 3.8-17.75 14.5-17.75 14.5zm-184.56-56.48c-3.63 1.2-7.8-1.5-9.32-6.08l-.3-.87c-1.52-4.56 14.18-13.9 14.18-13.9 3.62-1.22 9.6 6.94 9.6 6.94 1.53 4.6-14.16 14-14.16 14z"/>
    <path d="M246.58-511c2.03-3.5.3-8.32-3.86-10.73l-.8-.45c-4.16-2.4-17.05 12.08-17.05 12.08-2.04 3.53 4.65 11.2 4.65 11.2 4.16 2.4 17.06-12.1 17.06-12.1z"/>
    <path d="M213.4-485.7c-4.46 1.77-9.53-.4-11.3-4.87l-.35-.85c-1.78-4.48 17.65-16.42 17.65-16.42 4.47-1.8 11.66 5.72 11.66 5.72 1.78 4.47-17.65 16.4-17.65 16.4z"/>
    <path d="M232.15-481.92c-4.33 2.1-9.54.28-11.63-4.05l-.4-.83c-2.1-4.33 16.43-17.62 16.43-17.62 4.34-2.1 12.04 4.88 12.04 4.88 2.1 4.33-16.5 17.62-16.5 17.62zm54.85-9.55c-4.54 1.58-9.5-.83-11.1-5.37l-.3-.87c-1.56-4.6 18.4-15.6 18.4-15.6 4.54-1.6 11.38 6.2 11.38 6.2 1.58 4.5-18.37 15.6-18.37 15.6z"/>
    <path d="M275.07-485c-2.5 4.12-1.07 9.56 3.2 12.17l.82.5c4.2 2.6 19.4-14.47 19.4-14.47 2.5-4.1-4-12.66-4-12.66C290.2-502.06 275-485 275-485z"/>
  </g>
  <path fill="#437013" d="M485.9-276.8L108.43-615.96S303.57-276.1 421.06-251.18c13.96 2.96 64.83-25.63 64.83-25.63z"/>
  <linearGradient id="m" x1="346.13" x2="213.24" y1="-649.51" y2="-419.33" gradientUnits="userSpaceOnUse" gradientTransform="rotate(19.56 253.716 -549.428)">
    <stop offset="0" stop-color="#FFF" stop-opacity="0"/>
    <stop offset="1" stop-color="#662D91"/>
  </linearGradient>
  <path fill="url(#m)" d="M530.42-300.57c-.02-6.8-8.9-25.05-6.34-31.46 2.95-7.38 4.02-28.77 5.3-40.93 4.92-46.28-298.87-346.82-324.28-438.36-7.32 49.68 37.25 87.75 98.6 185.1-.17-.07-.32-.16-.48-.23l-.85-.35c-.23-.1-.48-.12-.75-.1-.9-1.8-2.4-3.3-4.4-4.15l-.5-.68c-.36-.15-.66-.18-.85-.38v-.1l-.28.2c-.9-2.4-2.7-4.5-5.4-5.6l-1-.3c-.2-.1-.3 0-.5-.1l-.9-.9c-.7-2.5-2.5-4.6-5.1-5.7l-.3-.1-2.1-2.3c-.8-1.8-2.1-3.3-4-4.3-57.9-62.4-148.7-152.4-169.9-183.2-26.5 13.6 46.6 78.2 52.8 107-15.1-15.6-60.9-53.7-76.3-66.5-19.4 9.5 17.6 65.6 11 80-17-24.2-34.5-64-48-84.8-22.3 8.3 64 166.9 62.3 182.5-.8 7-61.2-53.3-119.7-39.5 95.1 39 88 41.9 102.8 61.3 21.6 28.4 42.2 54.4 61.9 78.4.7 4.2 5.9 8.9 5.9 8.9.4.1.9.1 1.5 0 28.4 34.2 54.8 64 79.1 89.9 59.5 79.5 128.3 154.8 181.3 166 6.2 1.3 19.8-3.7 33-9.6 2 .2 4.3.7 7.1 1.7 5.7 2.1 21.1 18.3 26.4 15.2 5.7-3.5 42.9-41.2 42.8-56.8z" opacity=".5"/>
  <linearGradient id="n" x1="582.16" x2="582.16" y1="-763.59" y2="-720.99" gradientUnits="userSpaceOnUse">
    <stop offset="0" stop-color="#F2AF09"/>
    <stop offset="1" stop-color="#B37048"/>
  </linearGradient>
  <path fill="url(#n)" d="M579.26-721c1.07-1.6 10.65-7.98 9.58-19.7s-4.75-22.88-4.75-22.88-7.5 15.97-8.6 21.3 3.7 21.3 3.7 21.3z"/>
  <linearGradient id="o" x1="580.86" x2="580.86" y1="-759.29" y2="-725.59" gradientUnits="userSpaceOnUse" gradientTransform="matrix(1.2324 .2295 .2295 1.2265 44.255 43.728)">
    <stop offset="0" stop-color="#F2AF09"/>
    <stop offset="1" stop-color="#B37048"/>
  </linearGradient>
  <path fill="url(#o)" d="M577.27-715.94c.02-2.22-5.44-16.6 3.9-23.84 9.33-7.24 21-11.42 21-11.42s-3.43 19.05-6.06 23.93c-2.6 4.88-18.8 11.33-18.8 11.33z"/>
  <linearGradient id="p" x1="428.3" x2="428.3" y1="-290.24" y2="-503.92" gradientUnits="userSpaceOnUse">
    <stop offset="0" stop-color="#F2AF09"/>
    <stop offset="1" stop-color="#B37048"/>
  </linearGradient>
  <path fill="url(#p)" d="M499.54-503.92s-21.17 83.92-81.86 148.6c-60.7 64.7-52.5 63.8-55.35 65.08-2.6-1.4-6.43-3.32-4.94-5.13 18.3-22.36 75.8-85.96 89.8-107.07 20.5-31 47.9-101.48 47.9-101.48h4.4z"/>
  <linearGradient id="q" x1="571.75" x2="571.75" y1="-752.4" y2="-702.89" gradientUnits="userSpaceOnUse">
    <stop offset="0" stop-color="#F2AF09"/>
    <stop offset="1" stop-color="#B37048"/>
  </linearGradient>
  <path fill="url(#q)" d="M572.87-702.9c1.07-1.6 9.62-11.42 5.6-28.87-4-17.44-5.6-20.64-5.6-20.64s-11.18 21.8-8.5 29.8 8.5 19.7 8.5 19.7z"/>
  <linearGradient id="r" x1="563.73" x2="563.73" y1="-730.58" y2="-676.27" gradientUnits="userSpaceOnUse">
    <stop offset="0" stop-color="#F2AF09"/>
    <stop offset="1" stop-color="#B37048"/>
  </linearGradient>
  <path fill="url(#r)" d="M563.95-676.27s12.52-27.7 7.8-37.8c-4.73-10.12-12.72-16.5-12.72-16.5s-6.4 21.3-3.73 27.15c2.67 5.85 8.65 27.15 8.65 27.15z"/>
  <linearGradient id="s" x1="553.68" x2="553.68" y1="-709.28" y2="-653.91" gradientUnits="userSpaceOnUse">
    <stop offset="0" stop-color="#F2AF09"/>
    <stop offset="1" stop-color="#B37048"/>
  </linearGradient>
  <path fill="url(#s)" d="M554.65-653.9c-.94-1.6 12.6-22.9 9.3-33.02-3.32-10.12-12.37-22.36-12.37-22.36s-10.12 18.63-8.52 27.68c1.6 9.05 11.6 27.7 11.6 27.7z"/>
  <linearGradient id="t" x1="543.63" x2="543.63" y1="-685.32" y2="-630.02" gradientUnits="userSpaceOnUse">
    <stop offset="0" stop-color="#F2AF09"/>
    <stop offset="1" stop-color="#B37048"/>
  </linearGradient>
  <path fill="url(#t)" d="M543.86-630.02s15.68-26.5 11.68-36.87c-4-10.3-14.95-18.4-14.95-18.4s-11.6 20.8-9.3 27.7 12.5 27.7 12.5 27.7z"/>
  <linearGradient id="u" x1="533.81" x2="533.81" y1="-659.77" y2="-604.93" gradientUnits="userSpaceOnUse">
    <stop offset="0" stop-color="#F2AF09"/>
    <stop offset="1" stop-color="#B37048"/>
  </linearGradient>
  <path fill="url(#u)" d="M535.95-604.93c.53-2.13 20.42-27.42 6.72-43.66-5.2-6.1-15.05-11.1-15.05-11.1s-8 17.6-7.45 22.7 15.78 32.2 15.78 32.2z"/>
  <linearGradient id="v" x1="523.89" x2="523.89" y1="-640.09" y2="-588.43" gradientUnits="userSpaceOnUse">
    <stop offset="0" stop-color="#F2AF09"/>
    <stop offset="1" stop-color="#B37048"/>
  </linearGradient>
  <path fill="url(#v)" d="M525.5-588.43c1.06-1.6 17.77-20.62 6.48-36.73-11.28-16.1-17.14-14.9-17.14-14.9s-4.8 23.95-2.13 30.34 12.8 21.3 12.8 21.3z"/>
  <linearGradient id="w" x1="513.37" x2="513.37" y1="-614.69" y2="-564.47" gradientUnits="userSpaceOnUse">
    <stop offset="0" stop-color="#F2AF09"/>
    <stop offset="1" stop-color="#B37048"/>
  </linearGradient>
  <path fill="url(#w)" d="M516.97-564.47c1.07-2.13 14.38-25.02 6.92-34.6-7.5-9.6-18.1-17.6-18.1-15.2 0 2.4-7 19.45-4.8 25.84s15.9 23.96 15.9 23.96z"/>
  <linearGradient id="x" x1="504.21" x2="504.21" y1="-594.29" y2="-539.98" gradientUnits="userSpaceOnUse">
    <stop offset="0" stop-color="#F2AF09"/>
    <stop offset="1" stop-color="#B37048"/>
  </linearGradient>
  <path fill="url(#x)" d="M507.4-539.98c.52-2.66 13.02-23.43 5.97-37.8-7.05-14.37-19.3-16.5-19.3-16.5s-2.65 31.4 0 35.67c2.67 4.2 13.32 18.6 13.32 18.6z"/>
  <linearGradient id="y" x1="588.15" x2="588.15" y1="-734.66" y2="-699.42" gradientUnits="userSpaceOnUse">
    <stop offset="0" stop-color="#F2AF09"/>
    <stop offset="1" stop-color="#B37048"/>
  </linearGradient>
  <path fill="url(#y)" d="M570.75-699.42c.37-1.9 1.2-14.9 16.3-24.5 15.1-9.6 18.5-10.74 18.5-10.74s-7.4 23.4-14.9 27.2c-7.5 3.82-19.9 8.04-19.9 8.04z"/>
  <linearGradient id="z" x1="579.23" x2="579.23" y1="-709.53" y2="-674.21" gradientUnits="userSpaceOnUse">
    <stop offset="0" stop-color="#F2AF09"/>
    <stop offset="1" stop-color="#B37048"/>
  </linearGradient>
  <path fill="url(#z)" d="M558.4-674.2s10.54-28.5 21-32.4c10.48-3.86 20.65-2.8 20.65-2.8s-10.4 19.64-16.42 21.94c-6 2.3-25.22 13.25-25.22 13.25z"/>
  <linearGradient id="A" x1="578.66" x2="578.66" y1="-669.62" y2="-627.38" gradientUnits="userSpaceOnUse" gradientTransform="rotate(-6.47 404.265 -569.266)">
    <stop offset="0" stop-color="#F2AF09"/>
    <stop offset="1" stop-color="#B37048"/>
  </linearGradient>
  <path fill="url(#A)" d="M547.83-644c1.96-.77 4.8-29.27 14.85-35.97 10.04-6.7 26.7-11.27 26.7-11.27s-4.04 23.7-11.8 30.66c-7.77 6.95-29.75 16.57-29.75 16.57z"/>
  <linearGradient id="B" x1="562.87" x2="562.87" y1="-664.11" y2="-629.48" gradientUnits="userSpaceOnUse">
    <stop offset="0" stop-color="#F2AF09"/>
    <stop offset="1" stop-color="#B37048"/>
  </linearGradient>
  <path fill="url(#B)" d="M543.85-629.48s6.9-27.6 16.25-31.83c9.37-4.3 21.8-2.5 21.8-2.5s-5.9 21.1-11.9 24.2c-6 3-26.15 10-26.15 10z"/>
  <linearGradient id="C" x1="554.31" x2="554.31" y1="-639.76" y2="-609.6" gradientUnits="userSpaceOnUse">
    <stop offset="0" stop-color="#F2AF09"/>
    <stop offset="1" stop-color="#B37048"/>
  </linearGradient>
  <path fill="url(#C)" d="M535.95-609.6c1.12-1.9 10.14-28.9 18.14-29.96 8-1.08 18.5 2.6 18.5 2.6s-6.7 18.13-10.6 21.35c-3.9 3.2-26.1 6-26.1 6z"/>
  <linearGradient id="D" x1="545.99" x2="545.99" y1="-616.65" y2="-584.68" gradientUnits="userSpaceOnUse">
    <stop offset="0" stop-color="#F2AF09"/>
    <stop offset="1" stop-color="#B37048"/>
  </linearGradient>
  <path fill="url(#D)" d="M524.06-584.68c.37-1.88 1.84-27.16 21.2-30.7 19.34-3.54 22.66 1.43 22.66 1.43s-13.42 20.42-19.8 23.1c-6.4 2.67-24.06 6.17-24.06 6.17z"/>
  <linearGradient id="E" x1="534.83" x2="534.83" y1="-591.75" y2="-561.64" gradientUnits="userSpaceOnUse">
    <stop offset="0" stop-color="#F2AF09"/>
    <stop offset="1" stop-color="#B37048"/>
  </linearGradient>
  <path fill="url(#E)" d="M513.3-561.64c.73-2.27 7.34-27.9 19.38-29.5 12.04-1.58 25.24.2 23.55 1.92-1.7 1.7-8.74 18.7-14.74 21.75-6 3.05-28.2 5.83-28.2 5.83z"/>
  <linearGradient id="F" x1="526.72" x2="526.72" y1="-570.54" y2="-537.48" gradientUnits="userSpaceOnUse">
    <stop offset="0" stop-color="#F2AF09"/>
    <stop offset="1" stop-color="#B37048"/>
  </linearGradient>
  <path fill="url(#F)" d="M502.9-537.48c1.5-2.27 7.2-25.82 22.3-31.1 15.12-5.28 25.33 1.8 25.33 1.8s-20.18 24.23-25.06 25.4c-4.88 1.15-22.56 3.9-22.56 3.9z"/>
  <linearGradient id="G" x1="511.97" x2="511.97" y1="-544.35" y2="-513" gradientUnits="userSpaceOnUse">
    <stop offset="0" stop-color="#F2AF09"/>
    <stop offset="1" stop-color="#B37048"/>
  </linearGradient>
  <path fill="url(#G)" d="M488.3-513s15.32-27.52 25.1-30.58c9.78-3.07 22.25 4 22.25 4s-14.57 17.8-19.82 20.1c-5.26 2.28-27.53 6.48-27.53 6.48z"/>
  <linearGradient id="H" x1="495.15" x2="495.15" y1="-564.47" y2="-512.3" gradientUnits="userSpaceOnUse">
    <stop offset="0" stop-color="#F2AF09"/>
    <stop offset="1" stop-color="#B37048"/>
  </linearGradient>
  <path fill="url(#H)" d="M500.6-512.3s8.4-30.34 3.6-39.4c-4.8-9.04-18.64-12.77-18.64-12.77s-2.13 22.9 0 28.22 15.03 23.95 15.03 23.95z"/>
  <linearGradient id="I" x1="487.76" x2="487.76" y1="-538.38" y2="-489.94" gradientUnits="userSpaceOnUse">
    <stop offset="0" stop-color="#F2AF09"/>
    <stop offset="1" stop-color="#B37048"/>
  </linearGradient>
  <path fill="url(#I)" d="M495.15-489.94c.53-2.66 9.6-23.96 0-35.14s-19.17-13.3-19.17-13.3 1.06 28.74 4.8 33.53c3.72 4.8 14.37 14.9 14.37 14.9z"/>
  <linearGradient id="J" x1="511.92" x2="511.92" y1="-526.11" y2="-489.41" gradientUnits="userSpaceOnUse">
    <stop offset="0" stop-color="#F2AF09"/>
    <stop offset="1" stop-color="#B37048"/>
  </linearGradient>
  <path fill="url(#J)" d="M493.3-489.4c.6-2.65 1-25.8 14.32-32.1 13.32-6.3 22.93-4.32 22.93-4.32s-12.7 25.8-18.05 28.67c-5.36 2.85-19.2 7.74-19.2 7.74z"/>
  <linearGradient id="K" x1="507.94" x2="507.94" y1="-814.63" y2="-772.04" gradientUnits="userSpaceOnUse" gradientTransform="rotate(-13.457 529.36 -629.003)">
    <stop offset="0" stop-color="#F2AF09"/>
    <stop offset="1" stop-color="#B37048"/>
  </linearGradient>
  <path fill="url(#K)" d="M472.4-762.46c.67-1.8 8.5-10.25 4.74-21.4C473.38-795 467.2-805 467.2-805s-3.58 17.26-3.38 22.7c.2 5.42 8.58 19.84 8.58 19.84z"/>
  <linearGradient id="L" x1="526.49" x2="526.49" y1="-790.74" y2="-757.04" gradientUnits="userSpaceOnUse" gradientTransform="matrix(1.252 -.0636 .5086 1.1394 214.12 138.142)">
    <stop offset="0" stop-color="#F2AF09"/>
    <stop offset="1" stop-color="#B37048"/>
  </linearGradient>
  <path fill="url(#L)" d="M471.65-757.08c-.5-2.17-9.16-14.87-1.77-24.1 7.4-9.2 17.78-16 17.78-16s1.1 19.33-.33 24.7c-1.43 5.35-15.68 15.4-15.68 15.4z"/>
  <linearGradient id="M" x1="354.08" x2="354.08" y1="-341.29" y2="-554.96" gradientUnits="userSpaceOnUse" gradientTransform="rotate(-13.457 529.36 -629.003)">
    <stop offset="0" stop-color="#F2AF09"/>
    <stop offset="1" stop-color="#B37048"/>
  </linearGradient>
  <path fill="url(#M)" d="M445.4-532.8s-1.06 86.55-45.03 163.58c-43.98 77.04-36.2 74.27-38.7 76.17-2.84-.76-7-1.73-6-3.84 12.67-26 53.8-101.2 62.46-125 12.72-34.9 23-109.8 23-109.8l4.26-1z"/>
  <linearGradient id="N" x1="497.53" x2="497.53" y1="-803.45" y2="-753.94" gradientUnits="userSpaceOnUse" gradientTransform="rotate(-13.457 529.36 -629.003)">
    <stop offset="0" stop-color="#F2AF09"/>
    <stop offset="1" stop-color="#B37048"/>
  </linearGradient>
  <path fill="url(#N)" d="M470.4-743.37c.67-1.8 6.7-13.36-1.26-29.4s-10.26-18.76-10.26-18.76-5.8 23.83-1.35 30.98c4.45 7.15 12.87 17.18 12.87 17.18z"/>
  <linearGradient id="O" x1="489.52" x2="489.52" y1="-781.62" y2="-727.32" gradientUnits="userSpaceOnUse" gradientTransform="rotate(-13.457 529.36 -629.003)">
    <stop offset="0" stop-color="#F2AF09"/>
    <stop offset="1" stop-color="#B37048"/>
  </linearGradient>
  <path fill="url(#O)" d="M467.92-715.4s5.74-29.85-1.22-38.58c-6.95-8.74-16.2-13.1-16.2-13.1s-1.26 22.2 2.7 27.28c3.95 5.07 14.72 24.4 14.72 24.4z"/>
  <linearGradient id="P" x1="479.46" x2="479.46" y1="-760.33" y2="-704.96" gradientUnits="userSpaceOnUse" gradientTransform="rotate(-13.457 529.36 -629.003)">
    <stop offset="0" stop-color="#F2AF09"/>
    <stop offset="1" stop-color="#B37048"/>
  </linearGradient>
  <path fill="url(#P)" d="M464.08-691.5c-1.3-1.33 6.94-25.2 1.36-34.26-5.58-9.07-17.23-18.87-17.23-18.87s-5.5 20.48-1.8 28.9c3.7 8.44 17.7 24.23 17.7 24.23z"/>
  <linearGradient id="Q" x1="469.41" x2="469.41" y1="-736.37" y2="-681.06" gradientUnits="userSpaceOnUse" gradientTransform="rotate(-13.457 529.36 -629.003)">
    <stop offset="0" stop-color="#F2AF09"/>
    <stop offset="1" stop-color="#B37048"/>
  </linearGradient>
  <path fill="url(#Q)" d="M459.15-665.74s9.08-29.43 2.77-38.58c-6.3-9.16-18.83-14.45-18.83-14.45s-6.4 22.85-2.6 29.04c3.8 6.2 18.6 24 18.6 24z"/>
  <linearGradient id="R" x1="459.6" x2="459.6" y1="-710.81" y2="-655.98" gradientUnits="userSpaceOnUse" gradientTransform="rotate(-13.457 529.36 -629.003)">
    <stop offset="0" stop-color="#F2AF09"/>
    <stop offset="1" stop-color="#B37048"/>
  </linearGradient>
  <path fill="url(#R)" d="M457.3-639.5c0-2.2 13.47-31.43-3.63-44.03-6.5-4.8-17.24-7.37-17.24-7.37s-3.68 18.94-1.98 23.74 22.84 27.65 22.84 27.65z"/>
  <linearGradient id="S" x1="449.68" x2="449.68" y1="-691.13" y2="-639.47" gradientUnits="userSpaceOnUse" gradientTransform="rotate(-13.457 529.36 -629.003)">
    <stop offset="0" stop-color="#F2AF09"/>
    <stop offset="1" stop-color="#B37048"/>
  </linearGradient>
  <path fill="url(#S)" d="M450.96-621.02c.67-1.8 12.5-24.2-2.24-37.24-14.72-13.04-20.13-10.5-20.13-10.5s.9 24.4 4.9 30 17.4 17.74 17.4 17.74z"/>
  <linearGradient id="T" x1="439.16" x2="439.16" y1="-665.74" y2="-615.51" gradientUnits="userSpaceOnUse" gradientTransform="rotate(-13.457 529.36 -629.003)">
    <stop offset="0" stop-color="#F2AF09"/>
    <stop offset="1" stop-color="#B37048"/>
  </linearGradient>
  <path fill="url(#T)" d="M448.25-595.74c.54-2.32 8.16-27.68-1.32-35.27-9.48-7.6-21.7-12.9-21.14-10.6.5 2.3-2.2 20.5 1.3 26.2s21.1 19.6 21.1 19.6z"/>
  <linearGradient id="U" x1="429.99" x2="429.99" y1="-645.33" y2="-591.03" gradientUnits="userSpaceOnUse" gradientTransform="rotate(-13.457 529.36 -629.003)">
    <stop offset="0" stop-color="#F2AF09"/>
    <stop offset="1" stop-color="#B37048"/>
  </linearGradient>
  <path fill="url(#U)" d="M444.63-569.7c-.1-2.7 7.22-25.8-2.98-38.15-10.2-12.34-22.6-11.56-22.6-11.56s4.72 31.1 8.3 34.6c3.58 3.5 17.28 15 17.28 15z"/>
  <linearGradient id="V" x1="513.93" x2="513.93" y1="-785.7" y2="-750.47" gradientUnits="userSpaceOnUse" gradientTransform="rotate(-13.457 529.36 -629.003)">
    <stop offset="0" stop-color="#F2AF09"/>
    <stop offset="1" stop-color="#B37048"/>
  </linearGradient>
  <path fill="url(#V)" d="M469.15-739.5c-.08-1.92-2.3-14.76 10.15-27.6 12.46-12.86 15.48-14.77 15.48-14.77s-1.73 24.47-8.15 29.92c-6.4 5.45-17.48 12.44-17.48 12.44z"/>
  <linearGradient id="W" x1="505.02" x2="505.02" y1="-760.58" y2="-725.25" gradientUnits="userSpaceOnUse" gradientTransform="rotate(-13.457 529.36 -629.003)">
    <stop offset="0" stop-color="#F2AF09"/>
    <stop offset="1" stop-color="#B37048"/>
  </linearGradient>
  <path fill="url(#W)" d="M463-712.1s3.62-30.18 12.9-36.4c9.3-6.2 19.43-7.53 19.43-7.53s-5.56 21.53-10.87 25.16c-5.3 3.63-21.45 18.76-21.45 18.76z"/>
  <linearGradient id="X" x1="510.67" x2="510.67" y1="-728.71" y2="-686.46" gradientUnits="userSpaceOnUse" gradientTransform="rotate(-19.926 491.14 -604.92)">
    <stop offset="0" stop-color="#F2AF09"/>
    <stop offset="1" stop-color="#B37048"/>
  </linearGradient>
  <path fill="url(#X)" d="M459.75-680.28c1.73-1.2-2.14-29.57 6.07-38.42 8.2-8.85 23.34-17.18 23.34-17.18s1.6 24-4.34 32.57c-5.93 8.5-25.07 23-25.07 23z"/>
  <linearGradient id="Y" x1="488.66" x2="488.66" y1="-715.16" y2="-680.53" gradientUnits="userSpaceOnUse" gradientTransform="rotate(-13.457 529.36 -629.003)">
    <stop offset="0" stop-color="#F2AF09"/>
    <stop offset="1" stop-color="#B37048"/>
  </linearGradient>
  <path fill="url(#Y)" d="M459.26-665.22s.28-28.46 8.4-34.74c8.13-6.3 20.64-7.43 20.64-7.43s-.8 22-5.94 26.3c-5.13 4.4-23.1 15.9-23.1 15.9z"/>
  <linearGradient id="Z" x1="480.09" x2="480.09" y1="-690.8" y2="-660.64" gradientUnits="userSpaceOnUse" gradientTransform="rotate(-13.457 529.36 -629.003)">
    <stop offset="0" stop-color="#F2AF09"/>
    <stop offset="1" stop-color="#B37048"/>
  </linearGradient>
  <path fill="url(#Z)" d="M456.2-644.05c.65-2.1 3.15-30.45 10.68-33.36 7.54-3 18.67-1.8 18.67-1.8s-2.26 19.1-5.34 23.2c-3 4-24 11.9-24 11.9z"/>
  <linearGradient id="aa" x1="471.77" x2="471.77" y1="-667.69" y2="-635.72" gradientUnits="userSpaceOnUse" gradientTransform="rotate(-13.457 529.36 -629.003)">
    <stop offset="0" stop-color="#F2AF09"/>
    <stop offset="1" stop-color="#B37048"/>
  </linearGradient>
  <path fill="url(#aa)" d="M450.44-617.04c-.08-1.92-4.53-26.85 13.46-34.8 18-7.94 22.38-3.88 22.38-3.88s-8.3 22.98-13.88 27.07c-5.6 4.1-21.96 11.6-21.96 11.6z"/>
  <linearGradient id="ab" x1="460.62" x2="460.62" y1="-642.79" y2="-612.69" gradientUnits="userSpaceOnUse" gradientTransform="rotate(-13.457 529.36 -629.003)">
    <stop offset="0" stop-color="#F2AF09"/>
    <stop offset="1" stop-color="#B37048"/>
  </linearGradient>
  <path fill="url(#ab)" d="M445.33-592.14c.2-2.37.66-28.85 12-33.2 11.33-4.33 24.58-5.67 23.34-3.6-1.24 2.05-4.14 20.2-9.27 24.57-5.13 4.37-26.07 12.23-26.07 12.23z"/>
  <linearGradient id="ac" x1="452.5" x2="452.5" y1="-621.58" y2="-588.53" gradientUnits="userSpaceOnUse" gradientTransform="rotate(-13.457 529.36 -629.003)">
    <stop offset="0" stop-color="#F2AF09"/>
    <stop offset="1" stop-color="#B37048"/>
  </linearGradient>
  <path fill="url(#ac)" d="M440.86-566.22c.92-2.55.97-26.8 14.44-35.44 13.47-8.65 25.05-4.14 25.05-4.14s-13.98 28.26-18.46 30.52c-4.5 2.27-21.1 9.06-21.1 9.06z"/>
  <linearGradient id="ad" x1="437.76" x2="437.76" y1="-595.4" y2="-564.05" gradientUnits="userSpaceOnUse" gradientTransform="rotate(-13.457 529.36 -629.003)">
    <stop offset="0" stop-color="#F2AF09"/>
    <stop offset="1" stop-color="#B37048"/>
  </linearGradient>
  <path fill="url(#ad)" d="M432.34-539.02s8.5-30.32 17.3-35.58 22.57-1.27 22.57-1.27-10 20.68-14.6 24.14c-4.5 3.45-25.2 12.7-25.2 12.7z"/>
  <linearGradient id="ae" x1="420.94" x2="420.94" y1="-615.51" y2="-563.34" gradientUnits="userSpaceOnUse" gradientTransform="rotate(-13.457 529.36 -629.003)">
    <stop offset="0" stop-color="#F2AF09"/>
    <stop offset="1" stop-color="#B37048"/>
  </linearGradient>
  <path fill="url(#ae)" d="M444.47-541.2s1.12-31.46-5.66-39.14c-6.7-7.7-21.1-8.1-21.1-8.1s3.3 22.77 6.6 27.45c3.3 4.7 20.2 19.8 20.2 19.8z"/>
  <linearGradient id="af" x1="413.54" x2="413.54" y1="-589.43" y2="-540.98" gradientUnits="userSpaceOnUse" gradientTransform="rotate(-13.457 529.36 -629.003)">
    <stop offset="0" stop-color="#F2AF09"/>
    <stop offset="1" stop-color="#B37048"/>
  </linearGradient>
  <path fill="url(#af)" d="M444.38-518.18c-.1-2.7 3.75-25.53-8.18-34.17s-21.74-8.48-21.74-8.48 7.72 27.7 12.46 31.5c4.74 3.8 17.46 11.15 17.46 11.15z"/>
  <linearGradient id="ag" x1="437.71" x2="437.71" y1="-577.16" y2="-540.45" gradientUnits="userSpaceOnUse" gradientTransform="rotate(-13.457 529.36 -629.003)">
    <stop offset="0" stop-color="#F2AF09"/>
    <stop offset="1" stop-color="#B37048"/>
  </linearGradient>
  <path fill="url(#ag)" d="M442.7-517.23c-.04-2.7-5.03-25.3 6.46-34.54 11.48-9.22 21.3-9.55 21.3-9.55s-6.34 28.06-10.9 32.1c-4.54 4-16.87 12-16.87 12z"/>
  <linearGradient id="ah" x1="247.27" x2="247.27" y2="254.6" gradientUnits="userSpaceOnUse">
    <stop offset="0" stop-color="#A16661"/>
    <stop offset="1" stop-color="#663139"/>
  </linearGradient>
  <path fill="url(#ah)" d="M24.75 56.02C-78.6 185.78 381.35 364.6 472.07 165.72 542.77 10.75 297 33.45 283.13 32.62c-112.36-6.73-173.87-82.7-258.37 23.4z"/>
  <path fill="#DFD9C9" d="M236.17 25.84s-19 13.6 34.25 18.77c40.83 4 26.04-12.3 25.7-12.3-.14 0-12.96.7-25.88-.7-16.54-1.8-34.07-5.7-34.07-5.7z"/>
  <linearGradient id="ai" x1="23.8" x2="134.02" y1="194.15" y2="314.43" gradientUnits="userSpaceOnUse" gradientTransform="rotate(102.504 83.193 248.68)">
    <stop offset="0" stop-color="#E9CB6B"/>
    <stop offset="1" stop-color="#E9AE6B"/>
  </linearGradient>
  <path fill="url(#ai)" d="M50.77 324.94c30.98 12.9 117.03-32.2 117.05-65.77 0-39.03-39.1-128.24-141.3-76.4C-7.35 199.94-18 296.3 50.76 324.94z"/>
  <path fill="#F4E7B3" d="M38.95 176.67C52.68 172.6 3.18 235.7 2.38 221.4c-.5-8.86 8.88-24.83 13.8-30.72 4.65-5.58 15.24-11.77 22.77-14z"/>
  <path fill="#DEBE97" d="M342.5 191.03c-7.6-10-14.7-50.1-25.43-56.67-30.3-18.6-112.84 3.98-139.5 27.5-28.97 25.57-63.75 111.26-48.53 146.8 15.48 36.1 92.34 101.4 129.6 88.9 82.85-27.75 126.58-150.4 83.87-206.53z"/>
  <g opacity=".4">
    <defs>
      <path id="aj" d="M342.5 191.03c-7.6-10-14.7-50.1-25.43-56.67-30.3-18.6-112.84 3.98-139.5 27.5-28.97 25.57-63.75 111.26-48.53 146.8 15.48 36.1 92.34 101.4 129.6 88.9 82.85-27.75 126.58-150.4 83.87-206.53z" opacity=".4"/>
    </defs>
    <clipPath id="al">
      <use xlink:href="#aj" overflow="visible"/>
    </clipPath>
    <radialGradient id="ak" cx="218.73" cy="207.08" r="182.46" gradientTransform="matrix(1.1696 0 0 1 -61.315 0)" gradientUnits="userSpaceOnUse">
      <stop offset="0" stop-color="#DEE0DB"/>
      <stop offset="1" stop-color="#DEBE97"/>
    </radialGradient>
    <path fill="url(#ak)" d="M-4.5 13.08h398v388h-398z" clip-path="url(#al)"/>
  </g>
  <path fill="#DFD9C9" d="M284.76 152.46c-3.76-3.74-23.73-4.9-20.94 3.5 2.8 8.36 16.76 20.23 20.95 18.14 4.18-2.1 3.84-17.84 0-21.64z"/>
</svg>
