<svg xmlns="http://www.w3.org/2000/svg" xmlns:xlink="http://www.w3.org/1999/xlink" viewBox="0 0 616.76 590.72">
  <path fill="#437013" d="M498.76 590.33c5.78-3.45 42.95-41.2 42.9-56.8-.04-6.8-8.9-25.04-6.36-31.45 2.96-7.38 4.03-28.77 5.32-40.94 4.9-46.27-298.9-346.8-324.3-438.35-7.8 53 43.5 92.8 111.23 205.6C288.9 178.3 145.4 39.7 118 0c-26.53 13.65 46.62 78.18 52.82 107.03-15.07-15.57-60.88-53.74-76.3-66.54-19.36 9.5 17.57 65.6 11 80-17.17-24.3-34.66-64.1-48.18-84.9-22.32 8.3 63.98 166.9 62.32 182.5-.74 7-61.2-53.3-119.66-39.5 95.16 39 88 41.8 102.8 61.3C282.92 477.2 403.9 559 427.04 567.3c31.1 11.02 30.63 2.34 45.32 7.7 5.73 2.1 21.16 18.32 26.4 15.2z"/>
  <path fill="#FEC02D" d="M527.1 488c2.55-2.3 4.35-4.07 4.35-4.07 1.7-2.4 2-5.34 1.1-7.9 1.57-1.47 2.58-2.47 2.58-2.47 2.78-3.93 1.86-9.36-2.07-12.15l-.74-.5c-.45-.3-1.07-.4-1.8-.2.5-3.3-.98-6.8-4.02-8.7l-.78-.5c-.24-.1-.53-.2-.85-.2-.04-2.9-1.48-5.7-4.1-7.3l-.78-.4c-.7-.3-1.5-.3-2.5.1.4-3.3-1-6.7-4.1-8.6l-.8-.5c-.3-.1-.6-.2-1-.2 0-2.9-1.5-5.7-4.1-7.4l-.8-.5c-.2-.1-.5-.2-.8-.2-.6-1.9-1.8-3.6-3.7-4.8l-.8-.5-.4-.1c-.4-2.3-1.6-4.4-3.6-5.8l-.7-.5c-.3-.2-.6-.3-1-.3.1-2.9-1.1-5.8-3.7-7.6l-.8-.5c-.5-.3-1.1-.3-1.8-.2-.3-2.3-1.5-4.5-3.6-6l-.8-.5c-.3-.2-.6-.3-1-.3.1-2.9-1.1-5.8-3.7-7.6l-.8-.5c-.5-.3-1.1-.4-1.9-.2-.3-2.3-1.5-4.6-3.6-6l-.8-.6c-.4-.3-1-.3-1.8-.2.5-3.3-.9-6.7-4-8.6l-.8-.5c-.2-.1-.5-.2-.8-.2-.1-2.8-1.5-5.7-4.1-7.3l-.8-.5c-.6-.3-1.5-.3-2.5.1.4-3.3-1-6.7-4-8.6l-.8-.5c-.3-.2-.6-.2-1-.2 0-2.9-1.5-5.7-4.1-7.4l-.8-.5c-.3-.1-.5-.2-.8-.2-.6-1.9-1.8-3.6-3.7-4.8l-.8-.4c-.4-.2-.8-.3-1.2-.3-.3-2.6-1.7-5.1-4.1-6.6l-.8-.5c-.3-.2-.6-.2-1-.2 0-2.9-1.5-5.7-4.2-7.3l-.8-.5c-.2-.1-.5-.2-.9-.2-.1-2.9-1.5-5.7-4.2-7.3l-.8-.5c-.5-.3-1.1-.3-1.9-.1-.4-2.3-1.8-4.5-4-5.8l-.8-.5c-.3-.2-.6-.2-.9-.2-.1-2.9-1.5-5.7-4.2-7.3l-.8-.5c-.6-.4-1.5-.3-2.6.1-.2-2.8-1.9-5.5-4.6-6.9l-.8-.4c-.3-.1-.5-.2-.9-.2-.2-2.9-1.9-5.6-4.6-7l-.8-.5c-.6-.3-1.5-.2-2.5.2.2-3.3-1.5-6.6-4.6-8.3l-.8-.4c-.6-.3-1.2-.2-2 0-.6-2.3-2.1-4.4-4.4-5.6l-.8-.4c-.3-.1-.5-.2-.8-.2-.7-1.9-2.1-3.5-4-4.5l-.8-.4c-.3-.1-.6-.2-.9-.2-.4-2.8-2.1-5.4-4.8-6.8l-.8-.4c-.3-.1-.6-.2-1-.1-.3-2.9-2.1-5.6-4.8-6.9l-.9-.4c-.5-.2-1.1-.2-1.8 0-.7-2.2-2.3-4.2-4.5-5.3l-.9-.4c-.3-.1-.6-.2-1-.1-.3-2.9-2-5.5-4.8-6.9l-.8-.4c-.6-.2-1.2-.2-1.9.1-.7-2.2-2.2-4.2-4.5-5.4l-.9-.4c-.5-.2-1-.2-1.7 0l-.1-.1c-.1-3.3-2.1-6.4-5.3-7.7l-.9-.4c-.3-.1-.6-.1-.9-.1-.5-2.8-2.4-5.3-5.3-6.5l-.86-.4c-.6-.2-1.3-.2-2 .2l-.5-.5c-.4-3.1-2.3-5.9-5.3-7.1l-.9-.4c-.3-.1-.6-.1-.9-.1-.5-2.9-2.4-5.4-5.3-6.6l-.8-.4c-.2 0-.5-.1-.7-.1-.9-1.8-2.4-3.3-4.4-4.1l-.78-.5c-.3-.1-.9.1-1.1-.1-.8-2.4-2.5-4.7-5.2-5.7l-.8-.3c-.3-.1-.7-.1-1-.1-.5-2.8-2.4-5.4-5.3-6.5l-.9-.4c-.3-.1-.6-.1-.9-.1-.5-2.8-2.4-5.3-5.3-6.5l-.87-.3c-.5-.2-1.13-.1-1.9.2-.8-2.3-2.5-4.2-4.8-5.1l-.87-.4c-.3-.1-.6-.1-1-.1-.5-2.8-2.4-5.4-5.2-6.56l-.9-.4c-.6-.3-1.45-.1-2.4.43l-.2-.2c-.7-2.67-2.75-4.9-5.6-5.9l-.8-.3c-.3-.1-.6-.1-.9-.1-.7-2.8-2.7-5.2-5.68-6.2l-.8-.3c-.5-.2-1.2-.04-1.9.36l-.6-.4c-.5-3.1-2.6-5.76-5.7-6.8l-.88-.3c-.5-.2-1.2-.06-1.9.34-.9-2.2-2.8-4-5.2-4.84l-.9-.3c-.2-.1-.5-.1-.7-.1-1-1.8-2.6-3.2-4.7-3.9l-.8-.3c-.4-.1-.9-.1-1.4.1-1.2-2.5-3.5-4.5-6.5-4.97-1.2-2.5-3.6-4.3-6.6-4.7l-.8-.1c-1-3.1-3.6-5.44-7-5.9l-.9-.13c-.3-.05-.64 0-1 .15-1.2-2.6-3.64-4.6-6.7-5.02l-.9-.1c-.3 0-.6 0-.9.1-1.2-2.6-3.65-4.6-6.7-5l-.9-.1c-.6 0-1.2.2-1.8.7-1.35-1.94-3.46-3.4-6-3.7l-.9-.1c-.3-.06-.67 0-1 .14-1.2-2.6-3.67-4.6-6.75-5l-.9-.1c-.7-.1-1.5.3-2.3 1.2-1.34-2.5-3.9-4.3-7-4.6l-.9-.1c-.43-.1-.9.1-1.4.5-.9-2.3-2.73-4.2-5.3-5.1l-.83-.3c-1.3-.5-3.3 1-5.3 3.2-1-1.1-2.2-2-3.7-2.5l-.9-.3c-1.6-.6-4 1.5-6.5 4.4-.9-.9-1.9-1.5-3.2-2l-.8-.3c-1-.3-2.2.3-3.6 1.4-.8-1.1-1.8-2-3.1-2.7l-.8-.4c-4.3-2.1-17.7 16.4-17.7 16.4-.4 1-.4 2.1-.2 3.3-2.4 1.9-3.9 3.9-3.5 5.3l.3.9.6 1.5c-3.8 2.6-6.9 5.5-6.3 7.4l.2.9c.3.9.7 1.7 1.24 2.5-1.7 1.5-2.6 3-2.3 4.1l.3.9c.3.7.6 1.5 1 2.1-.5.6-.8 1.2-.8 1.8l.1.9c.2 2.2 1.2 4.1 2.6 5.53-.14.3-.25.5-.3.7l-.1.9c-.5 3.7 1.2 7.1 4.2 8.8-.6.6-.9 1.1-.9 1.7l-.07.9c0 3.1 1.5 5.8 3.9 7.4-.9.7-1.4 1.5-1.4 2.2l.1.9c.1 3.2 1.9 5.8 4.4 7.2-.2.3-.3.7-.2 1v.9c.1 2.6 1.4 4.8 3.2 6.3-.55.6-.86 1.2-.8 1.7l.1.9c.2 3.1 1.9 5.8 4.4 7.2-.2.3-.2.6-.2.9v.9c.1 3.1 1.9 5.7 4.4 7.2-.2.3-.3.6-.2.9v.9c.1 3.4 2.2 6.3 5.1 7.6l.1.8c.1 3 1.7 5.5 4.1 7 .2 3 1.9 5.5 4.3 6.9-.2.5-.3.9-.2 1.4l.2.9c.5 2.1 1.7 3.9 3.4 5.1-.1.2-.1.5 0 .7l.2.9c.6 2.6 2.2 4.5 4.3 5.7-.5.7-.7 1.3-.56 1.9l.2.9c.8 3.5 3.6 5.94 6.9 6.6-.6.8-1 1.6-.8 2.3l.2.8c.7 3 2.9 5.3 5.7 6.2-.1.3-.1.6 0 .9l.2.9c.7 3 2.9 5.2 5.6 6.2-.7.9-1 1.8-.8 2.5l.3.9c.9 3 3.2 5.1 6 5.9-.1.3-.1.7 0 1l.2.9c.8 2.4 2.5 4.3 4.6 5.3-.4.7-.5 1.3-.3 1.9l.3.8c.9 3 3.2 5.1 6 5.9-.1.3-.1.6 0 .9l.3.9c.9 3 3.2 5.1 6 5.9 0 .4-.1.7 0 1l.3.9c.9 2.8 2.9 4.7 5.4 5.7-.1.47-.2.9-.1 1.2l.3.9c.6 2.1 2 3.7 3.7 4.8-.1.3-.1.5 0 .8l.26.9c1 3 3.3 5.1 6.1 5.8-.1.3-.1.7 0 1l.3.8c1.1 3.4 4 5.7 7.3 6.1-.6.9-.9 1.7-.7 2.3l.3.9c.9 3 3.3 5.1 6 5.9v.9l.3.8c1.1 3.5 4 5.8 7.4 6.2-.3.6-.4 1.2-.2 1.8l.4.8c.9 2.4 2.8 4.1 5 5-.3.7-.4 1.3-.2 1.9l.3.9c1.1 2.9 3.6 4.8 6.5 5.4-.04.3-.04.7.1 1l.3.8c.9 2.3 2.7 4.1 4.9 4.9-.3.7-.4 1.3-.2 1.8l.3.9c1.1 2.9 3.6 4.9 6.4 5.44-.1.4 0 .7.1 1l.4.9c1.1 2.87 3.5 4.8 6.3 5.4 0 .3 0 .6.1.9l.4.9c.8 2 2.3 3.5 4.1 4.4 0 .3 0 .5.1.7l.3.9c1 2.4 3 4.1 5.2 4.9-.3.7-.4 1.4-.2 1.92l.4.82c1.4 3.3 4.5 5.3 7.9 5.4-.5 1-.7 1.8-.5 2.4l.4.9c1.2 2.9 3.7 4.8 6.6 5.3 0 .3 0 .6.1.8l.4.8c1.2 2.85 3.7 4.7 6.5 5.24-.5 1-.7 1.9-.3 2.6l.4.8c1.33 2.8 4 4.5 6.9 4.8 0 .33 0 .7.2 1l.4.8c1.1 2.3 3.1 3.8 5.4 4.5-.3.7-.3 1.4-.1 1.9l.4.8c1.3 2.8 4 4.5 6.9 4.8 0 .3 0 .6.1.9l.4.8c1.4 2.8 4.1 4.5 6.93 4.8 0 .34 0 .7.2.95l.4.8c1.2 2.5 3.6 4.2 6.2 4.7-.1.4 0 .8.1 1.2l.4.8c1 1.9 2.6 3.3 4.5 4.1 0 .2.1.5.2.7l.4.8c1.4 2.8 4.1 4.5 6.9 4.8 0 .4 0 .7.2 1l.4.8c1.4 2.9 4.2 4.6 7.1 4.8l.7.7c-.26.7-.3 1.3-.06 1.8l.5.8c1.4 2.8 4 4.5 6.9 4.8 0 .3 0 .6.2.8l.4.9c1.4 2.7 4 4.4 6.9 4.7l1.2 1.1c0 .23.1.5.2.7l.5.8c1.23 2.2 3.3 3.6 5.6 4.16l.05.1c-.2.7-.2 1.3.1 1.8l.5.8c1.6 2.7 4.3 4.26 7.2 4.37 0 .3 0 .7.2 1l.4.8c1.3 2.2 3.36 3.6 5.65 4.1-.2.7-.2 1.3.1 1.8l.4.8c1.6 2.7 4.3 4.2 7.2 4.3 0 .3.03.7.2.9l.43.8c1.23 2.2 3.24 3.6 5.5 4.1l.1.4.4.8c1 2 2.6 3.4 4.42 4.2 0 .23 0 .5.1.7l.4.8c1.4 2.8 4.1 4.5 7 4.8-.1.4 0 .7.1 1l.4.8c1.6 3.2 4.9 5 8.2 4.83-.5 1-.6 1.8-.3 2.4l.4.8c1.4 2.8 4 4.5 6.9 4.8 0 .3 0 .6.2.9l.4.8c1.6 3.2 6.1 1.54 9.5 1.4-.2.7-.2 1.33.06 1.8l.5.8c2.4 4.2 10.1 4.5 14.26 2.1 0 0 1.1-.9 2.7-2.3 2.5 1.1 5.5 1.1 8-.37 0 0 .6 1.1 4.5-2.9 1.1-.1 2.1-.5 3-1l.9-.7c.7-.4 1.36-.8 2-1.3l.7.8c2.9 1.2 9.2-6.8 13.2-12.37l.9 1.1c3.4 1.7 12.7-9.8 16.2-14.5l.1.1c4.3 2.1 17.7-16.4 17.7-16.4.5-1.1.8-2.3.85-3.5 5.6-3.2 14.7-15.73 14.7-15.73 1.4-3 1-6.4-.8-8.9z"/>
  <defs>
    <path id="a" d="M469.2 549.33c6.72-17.3 53.65-47.3 53.52-66.64-.42-66.4-315.68-434.4-397.45-364.4C45.04 187 434.37 639.1 469.2 549.2z"/>
  </defs>
  <clipPath id="b">
    <use xlink:href="#a" overflow="visible"/>
  </clipPath>
  <g fill="#FFE8CA" opacity=".5" clip-path="url(#b)">
    <path d="M165.48 172.26c1.8-3.37-.2-7.94-4.45-10.2l-.8-.42c-4.26-2.26-16.08 11.67-16.08 11.67-1.8 3.4 5.26 10.7 5.26 10.7 4.3 2.3 16.1-11.7 16.1-11.7zm-35.22-11.7c-3.8 1.43-8.27-1.06-9.96-5.57l-.32-.9c-1.68-4.5 14.75-14.9 14.75-14.9 3.8-1.4 10.27 6.4 10.27 6.4 1.7 4.5-14.74 14.8-14.74 14.8z"/>
    <path d="M160.68 132.05c2.5-4.12 1.18-9.47-2.93-11.97l-.8-.48c-4.1-2.5-19.1 14.7-19.1 14.7-2.5 4.1 3.72 12.43 3.72 12.43 4.1 2.5 19.1-14.68 19.1-14.68z"/>
    <path d="M161.3 151.16c2.8-3.93 1.86-9.37-2.06-12.15l-.75-.5c-4-2.8-20.1 13.3-20.1 13.3-2.8 3.9 2.8 12.7 2.8 12.7 3.9 2.8 20.1-13.3 20.1-13.3zm14.52 85.64c2.3-4.2.75-9.5-3.47-11.82l-.8-.43c-4.23-2.3-18.43 15.54-18.43 15.54-2.3 4.2 4.27 12.2 4.27 12.2 4.2 2.3 18.4-15.6 18.4-15.6z"/>
    <path d="M184.18 226.1c4.47-1.78 9.6.53 11.46 5.18l.36.9c1.86 4.63-17.48 16.77-17.48 16.77-4.47 1.8-11.82-6.06-11.82-6.06-1.86-4.7 17.48-16.8 17.48-16.8zm40.12 77.1c-3.56 1.2-7.82-1.3-9.5-5.57l-.33-.82c-1.68-4.2 13.64-13.2 13.64-13.2 3.6-1.2 9.9 6.4 9.9 6.4 1.7 4.3-13.6 13.2-13.6 13.2z"/>
    <path d="M236.23 311.2c1.9-3.3 0-7.8-4.23-10l-.8-.43c-4.25-2.2-16.6 11.55-16.6 11.55-1.9 3.33 5.05 10.44 5.05 10.44 4.24 2.2 16.58-11.55 16.58-11.55z"/>
    <path d="M204.06 335.33c-4.4 1.72-9.53-.26-11.47-4.42l-.4-.8c-2-4.1 17-15.6 17-15.6 4.4-1.7 11.8 5.3 11.8 5.3 1.9 4.2-17 15.6-17 15.6zm224.1 55.13c-4.48 1.54-9.5-.66-11.26-4.9l-.33-.8c-1.74-4.25 17.77-14.86 17.77-14.86 4.48-1.53 11.58 5.72 11.58 5.72 1.74 4.24-17.77 14.84-17.77 14.84z"/>
    <path d="M416.48 396.7c-2.36 3.87-.73 8.96 3.63 11.35l.9.46c4.4 2.4 18.9-13.8 18.9-13.8 2.4-3.8-4.4-11.8-4.4-11.8-4.3-2.4-18.8 13.8-18.8 13.8zm50.12 60.72c2.26-3.1.93-7.9-2.95-10.73l-.74-.6c-3.8-2.9-17.5 9.3-17.5 9.3-2.2 3.1 3.7 11.2 3.7 11.2 3.9 2.8 17.6-9.3 17.6-9.3z"/>
    <path d="M471.37 471.14c-3.97.87-8.03-2.23-9.07-6.93l-.2-.8c-1.03-4.7 16.7-12.6 16.7-12.6 3.97-.8 9.26 7.9 9.26 7.9 1.03 4.7-16.7 12.6-16.7 12.6z"/>
    <path d="M505.5 447.2c3.06-3.73 2.52-9.22-1.2-12.27l-.7-.58c-3.73-3.06-21 11.84-21 11.84-3.05 3.7 1.92 12.8 1.92 12.8 3.72 3 21-11.9 21-11.9z"/>
    <path d="M503.44 466.2c3.3-3.5 3.16-9-.33-12.3l-.6-.65c-3.5-3.3-21.8 10.33-21.8 10.33-3.3 3.5 1 12.95 1 12.95 3.5 3.3 21.8-10.33 21.8-10.33zm-25.7 49.38c2.87-3.85 2.07-9.3-1.78-12.2l-.73-.55c-3.86-2.87-20.44 12.8-20.44 12.8-2.9 3.85 2.5 12.74 2.5 12.74 3.8 2.88 20.4-12.8 20.4-12.8z"/>
    <path d="M487.5 506.17c4.7-1.15 9.44 1.87 10.63 6.74l.23 1c1.2 4.9-19.67 14.2-19.67 14.2-4.7 1.2-10.9-7.6-10.9-7.6-1.2-4.8 19.6-14.1 19.6-14.1zm-119.54-88.65c3.73-.63 7.5 2.58 8.43 7.18l.1.88c.9 4.6-15.8 11.28-15.8 11.28-3.8.63-8.6-8.06-8.6-8.06-.9-4.6 15.8-11.28 15.8-11.28z"/>
    <path d="M357.56 407.5c-2.46 3.08-1.36 7.94 2.44 10.86l.73.55c3.8 3 18.4-9.1 18.4-9.1 2.46-3.1-3.17-11.4-3.17-11.4-3.8-2.9-18.4 9.1-18.4 9.1z"/>
    <path d="M393.56 388.08c4.64-1.06 9.37 1.76 10.56 6.3l.23.87c1.2 4.55-19.53 13.18-19.53 13.18-4.64 1.06-10.8-7.17-10.8-7.17-1.18-4.55 19.54-13.18 19.54-13.18z"/>
    <path d="M375.52 381.73c4.55-1.38 9.46 1.12 11 5.57l.27.85c1.5 4.46-18.5 14.5-18.5 14.5-4.6 1.4-11.3-6.4-11.3-6.4-1.5-4.47 18.5-14.52 18.5-14.52zm-3.4-67.36c4.7-.86 9.3 2.17 10.27 6.76l.1.87c1 4.6-20.2 12.3-20.2 12.3-4.7.84-10.5-7.65-10.5-7.65-1-4.58 20.1-12.28 20.1-12.28z"/>
    <path d="M384.74 309.9c3-3.6 2.28-9.02-1.6-12.13l-.75-.6c-3.9-3.12-21.1 11.04-21.1 11.04-3 3.6 2.3 12.8 2.3 12.8 3.8 3.1 21-11 21-11zM265.9 210.85c-4.14 1.17-7.6-2.54-7.75-8.28l-.03-1.1c-.15-5.75 19-15.9 19-15.9 4.14-1.2 7.78 9.36 7.78 9.36.15 5.75-19 15.92-19 15.92z"/>
    <path d="M275.2 222.54c3.22-4.16 2.94-10.22-.62-13.55l-.67-.7c-3.5-3.3-21.4 13.4-21.4 13.4-3.2 4.1 1.3 14.2 1.3 14.2 3.6 3.3 21.5-13.5 21.5-13.5zm-88.2-23.1c-5.17 1.8-9.73-1.3-10.18-6.96l-.08-1.08c-.45-5.65 23.4-18.7 23.4-18.7 5.17-1.8 10.26 8.05 10.26 8.05.45 5.65-23.4 18.7-23.4 18.7z"/>
    <path d="M251.2 257.1c-5.13 2.2-9.95-.5-10.77-6l-.15-1.04c-.8-5.52 22.5-20.3 22.5-20.3 5.15-2.2 10.94 7.05 10.94 7.05.8 5.6-22.52 20.3-22.52 20.3zm150.4 273c3.28-.9 6.2 2 6.53 6.48l.06.85c.3 4.5-14.7 12.37-14.7 12.37-3.3.9-6.6-7.32-6.6-7.32-.3-4.48 14.7-12.37 14.7-12.37z"/>
    <path d="M393.7 520.98c-2.42 3.23-1.97 7.97 1 10.56l.57.5c2.97 2.6 16.72-10.42 16.72-10.42 2.4-3.24-1.6-11.06-1.6-11.06-3-2.6-16.7 10.42-16.7 10.42z"/>
    <path d="M426.6 499.02c4.1-1.4 7.86 1.04 8.42 5.44l.1.84c.58 4.4-18.1 14.53-18.1 14.53-4.1 1.4-8.54-6.3-8.54-6.3-.56-4.4 18.1-14.5 18.1-14.5z"/>
    <path d="M411.75 494.1c4.04-1.7 8 .4 8.86 4.7l.2.8c.9 4.3-17.3 15.77-17.3 15.77-4 1.7-9-5.5-9-5.5-.8-4.3 17.4-15.77 17.4-15.77zm-19.45-25.7c3.8-1.96 7.88-.03 9.08 4.3l.23.8c1.2 4.33-15.6 16.9-15.6 16.9-3.8 1.95-9.3-5.12-9.3-5.12-1.2-4.3 15.7-16.9 15.7-16.9z"/>
    <path d="M402.38 461c2.2-4.26 1.14-9.47-2.36-11.66l-.66-.4c-3.5-2.2-16.55 15.86-16.55 15.86-2.1 4.26 3.1 12.07 3.1 12.07 3.5 2.18 16.6-15.88 16.6-15.88zM281.9 290.5c2.24-3.1.9-7.9-2.98-10.72l-.74-.54c-3.9-2.84-17.56 9.3-17.56 9.3-2.24 3.07 3.7 11.25 3.7 11.25 3.9 2.8 17.56-9.3 17.56-9.3z"/>
    <path d="M286.64 304.23c-3.97.87-8.03-2.23-9.06-6.93l-.2-.9c-1.03-4.7 16.7-12.6 16.7-12.6 3.96-.86 9.25 7.84 9.25 7.84 1.04 4.7-16.7 12.6-16.7 12.6z"/>
    <path d="M320.78 280.28c3.05-3.72 2.52-9.2-1.2-12.26l-.7-.58c-3.73-3.06-21 11.84-21 11.84-3.06 3.72 1.9 12.84 1.9 12.84 3.73 3.06 21-11.84 21-11.84z"/>
    <path d="M318.7 299.3c3.32-3.5 3.17-9.02-.32-12.33l-.67-.63c-3.4-3.3-21.7 10.33-21.7 10.33-3.3 3.5 1 12.95 1 12.95 3.5 3.3 21.8-10.33 21.8-10.33zm-16.6 116.85c2.9-3.86 2.1-9.32-1.75-12.2l-.73-.55c-3.86-2.88-20.44 12.8-20.44 12.8-2.87 3.84 2.5 12.73 2.5 12.73 3.86 2.88 20.43-12.78 20.43-12.78z"/>
    <path d="M311.9 406.74c4.68-1.15 9.44 1.87 10.63 6.73l.22.93c1.2 4.86-19.67 14.15-19.67 14.15-4.68 1.14-10.85-7.67-10.85-7.67-1.2-4.86 19.68-14.14 19.68-14.14z"/>
  </g>
  <defs>
    <path id="c" d="M527.1 488c2.55-2.3 4.35-4.07 4.35-4.07 1.7-2.4 2-5.34 1.1-7.9 1.57-1.47 2.58-2.47 2.58-2.47 2.78-3.93 1.86-9.36-2.07-12.15l-.74-.5c-.45-.3-1.07-.4-1.8-.2.5-3.3-.98-6.8-4.02-8.7l-.78-.5c-.24-.1-.53-.2-.85-.2-.04-2.9-1.48-5.7-4.1-7.3l-.78-.4c-.7-.3-1.5-.3-2.5.1.4-3.3-1-6.7-4.1-8.6l-.8-.5c-.3-.1-.6-.2-1-.2 0-2.9-1.5-5.7-4.1-7.4l-.8-.5c-.2-.1-.5-.2-.8-.2-.6-1.9-1.8-3.6-3.7-4.8l-.8-.5-.4-.1c-.4-2.3-1.6-4.4-3.6-5.8l-.7-.5c-.3-.2-.6-.3-1-.3.1-2.9-1.1-5.8-3.7-7.6l-.8-.5c-.5-.3-1.1-.3-1.8-.2-.3-2.3-1.5-4.5-3.6-6l-.8-.5c-.3-.2-.6-.3-1-.3.1-2.9-1.1-5.8-3.7-7.6l-.8-.5c-.5-.3-1.1-.4-1.9-.2-.3-2.3-1.5-4.6-3.6-6l-.8-.6c-.4-.3-1-.3-1.8-.2.5-3.3-.9-6.7-4-8.6l-.8-.5c-.2-.1-.5-.2-.8-.2-.1-2.8-1.5-5.7-4.1-7.3l-.8-.5c-.6-.3-1.5-.3-2.5.1.4-3.3-1-6.7-4-8.6l-.8-.5c-.3-.2-.6-.2-1-.2 0-2.9-1.5-5.7-4.1-7.4l-.8-.5c-.3-.1-.5-.2-.8-.2-.6-1.9-1.8-3.6-3.7-4.8l-.8-.4c-.4-.2-.8-.3-1.2-.3-.3-2.6-1.7-5.1-4.1-6.6l-.8-.5c-.3-.2-.6-.2-1-.2 0-2.9-1.5-5.7-4.2-7.3l-.8-.5c-.2-.1-.5-.2-.9-.2-.1-2.9-1.5-5.7-4.2-7.3l-.8-.5c-.5-.3-1.1-.3-1.9-.1-.4-2.3-1.8-4.5-4-5.8l-.8-.5c-.3-.2-.6-.2-.9-.2-.1-2.9-1.5-5.7-4.2-7.3l-.8-.5c-.6-.4-1.5-.3-2.6.1-.2-2.8-1.9-5.5-4.6-6.9l-.8-.4c-.3-.1-.5-.2-.9-.2-.2-2.9-1.9-5.6-4.6-7l-.8-.5c-.6-.3-1.5-.2-2.5.2.2-3.3-1.5-6.6-4.6-8.3l-.8-.4c-.6-.3-1.2-.2-2 0-.6-2.3-2.1-4.4-4.4-5.6l-.8-.4c-.3-.1-.5-.2-.8-.2-.7-1.9-2.1-3.5-4-4.5l-.8-.4c-.3-.1-.6-.2-.9-.2-.4-2.8-2.1-5.4-4.8-6.8l-.8-.4c-.3-.1-.6-.2-1-.1-.3-2.9-2.1-5.6-4.8-6.9l-.9-.4c-.5-.2-1.1-.2-1.8 0-.7-2.2-2.3-4.2-4.5-5.3l-.9-.4c-.3-.1-.6-.2-1-.1-.3-2.9-2-5.5-4.8-6.9l-.8-.4c-.6-.2-1.2-.2-1.9.1-.7-2.2-2.2-4.2-4.5-5.4l-.9-.4c-.5-.2-1-.2-1.7 0l-.1-.1c-.1-3.3-2.1-6.4-5.3-7.7l-.9-.4c-.3-.1-.6-.1-.9-.1-.5-2.8-2.4-5.3-5.3-6.5l-.86-.4c-.6-.2-1.3-.2-2 .2l-.5-.5c-.4-3.1-2.3-5.9-5.3-7.1l-.9-.4c-.3-.1-.6-.1-.9-.1-.5-2.9-2.4-5.4-5.3-6.6l-.8-.4c-.2 0-.5-.1-.7-.1-.9-1.8-2.4-3.3-4.4-4.1l-.78-.5c-.3-.1-.9.1-1.1-.1-.8-2.4-2.5-4.7-5.2-5.7l-.8-.3c-.3-.1-.7-.1-1-.1-.5-2.8-2.4-5.4-5.3-6.5l-.9-.4c-.3-.1-.6-.1-.9-.1-.5-2.8-2.4-5.3-5.3-6.5l-.87-.3c-.5-.2-1.13-.1-1.9.2-.8-2.3-2.5-4.2-4.8-5.1l-.87-.4c-.3-.1-.6-.1-1-.1-.5-2.8-2.4-5.4-5.2-6.56l-.9-.4c-.6-.3-1.45-.1-2.4.43l-.2-.2c-.7-2.67-2.75-4.9-5.6-5.9l-.8-.3c-.3-.1-.6-.1-.9-.1-.7-2.8-2.7-5.2-5.68-6.2l-.8-.3c-.5-.2-1.2-.04-1.9.36l-.6-.4c-.5-3.1-2.6-5.76-5.7-6.8l-.88-.3c-.5-.2-1.2-.06-1.9.34-.9-2.2-2.8-4-5.2-4.84l-.9-.3c-.2-.1-.5-.1-.7-.1-1-1.8-2.6-3.2-4.7-3.9l-.8-.3c-.4-.1-.9-.1-1.4.1-1.2-2.5-3.5-4.5-6.5-4.97-1.2-2.5-3.6-4.3-6.6-4.7l-.8-.1c-1-3.1-3.6-5.44-7-5.9l-.9-.13c-.3-.05-.64 0-1 .15-1.2-2.6-3.64-4.6-6.7-5.02l-.9-.1c-.3 0-.6 0-.9.1-1.2-2.6-3.65-4.6-6.7-5l-.9-.1c-.6 0-1.2.2-1.8.7-1.35-1.94-3.46-3.4-6-3.7l-.9-.1c-.3-.06-.67 0-1 .14-1.2-2.6-3.67-4.6-6.75-5l-.9-.1c-.7-.1-1.5.3-2.3 1.2-1.34-2.5-3.9-4.3-7-4.6l-.9-.1c-.43-.1-.9.1-1.4.5-.9-2.3-2.73-4.2-5.3-5.1l-.83-.3c-1.3-.5-3.3 1-5.3 3.2-1-1.1-2.2-2-3.7-2.5l-.9-.3c-1.6-.6-4 1.5-6.5 4.4-.9-.9-1.9-1.5-3.2-2l-.8-.3c-1-.3-2.2.3-3.6 1.4-.8-1.1-1.8-2-3.1-2.7l-.8-.4c-4.3-2.1-17.7 16.4-17.7 16.4-.4 1-.4 2.1-.2 3.3-2.4 1.9-3.9 3.9-3.5 5.3l.3.9.6 1.5c-3.8 2.6-6.9 5.5-6.3 7.4l.2.9c.3.9.7 1.7 1.24 2.5-1.7 1.5-2.6 3-2.3 4.1l.3.9c.3.7.6 1.5 1 2.1-.5.6-.8 1.2-.8 1.8l.1.9c.2 2.2 1.2 4.1 2.6 5.53-.14.3-.25.5-.3.7l-.1.9c-.5 3.7 1.2 7.1 4.2 8.8-.6.6-.9 1.1-.9 1.7l-.07.9c0 3.1 1.5 5.8 3.9 7.4-.9.7-1.4 1.5-1.4 2.2l.1.9c.1 3.2 1.9 5.8 4.4 7.2-.2.3-.3.7-.2 1v.9c.1 2.6 1.4 4.8 3.2 6.3-.55.6-.86 1.2-.8 1.7l.1.9c.2 3.1 1.9 5.8 4.4 7.2-.2.3-.2.6-.2.9v.9c.1 3.1 1.9 5.7 4.4 7.2-.2.3-.3.6-.2.9v.9c.1 3.4 2.2 6.3 5.1 7.6l.1.8c.1 3 1.7 5.5 4.1 7 .2 3 1.9 5.5 4.3 6.9-.2.5-.3.9-.2 1.4l.2.9c.5 2.1 1.7 3.9 3.4 5.1-.1.2-.1.5 0 .7l.2.9c.6 2.6 2.2 4.5 4.3 5.7-.5.7-.7 1.3-.56 1.9l.2.9c.8 3.5 3.6 5.94 6.9 6.6-.6.8-1 1.6-.8 2.3l.2.8c.7 3 2.9 5.3 5.7 6.2-.1.3-.1.6 0 .9l.2.9c.7 3 2.9 5.2 5.6 6.2-.7.9-1 1.8-.8 2.5l.3.9c.9 3 3.2 5.1 6 5.9-.1.3-.1.7 0 1l.2.9c.8 2.4 2.5 4.3 4.6 5.3-.4.7-.5 1.3-.3 1.9l.3.8c.9 3 3.2 5.1 6 5.9-.1.3-.1.6 0 .9l.3.9c.9 3 3.2 5.1 6 5.9 0 .4-.1.7 0 1l.3.9c.9 2.8 2.9 4.7 5.4 5.7-.1.47-.2.9-.1 1.2l.3.9c.6 2.1 2 3.7 3.7 4.8-.1.3-.1.5 0 .8l.26.9c1 3 3.3 5.1 6.1 5.8-.1.3-.1.7 0 1l.3.8c1.1 3.4 4 5.7 7.3 6.1-.6.9-.9 1.7-.7 2.3l.3.9c.9 3 3.3 5.1 6 5.9v.9l.3.8c1.1 3.5 4 5.8 7.4 6.2-.3.6-.4 1.2-.2 1.8l.4.8c.9 2.4 2.8 4.1 5 5-.3.7-.4 1.3-.2 1.9l.3.9c1.1 2.9 3.6 4.8 6.5 5.4-.04.3-.04.7.1 1l.3.8c.9 2.3 2.7 4.1 4.9 4.9-.3.7-.4 1.3-.2 1.8l.3.9c1.1 2.9 3.6 4.9 6.4 5.44-.1.4 0 .7.1 1l.4.9c1.1 2.87 3.5 4.8 6.3 5.4 0 .3 0 .6.1.9l.4.9c.8 2 2.3 3.5 4.1 4.4 0 .3 0 .5.1.7l.3.9c1 2.4 3 4.1 5.2 4.9-.3.7-.4 1.4-.2 1.92l.4.82c1.4 3.3 4.5 5.3 7.9 5.4-.5 1-.7 1.8-.5 2.4l.4.9c1.2 2.9 3.7 4.8 6.6 5.3 0 .3 0 .6.1.8l.4.8c1.2 2.85 3.7 4.7 6.5 5.24-.5 1-.7 1.9-.3 2.6l.4.8c1.33 2.8 4 4.5 6.9 4.8 0 .33 0 .7.2 1l.4.8c1.1 2.3 3.1 3.8 5.4 4.5-.3.7-.3 1.4-.1 1.9l.4.8c1.3 2.8 4 4.5 6.9 4.8 0 .3 0 .6.1.9l.4.8c1.4 2.8 4.1 4.5 6.93 4.8 0 .34 0 .7.2.95l.4.8c1.2 2.5 3.6 4.2 6.2 4.7-.1.4 0 .8.1 1.2l.4.8c1 1.9 2.6 3.3 4.5 4.1 0 .2.1.5.2.7l.4.8c1.4 2.8 4.1 4.5 6.9 4.8 0 .4 0 .7.2 1l.4.8c1.4 2.9 4.2 4.6 7.1 4.8l.7.7c-.26.7-.3 1.3-.06 1.8l.5.8c1.4 2.8 4 4.5 6.9 4.8 0 .3 0 .6.2.8l.4.9c1.4 2.7 4 4.4 6.9 4.7l1.2 1.1c0 .23.1.5.2.7l.5.8c1.23 2.2 3.3 3.6 5.6 4.16l.05.1c-.2.7-.2 1.3.1 1.8l.5.8c1.6 2.7 4.3 4.26 7.2 4.37 0 .3 0 .7.2 1l.4.8c1.3 2.2 3.36 3.6 5.65 4.1-.2.7-.2 1.3.1 1.8l.4.8c1.6 2.7 4.3 4.2 7.2 4.3 0 .3.03.7.2.9l.43.8c1.23 2.2 3.24 3.6 5.5 4.1l.1.4.4.8c1 2 2.6 3.4 4.42 4.2 0 .23 0 .5.1.7l.4.8c1.4 2.8 4.1 4.5 7 4.8-.1.4 0 .7.1 1l.4.8c1.6 3.2 4.9 5 8.2 4.83-.5 1-.6 1.8-.3 2.4l.4.8c1.4 2.8 4 4.5 6.9 4.8 0 .3 0 .6.2.9l.4.8c1.6 3.2 4.9 5 8.25 4.83-.2.7-.2 1.3.1 1.8l.46.8c2.4 4.2 7.7 5.6 11.9 3.2 0 0 1.1-.9 2.7-2.3 2.5 1.2 5.4 1.1 8-.3 0 0 4.1-3.4 8.1-7.4 1-.14 2-.5 3-1l.8-.7c.7-.4 1.3-.9 1.96-1.4l.7.8c2.9 1.2 9.2-6.8 13.2-12.34.5.7.9 1.1.9 1.1 3.4 1.7 12.7-9.8 16.2-14.45l.1.1c4.3 2.1 17.6-16.4 17.6-16.4.5-1.1.8-2.3.8-3.5 5.6-3.2 14.6-15.7 14.6-15.7 1.4-3 1-6.4-.8-8.9z"/>
  </defs>
  <clipPath id="d">
    <use xlink:href="#c" overflow="visible"/>
  </clipPath>
  <g fill="#D89D25" clip-path="url(#d)">
    <path d="M164.4 147.63c-3.76.7-7.5-2.6-8.37-7.33l-.17-.9c-.86-4.74 16-11.77 16-11.77 3.75-.7 8.53 8.23 8.53 8.23.8 4.73-16 11.77-16 11.77z"/>
    <path d="M174.7 157.88c2.5-3.2 1.47-8.2-2.3-11.18l-.73-.56c-3.78-2.98-18.6 9.56-18.6 9.56-2.5 3.2 3.03 11.75 3.03 11.75 3.78 2.96 18.6-9.57 18.6-9.57z"/>
    <path d="M138.3 178.23c-4.68 1.13-9.4-1.74-10.53-6.42l-.22-.8c-1.13-4.7 19.8-13.7 19.8-13.7 4.67-1.1 10.73 7.3 10.73 7.3 1.13 4.7-19.8 13.8-19.8 13.8z"/>
    <path d="M156.3 184.62c-4.57 1.46-9.47-1.07-10.93-5.65l-.28-.87c-1.5-4.6 18.7-15.14 18.7-15.14 4.6-1.46 11.2 6.53 11.2 6.53 1.4 4.5-18.8 15.1-18.8 15.1zm55.66-1.72c-4.72.93-9.3-2.16-10.22-6.88l-.17-.9c-.92-4.72 20.4-12.85 20.4-12.85 4.7-.92 10.38 7.8 10.38 7.8.92 4.7-20.4 12.84-20.4 12.84z"/>
    <path d="M199.23 187.63c-3.06 3.72-2.4 9.3 1.46 12.5l.7.6c3.8 3.2 21.3-11.57 21.3-11.57 3-3.72-2.2-13.1-2.2-13.1-3.9-3.18-21.3 11.57-21.3 11.57zm86.87 57.07c2.2-3.04 1.1-7.86-2.44-10.76l-.68-.55c-3.55-2.9-16.73 8.9-16.73 8.9-2.2 3 3.12 11.3 3.12 11.3 3.55 2.9 16.73-9 16.73-9z"/>
    <path d="M290.1 258.5c-3.74.8-7.44-2.37-8.26-7.08l-.15-.9c-.9-4.7 16-12.3 16-12.3 3.7-.8 8.4 7.97 8.4 7.97.8 4.7-16.1 12.3-16.1 12.3z"/>
    <path d="M322.84 235.13c2.98-3.66 2.65-9.15-.74-12.27l-.65-.6c-3.38-3.1-20.03 11.5-20.03 11.5-2.98 3.66 1.4 12.85 1.4 12.85 3.38 3.2 20.02-11.4 20.02-11.4z"/>
    <path d="M320.3 254.1c3.2-3.45 3.24-8.96.08-12.32l-.6-.64c-3.18-3.37-20.73 9.95-20.73 9.95-3.2 3.4.53 12.9.53 12.9 3.17 3.3 20.72-10 20.72-10zm3.26 142.86c2.8-3.8 2.25-9.27-1.27-12.2l-.7-.57c-3.5-3-19.6 12.4-19.6 12.4-2.8 3.8 1.9 12.7 1.9 12.7 3.5 2.9 19.5-12.5 19.5-12.5z"/>
    <path d="M333.02 387.7c4.42-1.05 8.77 2.04 9.73 6.92l.18.93c.96 4.88-18.87 13.8-18.87 13.8-4.4 1.07-9.9-7.83-9.9-7.83-.97-4.88 18.86-13.8 18.86-13.8zm42.68 66.2c-3.62 1.2-7.8-1.53-9.3-6.1l-.3-.86c-1.53-4.56 14.16-13.9 14.16-13.9 3.63-1.22 9.6 6.94 9.6 6.94 1.54 4.56-14.16 13.9-14.16 13.9z"/>
    <path d="M387.35 462.58c2.03-3.52.3-8.33-3.86-10.74l-.8-.46c-4.2-2.4-17.1 12.1-17.1 12.1-2.1 3.52 4.6 11.2 4.6 11.2 4.1 2.4 17-12.1 17-12.1z"/>
    <path d="M354.18 487.86c-4.47 1.78-9.54-.4-11.32-4.86l-.34-.86c-1.78-4.47 17.65-16.4 17.65-16.4 4.46-1.8 11.65 5.7 11.65 5.7 1.8 4.48-17.64 16.42-17.64 16.42z"/>
    <path d="M372.92 491.65c-4.33 2.1-9.54.28-11.64-4.05l-.4-.83c-2.1-4.33 16.45-17.62 16.45-17.62 4.33-2.1 12.03 4.88 12.03 4.88 2.1 4.33-16.44 17.62-16.44 17.62zm54.85-9.55c-4.54 1.58-9.5-.83-11.08-5.38l-.4-.86c-1.6-4.55 18.4-15.6 18.4-15.6 4.5-1.58 11.4 6.24 11.4 6.24 1.5 4.55-18.4 15.6-18.4 15.6z"/>
    <path d="M415.84 488.58c-2.5 4.1-1.07 9.55 3.2 12.16l.82.5c4.27 2.6 19.44-14.47 19.44-14.47 2.5-4.1-4.02-12.66-4.02-12.66-4.28-2.6-19.44 14.5-19.44 14.5zm-48.27-140.8c-1.73 3.37.2 7.95 4.3 10.22l.77.43c4.1 2.27 15.53-11.62 15.53-11.62 1.74-3.3-5.07-10.6-5.07-10.6-4.1-2.2-15.53 11.6-15.53 11.6z"/>
    <path d="M361.17 334.84c3.7-1.4 8 1.1 9.6 5.62l.32.86c1.6 4.5-14.3 14.77-14.3 14.77-3.7 1.4-9.9-6.5-9.9-6.5-1.6-4.5 14.2-14.8 14.2-14.8z"/>
    <path d="M331.76 363.26c-2.42 4.1-1.16 9.47 2.8 11.98l.77.48c3.97 2.5 18.47-14.62 18.47-14.62 2.42-4.1-3.57-12.46-3.57-12.46-3.97-2.5-18.47 14.63-18.47 14.63z"/>
    <path d="M331.17 344.15c-2.7 3.92-1.8 9.36 2 12.15l.7.54c3.8 2.8 19.44-13.23 19.44-13.23 2.7-3.9-2.7-12.6-2.7-12.6-3.8-2.8-19.4 13.3-19.4 13.3zm5.33-60.82c-2.23 4.22-.74 9.52 3.33 11.84l.78.44c4.1 2.4 17.9-15.4 17.9-15.4 2.3-4.2-4.1-12.3-4.1-12.3-4.1-2.3-17.8 15.5-17.8 15.5z"/>
    <path d="M328.4 294c-4.3 1.78-9.26-.55-11.06-5.2l-.34-.9c-1.8-4.65 16.9-16.72 16.9-16.72 4.32-1.77 11.4 6.1 11.4 6.1 1.8 4.66-16.9 16.72-16.9 16.72zm-157.65-39c2.37-3.57-.12-8-5.55-9.88l-1.03-.35c-5.44-1.9-20.93 13.3-20.93 13.3-2.37 3.57 6.6 10.24 6.6 10.24 5.42 1.9 20.9-13.3 20.9-13.3z"/>
    <path d="M179.08 267.44c-4.94 1.8-10.64-.3-12.73-4.7l-.4-.84c-2.1-4.4 19.28-16.36 19.28-16.36 4.94-1.8 13.12 5.55 13.12 5.55 2.1 4.3-19.27 16.3-19.27 16.3z"/>
    <path d="M218.8 235.77c3.3-4.38 1.72-9.68-3.54-11.8l-1-.42c-5.26-2.14-24.9 16.62-24.9 16.62-3.3 4.4 4.55 12.23 4.55 12.23 5.3 2.14 24.9-16.63 24.9-16.63z"/>
    <path d="M219.27 255.02c3.66-4.22 2.56-9.63-2.44-12.08l-.95-.46c-5-2.44-26.16 15.3-26.16 15.3-3.66 4.24 3.4 12.56 3.4 12.56 5 2.44 26.15-15.32 26.15-15.32zm-24.82 54.78c3.06-4.48 1.16-9.68-4.24-11.62l-1-.37c-5.4-1.9-24 17.5-24 17.5-3 4.5 5.3 12 5.3 12 5.4 2 24.1-17.4 24.1-17.4z"/>
    <path d="M205.43 298.2c5.8-2.2 12.37-.35 14.68 4.17l.5.86c2.3 4.52-22.8 18.58-22.8 18.58-5.8 2.3-15.1-5-15.1-5-2.3-4.5 22.9-18.6 22.9-18.6zM457.1 406.88c-1.86 2.84.02 6.5 4.2 8.17l.78.3c4.18 1.68 16.24-10.24 16.24-10.24 1.86-2.8-4.98-8.4-4.98-8.4-4.17-1.6-16.24 10.3-16.24 10.3z"/>
    <path d="M450.8 396.58c3.8-1.33 8.18.52 9.76 4.14l.3.7c1.57 3.62-15 12.78-15 12.78-3.82 1.33-10.06-4.84-10.06-4.84-1.58-3.62 15-12.78 15-12.78z"/>
    <path d="M419.9 421.26c-2.57 3.48-1.4 7.82 2.64 9.7l.76.35c4.03 1.9 19.33-12.8 19.33-12.8 2.58-3.5-3.4-10-3.4-10-4.03-1.8-19.33 12.9-19.33 12.9z"/>
    <path d="M419.7 405.63c-2.85 3.34-2.05 7.75 1.8 9.87l.72.4c3.84 2.1 20.28-11.76 20.28-11.76 2.86-3.34-2.5-10.28-2.5-10.28-3.85-2.1-20.3 11.77-20.3 11.77zm19.6-43.83c-2.4 3.55-.97 7.82 3.17 9.53l.8.33c4.14 1.7 18.66-13.53 18.66-13.53 2.4-3.56-3.97-9.87-3.97-9.87-4.14-1.7-18.66 13.53-18.66 13.53z"/>
    <path d="M430.74 370.92c-4.5 1.66-9.53-.02-11.28-3.75l-.33-.7c-1.75-3.74 17.76-14.52 17.76-14.52 4.4-1.65 11.6 4.47 11.6 4.47 1.7 3.72-17.8 14.5-17.8 14.5zm-184.58-56.5c-3.63 1.2-7.8-1.5-9.32-6.07l-.3-.87c-1.5-4.56 14.18-13.9 14.18-13.9 3.62-1.22 9.6 6.94 9.6 6.94 1.53 4.56-14.16 13.9-14.16 13.9z"/>
    <path d="M257.8 323.12c2.03-3.52.3-8.33-3.86-10.74l-.8-.46c-4.16-2.4-17.05 12.1-17.05 12.1-2.1 3.52 4.6 11.2 4.6 11.2 4.1 2.4 17-12.1 17-12.1z"/>
    <path d="M224.63 348.4c-4.47 1.78-9.53-.4-11.32-4.86l-.3-.86c-1.8-4.47 17.7-16.4 17.7-16.4 4.5-1.8 11.7 5.7 11.7 5.7 1.8 4.48-17.6 16.42-17.6 16.42z"/>
    <path d="M243.38 352.2c-4.34 2.08-9.55.27-11.64-4.06l-.4-.83c-2.1-4.3 16.44-17.6 16.44-17.6 4.33-2.1 12.04 4.9 12.04 4.9 2.1 4.4-16.44 17.6-16.44 17.6zm54.85-9.56c-4.55 1.58-9.5-.83-11.1-5.38l-.3-.86c-1.57-4.55 18.38-15.6 18.38-15.6 4.6-1.58 11.4 6.24 11.4 6.24 1.6 4.55-18.3 15.6-18.3 15.6z"/>
    <path d="M286.3 349.1c-2.52 4.13-1.08 9.57 3.2 12.18l.8.5c4.28 2.6 19.45-14.47 19.45-14.47 2.5-4.1-4.02-12.6-4.02-12.6-4.28-2.6-19.44 14.5-19.44 14.5z"/>
  </g>
  <path fill="#437013" d="M497.12 557.3L119.66 218.16S314.8 558 432.28 582.93c13.96 2.96 64.84-25.63 64.84-25.63z"/>
  <linearGradient id="e" x1="357.36" x2="224.46" y1="184.59" y2="414.77" gradientUnits="userSpaceOnUse" gradientTransform="rotate(19.56 264.93 284.59)">
    <stop offset="0" stop-color="#FFF" stop-opacity="0"/>
    <stop offset="1" stop-color="#662D91"/>
  </linearGradient>
  <path fill="url(#e)" d="M541.65 533.54c-.03-6.8-8.9-25.05-6.35-31.46 2.96-7.38 4.03-28.77 5.32-40.94 4.9-46.27-298.9-346.8-324.3-438.35-7.32 49.6 37.26 87.7 98.6 185.1-.16-.1-.3-.2-.48-.3l-.85-.4c-.3-.1-.5-.1-.8-.1-.9-1.8-2.4-3.3-4.4-4.2l-.5-.7c-.4-.2-.7-.2-.9-.4l-.3.2c-.8-2.4-2.7-4.6-5.3-5.6l-1-.3c-.1-.1-.3 0-.4-.1l-.9-.9c-.7-2.5-2.5-4.6-5.1-5.7l-.3-.1-2.1-2.3c-.8-1.8-2.1-3.3-4-4.3C230 120.8 139.2 30.8 118 0c-26.53 13.65 46.62 78.18 52.82 107.02-15.07-15.56-60.88-53.73-76.3-66.53-19.36 9.5 17.57 65.6 11 80-17.17-24.3-34.66-64.1-48.18-84.9-22.32 8.3 63.98 166.9 62.32 182.5-.74 7-61.2-53.3-119.66-39.5 95.16 39 88 41.8 102.8 61.3 21.45 28.2 42.05 54.2 61.76 78.2.64 4.2 5.86 8.9 5.86 8.9.44.1.96.1 1.54 0 28.34 34.2 54.77 64 79.04 89.9 59.6 79.2 128.3 154.5 181.3 165.7 6.28 1.3 19.9-3.7 33-9.6 2.08.3 4.3.8 7.1 1.8 5.76 2.1 21.2 18.4 26.4 15.2 5.8-3.4 42.97-41.2 42.9-56.8z" opacity=".5"/>
  <linearGradient id="f" x1="593.38" x2="593.38" y1="70.52" y2="113.11" gradientUnits="userSpaceOnUse">
    <stop offset="0" stop-color="#F2AF09"/>
    <stop offset="1" stop-color="#B37048"/>
  </linearGradient>
  <path fill="url(#f)" d="M590.5 113.1c1.05-1.58 10.63-7.97 9.57-19.68s-4.75-22.9-4.75-22.9-7.5 15.97-8.56 21.3 3.73 21.3 3.73 21.3z"/>
  <linearGradient id="g" x1="592.08" x2="592.08" y1="74.81" y2="108.52" gradientUnits="userSpaceOnUse" gradientTransform="matrix(1.2324 .2295 .2295 1.2265 -149.78 -147.773)">
    <stop offset="0" stop-color="#F2AF09"/>
    <stop offset="1" stop-color="#B37048"/>
  </linearGradient>
  <path fill="url(#g)" d="M588.5 118.17c.02-2.23-5.45-16.6 3.9-23.84 9.32-7.24 21-11.42 21-11.42s-3.43 19.1-6.07 24c-2.63 4.9-18.83 11.4-18.83 11.4z"/>
  <linearGradient id="h" x1="439.52" x2="439.52" y1="543.87" y2="330.19" gradientUnits="userSpaceOnUse">
    <stop offset="0" stop-color="#F2AF09"/>
    <stop offset="1" stop-color="#B37048"/>
  </linearGradient>
  <path fill="url(#h)" d="M510.76 330.2s-21.16 83.9-81.85 148.6c-60.7 64.68-52.4 63.8-55.3 65.06-2.6-1.4-6.4-3.3-4.9-5.12 18.4-22.36 75.9-85.96 89.9-107.07 20.5-31 48-101.48 48-101.48h4.4z"/>
  <linearGradient id="i" x1="582.97" x2="582.97" y1="81.7" y2="131.21" gradientUnits="userSpaceOnUse">
    <stop offset="0" stop-color="#F2AF09"/>
    <stop offset="1" stop-color="#B37048"/>
  </linearGradient>
  <path fill="url(#i)" d="M584.1 131.22c1.06-1.6 9.6-11.43 5.6-28.88-4-17.44-5.6-20.64-5.6-20.64s-11.18 21.83-8.52 29.82 8.52 19.7 8.52 19.7z"/>
  <linearGradient id="j" x1="574.96" x2="574.96" y1="103.53" y2="157.83" gradientUnits="userSpaceOnUse">
    <stop offset="0" stop-color="#F2AF09"/>
    <stop offset="1" stop-color="#B37048"/>
  </linearGradient>
  <path fill="url(#j)" d="M575.17 157.83s12.53-27.68 7.8-37.8c-4.73-10.1-12.72-16.5-12.72-16.5s-6.38 21.3-3.72 27.15c2.66 5.86 8.64 27.15 8.64 27.15z"/>
  <linearGradient id="k" x1="564.9" x2="564.9" y1="124.83" y2="180.2" gradientUnits="userSpaceOnUse">
    <stop offset="0" stop-color="#F2AF09"/>
    <stop offset="1" stop-color="#B37048"/>
  </linearGradient>
  <path fill="url(#k)" d="M565.88 180.2c-.95-1.6 12.6-22.9 9.3-33-3.33-10.13-12.38-22.37-12.38-22.37s-10.1 18.63-8.52 27.68c1.6 9.1 11.6 27.7 11.6 27.7z"/>
  <linearGradient id="l" x1="554.85" x2="554.85" y1="148.78" y2="204.09" gradientUnits="userSpaceOnUse">
    <stop offset="0" stop-color="#F2AF09"/>
    <stop offset="1" stop-color="#B37048"/>
  </linearGradient>
  <path fill="url(#l)" d="M555.08 204.1s15.68-26.5 11.68-36.88c-4-10.37-14.95-18.44-14.95-18.44s-11.5 20.74-9.2 27.66 12.5 27.65 12.5 27.65z"/>
  <linearGradient id="m" x1="545.03" x2="545.03" y1="174.34" y2="229.18" gradientUnits="userSpaceOnUse">
    <stop offset="0" stop-color="#F2AF09"/>
    <stop offset="1" stop-color="#B37048"/>
  </linearGradient>
  <path fill="url(#m)" d="M547.17 229.18c.53-2.14 20.43-27.42 6.73-43.66-5.2-6.17-15.05-11.18-15.05-11.18s-8 17.57-7.46 22.62 15.7 32.22 15.7 32.22z"/>
  <linearGradient id="n" x1="535.12" x2="535.12" y1="194.02" y2="245.68" gradientUnits="userSpaceOnUse">
    <stop offset="0" stop-color="#F2AF09"/>
    <stop offset="1" stop-color="#B37048"/>
  </linearGradient>
  <path fill="url(#n)" d="M536.7 245.68c1.08-1.6 17.8-20.63 6.5-36.74-11.28-16.1-17.13-14.9-17.13-14.9s-4.8 23.96-2.13 30.35 12.77 21.2 12.77 21.2z"/>
  <linearGradient id="o" x1="524.6" x2="524.6" y1="219.42" y2="269.64" gradientUnits="userSpaceOnUse">
    <stop offset="0" stop-color="#F2AF09"/>
    <stop offset="1" stop-color="#B37048"/>
  </linearGradient>
  <path fill="url(#o)" d="M528.2 269.64c1.06-2.13 14.37-25.03 6.92-34.6-7.46-9.6-18.1-17.6-18.1-15.2 0 2.4-6.92 19.45-4.8 25.84s15.98 23.96 15.98 23.96z"/>
  <linearGradient id="p" x1="515.43" x2="515.43" y1="239.82" y2="294.13" gradientUnits="userSpaceOnUse">
    <stop offset="0" stop-color="#F2AF09"/>
    <stop offset="1" stop-color="#B37048"/>
  </linearGradient>
  <path fill="url(#p)" d="M518.6 294.13c.55-2.66 13.04-23.43 6-37.8-7.05-14.38-19.3-16.5-19.3-16.5s-2.66 31.4 0 35.66c2.66 4.2 13.3 18.6 13.3 18.6z"/>
  <linearGradient id="q" x1="599.37" x2="599.37" y1="99.45" y2="134.68" gradientUnits="userSpaceOnUse">
    <stop offset="0" stop-color="#F2AF09"/>
    <stop offset="1" stop-color="#B37048"/>
  </linearGradient>
  <path fill="url(#q)" d="M581.98 134.68c.36-1.88 1.2-14.9 16.3-24.48 15.1-9.6 18.48-10.75 18.48-10.75s-7.38 23.4-14.88 27.2c-7.5 3.8-19.9 8.03-19.9 8.03z"/>
  <linearGradient id="r" x1="590.46" x2="590.46" y1="124.57" y2="159.9" gradientUnits="userSpaceOnUse">
    <stop offset="0" stop-color="#F2AF09"/>
    <stop offset="1" stop-color="#B37048"/>
  </linearGradient>
  <path fill="url(#r)" d="M569.63 159.9s10.53-28.5 21-32.38c10.48-3.88 20.65-2.8 20.65-2.8s-10.42 19.63-16.43 21.93c-6 2.3-25.22 13.25-25.22 13.25z"/>
  <linearGradient id="s" x1="589.88" x2="589.88" y1="164.49" y2="206.73" gradientUnits="userSpaceOnUse" gradientTransform="rotate(-6.47 415.703 264.85)">
    <stop offset="0" stop-color="#F2AF09"/>
    <stop offset="1" stop-color="#B37048"/>
  </linearGradient>
  <path fill="url(#s)" d="M559.05 190.1c1.97-.77 4.8-29.26 14.85-35.96 10.05-6.7 26.7-11.27 26.7-11.27s-4.03 23.7-11.8 30.66c-7.77 6.95-29.75 16.56-29.75 16.56z"/>
  <linearGradient id="t" x1="574.1" x2="574.1" y1="169.99" y2="204.63" gradientUnits="userSpaceOnUse">
    <stop offset="0" stop-color="#F2AF09"/>
    <stop offset="1" stop-color="#B37048"/>
  </linearGradient>
  <path fill="url(#t)" d="M555.07 204.63s6.9-27.6 16.26-31.83c9.36-4.23 21.8-2.42 21.8-2.42s-5.9 21.12-11.9 24.17c-6 3.05-26.16 10.07-26.16 10.07z"/>
  <linearGradient id="u" x1="565.53" x2="565.53" y1="194.35" y2="224.51" gradientUnits="userSpaceOnUse">
    <stop offset="0" stop-color="#F2AF09"/>
    <stop offset="1" stop-color="#B37048"/>
  </linearGradient>
  <path fill="url(#u)" d="M547.17 224.5c1.12-1.88 10.15-28.88 18.15-29.95 8-1.08 18.57 2.6 18.57 2.6s-6.7 18.13-10.6 21.35c-4 3.23-26.2 6-26.2 6z"/>
  <linearGradient id="v" x1="557.21" x2="557.21" y1="217.46" y2="249.43" gradientUnits="userSpaceOnUse">
    <stop offset="0" stop-color="#F2AF09"/>
    <stop offset="1" stop-color="#B37048"/>
  </linearGradient>
  <path fill="url(#v)" d="M535.3 249.43c.35-1.88 1.82-27.16 21.17-30.7 19.35-3.54 22.67 1.43 22.67 1.43s-13.42 20.42-19.8 23.1c-6.38 2.67-24.06 6.17-24.06 6.17z"/>
  <linearGradient id="w" x1="546.06" x2="546.06" y1="242.36" y2="272.46" gradientUnits="userSpaceOnUse">
    <stop offset="0" stop-color="#F2AF09"/>
    <stop offset="1" stop-color="#B37048"/>
  </linearGradient>
  <path fill="url(#w)" d="M524.52 272.46c.74-2.26 7.35-27.9 19.38-29.48 12.04-1.6 25.24.2 23.55 1.9-1.7 1.72-8.73 18.7-14.74 21.76-6 3.05-28.1 5.82-28.1 5.82z"/>
  <linearGradient id="x" x1="537.94" x2="537.94" y1="263.57" y2="296.63" gradientUnits="userSpaceOnUse">
    <stop offset="0" stop-color="#F2AF09"/>
    <stop offset="1" stop-color="#B37048"/>
  </linearGradient>
  <path fill="url(#x)" d="M514.13 296.63c1.5-2.27 7.2-25.83 22.3-31.1 15.1-5.3 25.32 1.8 25.32 1.8s-20.17 24.22-25.06 25.38c-4.9 1.2-22.6 4-22.6 4z"/>
  <linearGradient id="y" x1="523.2" x2="523.2" y1="289.75" y2="321.1" gradientUnits="userSpaceOnUse">
    <stop offset="0" stop-color="#F2AF09"/>
    <stop offset="1" stop-color="#B37048"/>
  </linearGradient>
  <path fill="url(#y)" d="M499.52 321.1s15.32-27.5 25.1-30.58c9.78-3.06 22.25 4 22.25 4s-14.57 17.8-19.82 20.1c-5.26 2.28-27.53 6.48-27.53 6.48z"/>
  <linearGradient id="z" x1="506.38" x2="506.38" y1="269.64" y2="321.81" gradientUnits="userSpaceOnUse">
    <stop offset="0" stop-color="#F2AF09"/>
    <stop offset="1" stop-color="#B37048"/>
  </linearGradient>
  <path fill="url(#z)" d="M511.82 321.8s8.42-30.34 3.6-39.4c-4.8-9.04-18.63-12.76-18.63-12.76s-2.2 22.9 0 28.2c2.1 5.34 15 23.97 15 23.97z"/>
  <linearGradient id="A" x1="498.98" x2="498.98" y1="295.72" y2="344.17" gradientUnits="userSpaceOnUse">
    <stop offset="0" stop-color="#F2AF09"/>
    <stop offset="1" stop-color="#B37048"/>
  </linearGradient>
  <path fill="url(#A)" d="M506.38 344.17c.52-2.66 9.6-23.96 0-35.14s-19.18-13.3-19.18-13.3 1.07 28.74 4.8 33.53c3.72 4.8 14.38 14.9 14.38 14.9z"/>
  <linearGradient id="B" x1="523.14" x2="523.14" y1="308" y2="344.7" gradientUnits="userSpaceOnUse">
    <stop offset="0" stop-color="#F2AF09"/>
    <stop offset="1" stop-color="#B37048"/>
  </linearGradient>
  <path fill="url(#B)" d="M504.5 344.7c.62-2.65 1.02-25.8 14.34-32.08 13.32-6.3 22.94-4.34 22.94-4.34s-12.7 25.82-18.06 28.67c-5.35 2.86-19.2 7.75-19.2 7.75z"/>
  <linearGradient id="C" x1="519.16" x2="519.16" y1="19.48" y2="62.07" gradientUnits="userSpaceOnUse" gradientTransform="rotate(-13.457 540.593 205.212)">
    <stop offset="0" stop-color="#F2AF09"/>
    <stop offset="1" stop-color="#B37048"/>
  </linearGradient>
  <path fill="url(#C)" d="M483.63 71.64c.66-1.8 8.5-10.24 4.73-21.38-3.76-11.15-9.95-21.16-9.95-21.16s-3.5 17.27-3.3 22.7c.2 5.43 8.6 19.84 8.6 19.84z"/>
  <linearGradient id="D" x1="537.72" x2="537.72" y1="43.37" y2="77.07" gradientUnits="userSpaceOnUse" gradientTransform="matrix(1.252 -.0636 .5086 1.1394 -212.97 22.572)">
    <stop offset="0" stop-color="#F2AF09"/>
    <stop offset="1" stop-color="#B37048"/>
  </linearGradient>
  <path fill="url(#D)" d="M482.87 77.02c-.5-2.17-9.16-14.87-1.76-24.1 7.4-9.2 17.8-16 17.8-16s1.1 19.34-.3 24.7c-1.4 5.36-15.7 15.4-15.7 15.4z"/>
  <linearGradient id="E" x1="365.3" x2="365.3" y1="492.82" y2="279.14" gradientUnits="userSpaceOnUse" gradientTransform="rotate(-13.457 540.593 205.212)">
    <stop offset="0" stop-color="#F2AF09"/>
    <stop offset="1" stop-color="#B37048"/>
  </linearGradient>
  <path fill="url(#E)" d="M456.6 301.3s-1.04 86.55-45 163.6c-43.98 77.02-36.2 74.26-38.7 76.15-2.85-.75-7.02-1.73-6-3.83 12.66-26.02 53.8-101.26 62.46-125.04 12.7-34.9 23-109.85 23-109.85l4.25-1.02z"/>
  <linearGradient id="F" x1="508.75" x2="508.75" y1="30.66" y2="80.17" gradientUnits="userSpaceOnUse" gradientTransform="rotate(-13.457 540.593 205.212)">
    <stop offset="0" stop-color="#F2AF09"/>
    <stop offset="1" stop-color="#B37048"/>
  </linearGradient>
  <path fill="url(#F)" d="M481.63 90.73c.66-1.8 6.7-13.35-1.27-29.38S470.1 42.58 470.1 42.58s-5.8 23.83-1.34 30.98c4.44 7.15 12.87 17.17 12.87 17.17z"/>
  <linearGradient id="G" x1="500.74" x2="500.74" y1="52.49" y2="106.79" gradientUnits="userSpaceOnUse" gradientTransform="rotate(-13.457 540.593 205.212)">
    <stop offset="0" stop-color="#F2AF09"/>
    <stop offset="1" stop-color="#B37048"/>
  </linearGradient>
  <path fill="url(#G)" d="M479.14 118.7s5.74-29.84-1.2-38.58c-6.96-8.73-16.22-13.1-16.22-13.1s-1.26 22.2 2.7 27.28c3.95 5.08 14.72 24.4 14.72 24.4z"/>
  <linearGradient id="H" x1="490.69" x2="490.69" y1="73.78" y2="129.15" gradientUnits="userSpaceOnUse" gradientTransform="rotate(-13.457 540.593 205.212)">
    <stop offset="0" stop-color="#F2AF09"/>
    <stop offset="1" stop-color="#B37048"/>
  </linearGradient>
  <path fill="url(#H)" d="M475.3 142.6c-1.28-1.32 6.94-25.2 1.36-34.26-5.58-9.06-17.23-18.86-17.23-18.86s-5.5 20.47-1.84 28.9c3.6 8.43 17.7 24.23 17.7 24.23z"/>
  <linearGradient id="I" x1="480.64" x2="480.64" y1="97.74" y2="153.05" gradientUnits="userSpaceOnUse" gradientTransform="rotate(-13.457 540.593 205.212)">
    <stop offset="0" stop-color="#F2AF09"/>
    <stop offset="1" stop-color="#B37048"/>
  </linearGradient>
  <path fill="url(#I)" d="M470.37 168.36s9.08-29.42 2.77-38.58c-6.3-9.15-18.82-14.45-18.82-14.45s-6.38 22.86-2.53 29.05c3.8 6.18 18.5 23.98 18.5 23.98z"/>
  <linearGradient id="J" x1="470.82" x2="470.82" y1="123.29" y2="178.13" gradientUnits="userSpaceOnUse" gradientTransform="rotate(-13.457 540.593 205.212)">
    <stop offset="0" stop-color="#F2AF09"/>
    <stop offset="1" stop-color="#B37048"/>
  </linearGradient>
  <path fill="url(#J)" d="M468.5 194.6c.04-2.2 13.5-31.42-3.6-44.02-6.5-4.8-17.25-7.37-17.25-7.37s-3.67 19-1.98 23.8 22.84 27.7 22.84 27.7z"/>
  <linearGradient id="K" x1="460.9" x2="460.9" y1="142.97" y2="194.64" gradientUnits="userSpaceOnUse" gradientTransform="rotate(-13.457 540.593 205.212)">
    <stop offset="0" stop-color="#F2AF09"/>
    <stop offset="1" stop-color="#B37048"/>
  </linearGradient>
  <path fill="url(#K)" d="M462.2 213.08c.65-1.8 12.47-24.2-2.25-37.23-14.73-13.04-20.14-10.5-20.14-10.5s1 24.4 5 30 17.4 17.73 17.4 17.73z"/>
  <linearGradient id="L" x1="450.38" x2="450.38" y1="168.37" y2="218.59" gradientUnits="userSpaceOnUse" gradientTransform="rotate(-13.457 540.593 205.212)">
    <stop offset="0" stop-color="#F2AF09"/>
    <stop offset="1" stop-color="#B37048"/>
  </linearGradient>
  <path fill="url(#L)" d="M459.48 238.37c.54-2.32 8.15-27.7-1.33-35.27-9.47-7.6-21.7-12.9-21.13-10.56.56 2.34-2.2 20.52 1.35 26.24s21.1 19.6 21.1 19.6z"/>
  <linearGradient id="M" x1="441.22" x2="441.22" y1="188.78" y2="243.08" gradientUnits="userSpaceOnUse" gradientTransform="rotate(-13.457 540.593 205.212)">
    <stop offset="0" stop-color="#F2AF09"/>
    <stop offset="1" stop-color="#B37048"/>
  </linearGradient>
  <path fill="url(#M)" d="M455.86 264.4c-.1-2.7 7.2-25.8-2.98-38.14-10.2-12.34-22.6-11.56-22.6-11.56s4.72 31.17 8.3 34.7c3.57 3.5 17.28 15 17.28 15z"/>
  <linearGradient id="N" x1="525.16" x2="525.16" y1="48.4" y2="83.64" gradientUnits="userSpaceOnUse" gradientTransform="rotate(-13.457 540.593 205.212)">
    <stop offset="0" stop-color="#F2AF09"/>
    <stop offset="1" stop-color="#B37048"/>
  </linearGradient>
  <path fill="url(#N)" d="M480.37 94.6c-.08-1.92-2.3-14.76 10.15-27.6C502.98 54.13 506 52.23 506 52.23s-1.73 24.46-8.14 29.92c-6.4 5.45-17.5 12.44-17.5 12.44z"/>
  <linearGradient id="O" x1="516.24" x2="516.24" y1="73.53" y2="108.86" gradientUnits="userSpaceOnUse" gradientTransform="rotate(-13.457 540.593 205.212)">
    <stop offset="0" stop-color="#F2AF09"/>
    <stop offset="1" stop-color="#B37048"/>
  </linearGradient>
  <path fill="url(#O)" d="M474.24 122s3.6-30.18 12.88-36.38c9.3-6.2 19.43-7.54 19.43-7.54S501 99.6 495.68 103.24c-5.3 3.63-21.44 18.76-21.44 18.76z"/>
  <linearGradient id="P" x1="521.89" x2="521.89" y1="105.4" y2="147.65" gradientUnits="userSpaceOnUse" gradientTransform="rotate(-19.926 502.456 229.314)">
    <stop offset="0" stop-color="#F2AF09"/>
    <stop offset="1" stop-color="#B37048"/>
  </linearGradient>
  <path fill="url(#P)" d="M470.97 153.83c1.74-1.2-2.14-29.58 6.08-38.43 8.2-8.85 23.34-17.18 23.34-17.18s1.5 24-4.4 32.57c-6 8.5-25.1 23-25.1 23z"/>
  <linearGradient id="Q" x1="499.88" x2="499.88" y1="118.95" y2="153.58" gradientUnits="userSpaceOnUse" gradientTransform="rotate(-13.457 540.593 205.212)">
    <stop offset="0" stop-color="#F2AF09"/>
    <stop offset="1" stop-color="#B37048"/>
  </linearGradient>
  <path fill="url(#Q)" d="M470.48 168.88s.28-28.45 8.4-34.74c8.13-6.28 20.64-7.42 20.64-7.42s-.8 21.9-5.94 26.27c-5.12 4.3-23.1 15.8-23.1 15.8z"/>
  <linearGradient id="R" x1="491.31" x2="491.31" y1="143.3" y2="173.46" gradientUnits="userSpaceOnUse" gradientTransform="rotate(-13.457 540.593 205.212)">
    <stop offset="0" stop-color="#F2AF09"/>
    <stop offset="1" stop-color="#B37048"/>
  </linearGradient>
  <path fill="url(#R)" d="M467.43 190.06c.64-2.1 3.14-30.45 10.67-33.36 7.54-2.9 18.67-1.78 18.67-1.78s-2.26 19.17-5.33 23.22c-3.07 4.05-24 11.92-24 11.92z"/>
  <linearGradient id="S" x1="483" x2="483" y1="166.41" y2="198.39" gradientUnits="userSpaceOnUse" gradientTransform="rotate(-13.457 540.593 205.212)">
    <stop offset="0" stop-color="#F2AF09"/>
    <stop offset="1" stop-color="#B37048"/>
  </linearGradient>
  <path fill="url(#S)" d="M461.67 217.06c-.1-1.9-4.54-26.84 13.46-34.8 18-7.93 22.38-3.87 22.38-3.87s-8.3 22.9-13.8 27c-5.6 4.1-21.9 11.6-21.9 11.6z"/>
  <linearGradient id="T" x1="471.84" x2="471.84" y1="191.32" y2="221.42" gradientUnits="userSpaceOnUse" gradientTransform="rotate(-13.457 540.593 205.212)">
    <stop offset="0" stop-color="#F2AF09"/>
    <stop offset="1" stop-color="#B37048"/>
  </linearGradient>
  <path fill="url(#T)" d="M456.56 241.97c.2-2.37.65-28.85 12-33.2 11.32-4.33 24.58-5.67 23.33-3.6-1.3 2.05-4.2 20.2-9.3 24.57-5.2 4.36-26.1 12.23-26.1 12.23z"/>
  <linearGradient id="U" x1="463.73" x2="463.73" y1="212.52" y2="245.58" gradientUnits="userSpaceOnUse" gradientTransform="rotate(-13.457 540.593 205.212)">
    <stop offset="0" stop-color="#F2AF09"/>
    <stop offset="1" stop-color="#B37048"/>
  </linearGradient>
  <path fill="url(#U)" d="M452.08 267.9c.92-2.57.98-26.8 14.45-35.45 13.47-8.65 25.05-4.14 25.05-4.14s-14 28.3-18.47 30.6c-4.4 2.3-21 9.1-21 9.1z"/>
  <linearGradient id="V" x1="448.98" x2="448.98" y1="238.71" y2="270.06" gradientUnits="userSpaceOnUse" gradientTransform="rotate(-13.457 540.593 205.212)">
    <stop offset="0" stop-color="#F2AF09"/>
    <stop offset="1" stop-color="#B37048"/>
  </linearGradient>
  <path fill="url(#V)" d="M443.56 295.1s8.5-30.33 17.3-35.6 22.57-1.27 22.57-1.27-10.03 20.7-14.6 24.14c-4.58 3.45-25.27 12.72-25.27 12.72z"/>
  <linearGradient id="W" x1="432.16" x2="432.16" y1="218.59" y2="270.77" gradientUnits="userSpaceOnUse" gradientTransform="rotate(-13.457 540.593 205.212)">
    <stop offset="0" stop-color="#F2AF09"/>
    <stop offset="1" stop-color="#B37048"/>
  </linearGradient>
  <path fill="url(#W)" d="M455.7 292.92s1.12-31.47-5.66-39.16c-6.78-7.68-21.1-8.08-21.1-8.08s3.24 22.76 6.55 27.44c3.3 4.68 20.2 19.8 20.2 19.8z"/>
  <linearGradient id="X" x1="424.77" x2="424.77" y1="244.68" y2="293.13" gradientUnits="userSpaceOnUse" gradientTransform="rotate(-13.457 540.593 205.212)">
    <stop offset="0" stop-color="#F2AF09"/>
    <stop offset="1" stop-color="#B37048"/>
  </linearGradient>
  <path fill="url(#X)" d="M455.6 315.93c-.1-2.7 3.76-25.53-8.18-34.17s-21.74-8.48-21.74-8.48 7.72 27.7 12.47 31.5c4.73 3.8 17.45 11.15 17.45 11.15z"/>
  <linearGradient id="Y" x1="448.93" x2="448.93" y1="256.95" y2="293.65" gradientUnits="userSpaceOnUse" gradientTransform="rotate(-13.457 540.593 205.212)">
    <stop offset="0" stop-color="#F2AF09"/>
    <stop offset="1" stop-color="#B37048"/>
  </linearGradient>
  <path fill="url(#Y)" d="M453.9 316.88c0-2.7-5-25.32 6.48-34.54 11.5-9.22 21.3-9.55 21.3-9.55s-6.34 28-10.9 32c-4.53 4-16.87 12-16.87 12z"/>
</svg>
