<svg xmlns="http://www.w3.org/2000/svg" viewBox="0 0 470.74 521.89">
  <path fill="#BF9582" d="M251.98 420.47c-2.34-.3-12.94 63-14.9 63.65s-21.93 10.4-18.9 15.78c7.15-1.44 12.95-6.97 17.06-5.22.37 10.35 2 16.57 22.8 27.2.85-3.13-1.8-9.7-7.7-13.25 6.08-1.54 34.72 3.56 42.58 3.1-12.77-14.73-35.78-14.12-37.38-16.36-8.44-11.9-1.1-49.78 7.25-59.12-.7-4.33-6.5-15.2-10.9-15.78z"/>
  <path fill="#BF9582" d="M282.48 408.02c-2.36.14-.83 64.3-2.63 65.32s-19.58 14.36-15.6 19.06c6.76-2.76 11.42-9.3 15.78-8.34 2.3 10.1 5.1 15.9 27.52 22.42.25-3.25-3.6-9.18-10.06-11.57 5.6-2.6 34.7 5.5 42.4 3.6-15.4-12-37.9-15.7-39.8-17.6-10.6-10-13.7-62.1-7.2-72.8-1.5-4.1-6.1-.2-10.5 0z"/>
  <path fill="#D8D8D8" d="M444.32 61.15c1.1-2.53 9.6-16.85 8.1-22.67-1.9-7.2-15.4-17.56-22.64-19.33-16.6-4.07-53.85 3.98-66.65 15.33-49.97 44.33-27.06 69.44-37.74 90.9-6.2 12.47-15.5 38.05-27.1 45.77-10.2 6.78-12.6 10.14-48.2 15.66-43.4-6.6-64.4 17-84 2.4-3-2.2-1.1-11.4 0-15 18-58.3 2.3-161.9-36-152.3-8 2 8.3 27.7 5.5 37.7-4-17.3-20.9-27.7-32.6-21-21.4-4-11.4 14-11.4 14-16.7 2-23.3 21.7-22.7 24-17.3-13.6-35.3 22.7-27.3 24-5.7 2.4-4.7 5.8-5.5 8.7-31.5 1.7-19.7 23.4-17.9 30-39 11.4-5.6 33.3 3.2 42.7-3.6 10.8-2.6 33.7 20.8 50.7-12.3 13.3-10.5 19.9-6 26.7 4.9 7.4 21.5 15.4 28.7 20.7 9.7 57.3 103.7 166.3 183.4 139.3 4.1 3.9 9 17.8 14.6 17.4 26.4-2.1 23.7-18.8 32.6-20.6 40.3-8.3 131.9-89.3 149-140.6 13.5-40.7-28.1-134.8-19.7-177 1.9-9.6 15.3-27.9 19.1-37z"/>
  <path fill="#936565" d="M411.15 72.64c3.5 28 17.86 21.47 25.5 19 23.38-2 20.25-27.37 11.63-34.25-10.4-8.3-19.63 8.5-37.13 15.2z"/>
  <path fill="#BF9582" d="M443.37 59.05c1.88-.43 6.25-1.78 8.22-1.47 3.9.63 5.3.5 15.6 1.7.9.1 2.9 1.85 3.4 1.12 1.2-9.36-9.8-18.35-16-18.88-4.1-.35-10.4 6.92-12.4 10.5-.7 1.25-.6 6.1 1 7.03z"/>
  <path fill="#936565" d="M423.03 17.58c-1-4.27-.45-16.52 3.94-16.3 2.62.1 8.46-1.9 9.67-1.08 1.75 1.2 1.06 5.12.92 5.62-.08.28-.2.97.08.64 1.4-1.63 3.92-2.75 5.14-1.96 1.97 1.3.56 3.22-.47 5.88 0 .22.1.92.3.7 2-2.08 4.8-3.75 6.4-2.25 2.3 2.15-.6 6.82-1.9 9.5-.1.2.5-.06.7-.1 3.3-.5 3.5-1.3 5.6-.34 5.8 2.8 14.6 18.8 10.3 23.6-2.6 2.9-11.8-.6-15.5-1.9-7.5-2.7-23-14.3-24.8-22.1z"/>
  <linearGradient id="a" x1="235.37" x2="235.37" y2="521.89" gradientUnits="userSpaceOnUse">
    <stop offset="0" stop-color="#FFF" stop-opacity="0"/>
    <stop offset="1" stop-color="#3F4568"/>
  </linearGradient>
  <path fill="url(#a)" d="M458.23 42.52c2.23.26 4.18.08 5.17-1 4.34-4.77-4.45-20.83-10.25-23.63-2.03-1-2.23-.2-5.55.3-.2 0-.73.3-.63.1 1.28-2.7 4.24-7.4 1.93-9.5-1.6-1.5-4.4.1-6.34 2.2-.23.2-.34-.5-.25-.7 1.1-2.7 2.5-4.6.5-5.9-1.2-.8-3.7.3-5.1 1.9-.3.3-.1-.4-.1-.7.2-.5.9-4.4-.9-5.6-1.2-.9-7 1.2-9.6 1-4.4-.2-4.9 12-3.9 16.3.1.2.1.4.2.6-18.3-1.2-48.7 6.2-60 16.2-50 44.3-27 69.4-37.7 90.9-6.2 12.4-15.5 38-27.1 45.7-10.2 6.8-12.5 10.1-48.1 15.6-43.3-6.7-64.3 17-84 2.4-3-2.3-1.1-11.5 0-15 18-58.4 2.3-161.9-36-152.4-8 2 8.4 27.6 5.6 37.7-4-17.4-20.9-27.7-32.5-21.1-21.3-4-11.3 14-11.3 14-16.7 2-23.3 21.6-22.7 24C52 62.6 34 99 42 100.3c-5.67 2.3-4.68 5.8-5.5 8.7-31.5 1.7-19.7 23.4-17.83 30-39 11.4-5.52 33.3 3.2 42.7-3.6 10.8-2.5 33.7 20.8 50.7-12.3 13.4-10.5 20-6 26.7 4.97 7.3 21.6 15.4 28.7 20.7 9.54 57.4 103.54 166.4 183.2 139.4.8.75 1.6 1.9 2.48 3.22-3.46 10.6-12.12 61.2-13.9 61.8-1.94.6-21.9 10.4-18.9 15.8 7.18-1.5 12.98-7 17.1-5.2.3 10.3 2 16.5 22.8 27.2.8-3.2-1.8-9.7-7.7-13.3 6.02-1.6 34.7 3.5 42.52 3.1-12.74-14.7-35.74-14.1-37.34-16.4-8.4-11.8-1.2-49.2 7.07-58.9h.55c8.6-.7 14.1-2.9 17.9-5.7-.2 18.6-.1 41.9-1.2 42.5-1.8 1-19.55 14.3-15.6 19 6.8-2.75 11.45-9.3 15.8-8.33 2.3 10.1 5.1 15.9 27.5 22.4.28-3.3-3.6-9.2-10.03-11.6 5.65-2.7 34.74 5.5 42.4 3.6-15.35-12.1-37.88-15.7-39.8-17.6-8.2-7.8-11.9-41.1-10.1-60.5 1.6-2.3 3.22-4.1 5.8-4.6 40.33-8.3 131.92-89.3 149-140.7 13.56-40.8-28.1-134.9-19.67-177 .26-1.3.7-2.6 1.26-4.1 3.8-.1 7.5-1.6 10.3-2.5 23-2 20.3-26.5 12-33.9 1.1-.2 2.2-.3 2.9-.2 3.9.6 5.3.5 15.7 1.7.9.1 2.9 1.8 3.4 1.1 1-7.7-6.3-15.2-12.4-17.9zm-4.48-.95c-.43.07-.88.2-1.34.4.1-.26.1-.5.1-.76l1.3.4z" opacity=".3"/>
</svg>
