<svg xmlns="http://www.w3.org/2000/svg" width="336.67" height="210">
  <path fill="#BFB5A9" d="M308.95 21.1c-.44-.2-5.1 6.43-4.13 9.2.36 1.03 3.54 2.75 4.62 2.1 5.7-3.47 6.1-22.14-.5-11.3z"/>
  <path fill="#3D2D1E" d="M58.3 196.5c2.56 1.58 10.27 2.46 12 0 2.56-3.6-14.44-28.36-15.76-33-4.05-14.17 9.7-48.1-.23-59-.6-.72-30.9 8.95-34.6 17.97-4.2 10.2 14 26.82 14.7 28.04 9.2 15.6 17.5 34.4 24 46z"/>
  <path fill="#BFB5A9" d="M43.64 82.57c-8.85.94-13.87 13.95-16.25 20.98-2.8 8.1-6.2 20.7-1.4 28.72 1.4 2.34 3.7 4.25 6 5.6 1.4.78 2.8 1.4 4.4 1.88 3.9 1.2 1.3 1.4 3.6 4.1 1.5 1.88 3.7.33 4.8-1.1 3.5-4.6 2.9.42 5.6 2.37 4 2.9 4-4.98 6.1-5.46.6-.02 1.8 5.04 4.5 4.64 2.2-.3 3.1-3.46 2.7-5.36 0-.1.1-3.77 1.4-1.27.8 1.76 3.4 4.77 5.7 4 1.7-.7 1.9-2.66 1.7-4.3-.6-4.43-.8-3.04 3.7-6.1 8.2-5.54 8.1-12.34 7.7-21.4-1.2-23.02-19.7-29.5-40.5-27.3-13.3 1.4 44.6-4.72 0 0z"/>
  <path fill="#3D2D1E" d="M182.64 122.68c1 9.67 2.12 22.55 3.67 30.83.8 4.2 3.4 12.2 3.7 16.4.5 6-2.4 22.5 1 27.4 1.5 2.1 9.6 1.1 11.7-.3 15.5-10.4 3.7-73.1 3.4-74.4-.3-1.3-23.9-5.9-23.3.2zM7.32 101.56c1.55-14.05 6.94 2.7 6.98 3.02s.77 6.6 1 8.8c1.02 9.6-6.54 33.58-8.37 35.57-1.04 1.13-2.6-27.6-2.63-28.8-.14-4.72 2.5-13.92 3.02-18.6z"/>
  <path fill="#664926" d="M13.05 67c1.25 5.76 5.34 22.35 4.67 38.76-.3 7.82-11.6 17.67-10.6 25.42 3.13 23.88 3.27 58.25 10.02 70.5 2.1 1.78 10.4 1.93 12.17-.17.5-12.7-8.6-19.2-6.2-43.2 1.3-12.6 11.9-29.5 17.8-40.7 5.9-11.4 29.9-19.9 37.5-13.8 3.7 2.9 2 16.8 4.6 20.7 4.5 6.6 21.2 8.7 29.1 9.9 19.7 2.9 66.2-14 81.5-1.3 4 24 5.2 56.4 6.7 71.4 2 2.2 15.6 4.8 14.7-.4-3.1-19.6-4-31.8-.5-43.5 1.7-5.5 1.2-16 1.5-22.2 4.3 0 25.8-7.4 34.7-20.9 5.3-8 17.2-28.9 26.6-28.9 9.5.1 29.2 3.2 37.3 8.8 7.1 4.9 18.9-2.6 17.9-9.5-.1-1-10.9-24.5-13-33.4-.4-1.7.3-5.5-.7-7-10-14.6-8.4-27-13.7-26-6.9 1.3-5.5 6.4-6.1 5.1-.6-.9-3-7.5-6.5-8.1-6.1-1.2-6 8.8-5 10.6-59.9 2.5-54.1-4.5-73.1-7.8-32.2-5.7-106.7 3.6-138.5-4.5C65.3 14 51.6 12.3 41 12c-17.5-.48-22.8 7.9-27.5 14.6-.5.73-5.5 6.3-6.2 8.54-.2.8 3.9 16.7 1.5 41.8-3.7 38.8 7.2 33.3 5.7 27.9-2.7-9.8-1.2-37.6-1.2-37.4z"/>
  <path fill="#BFB5A9" d="M312.83 3.3c-.35-.33-.14.05 0 .32 6.16 11.5-11.7 19.6-11.7 22.56 0 1.08 2.5 4 3.67 3.5 4.24-1.84 18.57-17.37 8.03-26.37z"/>
  <linearGradient id="a" x1="168.33" x2="168.33" y1="-29" y2="299.07" gradientUnits="userSpaceOnUse">
    <stop offset="0" stop-color="#FFF" stop-opacity="0"/>
    <stop offset="1"/>
  </linearGradient>
  <path fill="url(#a)" d="M332.3 87.58c-.14-1-10.92-24.57-13-33.4-.4-1.7.33-5.55-.66-7-4.13-6-6.3-11.63-7.76-16.1 2.17-2.7 3.17-7.77 2.86-10.8 3.24-5.47 4.73-12.15-.9-16.97-.36-.3-.15.1 0 .4 3.97 7.5-2.07 13.5-6.85 17.6-.4-.1-.7-.1-1.1 0-6.9 1.3-5.5 6.4-6.1 5.1-.7-.8-3.1-7.4-6.5-8.1-6.2-1.2-6.1 8.8-5.1 10.6-59.9 2.5-54.2-4.5-73.1-7.8-32.3-5.7-106.8 3.6-138.5-4.5-10.5-2.7-24.3-4.4-34.9-4.7-17.5-.4-22.9 8-27.5 14.6-.6.8-5.6 6.3-6.3 8.6-.3.8 3.8 16.7 1.5 41.8-.9 9.5-1 16.3-.5 21.2-.3.9-.6 2.2-.8 3.9-.5 4.7-3.2 13.9-3 18.6 0 1.2 1.5 29.96 2.6 28.8.4-.4 1-1.7 1.7-3.6 1.9 21.7 3 46.37 8.5 56.3 2.1 1.8 10.4 1.98 12.1-.13.5-12.7-8.7-19.2-6.3-43.2.4-4.64 2.2-9.9 4.5-15.2 3.4 4 6.5 7 6.7 7.5 9.2 15.6 17.5 34.33 24 46 2.6 1.6 10.3 2.44 12 0 2.6-3.6-14.4-28.4-15.7-33-1.6-5.4-.5-13.7.8-22.45.3-.7.7-1.3 1.2-1.4.7 0 1.86 5.07 4.54 4.67 2.2-.3 3.1-3.4 2.7-5.3.06-.1.17-3.73 1.4-1.2.86 1.75 3.4 4.8 5.74 4 1.73-.7 1.92-2.67 1.7-4.3-.6-4.44-.8-3.05 3.7-6.1 3.2-2.16 5.16-4.5 6.3-7.1l.13.2c4.47 6.55 21.2 8.7 29.06 9.8 16.32 2.4 51.1-8.8 71.23-5.43.85 8.5 1.8 18.14 3.06 24.8.77 4.1 3.35 12.14 3.66 16.3.44 6-2.5 22.5 1 27.4 1 1.46 5.4 1.4 8.6.7.15 2.37.33 4.5.52 6.36 2 2.1 15.5 4.7 14.7-.47-3.2-19.7-4-31.8-.5-43.5 1.6-5.5 1.12-16.1 1.5-22.3 4.3-.1 25.8-7.45 34.62-20.9 5.3-8 17.13-28.94 26.6-28.87 9.5 0 29.14 3.1 37.3 8.7 7.02 4.85 18.9-2.6 17.9-9.5zM17.73 105.76c-.1 2.26-1.1 4.7-2.46 7.2-.23-2.07-.7-6.18-.9-7.75 0-.1 0-.2-.03-.3l-.03-.3s0-.2-.1-.4c-2.6-10.1-1.1-37.3-1.1-37.1 1.3 5.8 5.4 22.4 4.7 38.8z" opacity=".5"/>
</svg>
